<svg xmlns="http://www.w3.org/2000/svg" viewBox="0 0 29.5 42.61"><path d="M4,19.54a4.13,4.13,0,0,1-1.79-.42A4,4,0,0,1,.42,13.75h0L6.19,2.21A4,4,0,0,1,11.56.42h0a4,4,0,0,1,1.79,5.37h0L7.58,17.33A4,4,0,0,1,4,19.54Z" transform="translate(0 0)" fill="#1a62a3"/><path d="M11.87,29.5a4,4,0,0,1-1.79-7.58l10.49-5.25a4,4,0,0,1,5.37,1.79h0a4,4,0,0,1-1.79,5.37h0L13.66,29.07A3.87,3.87,0,0,1,11.87,29.5Z" transform="translate(0 0)" fill="#1a62a3"/><path d="M25.5,42.61H14a4,4,0,0,1,0-8H25.5a4,4,0,0,1,0,8Z" transform="translate(0 0)" fill="#1a62a3"/></svg>