<svg xmlns="http://www.w3.org/2000/svg" viewBox="0 0 301 319"><path d="M17.5,277.6A17.46,17.46,0,0,1,0,260.1V98.9a17.5,17.5,0,0,1,35,0V260.1A17.46,17.46,0,0,1,17.5,277.6Z" fill="#1c2a55"/><path d="M118.3,227.2a17.46,17.46,0,0,1-17.5-17.5V129.2a17.5,17.5,0,0,1,35,0v80.5A17.46,17.46,0,0,1,118.3,227.2Z" fill="#1c2a55"/><path d="M283.5,313.2A17.46,17.46,0,0,1,266,295.7V108.8a17.5,17.5,0,0,1,35,0V295.7A17.46,17.46,0,0,1,283.5,313.2Z" fill="#aecdd9"/><path d="M66.8,319a17.46,17.46,0,0,1-17.5-17.5V63.7a17.5,17.5,0,0,1,35,0V301.5A17.46,17.46,0,0,1,66.8,319Z" fill="#e99214"/><path d="M169.3,290a17.46,17.46,0,0,1-17.5-17.5V17.5a17.5,17.5,0,0,1,35,0v255A17.46,17.46,0,0,1,169.3,290Z" fill="#aecdd9"/><path d="M222.3,308.5A17.46,17.46,0,0,1,204.8,291V134a17.5,17.5,0,0,1,35,0V291A17.46,17.46,0,0,1,222.3,308.5Z" fill="#339cd1"/></svg>