<svg xmlns="http://www.w3.org/2000/svg" viewBox="0 0 2069.81 319"><line x1="17.5" y1="260.1" x2="17.5" y2="98.9" fill="none" stroke="#1c2a55" stroke-linecap="round" stroke-miterlimit="10" stroke-width="35"/><line x1="118.3" y1="209.7" x2="118.3" y2="129.2" fill="none" stroke="#1c2a55" stroke-linecap="round" stroke-miterlimit="10" stroke-width="35"/><line x1="283.5" y1="295.7" x2="283.5" y2="108.8" fill="none" stroke="#aecdd9" stroke-linecap="round" stroke-miterlimit="10" stroke-width="35"/><line x1="66.8" y1="301.5" x2="66.8" y2="63.7" fill="none" stroke="#e99214" stroke-linecap="round" stroke-miterlimit="10" stroke-width="35"/><line x1="169.3" y1="272.5" x2="169.3" y2="17.5" fill="none" stroke="#aecdd9" stroke-linecap="round" stroke-miterlimit="10" stroke-width="35"/><line x1="222.3" y1="291" x2="222.3" y2="134" fill="none" stroke="#339cd1" stroke-linecap="round" stroke-miterlimit="10" stroke-width="35"/><path d="M440.8,203.8c4.5-.9,15.4,14.1,18.5,16.4-18.2,25-57.4,29.1-84.8,17.9-27.7-11.1-42.7-41.3-42.1-70.2-.8-29.4,15.9-59.5,44.1-70.3,26.6-10.5,60.6-6.8,81.1,14.1-5.1,4.9-12.6,23.8-22.1,18.5-12.8-9.3-29.8-13.4-44.8-6.8-28,13.6-29.5,57.2-11.5,79.6,10.5,12.5,28.6,14.8,43.6,10.4C429.8,212.2,433.9,204.7,440.8,203.8Z" fill="#040000"/><path d="M500.2,152.8c6.3-13.4,24.1-24.4,37.5-15l-2,23.3c-1,6-8.5,3.3-12.7,3.2-10.2-1.6-17.4,5.1-20.8,13.7v64.3H470.6V136.4c5,.6,21.3-1.6,25.4,1.7C499.2,141,499.2,148.9,500.2,152.8Z" fill="#040000"/><path d="M572.6,195c.8,23.3,23.5,31.1,41.5,20.9,15.1-9.9,17.1-.7,26.1,9.8-20.2,22.7-61.3,24.9-83.4,3.8-38.7-42.3-2.9-111.3,55.7-91.4,20.7,7,30.6,30.3,28,51a6,6,0,0,1-6.8,5.9C633.7,194.9,572.6,195,572.6,195Zm39.8-18.4c.6-27.2-37.5-26.2-39.4,0Z" fill="#040000"/><path d="M654.2,151.2c20-17.5,55.9-25.1,76.6-5,19,16.4,8.7,74.3,11.2,96.1-4.9-.4-16.9,1-21.3-1.2-2.9-1.2-4.8-7.9-6.1-10.9-16.2,16.5-51.9,21.6-63-2.8-12.6-35.6,29.8-47,59.5-46.6,2.6-26.5-18.4-25.8-35.7-15.3C663.8,170.7,658.8,159.5,654.2,151.2Zm56.9,48c-53.8-.5-29.9,42.6,0,14.7Z" fill="#040000"/><path d="M874.9,242.2H843.3v-84H799v52.5c.2,10.4,8.1,9.2,15.3,6.1,4.3-.5,11.2,15.3,13.7,17.8-12,8.7-28.7,11.7-42.9,7-11.9-4-18.1-16.7-17.7-28.8V158.2c-18.6,1.3-14.5-3.6-14.9-18.6l16.8-3.4c9.3-30.9-1.2-31.4,29.7-30.6v30.9h75.9Zm4.3-134.8c-.3,23.9-38,24.2-38.2,0C841.3,83,878.9,83.2,879.2,107.4Z" fill="#040000"/><path d="M996.7,136.4l-41,105.8H926.9l-41-105.8c7,1.3,32.5-4.1,35.1,5.5,4.5,15.7,17.7,54.3,20.7,69.8,3-15.4,16.9-54.2,21.5-69.8C965.5,132.5,990,137.7,996.7,136.4Z" fill="#040000"/><path d="M1029.4,195c.8,23.3,23.5,31.1,41.5,20.9,15.1-9.9,17.1-.7,26.1,9.8-20.2,22.7-61.3,24.9-83.4,3.8-38.7-42.3-2.9-111.3,55.7-91.4,20.7,7,30.6,30.3,28,51a6,6,0,0,1-6.8,5.9C1090.4,194.9,1029.4,195,1029.4,195Zm39.8-18.4c.6-27.2-37.5-26.2-39.4,0Z" fill="#040000"/><path d="M1264.3,203.8c4.5-.9,15.4,14.1,18.5,16.4-18.2,25-57.4,29.1-84.8,17.9-27.7-11.1-42.7-41.3-42-70.2-2.1-67.4,77.1-100.4,125.1-56-5.1,4.9-12.6,23.7-22,18.6-12.8-9.3-29.8-13.4-44.8-6.8-23.5,10.8-26.9,42.3-19.9,64.6,6.8,24.5,37,34.5,58.4,22.5C1256.7,208.7,1259.5,204,1264.3,203.8Z" fill="#040000"/><path d="M1340.7,134.8c41.9-1.7,63.8,40.4,49.9,77.1-14.8,42.8-85.3,42.6-100.3,0C1276.3,174.9,1298.7,133.2,1340.7,134.8Zm0,85.6c17.6-.5,20.9-13.7,21.2-31.1-.3-17.4-3.6-30.5-21.2-31-17.9.4-21.3,13.4-21.6,31C1319.4,206.9,1322.8,220,1340.7,220.4Z" fill="#040000"/><path d="M1439.6,147.9c14.6-15.5,42.8-18.8,57.4-1.7,16.4,16.8,6.9,75.1,9.3,96h-31.6V175c1-20.5-21.8-19.7-32.6-8.2v75.5h-31.6V136.4h19.6C1436.8,135.9,1438.3,142.9,1439.6,147.9Z" fill="#040000"/><path d="M1604.5,161.6c-5.6,8.6-13.9-.3-20.5-2.4-31.4-10.1-36.6,35.6-24.4,53.2,8,11.8,25.2,9.8,34.5.6,8.4-6.3,15,8,19.6,12.6-34.4,36.6-94.4,16-92.5-36.6-2.3-50.2,57.4-72.1,91.6-38.6Z" fill="#040000"/><path d="M1661.6,107.5c-.5,23.9-37.9,24.1-38.2,0C1623.5,83.1,1661.3,83.3,1661.6,107.5Zm-3.3,29V242.2h-31.6V136.4Z" fill="#040000"/><path d="M1706.5,195c.8,23.3,23.5,31.1,41.5,20.9,15.1-10,17.1-.7,26.1,9.8-20.2,22.7-61.3,24.9-83.3,3.8-38.7-42.3-2.9-111.2,55.7-91.3,20.7,7,30.6,30.3,28,51a5.92,5.92,0,0,1-6.8,5.9C1767.5,195,1706.5,195,1706.5,195Zm39.7-18.4c.6-27.2-37.5-26.2-39.4,0Z" fill="#040000"/><path d="M1820,152.8c6.3-13.4,24.1-24.4,37.5-15l-2,23.3c-1,6-8.5,3.3-12.7,3.2-10.2-1.6-17.4,5.1-20.8,13.7v64.3h-31.6V136.4c5,.6,21.3-1.6,25.4,1.7C1819,141,1818.9,148.9,1820,152.8Z" fill="#040000"/><path d="M1964.2,139.7c0,15.2,2.5,16.9-14.1,19.8,9.2,30.4-24.7,48.4-50.9,43-20.1,18.7,50.8,1.9,60.2,25.7,15.8,41.3-40,57.5-71.2,48.1-24.6-3.8-39.9-33.6-11.2-44.7-14.6-8.3-8.2-29.2,5.8-34.3-28.1-14-21-53.4,8.6-60.3,13.4-3.8,28.4-3.3,41.1,2.7ZM1933,246.1c-1.7-12.2-28.2-7.3-37.5-9.5-10.4,6.3-8.2,18.5,4.3,19.5C1909.8,256.8,1931.6,260.1,1933,246.1Zm-24.5-62.3c19.8,1.7,19.9-30,0-27.8C1888,154.1,1889.2,185.4,1908.5,183.8Z" fill="#040000"/><path d="M2001.4,195c.9,23.3,23.5,31.1,41.5,20.9,15.1-10,17.1-.7,26.1,9.8-20.2,22.7-61.3,24.9-83.3,3.8-38.7-42.3-2.9-111.3,55.7-91.4,20.7,7,30.6,30.3,28,51a6,6,0,0,1-6.8,5.9C2062.5,194.9,2001.4,195,2001.4,195Zm39.8-18.4c.6-27.2-37.5-26.2-39.4,0Z" fill="#040000"/></svg>