<?xml version="1.0" encoding="utf-8"?>
<!-- Generator: Adobe Illustrator 25.4.1, SVG Export Plug-In . SVG Version: 6.00 Build 0)  -->
<svg version="1.1" id="レイヤー_1" xmlns="http://www.w3.org/2000/svg" xmlns:xlink="http://www.w3.org/1999/xlink" x="0px"
	 y="0px" viewBox="0 0 735 411" style="enable-background:new 0 0 735 411;" xml:space="preserve">
<style type="text/css">
	.st0{fill:#F7F6F4;}
	.st1{fill:#1C2A55;}
	.st2{fill:#AECDD9;}
	.st3{fill:#E99214;}
	.st4{fill:#339CD1;}
	.st5{fill:#040000;}
	.st6{fill:#1A62A3;}
	.st7{fill:#FFFFFF;}
	.st8{fill:none;}
</style>
<g transform="matrix(1, 0, 0, 1, 583, 1139)">
	<path id="パス_9595-2_00000070106024556971292540000014043027887482775223_" class="st0" d="M-583-1139h735v411h-735V-1139z"/>
</g>
<g>
	<g>
		<path class="st1" d="M124.6,234.1c-2.3,0-4.2-1.9-4.2-4.2v-38.4c0-2.3,1.9-4.2,4.2-4.2s4.2,1.9,4.2,4.2v38.4
			C128.7,232.3,126.9,234.1,124.6,234.1z"/>
	</g>
	<g>
		<path class="st1" d="M148.6,222.1c-2.3,0-4.2-1.9-4.2-4.2v-19.2c0-2.3,1.9-4.2,4.2-4.2s4.2,1.9,4.2,4.2v19.2
			C152.8,220.2,150.9,222.1,148.6,222.1z"/>
	</g>
	<g>
		<path class="st2" d="M188,242.6c-2.3,0-4.2-1.9-4.2-4.2v-44.5c0-2.3,1.9-4.2,4.2-4.2s4.2,1.9,4.2,4.2v44.5
			C192.1,240.8,190.3,242.6,188,242.6z"/>
	</g>
	<g>
		<path class="st3" d="M136.3,244.1c-2.3,0-4.2-1.9-4.2-4.2v-56.7c0-2.3,1.9-4.2,4.2-4.2s4.2,1.9,4.2,4.2v56.7
			C140.5,242.1,138.6,244.1,136.3,244.1z"/>
	</g>
	<g>
		<path class="st2" d="M160.7,237.1c-2.3,0-4.2-1.9-4.2-4.2v-60.8c0-2.3,1.9-4.2,4.2-4.2s4.2,1.9,4.2,4.2v60.8
			C164.9,235.2,163,237.1,160.7,237.1z"/>
	</g>
	<g>
		<path class="st4" d="M173.4,241.6c-2.3,0-4.2-1.9-4.2-4.2V200c0-2.3,1.9-4.2,4.2-4.2s4.2,1.9,4.2,4.2v37.4
			C177.5,239.6,175.7,241.6,173.4,241.6z"/>
	</g>
	<g>
		<path class="st5" d="M225.4,216.6c1.1-0.2,3.7,3.4,4.4,3.9c-4.3,6-13.7,6.9-20.2,4.3c-6.6-2.6-10.2-9.8-10-16.7
			c-0.2-7,3.8-14.2,10.5-16.8c6.3-2.5,14.4-1.6,19.3,3.4c-1.2,1.2-3,5.7-5.3,4.4c-3-2.2-7.1-3.2-10.7-1.6c-6.7,3.2-7,13.6-2.7,19
			c2.5,3,6.8,3.5,10.4,2.5C222.8,218.6,223.8,216.8,225.4,216.6z"/>
	</g>
	<g>
		<path class="st5" d="M239.6,204.4c1.5-3.2,5.7-5.8,8.9-3.6l-0.5,5.6c-0.2,1.4-2,0.8-3,0.8c-2.4-0.4-4.1,1.2-5,3.3v15.3h-7.5v-25.2
			c1.2,0.1,5.1-0.4,6.1,0.4C239.3,201.6,239.3,203.6,239.6,204.4z"/>
	</g>
	<g>
		<path class="st5" d="M256.8,214.4c0.2,5.6,5.6,7.4,9.9,5c3.6-2.4,4.1-0.2,6.2,2.3c-4.8,5.4-14.6,5.9-19.9,0.9
			c-9.2-10.1-0.7-26.5,13.3-21.8c4.9,1.7,7.3,7.2,6.7,12.2c0,0.8-0.7,1.4-1.4,1.4c-0.1,0-0.1,0-0.2,0H256.8z M266.3,210.1
			c0.1-6.5-8.9-6.2-9.4,0H266.3z"/>
	</g>
	<g>
		<path class="st5" d="M276.3,204.1c4.8-4.2,13.3-6,18.3-1.2c4.5,3.9,2.1,17.7,2.7,22.9c-1.2-0.1-4,0.2-5.1-0.3
			c-0.7-0.3-1.1-1.9-1.5-2.6c-3.9,3.9-12.4,5.1-15-0.7c-3-8.5,7.1-11.2,14.2-11.1c0.6-6.3-4.4-6.1-8.5-3.6
			C278.6,208.8,277.4,206.1,276.3,204.1z M289.8,215.4c-12.8-0.1-7.1,10.2,0,3.5V215.4z"/>
	</g>
	<g>
		<path class="st5" d="M328.9,225.8h-7.5v-20h-10.6v12.5c0,2.5,1.9,2.2,3.6,1.5c1-0.1,2.7,3.6,3.3,4.2c-2.9,2.1-6.8,2.8-10.2,1.7
			c-2.8-1-4.3-4-4.2-6.9v-13c-4.4,0.3-3.5-0.9-3.6-4.4l4-0.8c2.2-7.4-0.3-7.5,7.1-7.3v7.4h18.1L328.9,225.8z M329.9,193.6
			c-0.1,5.7-9.1,5.8-9.1,0C320.9,187.8,329.8,187.8,329.9,193.6z"/>
	</g>
	<g>
		<path class="st5" d="M357.9,200.6l-9.8,25.2h-6.9l-9.8-25.2c1.7,0.3,7.7-1,8.4,1.3c1.1,3.7,4.2,12.9,4.9,16.6
			c0.7-3.7,4-12.9,5.1-16.6C350.5,199.6,356.3,200.8,357.9,200.6z"/>
	</g>
	<g>
		<path class="st5" d="M365.7,214.4c0.2,5.6,5.6,7.4,9.9,5c3.6-2.4,4.1-0.2,6.2,2.3c-4.8,5.4-14.6,5.9-19.9,0.9
			c-9.2-10.1-0.7-26.5,13.3-21.8c4.9,1.7,7.3,7.2,6.7,12.2c0,0.8-0.7,1.4-1.4,1.4c-0.1,0-0.1,0-0.2,0
			C380.2,214.4,365.7,214.4,365.7,214.4z M375.2,210.1c0.1-6.5-8.9-6.2-9.4,0H375.2z"/>
	</g>
	<g>
		<path class="st5" d="M421.7,216.6c1.1-0.2,3.7,3.4,4.4,3.9c-4.3,6-13.7,6.9-20.2,4.3c-6.6-2.6-10.2-9.8-10-16.7
			c-0.5-16.1,18.4-23.9,29.8-13.3c-1.2,1.2-3,5.6-5.2,4.4c-3-2.2-7.1-3.2-10.7-1.6c-5.6,2.6-6.4,10.1-4.7,15.4
			c1.6,5.8,8.8,8.2,13.9,5.4C419.8,217.8,420.5,216.6,421.7,216.6z"/>
	</g>
	<g>
		<path class="st5" d="M439.9,200.1c10-0.4,15.2,9.6,11.9,18.4c-3.5,10.2-20.3,10.2-23.9,0C424.5,209.8,429.8,199.8,439.9,200.1z
			 M439.9,220.6c4.2-0.1,5-3.3,5.1-7.4c-0.1-4.1-0.9-7.3-5.1-7.4c-4.3,0.1-5.1,3.2-5.1,7.4S435.6,220.4,439.9,220.6z"/>
	</g>
	<g>
		<path class="st5" d="M463.4,203.2c3.5-3.7,10.2-4.5,13.7-0.4c3.9,4,1.6,17.9,2.2,22.9h-7.5v-16c0.2-4.9-5.2-4.7-7.8-2v18h-7.5
			v-25.2h4.7C462.8,200.4,463.1,202.1,463.4,203.2z"/>
	</g>
	<g>
		<path class="st5" d="M502.7,206.6c-1.3,2-3.3-0.1-4.9-0.6c-7.5-2.4-8.7,8.5-5.8,12.7c1.9,2.8,6,2.3,8.2,0.1c2-1.5,3.6,1.9,4.7,3
			c-8.2,8.7-22.5,3.8-22-8.7c-0.5-12,13.7-17.2,21.8-9.2L502.7,206.6z"/>
	</g>
	<g>
		<path class="st5" d="M516.3,193.6c-0.1,5.7-9,5.7-9.1,0C507.2,187.8,516.2,187.8,516.3,193.6z M515.5,200.6v25.2H508v-25.2H515.5z
			"/>
	</g>
	<g>
		<path class="st5" d="M527,214.4c0.2,5.6,5.6,7.4,9.9,5c3.6-2.4,4.1-0.2,6.2,2.3c-4.8,5.4-14.6,5.9-19.8,0.9
			c-9.2-10.1-0.7-26.5,13.3-21.8c4.9,1.7,7.3,7.2,6.7,12.2c0,0.8-0.6,1.4-1.4,1.4c-0.1,0-0.1,0-0.2,0S527,214.4,527,214.4z
			 M536.5,210.1c0.1-6.5-8.9-6.2-9.4,0H536.5z"/>
	</g>
	<g>
		<path class="st5" d="M554.1,204.4c1.5-3.2,5.7-5.8,8.9-3.6l-0.5,5.6c-0.2,1.4-2,0.8-3,0.8c-2.4-0.4-4.1,1.2-5,3.3v15.3H547v-25.2
			c1.2,0.1,5.1-0.4,6.1,0.4C553.8,201.6,553.8,203.6,554.1,204.4z"/>
	</g>
	<g>
		<path class="st5" d="M588.4,201.3c0,3.6,0.6,4-3.4,4.7c2.2,7.2-5.9,11.5-12.1,10.2c-4.8,4.5,12.1,0.5,14.3,6.1
			c3.8,9.8-9.5,13.7-17,11.5c-5.9-0.9-9.5-8-2.7-10.7c-3.5-2-2-7,1.4-8.2c-6.7-3.3-5-12.7,2-14.4c3.2-0.9,6.8-0.8,9.8,0.6h7.7
			L588.4,201.3L588.4,201.3z M581,226.6c-0.4-2.9-6.7-1.7-8.9-2.3c-2.5,1.5-2,4.4,1,4.6C575.5,229.2,580.7,230.1,581,226.6z
			 M575.1,211.8c4.7,0.4,4.7-7.1,0-6.6C570.3,204.8,570.6,212.2,575.1,211.8z"/>
	</g>
	<g>
		<path class="st5" d="M597.3,214.4c0.2,5.6,5.6,7.4,9.9,5c3.6-2.4,4.1-0.2,6.2,2.3c-4.8,5.4-14.6,5.9-19.8,0.9
			c-9.2-10.1-0.7-26.5,13.3-21.8c4.9,1.7,7.3,7.2,6.7,12.2c0,0.8-0.7,1.4-1.4,1.4c-0.1,0-0.1,0-0.2,0
			C611.8,214.4,597.3,214.4,597.3,214.4z M606.8,210.1c0.1-6.5-8.9-6.2-9.4,0H606.8z"/>
	</g>
</g>
<g>
	<path id="長方形_4" class="st6" d="M324.4,165.4h88.1c5.5,0,9.9,4.4,9.9,9.9v66.1c0,5.5-4.4,9.9-9.9,9.9h-88.1
		c-5.5,0-9.9-4.4-9.9-9.9v-66.1C314.5,169.8,318.9,165.4,324.4,165.4z"/>
	<path id="多角形_1" class="st6" d="M407.5,211.1c-1.5-1.3-1.6-3.4-0.3-4.8c0.1-0.1,0.2-0.2,0.3-0.3l44.5-38.4
		c1.5-1.3,3.6-1.1,4.8,0.3c0.6,0.6,0.8,1.4,0.8,2.3v77c0,2-1.5,3.4-3.4,3.4c-0.8,0-1.6-0.3-2.3-0.8L407.5,211.1z"/>
	<g>
		<circle class="st7" cx="368.4" cy="209.4" r="24.4"/>
		<circle class="st8" cx="368.4" cy="209" r="24.4"/>
		<circle class="st6" cx="368.4" cy="209" r="18"/>
		<path id="パス_5" class="st7" d="M376.9,209.4l-13.5-8.3v16.6L376.9,209.4z"/>
	</g>
</g>
</svg>
