<?xml version="1.0" encoding="utf-8"?>
<!-- Generator: Adobe Illustrator 25.4.1, SVG Export Plug-In . SVG Version: 6.00 Build 0)  -->
<svg version="1.1" id="レイヤー_1" xmlns="http://www.w3.org/2000/svg" xmlns:xlink="http://www.w3.org/1999/xlink" x="0px"
	 y="0px" viewBox="0 0 735 411" style="enable-background:new 0 0 735 411;" xml:space="preserve">
<style type="text/css">
	.st0{fill:#F8F7F8;}
	.st1{fill:#1C2A55;}
	.st2{fill:#AECDD9;}
	.st3{fill:#E99214;}
	.st4{fill:#339CD1;}
	.st5{fill:#040000;}
	.st6{fill:#FFFFFF;}
	.st7{fill:#63AEF1;}
	.st8{fill:none;}
</style>
<g id="グループ_5425" transform="translate(-583 -1139)">
	<g transform="matrix(1, 0, 0, 1, 583, 1139)">
		<path id="パス_9595-2_00000070106024556971292540000014043027887482775223_" class="st0" d="M0,0h735v411H0V0z"/>
	</g>
	<g>
		<g>
			<path class="st1" d="M710.2,1371.5c-2.3,0-4.2-1.9-4.2-4.2v-38.4c0-2.3,1.9-4.2,4.2-4.2c2.3,0,4.2,1.9,4.2,4.2v38.4
				C714.3,1369.7,712.5,1371.5,710.2,1371.5z"/>
		</g>
		<g>
			<path class="st1" d="M734.2,1359.5c-2.3,0-4.2-1.9-4.2-4.2v-19.2c0-2.3,1.9-4.2,4.2-4.2c2.3,0,4.2,1.9,4.2,4.2v19.2
				C738.4,1357.6,736.5,1359.5,734.2,1359.5z"/>
		</g>
		<g>
			<path class="st2" d="M773.6,1380c-2.3,0-4.2-1.9-4.2-4.2v-44.5c0-2.3,1.9-4.2,4.2-4.2c2.3,0,4.2,1.9,4.2,4.2v44.5
				C777.7,1378.1,775.9,1380,773.6,1380z"/>
		</g>
		<g>
			<path class="st3" d="M721.9,1381.4c-2.3,0-4.2-1.9-4.2-4.2v-56.7c0-2.3,1.9-4.2,4.2-4.2c2.3,0,4.2,1.9,4.2,4.2v56.7
				C726.1,1379.5,724.2,1381.4,721.9,1381.4z"/>
		</g>
		<g>
			<path class="st2" d="M746.3,1374.5c-2.3,0-4.2-1.9-4.2-4.2v-60.8c0-2.3,1.9-4.2,4.2-4.2c2.3,0,4.2,1.9,4.2,4.2v60.8
				C750.5,1372.6,748.6,1374.5,746.3,1374.5z"/>
		</g>
		<g>
			<path class="st4" d="M759,1378.9c-2.3,0-4.2-1.9-4.2-4.2v-37.4c0-2.3,1.9-4.2,4.2-4.2c2.3,0,4.2,1.9,4.2,4.2v37.4
				C763.1,1377,761.3,1378.9,759,1378.9z"/>
		</g>
		<g>
			<path class="st5" d="M811,1353.9c1.1-0.2,3.7,3.4,4.4,3.9c-4.3,6-13.7,6.9-20.2,4.3c-6.6-2.6-10.2-9.8-10-16.7
				c-0.2-7,3.8-14.2,10.5-16.8c6.3-2.5,14.4-1.6,19.3,3.4c-1.2,1.2-3,5.7-5.3,4.4c-3-2.2-7.1-3.2-10.7-1.6c-6.7,3.2-7,13.6-2.7,19
				c2.5,3,6.8,3.5,10.4,2.5C808.4,1355.9,809.4,1354.2,811,1353.9z"/>
		</g>
		<g>
			<path class="st5" d="M825.2,1341.8c1.5-3.2,5.7-5.8,8.9-3.6l-0.5,5.6c-0.2,1.4-2,0.8-3,0.8c-2.4-0.4-4.1,1.2-5,3.3v15.3h-7.5
				v-25.2c1.2,0.1,5.1-0.4,6.1,0.4C824.9,1339,824.9,1340.9,825.2,1341.8z"/>
		</g>
		<g>
			<path class="st5" d="M842.4,1351.8c0.2,5.6,5.6,7.4,9.9,5c3.6-2.4,4.1-0.2,6.2,2.3c-4.8,5.4-14.6,5.9-19.9,0.9
				c-9.2-10.1-0.7-26.5,13.3-21.8c4.9,1.7,7.3,7.2,6.7,12.2c0,0.8-0.7,1.4-1.4,1.4c-0.1,0-0.1,0-0.2,0
				C857,1351.8,842.4,1351.8,842.4,1351.8z M851.9,1347.5c0.1-6.5-8.9-6.2-9.4,0H851.9z"/>
		</g>
		<g>
			<path class="st5" d="M861.9,1341.4c4.8-4.2,13.3-6,18.3-1.2c4.5,3.9,2.1,17.7,2.7,22.9c-1.2-0.1-4,0.2-5.1-0.3
				c-0.7-0.3-1.1-1.9-1.5-2.6c-3.9,3.9-12.4,5.1-15-0.7c-3-8.5,7.1-11.2,14.2-11.1c0.6-6.3-4.4-6.1-8.5-3.6
				C864.2,1346.1,863,1343.4,861.9,1341.4z M875.4,1352.8c-12.8-0.1-7.1,10.2,0,3.5V1352.8z"/>
		</g>
		<g>
			<path class="st5" d="M914.5,1363.1h-7.5v-20h-10.6v12.5c0,2.5,1.9,2.2,3.6,1.5c1-0.1,2.7,3.6,3.3,4.2c-2.9,2.1-6.8,2.8-10.2,1.7
				c-2.8-1-4.3-4-4.2-6.9v-13c-4.4,0.3-3.5-0.9-3.6-4.4l4-0.8c2.2-7.4-0.3-7.5,7.1-7.3v7.4h18.1L914.5,1363.1z M915.5,1331
				c-0.1,5.7-9.1,5.8-9.1,0C906.5,1325.2,915.4,1325.2,915.5,1331z"/>
		</g>
		<g>
			<path class="st5" d="M943.5,1337.9l-9.8,25.2h-6.9l-9.8-25.2c1.7,0.3,7.7-1,8.4,1.3c1.1,3.7,4.2,12.9,4.9,16.6
				c0.7-3.7,4-12.9,5.1-16.6C936.1,1336.9,941.9,1338.2,943.5,1337.9z"/>
		</g>
		<g>
			<path class="st5" d="M951.3,1351.8c0.2,5.6,5.6,7.4,9.9,5c3.6-2.4,4.1-0.2,6.2,2.3c-4.8,5.4-14.6,5.9-19.9,0.9
				c-9.2-10.1-0.7-26.5,13.3-21.8c4.9,1.7,7.3,7.2,6.7,12.2c0,0.8-0.7,1.4-1.4,1.4c-0.1,0-0.1,0-0.2,0
				C965.8,1351.8,951.3,1351.8,951.3,1351.8z M960.8,1347.5c0.1-6.5-8.9-6.2-9.4,0H960.8z"/>
		</g>
		<g>
			<path class="st5" d="M1007.3,1353.9c1.1-0.2,3.7,3.4,4.4,3.9c-4.3,6-13.7,6.9-20.2,4.3c-6.6-2.6-10.2-9.8-10-16.7
				c-0.5-16.1,18.4-23.9,29.8-13.3c-1.2,1.2-3,5.6-5.2,4.4c-3-2.2-7.1-3.2-10.7-1.6c-5.6,2.6-6.4,10.1-4.7,15.4
				c1.6,5.8,8.8,8.2,13.9,5.4C1005.4,1355.1,1006.1,1354,1007.3,1353.9z"/>
		</g>
		<g>
			<path class="st5" d="M1025.5,1337.5c10-0.4,15.2,9.6,11.9,18.4c-3.5,10.2-20.3,10.2-23.9,0
				C1010.1,1347.1,1015.4,1337.1,1025.5,1337.5z M1025.5,1357.9c4.2-0.1,5-3.3,5.1-7.4c-0.1-4.1-0.9-7.3-5.1-7.4
				c-4.3,0.1-5.1,3.2-5.1,7.4C1020.4,1354.7,1021.2,1357.8,1025.5,1357.9z"/>
		</g>
		<g>
			<path class="st5" d="M1049,1340.6c3.5-3.7,10.2-4.5,13.7-0.4c3.9,4,1.6,17.9,2.2,22.9h-7.5v-16c0.2-4.9-5.2-4.7-7.8-2v18h-7.5
				v-25.2h4.7C1048.4,1337.8,1048.7,1339.4,1049,1340.6z"/>
		</g>
		<g>
			<path class="st5" d="M1088.3,1343.9c-1.3,2-3.3-0.1-4.9-0.6c-7.5-2.4-8.7,8.5-5.8,12.7c1.9,2.8,6,2.3,8.2,0.1
				c2-1.5,3.6,1.9,4.7,3c-8.2,8.7-22.5,3.8-22-8.7c-0.5-12,13.7-17.2,21.8-9.2L1088.3,1343.9z"/>
		</g>
		<g>
			<path class="st5" d="M1101.9,1331c-0.1,5.7-9,5.7-9.1,0C1092.8,1325.2,1101.8,1325.2,1101.9,1331z M1101.1,1337.9v25.2h-7.5
				v-25.2L1101.1,1337.9z"/>
		</g>
		<g>
			<path class="st5" d="M1112.6,1351.8c0.2,5.6,5.6,7.4,9.9,5c3.6-2.4,4.1-0.2,6.2,2.3c-4.8,5.4-14.6,5.9-19.8,0.9
				c-9.2-10.1-0.7-26.5,13.3-21.8c4.9,1.7,7.3,7.2,6.7,12.2c0,0.8-0.6,1.4-1.4,1.4c-0.1,0-0.1,0-0.2,0
				C1127.2,1351.8,1112.6,1351.8,1112.6,1351.8z M1122.1,1347.5c0.1-6.5-8.9-6.2-9.4,0H1122.1z"/>
		</g>
		<g>
			<path class="st5" d="M1139.7,1341.8c1.5-3.2,5.7-5.8,8.9-3.6l-0.5,5.6c-0.2,1.4-2,0.8-3,0.8c-2.4-0.4-4.1,1.2-5,3.3v15.3h-7.5
				v-25.2c1.2,0.1,5.1-0.4,6.1,0.4C1139.4,1339,1139.4,1340.9,1139.7,1341.8z"/>
		</g>
		<g>
			<path class="st5" d="M1174,1338.7c0,3.6,0.6,4-3.4,4.7c2.2,7.2-5.9,11.5-12.1,10.2c-4.8,4.5,12.1,0.5,14.3,6.1
				c3.8,9.8-9.5,13.7-17,11.5c-5.9-0.9-9.5-8-2.7-10.7c-3.5-2-2-7,1.4-8.2c-6.7-3.3-5-12.7,2-14.4c3.2-0.9,6.8-0.8,9.8,0.6H1174z
				 M1166.6,1364c-0.4-2.9-6.7-1.7-8.9-2.3c-2.5,1.5-2,4.4,1,4.6C1161.1,1366.6,1166.3,1367.4,1166.6,1364z M1160.7,1349.2
				c4.7,0.4,4.7-7.1,0-6.6C1155.9,1342.1,1156.2,1349.6,1160.7,1349.2z"/>
		</g>
		<g>
			<path class="st5" d="M1182.9,1351.8c0.2,5.6,5.6,7.4,9.9,5c3.6-2.4,4.1-0.2,6.2,2.3c-4.8,5.4-14.6,5.9-19.8,0.9
				c-9.2-10.1-0.7-26.5,13.3-21.8c4.9,1.7,7.3,7.2,6.7,12.2c0,0.8-0.7,1.4-1.4,1.4c-0.1,0-0.1,0-0.2,0
				C1197.4,1351.8,1182.9,1351.8,1182.9,1351.8z M1192.4,1347.5c0.1-6.5-8.9-6.2-9.4,0H1192.4z"/>
		</g>
	</g>
	<g id="グループ_7" transform="translate(896 1316.018)">
		<g id="グループ_6">
			<path id="長方形_4" class="st6" d="M0-4h80c5,0,9,4,9,9v60c0,5-4,9-9,9H0c-5,0-9-4-9-9V5C-9,0-5-4,0-4z"/>
			<path id="多角形_1" class="st6" d="M74.3,36.2c-1.3-1.1-1.4-3-0.3-4.2c0.1-0.1,0.2-0.2,0.3-0.3l38.5-33.3
				c1.3-1.1,3.1-0.9,4.2,0.3c0.5,0.5,0.7,1.2,0.7,2v66.7c0,1.7-1.3,3-3,3c-0.7,0-1.4-0.3-2-0.7L74.3,36.2z"/>
		</g>
		<g id="Component_-_Play" transform="translate(27.696 20.786)">
			<path id="パス_5" class="st7" d="M16.7,13.4L6.1,6.9v13L16.7,13.4z"/>
			<g id="楕円形_2">
				<circle class="st8" cx="10.1" cy="13.1" r="19.1"/>
				<g>
					<path class="st7" d="M10.1,32.2C-0.4,32.2-9,23.7-9,13.1S-0.4-6,10.1-6s19.1,8.6,19.1,19.1S20.7,32.2,10.1,32.2z M10.1-1
						C2.3-1-4,5.3-4,13.1s6.3,14.1,14.1,14.1s14.1-6.3,14.1-14.1S17.9-1,10.1-1z"/>
				</g>
			</g>
		</g>
	</g>
</g>
</svg>
