<?xml version="1.0" encoding="utf-8"?>
<!-- Generator: Adobe Illustrator 25.4.1, SVG Export Plug-In . SVG Version: 6.00 Build 0)  -->
<svg version="1.1" id="レイヤー_1" xmlns="http://www.w3.org/2000/svg" xmlns:xlink="http://www.w3.org/1999/xlink" x="0px"
	 y="0px" viewBox="0 0 735 411" style="enable-background:new 0 0 735 411;" xml:space="preserve">
<style type="text/css">
	.st0{fill:#F8F7F8;}
	.st1{fill:#1C2A55;}
	.st2{fill:#AECDD9;}
	.st3{fill:#E99214;}
	.st4{fill:#339CD1;}
	.st5{fill:#040000;}
	.st6{fill:#FFFFFF;}
	.st7{fill:#63AEF1;}
	.st8{fill:none;}
</style>
<g id="グループ_5425" transform="translate(-583 -1139)">
	<g transform="matrix(1, 0, 0, 1, 583, 1139)">
		<path id="パス_9595-2_00000070106024556971292540000014043027887482775223_" class="st0" d="M0,0h735v411H0V0z"/>
	</g>
	<g>
		<g>
			<path class="st1" d="M707.6,1373.1c-2.3,0-4.2-1.9-4.2-4.2v-38.4c0-2.3,1.9-4.2,4.2-4.2s4.2,1.9,4.2,4.2v38.4
				C711.7,1371.3,709.9,1373.1,707.6,1373.1z"/>
		</g>
		<g>
			<path class="st1" d="M731.6,1361.1c-2.3,0-4.2-1.9-4.2-4.2v-19.2c0-2.3,1.9-4.2,4.2-4.2s4.2,1.9,4.2,4.2v19.2
				C735.8,1359.2,733.9,1361.1,731.6,1361.1z"/>
		</g>
		<g>
			<path class="st2" d="M771,1381.6c-2.3,0-4.2-1.9-4.2-4.2v-44.5c0-2.3,1.9-4.2,4.2-4.2s4.2,1.9,4.2,4.2v44.5
				C775.1,1379.8,773.3,1381.6,771,1381.6z"/>
		</g>
		<g>
			<path class="st3" d="M719.3,1383.1c-2.3,0-4.2-1.9-4.2-4.2v-56.7c0-2.3,1.9-4.2,4.2-4.2s4.2,1.9,4.2,4.2v56.7
				C723.5,1381.1,721.6,1383.1,719.3,1383.1z"/>
		</g>
		<g>
			<path class="st2" d="M743.7,1376.1c-2.3,0-4.2-1.9-4.2-4.2v-60.8c0-2.3,1.9-4.2,4.2-4.2s4.2,1.9,4.2,4.2v60.8
				C747.9,1374.2,746,1376.1,743.7,1376.1z"/>
		</g>
		<g>
			<path class="st4" d="M756.4,1380.6c-2.3,0-4.2-1.9-4.2-4.2v-37.4c0-2.3,1.9-4.2,4.2-4.2s4.2,1.9,4.2,4.2v37.4
				C760.5,1378.6,758.7,1380.6,756.4,1380.6z"/>
		</g>
		<g>
			<path class="st5" d="M808.4,1355.6c1.1-0.2,3.7,3.4,4.4,3.9c-4.3,6-13.7,6.9-20.2,4.3c-6.6-2.6-10.2-9.8-10-16.7
				c-0.2-7,3.8-14.2,10.5-16.8c6.3-2.5,14.4-1.6,19.3,3.4c-1.2,1.2-3,5.7-5.3,4.4c-3-2.2-7.1-3.2-10.7-1.6c-6.7,3.2-7,13.6-2.7,19
				c2.5,3,6.8,3.5,10.4,2.5C805.8,1357.6,806.8,1355.8,808.4,1355.6z"/>
		</g>
		<g>
			<path class="st5" d="M822.6,1343.4c1.5-3.2,5.7-5.8,8.9-3.6l-0.5,5.6c-0.2,1.4-2,0.8-3,0.8c-2.4-0.4-4.1,1.2-5,3.3v15.3h-7.5
				v-25.2c1.2,0.1,5.1-0.4,6.1,0.4C822.3,1340.6,822.3,1342.6,822.6,1343.4z"/>
		</g>
		<g>
			<path class="st5" d="M839.8,1353.4c0.2,5.6,5.6,7.4,9.9,5c3.6-2.4,4.1-0.2,6.2,2.3c-4.8,5.4-14.6,5.9-19.9,0.9
				c-9.2-10.1-0.7-26.5,13.3-21.8c4.9,1.7,7.3,7.2,6.7,12.2c0,0.8-0.7,1.4-1.4,1.4c-0.1,0-0.1,0-0.2,0H839.8z M849.3,1349.1
				c0.1-6.5-8.9-6.2-9.4,0H849.3z"/>
		</g>
		<g>
			<path class="st5" d="M859.3,1343.1c4.8-4.2,13.3-6,18.3-1.2c4.5,3.9,2.1,17.7,2.7,22.9c-1.2-0.1-4,0.2-5.1-0.3
				c-0.7-0.3-1.1-1.9-1.5-2.6c-3.9,3.9-12.4,5.1-15-0.7c-3-8.5,7.1-11.2,14.2-11.1c0.6-6.3-4.4-6.1-8.5-3.6
				C861.6,1347.8,860.4,1345.1,859.3,1343.1z M872.8,1354.4c-12.8-0.1-7.1,10.2,0,3.5V1354.4z"/>
		</g>
		<g>
			<path class="st5" d="M911.9,1364.8h-7.5v-20h-10.6v12.5c0,2.5,1.9,2.2,3.6,1.5c1-0.1,2.7,3.6,3.3,4.2c-2.9,2.1-6.8,2.8-10.2,1.7
				c-2.8-1-4.3-4-4.2-6.9v-13c-4.4,0.3-3.5-0.9-3.6-4.4l4-0.8c2.2-7.4-0.3-7.5,7.1-7.3v7.4h18.1L911.9,1364.8z M912.9,1332.6
				c-0.1,5.7-9.1,5.8-9.1,0C903.9,1326.8,912.8,1326.8,912.9,1332.6z"/>
		</g>
		<g>
			<path class="st5" d="M940.9,1339.6l-9.8,25.2h-6.9l-9.8-25.2c1.7,0.3,7.7-1,8.4,1.3c1.1,3.7,4.2,12.9,4.9,16.6
				c0.7-3.7,4-12.9,5.1-16.6C933.5,1338.6,939.3,1339.8,940.9,1339.6z"/>
		</g>
		<g>
			<path class="st5" d="M948.7,1353.4c0.2,5.6,5.6,7.4,9.9,5c3.6-2.4,4.1-0.2,6.2,2.3c-4.8,5.4-14.6,5.9-19.9,0.9
				c-9.2-10.1-0.7-26.5,13.3-21.8c4.9,1.7,7.3,7.2,6.7,12.2c0,0.8-0.7,1.4-1.4,1.4c-0.1,0-0.1,0-0.2,0
				C963.2,1353.4,948.7,1353.4,948.7,1353.4z M958.2,1349.1c0.1-6.5-8.9-6.2-9.4,0H958.2z"/>
		</g>
		<g>
			<path class="st5" d="M1004.7,1355.6c1.1-0.2,3.7,3.4,4.4,3.9c-4.3,6-13.7,6.9-20.2,4.3c-6.6-2.6-10.2-9.8-10-16.7
				c-0.5-16.1,18.4-23.9,29.8-13.3c-1.2,1.2-3,5.6-5.2,4.4c-3-2.2-7.1-3.2-10.7-1.6c-5.6,2.6-6.4,10.1-4.7,15.4
				c1.6,5.8,8.8,8.2,13.9,5.4C1002.8,1356.8,1003.5,1355.6,1004.7,1355.6z"/>
		</g>
		<g>
			<path class="st5" d="M1022.9,1339.1c10-0.4,15.2,9.6,11.9,18.4c-3.5,10.2-20.3,10.2-23.9,0
				C1007.5,1348.8,1012.8,1338.8,1022.9,1339.1z M1022.9,1359.6c4.2-0.1,5-3.3,5.1-7.4c-0.1-4.1-0.9-7.3-5.1-7.4
				c-4.3,0.1-5.1,3.2-5.1,7.4S1018.6,1359.4,1022.9,1359.6z"/>
		</g>
		<g>
			<path class="st5" d="M1046.4,1342.2c3.5-3.7,10.2-4.5,13.7-0.4c3.9,4,1.6,17.9,2.2,22.9h-7.5v-16c0.2-4.9-5.2-4.7-7.8-2v18h-7.5
				v-25.2h4.7C1045.8,1339.4,1046.1,1341.1,1046.4,1342.2z"/>
		</g>
		<g>
			<path class="st5" d="M1085.7,1345.6c-1.3,2-3.3-0.1-4.9-0.6c-7.5-2.4-8.7,8.5-5.8,12.7c1.9,2.8,6,2.3,8.2,0.1
				c2-1.5,3.6,1.9,4.7,3c-8.2,8.7-22.5,3.8-22-8.7c-0.5-12,13.7-17.2,21.8-9.2L1085.7,1345.6z"/>
		</g>
		<g>
			<path class="st5" d="M1099.3,1332.6c-0.1,5.7-9,5.7-9.1,0C1090.2,1326.8,1099.2,1326.8,1099.3,1332.6z M1098.5,1339.6v25.2h-7.5
				v-25.2H1098.5z"/>
		</g>
		<g>
			<path class="st5" d="M1110,1353.4c0.2,5.6,5.6,7.4,9.9,5c3.6-2.4,4.1-0.2,6.2,2.3c-4.8,5.4-14.6,5.9-19.8,0.9
				c-9.2-10.1-0.7-26.5,13.3-21.8c4.9,1.7,7.3,7.2,6.7,12.2c0,0.8-0.6,1.4-1.4,1.4c-0.1,0-0.1,0-0.2,0S1110,1353.4,1110,1353.4z
				 M1119.5,1349.1c0.1-6.5-8.9-6.2-9.4,0H1119.5z"/>
		</g>
		<g>
			<path class="st5" d="M1137.1,1343.4c1.5-3.2,5.7-5.8,8.9-3.6l-0.5,5.6c-0.2,1.4-2,0.8-3,0.8c-2.4-0.4-4.1,1.2-5,3.3v15.3h-7.5
				v-25.2c1.2,0.1,5.1-0.4,6.1,0.4C1136.8,1340.6,1136.8,1342.6,1137.1,1343.4z"/>
		</g>
		<g>
			<path class="st5" d="M1171.4,1340.3c0,3.6,0.6,4-3.4,4.7c2.2,7.2-5.9,11.5-12.1,10.2c-4.8,4.5,12.1,0.5,14.3,6.1
				c3.8,9.8-9.5,13.7-17,11.5c-5.9-0.9-9.5-8-2.7-10.7c-3.5-2-2-7,1.4-8.2c-6.7-3.3-5-12.7,2-14.4c3.2-0.9,6.8-0.8,9.8,0.6h7.7
				V1340.3z M1164,1365.6c-0.4-2.9-6.7-1.7-8.9-2.3c-2.5,1.5-2,4.4,1,4.6C1158.5,1368.2,1163.7,1369.1,1164,1365.6z M1158.1,1350.8
				c4.7,0.4,4.7-7.1,0-6.6C1153.3,1343.8,1153.6,1351.2,1158.1,1350.8z"/>
		</g>
		<g>
			<path class="st5" d="M1180.3,1353.4c0.2,5.6,5.6,7.4,9.9,5c3.6-2.4,4.1-0.2,6.2,2.3c-4.8,5.4-14.6,5.9-19.8,0.9
				c-9.2-10.1-0.7-26.5,13.3-21.8c4.9,1.7,7.3,7.2,6.7,12.2c0,0.8-0.7,1.4-1.4,1.4c-0.1,0-0.1,0-0.2,0
				C1194.8,1353.4,1180.3,1353.4,1180.3,1353.4z M1189.8,1349.1c0.1-6.5-8.9-6.2-9.4,0H1189.8z"/>
		</g>
	</g>
	<g id="グループ_7" transform="translate(896 1316.018)">
		<g id="グループ_6">
			<path id="長方形_4" class="st6" d="M-22.8-26.1h113c7.1,0,12.7,5.6,12.7,12.7v84.7c0,7.1-5.6,12.7-12.7,12.7h-113
				c-7.1,0-12.7-5.6-12.7-12.7v-84.7C-35.5-20.4-29.8-26.1-22.8-26.1z"/>
			<path id="多角形_1" class="st6" d="M82.2,30.7c-1.8-1.6-2-4.2-0.4-5.9c0.1-0.1,0.3-0.3,0.4-0.4l54.4-47
				c1.8-1.6,4.4-1.3,5.9,0.4c0.7,0.7,1,1.7,1,2.8v94.2c0,2.4-1.8,4.2-4.2,4.2c-1,0-2-0.4-2.8-1L82.2,30.7z"/>
		</g>
		<g id="Component_-_Play" transform="translate(27.696 20.786)">
			<path id="パス_5" class="st7" d="M18.3,8.8L-1.4-3.3v24.1L18.3,8.8z"/>
			<g id="楕円形_2">
				<circle class="st8" cx="6" cy="8.2" r="35.5"/>
				<g>
					<path class="st7" d="M6,43.7c-19.5,0-35.5-15.8-35.5-35.5s16-35.5,35.5-35.5s35.5,16,35.5,35.5S25.7,43.7,6,43.7z M6-18
						C-8.5-18-20.2-6.3-20.2,8.2S-8.5,34.4,6,34.4S32.2,22.7,32.2,8.2S20.5-18,6-18z"/>
				</g>
			</g>
		</g>
	</g>
</g>
</svg>
