<?xml version="1.0" encoding="utf-8"?>
<!-- Generator: Adobe Illustrator 26.0.2, SVG Export Plug-In . SVG Version: 6.00 Build 0)  -->
<svg version="1.1" id="レイヤー_1" xmlns="http://www.w3.org/2000/svg" xmlns:xlink="http://www.w3.org/1999/xlink" x="0px"
	 y="0px" viewBox="0 0 164.2 164.2" style="enable-background:new 0 0 164.2 164.2;" xml:space="preserve">
<style type="text/css">
	.st0{fill:#F8C332;}
	.st1{fill:#343434;}
	.st2{font-family:'KozGoPro-Medium-83pv-RKSJ-H';}
	.st3{font-size:27px;}
</style>
<g transform="translate(-1748.865 -5854.944) rotate(-14)">
	<g transform="translate(270.869 6142.649)">
		<path class="st0" d="M151.5,61c0,3-6.7,5.6-7,8.5c-0.3,3,5.6,7,5,9.8c-0.7,2.9-7.8,3.9-8.7,6.7c-1,2.8,3.9,8,2.7,10.7
			c-1.3,2.7-8.5,2.1-10,4.6s2.1,8.7,0.2,11s-8.7,0.1-10.8,2.2s0.1,8.9-2.2,10.8s-8.5-1.8-11-0.2s-1.9,8.7-4.6,10
			c-2.6,1.3-7.9-3.6-10.7-2.7c-2.8,1-3.8,8.1-6.7,8.7c-2.8,0.6-6.8-5.3-9.8-5c-2.9,0.3-5.5,7-8.5,7c-3,0-5.6-6.7-8.5-7
			c-3-0.3-7,5.6-9.8,5c-2.9-0.7-3.9-7.8-6.7-8.7c-2.8-1-8,3.9-10.7,2.7c-2.7-1.3-2.1-8.5-4.6-10s-8.7,2.1-11,0.2s-0.1-8.7-2.2-10.8
			s-8.9,0.1-10.8-2.2s1.8-8.5,0.2-11c-1.6-2.5-8.7-1.9-10-4.6c-1.3-2.6,3.6-7.9,2.7-10.7c-1-2.8-8.1-3.8-8.7-6.7
			c-0.6-2.8,5.3-6.8,5-9.8c-0.3-2.9-7-5.5-7-8.5s6.7-5.6,7-8.5c0.3-3-5.6-7-5-9.8c0.7-2.9,7.8-3.9,8.7-6.7c1-2.8-3.9-8-2.7-10.7
			c1.3-2.7,8.4-2.1,10-4.6s-2.1-8.7-0.2-11S13.9,9.7,16,7.6s-0.1-8.9,2.2-10.8s8.5,1.8,11,0.2s1.9-8.7,4.6-10
			c2.6-1.3,7.9,3.6,10.7,2.7c2.8-1,3.8-8.1,6.7-8.7c2.8-0.6,6.8,5.3,9.8,5c2.9-0.3,5.5-7,8.5-7s5.6,6.7,8.5,7c3,0.3,7-5.6,9.8-5
			c2.9,0.7,3.9,7.8,6.7,8.7c2.8,1,8-3.9,10.7-2.7c2.7,1.3,2.1,8.5,4.6,10s8.7-2.1,11-0.2s0.1,8.7,2.2,10.8s8.9-0.1,10.8,2.2
			s-1.8,8.5-0.2,11s8.7,1.9,10,4.6c1.3,2.6-3.6,7.9-2.7,10.7c1,2.8,8.1,3.8,8.7,6.7c0.6,2.8-5.3,6.8-5,9.8
			C144.8,55.4,151.5,58,151.5,61z"/>
		<text transform="matrix(1 0 0 1 11.8657 70.6931)" class="st1 st2 st3">初回限定</text>
	</g>
</g>
</svg>
