<svg xmlns="http://www.w3.org/2000/svg" xmlns:xlink="http://www.w3.org/1999/xlink" width="190" height="191" viewBox="0 0 190 191"><defs><filter id="a" x="0" y="0" width="190" height="191" filterUnits="userSpaceOnUse"><feOffset dy="3" input="SourceAlpha"/><feGaussianBlur stdDeviation="3" result="b"/><feFlood flood-opacity="0.161" result="c"/><feComposite operator="out" in="SourceGraphic" in2="b"/><feComposite operator="in" in="c"/><feComposite operator="in" in2="SourceGraphic"/></filter></defs><g transform="translate(-0.007)"><g data-type="innerShadowGroup"><ellipse cx="95" cy="95.5" rx="95" ry="95.5" transform="translate(0.007)" fill="#fff"/><g transform="matrix(1, 0, 0, 1, 0.01, 0)" filter="url(#a)"><ellipse cx="95" cy="95.5" rx="95" ry="95.5" fill="#fff"/></g></g><g transform="translate(59.964 38.588)"><g transform="translate(0.744 0.744)"><path d="M624.791,432.656v16.571c2.077-.568,5.41-.813,7.573,3.783a111.485,111.485,0,0,1,5.7,14.62c.693,2.561,2.888,13.862,3.005,14.341s.531,2.6.531,2.6l4.453,13.6L616.206,509.03l-1.7-5.017h-48.5a4.231,4.231,0,0,1-4.219-4.219V400.912a4.231,4.231,0,0,1,4.219-4.219h54.558a4.231,4.231,0,0,1,4.219,4.219v31.744Z" transform="translate(-561.794 -396.693)" fill="#fff"/></g><g transform="translate(2.158 2.15)"><path d="M626.53,425.385V402.649a4.231,4.231,0,0,0-3.457-4.219H586l-16.5,0h-1.74c-1.74,0-4.215.087-4.215,4.215v99.037c0,3.094,2.254,4.064,4.885,4.064h47.025l-1.377-3.423s-3.273-1.2-5.346-2.19a16.9,16.9,0,0,1-4.364-3.747H566.991V405.3h56.081v21.8s-.048,21.294-.048,24.724c.444-1.452,3.774-3.4,3.774-3.4Z" transform="translate(-563.541 -398.43)" fill="#b4a28f"/><path d="M591.772,429.565,583.4,413.954l6.575-2.306Z" transform="translate(-567.324 -400.948)" fill="#b4a28f"/><path d="M585.91,433.391l-13.185-6.826,3.453-4.71Z" transform="translate(-565.29 -402.892)" fill="#b4a28f"/><path d="M598.638,429.632l.058-14.847,5.767.923Z" transform="translate(-570.226 -401.545)" fill="#b4a28f"/></g><g transform="translate(0 0)"><g transform="translate(25.724 33.931)"><path d="M609.19,488.868a.743.743,0,0,1-.7-.49l-15.009-41.237c-1.879-5.163-.287-8.405,1.988-9.233,2.4-.873,5.766.823,7.562,5.756l8.188,22.5a.744.744,0,0,1-1.4.509l-8.187-22.495c-1.462-4.015-3.955-5.487-5.654-4.868-1.6.583-2.629,3.124-1.1,7.325l15.009,41.238a.745.745,0,0,1-.445.954A.753.753,0,0,1,609.19,488.868Z" transform="translate(-592.652 -437.689)" fill="#3b3938"/><path d="M614.549,471.429a.745.745,0,0,1-.685-1.034,6.865,6.865,0,0,1,3.942-3.763,6.764,6.764,0,0,1,4.775.033,6.871,6.871,0,0,1,3.611-3.086,6.768,6.768,0,0,1,4.775.034,6.818,6.818,0,0,1,9.074-2.749.744.744,0,0,1-.669,1.329,5.334,5.334,0,0,0-7.365,2.676.744.744,0,0,1-1.021.376,5.334,5.334,0,0,0-7.365,2.677.744.744,0,0,1-1.02.376,5.335,5.335,0,0,0-7.366,2.676A.743.743,0,0,1,614.549,471.429Z" transform="translate(-596.681 -441.96)" fill="#3b3938"/><path d="M657.28,495.436a.745.745,0,0,1-.737-.653c-1.167-9.394-5.039-23.245-9.5-30.163a.744.744,0,1,1,1.251-.806c4.745,7.364,8.55,21.358,9.722,30.786a.744.744,0,0,1-.647.83A.733.733,0,0,1,657.28,495.436Z" transform="translate(-602.991 -442.6)" fill="#3b3938"/><path d="M603.6,486.663a.745.745,0,0,1-.7-.491c-.847-2.325-3.011-6-8.02-4.493a.744.744,0,0,1-.429-1.426c4.445-1.339,8.127.683,9.848,5.41a.745.745,0,0,1-.445.954A.736.736,0,0,1,603.6,486.663Z" transform="translate(-592.893 -445.72)" fill="#3b3938"/><path d="M664.643,519.332a.744.744,0,0,1-.688-.461c-.17-.411-4.163-10.135-4.546-14.163a.744.744,0,1,1,1.481-.141c.363,3.807,4.4,13.638,4.441,13.737a.745.745,0,0,1-.688,1.028Z" transform="translate(-605.367 -450.3)" fill="#3b3938"/><path d="M628.27,534.483a.744.744,0,0,1-.7-.489l-2.4-6.585a.744.744,0,1,1,1.4-.508l2.4,6.584a.743.743,0,0,1-.7,1Z" transform="translate(-598.838 -454.589)" fill="#3b3938"/><path d="M619.371,517.96a.734.734,0,0,1-.2-.026l-.726-.2c-4.208-1.125-6.526-1.746-11.177-7.122-4.121-4.762-7.8-12.191-12.694-25.641a.744.744,0,0,1,1.4-.508c4.83,13.266,8.427,20.56,12.421,25.175,4.353,5.03,6.259,5.54,10.436,6.658l.73.2a.744.744,0,0,1-.193,1.463Z" transform="translate(-593.01 -446.506)" fill="#3b3938"/></g><path d="M561.619,485.383a.745.745,0,0,1-.744-.744v-83.9a4.968,4.968,0,0,1,4.963-4.963H620.4a4.968,4.968,0,0,1,4.963,4.963v31.057a.744.744,0,1,1-1.488,0V400.737a3.479,3.479,0,0,0-3.475-3.475H565.838a3.479,3.479,0,0,0-3.475,3.475v83.9A.744.744,0,0,1,561.619,485.383Z" transform="translate(-560.875 -395.774)" fill="#3b3938"/><path d="M577.148,526.009h-11.31a4.968,4.968,0,0,1-4.963-4.963V509.009a.744.744,0,0,1,1.488,0v12.037a3.479,3.479,0,0,0,3.475,3.474h11.31a.744.744,0,0,1,0,1.489Z" transform="translate(-560.875 -417.201)" fill="#3b3938"/><path d="M614.972,529.834H584.493a.744.744,0,1,1,0-1.489h30.479a.744.744,0,1,1,0,1.489Z" transform="translate(-565.232 -421.026)" fill="#3b3938"/><path d="M639.439,455.885a.743.743,0,0,1-.744-.744V443.7a.744.744,0,1,1,1.488,0v11.439A.744.744,0,0,1,639.439,455.885Z" transform="translate(-575.698 -404.762)" fill="#3b3938"/><path d="M634.009,416.469a.745.745,0,0,1-.744-.745V405.43h-4.18a.744.744,0,1,1,0-1.489h4.923a.744.744,0,0,1,.744.745v11.039A.744.744,0,0,1,634.009,416.469Z" transform="translate(-573.726 -397.33)" fill="#3b3938"/><path d="M565.89,451.1a.744.744,0,0,1-.744-.744V404.686a.745.745,0,0,1,.744-.745h47.145a.744.744,0,0,1,0,1.489h-46.4v44.93A.745.745,0,0,1,565.89,451.1Z" transform="translate(-561.689 -397.33)" fill="#3b3938"/><path d="M572.766,508.549H565.89a.744.744,0,0,1-.744-.744V466.482a.744.744,0,0,1,1.489,0V507.06h6.131a.744.744,0,0,1,0,1.489Z" transform="translate(-561.689 -409.101)" fill="#3b3938"/><path d="M601.888,518.272H578.666a.744.744,0,1,1,0-1.489h23.223a.744.744,0,1,1,0,1.489Z" transform="translate(-564.122 -418.824)" fill="#3b3938"/><path d="M635.168,452.9a.745.745,0,0,1-.744-.744v-30.47a.744.744,0,1,1,1.488,0v30.47A.744.744,0,0,1,635.168,452.9Z" transform="translate(-574.885 -400.567)" fill="#3b3938"/><path d="M606.329,402.2a.745.745,0,0,1-.744-.745v-1.031H591.9v.287h11.563a.744.744,0,0,1,0,1.489H591.158a.745.745,0,0,1-.744-.745v-1.774a.745.745,0,0,1,.744-.745h15.171a.745.745,0,0,1,.745.745v1.774A.745.745,0,0,1,606.329,402.2Z" transform="translate(-566.501 -396.377)" fill="#3b3938"/><path d="M604.948,525.639H593.39a.744.744,0,0,1-.745-.744v-4.214a.745.745,0,0,1,.745-.745h5.985a.744.744,0,1,1,0,1.489h-5.242v2.726H604.2v-2.726h-1.986a.744.744,0,0,1,0-1.489h2.73a.745.745,0,0,1,.745.745V524.9A.744.744,0,0,1,604.948,525.639Z" transform="translate(-566.927 -419.425)" fill="#3b3938"/></g></g></g></svg>