<?xml version="1.0" encoding="utf-8"?>
<!-- Generator: Adobe Illustrator 25.4.1, SVG Export Plug-In . SVG Version: 6.00 Build 0)  -->
<svg version="1.1" id="レイヤー_1" xmlns="http://www.w3.org/2000/svg" xmlns:xlink="http://www.w3.org/1999/xlink" x="0px"
	 y="0px" viewBox="0 0 1920 2436" enable-background="new 0 0 1920 2436" xml:space="preserve">
<path id="Icon_metro-cross" opacity="0.2" fill="#202020" enable-background="new    " d="M951.2,1287.5L951.2,1287.5l-17.8-17.8
	l17.8-17.8l0,0c0.7-0.7,0.7-1.9,0-2.6l-8.4-8.4c-0.7-0.7-1.9-0.7-2.6,0l0,0l-17.8,17.8l-17.8-17.8l0,0c-0.7-0.7-1.9-0.7-2.6,0
	l-8.4,8.4c-0.7,0.7-0.7,1.9,0,2.6l0,0l17.8,17.8l-17.8,17.8l0,0c-0.7,0.7-0.7,1.9,0,2.6l8.4,8.4c0.7,0.7,1.9,0.7,2.6,0l0,0
	l17.8-17.8l17.8,17.8l0,0c0.7,0.7,1.9,0.7,2.6,0l8.4-8.4C951.9,1289.3,951.9,1288.2,951.2,1287.5L951.2,1287.5z"/>
</svg>
