<svg xmlns="http://www.w3.org/2000/svg" xmlns:xlink="http://www.w3.org/1999/xlink" width="190" height="191" viewBox="0 0 190 191"><defs><filter id="a" x="0" y="0" width="190" height="191" filterUnits="userSpaceOnUse"><feOffset dy="3" input="SourceAlpha"/><feGaussianBlur stdDeviation="3" result="b"/><feFlood flood-opacity="0.161" result="c"/><feComposite operator="out" in="SourceGraphic" in2="b"/><feComposite operator="in" in="c"/><feComposite operator="in" in2="SourceGraphic"/></filter></defs><g transform="translate(-93 -2428)"><g transform="translate(-8.007 2515)"><g data-type="innerShadowGroup"><ellipse cx="95" cy="95.5" rx="95" ry="95.5" transform="translate(101.007 -87)" fill="#fff"/><g transform="matrix(1, 0, 0, 1, 101.01, -87)" filter="url(#a)"><ellipse cx="95" cy="95.5" rx="95" ry="95.5" fill="#fff"/></g></g></g><g transform="translate(5.948 -29)"><g transform="translate(-0.948 -2.613)"><path d="M342.141,188.325l-18.848,32.649h37.7Z" transform="translate(-111.096 2337.918)" fill="#1a62a3" stroke="#fff" stroke-width="10"/><path d="M270.182,198.428l35.242,0L287.8,167.906Z" transform="translate(-135.512 2327.377)" fill="#1a62a3" stroke="#fff" stroke-width="10"/><path d="M312.295,255.261l-17.032-29.5-17.031,29.5Z" transform="translate(-131.356 2359.243)" fill="#1a62a3" stroke="#fff" stroke-width="10"/><path d="M346.519,207.691l11.064-19.163A60.613,60.613,0,0,0,284.247,174.4L294.4,191.988a40.364,40.364,0,0,1,52.121,15.7Z" transform="translate(-128.251 2327.289)" fill="#1a62a3" stroke="#fff" stroke-width="10"/><path d="M282.764,214.359a40.109,40.109,0,0,1,5.032-19.491l-22.093,0a60.612,60.612,0,0,0,24.249,70.236l10.162-17.6A40.3,40.3,0,0,1,282.764,214.359Z" transform="translate(-139.485 2343.295)" fill="#1a62a3" stroke="#fff" stroke-width="10"/><path d="M342.571,209.848a40.34,40.34,0,0,1-39.882,37.119l11.09,19.206A60.651,60.651,0,0,0,362.9,209.848Z" transform="translate(-120.732 2349.027)" fill="#1a62a3" stroke="#fff" stroke-width="10"/></g><g transform="translate(161.052 2522.465)"><path d="M1188.056,1638.46h-2.608l-.361.695a9.348,9.348,0,0,1-16.6,0l-.364-.695h-2.6a10.954,10.954,0,0,0-10.95,10.942v16.019H1199V1649.4A10.945,10.945,0,0,0,1188.056,1638.46Zm-11.264,8.316a11.832,11.832,0,0,0,4.021-.721l-3.928,7.668-4.045-7.641A11.88,11.88,0,0,0,1176.792,1646.776Zm19.63,16.068h-39.26V1649.4a8.375,8.375,0,0,1,8.365-8.366h1.067a11.8,11.8,0,0,0,1.937,2.4l8.391,15.858,8.133-15.861a12.131,12.131,0,0,0,1.931-2.4h1.07a8.379,8.379,0,0,1,8.366,8.366Zm-23.547-35.974a17.9,17.9,0,0,0,8.115-3.667,11.413,11.413,0,0,0,2.954,4.155l1.556-2.056a8.273,8.273,0,0,1-1.968-2.768,18.36,18.36,0,0,1-.838-1.978l-.756-2.21-1.468,1.808-.085.1a14.588,14.588,0,0,1-7.979,4.08,13,13,0,0,1-2.376.235c-.375,0-.721-.02-1.041-.052l-.262,2.564h0c.4.038.841.067,1.306.067A15.12,15.12,0,0,0,1172.875,1626.87Zm-10.526,6.159h1.23a5.545,5.545,0,0,0,3.544,4.7,9.858,9.858,0,0,0,2.815.7,4.275,4.275,0,0,0,1.686,1.594,8.994,8.994,0,0,0,8,0,3.568,3.568,0,0,0,2.059-3l0-.035a12.061,12.061,0,0,0,6.636-7.523v3.559h2.907l3.21-3.2.011-7.458-4.117-4.059a15.352,15.352,0,0,0-3.518-6.286,13.658,13.658,0,0,0-10.014-4.464l0,2.574a11.094,11.094,0,0,1,8.133,3.643,12.87,12.87,0,0,1,3,5.53l.09.34.3.294v2.556a12.045,12.045,0,0,0-23.073.064v-2.573l.3-.294.093-.349a12.846,12.846,0,0,1,3.015-5.568,11.091,11.091,0,0,1,8.1-3.643h.029v-2.574h-.035a13.651,13.651,0,0,0-9.985,4.461,15.38,15.38,0,0,0-3.527,6.327l-4.109,4.019.009,7.461Zm28.545-10.54.974.962-.006,5.313-.968.959Zm-12.518,15.286a6.464,6.464,0,0,1-5.5,0c-.657-.369-.759-.7-.738-.751-.021-.049.081-.381.738-.744a6.45,6.45,0,0,1,5.5,0c.646.367.748.7.733.747C1179.124,1637.076,1179.022,1637.405,1178.376,1637.774Zm-1.587-21.247a9.459,9.459,0,0,1,3.751,18.147,4.864,4.864,0,0,0-.913-.651,8.964,8.964,0,0,0-7.9-.044,9.457,9.457,0,0,1,5.062-17.452Zm-11.544,12.9a12.048,12.048,0,0,0,4.6,6.391,6.8,6.8,0,0,1-1.7-.456,2.914,2.914,0,0,1-2-2.934,2.073,2.073,0,0,0-.611-1.547,1.916,1.916,0,0,0-.282-.2Zm-2.582-6.915v7.191l-.951-.945-.006-5.307Z" transform="translate(-1154.577 -1607.563)" fill="#1a62a3" stroke="rgba(0,0,0,0)" stroke-width="1"/></g></g></g></svg>