<?xml version="1.0" encoding="utf-8"?>
<!-- Generator: Adobe Illustrator 25.4.1, SVG Export Plug-In . SVG Version: 6.00 Build 0)  -->
<svg version="1.1" id="レイヤー_1" xmlns="http://www.w3.org/2000/svg" xmlns:xlink="http://www.w3.org/1999/xlink" x="0px"
	 y="0px" viewBox="0 0 596.85 506.15" enable-background="new 0 0 596.85 506.15" xml:space="preserve">
<g id="グループ_1960" transform="translate(-297 -6965.15)">
	<path id="パス_3030" fill="#1A62A3" d="M358.27,7459.4v-64h-8.33l-14.45,7.73l2.21,7.23l10.8-5.96h0.17v55H358.27z
		 M398.48,7460.33c13.18,0,20.99-11.81,20.99-33.49c0-19.38-6.8-32.47-20.31-32.47c-13.26,0-21.17,12.24-21.17,33.15
		C377.99,7447.16,385.13,7460.33,398.48,7460.33z M398.65,7452.43c-6.8,0-10.71-9.35-10.71-25.24c0-15.98,4.42-24.99,10.88-24.99
		c7.48,0,10.71,9.77,10.71,24.99C409.53,7440.44,406.98,7452.43,398.65,7452.43z M429.93,7447.16c-1.29,8.21-3.31,16.29-6.03,24.14
		l6.8-0.68c3.23-5.35,7.48-15.9,9.95-24.4L429.93,7447.16z M467.24,7460.33c13.18,0,21-11.81,21-33.49
		c0-19.38-6.8-32.47-20.32-32.47c-13.26,0-21.17,12.24-21.17,33.15C446.76,7447.16,453.9,7460.33,467.24,7460.33z M467.41,7452.43
		c-6.8,0-10.71-9.35-10.71-25.24c0-15.98,4.42-24.99,10.88-24.99c7.48,0,10.71,9.77,10.71,24.99
		C478.29,7440.44,475.74,7452.43,467.41,7452.43z M515.01,7460.33c13.17,0,20.99-11.81,20.99-33.49c0-19.38-6.8-32.47-20.32-32.47
		c-13.26,0-21.17,12.24-21.17,33.15C494.53,7447.16,501.67,7460.33,515.01,7460.33L515.01,7460.33z M515.18,7452.43
		c-6.8,0-10.71-9.35-10.71-25.24c0-15.98,4.42-24.99,10.88-24.99c7.48,0,10.71,9.77,10.71,24.99
		C526.06,7440.44,523.51,7452.43,515.18,7452.43L515.18,7452.43z M562.78,7460.33c13.18,0,20.99-11.81,20.99-33.49
		c0-19.38-6.8-32.47-20.32-32.47c-13.26,0-21.16,12.24-21.16,33.15C542.3,7447.16,549.44,7460.33,562.78,7460.33z M562.95,7452.43
		c-6.8,0-10.71-9.35-10.71-25.24c0-15.98,4.42-24.99,10.88-24.99c7.48,0,10.71,9.77,10.71,24.99
		C573.83,7440.44,571.28,7452.43,562.95,7452.43z M615.08,7430.6c-0.01,2.3,1.85,4.17,4.16,4.18c0.01,0,0.02,0,0.02,0
		c2.3,0.01,4.17-1.85,4.18-4.16c0-0.01,0-0.02,0-0.02c0.01-2.32-1.86-4.21-4.18-4.22C616.94,7426.39,615.07,7428.28,615.08,7430.6z
		 M619.26,7433.45c-1.57-0.01-2.84-1.28-2.85-2.85c0-1.57,1.27-2.85,2.84-2.85c0,0,0.01,0,0.01,0c1.57,0,2.85,1.27,2.85,2.84
		c0,0,0,0.01,0,0.01C622.1,7432.17,620.83,7433.43,619.26,7433.45L619.26,7433.45z M620.21,7439.91v-3.61h-12.39v-6.61
		c0.5,0.02,0.94-0.34,1.03-0.84l-4.86-0.23v7.68h-12.43v3.61h12.42v16.68c0,1.44-0.8,1.44-3.12,1.44c-1.1,0-2.51-0.04-3.65-0.08
		c0.47,1.13,0.82,2.3,1.06,3.5c5.66,0.08,9.54,0.11,9.54-4.94v-16.61L620.21,7439.91z M611.55,7445.53
		c2.82,3.45,5.28,7.18,7.33,11.13l3.42-1.98c-2.22-3.81-4.79-7.41-7.68-10.75L611.55,7445.53z M596.16,7444.24
		c-1.32,3.95-3.58,7.52-6.57,10.41l3.15,1.98c3.03-3.19,5.37-6.97,6.88-11.1L596.16,7444.24z M655.06,7428.43
		c-5.97,6.8-17.33,14.78-27.47,19.38c0.87,0.89,1.63,1.87,2.28,2.93c4.67-2.28,9.18-4.88,13.49-7.79v18.65h3.99v-20.06
		c0.4-0.02,0.76-0.27,0.91-0.65c-0.23-0.08-0.68-0.27-1.03-0.42c3.71-2.69,7.21-5.65,10.49-8.85c0.12,0.03,0.25,0.04,0.38,0.04
		c0.31,0.01,0.62-0.12,0.84-0.34L655.06,7428.43z M667.33,7434.32c3.87,1.31,7.57,3.07,11.02,5.24l1.98-3.42
		c-3.5-2.17-7.27-3.87-11.21-5.05L667.33,7434.32z M671.13,7461.03c0.34-0.19,0.56-0.53,0.61-0.91
		c12.73-4.37,21.93-12.5,26.64-22.88c-1.22-0.64-2.4-1.37-3.5-2.2c-4.48,10.48-13.38,18.01-26.48,22.04L671.13,7461.03z
		 M732.73,7445.41c-4.53-2.32-9.18-4.37-13.95-6.16l-0.76,1.06v-10.87c0.72-0.15,1.06-0.46,1.1-0.87l-5.09-0.3v33.25h3.99v-18.39
		c4.31,1.73,8.51,3.72,12.58,5.96L732.73,7445.41z"/>
	<path id="パス_3028" fill="#343434" d="M312.54,6986.21c-1.22,0.52-2.54,0.77-3.86,0.76c-4.42,0-7.17-2.94-7.17-8.2
		c0-5.57,3.08-8.37,7.22-8.37c1.29-0.02,2.57,0.25,3.75,0.78l0.7-2.66c-1.44-0.62-3-0.91-4.56-0.84c-5.94,0-10.53,3.98-10.53,11.26
		c0,6.83,4,10.78,9.97,10.78c1.72,0.06,3.44-0.25,5.04-0.9L312.54,6986.21z M323.91,6973.72c-0.27-0.06-0.54-0.08-0.81-0.08
		c-1.87,0.11-3.47,1.37-4,3.16h-0.12l-0.11-2.83h-2.83c0.08,1.43,0.11,2.91,0.11,4.7v10.73h3.25v-8.18c0-2.69,1.37-4.48,3.56-4.48
		c0.32,0,0.64,0.02,0.95,0.08V6973.72z M337.18,6986.49c-1.23,0.51-2.56,0.76-3.89,0.73c-2.44,0-4.59-1.32-4.68-4.79h9.8
		c0.06-0.45,0.09-0.91,0.09-1.37c0-3.81-1.74-7.42-6.08-7.42c-4.37,0-6.94,3.67-6.94,8.26c0,4.7,2.69,7.81,7.34,7.81
		c1.68,0.04,3.35-0.28,4.9-0.92L337.18,6986.49z M328.64,6980.1c0.17-1.79,1.18-4.14,3.56-4.14c2.49,0,3.25,2.3,3.22,4.14H328.64z
		 M352.44,6979.9c0-3.28-1.26-6.27-5.8-6.27c-1.75-0.03-3.47,0.41-4.98,1.29l0.67,2.16c1.13-0.7,2.43-1.07,3.75-1.06
		c3.11,0,3.11,2.3,3.11,3.44c-5.29,0-8.62,1.9-8.62,5.74c-0.09,2.4,1.79,4.43,4.19,4.52c0.11,0,0.23,0,0.34,0
		c1.69,0.04,3.3-0.74,4.31-2.1h0.09l0.22,1.79h2.94c-0.18-1.21-0.26-2.44-0.22-3.67V6979.9z M349.28,6984.19
		c-0.01,1.74-1.42,3.14-3.16,3.14c-0.02,0-0.04,0-0.06,0c-1.21,0.05-2.24-0.9-2.28-2.11c0-0.12,0-0.23,0.01-0.35
		c0-2.74,2.94-3.22,5.49-3.22V6984.19z M357.18,6973.97h-2.19v2.44h2.18v7.98c0,2.02,0.36,3.3,1.15,4.14
		c0.8,0.81,1.91,1.24,3.05,1.18c0.85,0.03,1.71-0.09,2.52-0.36l-0.11-2.49c-0.46,0.14-0.94,0.21-1.43,0.2
		c-1.37,0-1.96-0.92-1.96-2.83v-7.81h3.67v-2.44h-3.67v-3.81l-3.22,1.01L357.18,6973.97z M370.39,6969.71c0.05-1-0.73-1.85-1.73-1.9
		c-0.05,0-0.1,0-0.15,0c-1.01-0.03-1.87,0.76-1.9,1.77c0,0.04,0,0.08,0,0.13c-0.03,1.01,0.77,1.85,1.77,1.88c0.03,0,0.07,0,0.1,0
		c1,0.05,1.85-0.73,1.9-1.73C370.39,6969.81,370.39,6969.76,370.39,6969.71L370.39,6969.71z M370.11,6973.94h-3.25v15.46h3.25
		L370.11,6973.94z M383.24,6973.97l-2.5,8.23c-0.39,1.34-0.76,2.6-1.04,3.89h-0.08c-0.28-1.29-0.62-2.58-1.04-3.92l-2.52-8.2h-3.5
		l5.4,15.43h3.11l5.54-15.43H383.24z M399.79,6986.49c-1.23,0.51-2.56,0.76-3.89,0.73c-2.44,0-4.6-1.32-4.68-4.79h9.8
		c0.06-0.45,0.09-0.91,0.08-1.37c0-3.81-1.74-7.42-6.08-7.42c-4.37,0-6.94,3.67-6.94,8.26c0,4.7,2.69,7.81,7.34,7.81
		c1.68,0.04,3.35-0.28,4.9-0.92L399.79,6986.49z M391.25,6980.1c0.17-1.79,1.18-4.14,3.56-4.14c2.49,0,3.25,2.3,3.22,4.14H391.25z
		 M417.71,6986.2c-1.22,0.52-2.54,0.77-3.86,0.76c-4.42,0-7.17-2.94-7.17-8.2c0-5.57,3.08-8.37,7.22-8.37
		c1.29-0.02,2.57,0.25,3.75,0.78l0.7-2.66c-1.44-0.62-3-0.91-4.56-0.84c-5.94,0-10.53,3.98-10.53,11.26c0,6.83,4,10.78,9.97,10.78
		c1.72,0.06,3.44-0.25,5.04-0.9L417.71,6986.2z M427.62,6973.63c-4.09,0-7.28,2.94-7.28,8.15c0,4.98,3.05,7.92,7.06,7.92
		c3.47,0,7.22-2.38,7.22-8.15C434.62,6976.83,431.85,6973.63,427.62,6973.63L427.62,6973.63z M431.29,6981.63
		c0,3.08-1.46,5.63-3.81,5.63c-2.38,0-3.81-2.55-3.81-5.57c0-2.66,1.06-5.63,3.84-5.63C430.22,6976.07,431.29,6979.1,431.29,6981.63
		L431.29,6981.63z M450.58,6979.95c0-4.76-2.69-6.33-5.1-6.33c-1.92-0.04-3.71,0.97-4.68,2.63h-0.08l-0.17-2.3h-2.83
		c0.06,1.32,0.11,2.63,0.11,4.34v11.1h3.25v-9.3c-0.17-1.91,1.24-3.6,3.15-3.77c0.05,0,0.1-0.01,0.15-0.01
		c2.21,0,2.94,1.85,2.94,4.03v9.05h3.25L450.58,6979.95z M464.61,6986.48c-0.91,0.41-1.91,0.62-2.91,0.62
		c-2.69,0-4.68-2.02-4.68-5.4c0-3.02,1.68-5.49,4.7-5.49c0.96-0.02,1.91,0.19,2.77,0.62l0.64-2.49c-1.08-0.48-2.26-0.72-3.44-0.7
		c-4.96,0-7.98,3.53-7.98,8.2c0,4.82,2.91,7.87,7.36,7.87c1.36,0.01,2.72-0.25,3.98-0.78L464.61,6986.48z M471.5,6969.71
		c0.05-1-0.73-1.85-1.73-1.9c-0.05,0-0.1,0-0.15,0c-1.01-0.03-1.87,0.76-1.9,1.77c0,0.04,0,0.08,0,0.13
		c-0.03,1.01,0.77,1.85,1.77,1.88c0.03,0,0.07,0,0.1,0c1,0.05,1.85-0.73,1.9-1.73C471.5,6969.81,471.5,6969.76,471.5,6969.71z
		 M471.22,6973.94h-3.25v15.46h3.25V6973.94z M486.14,6986.49c-1.23,0.51-2.56,0.76-3.89,0.73c-2.44,0-4.59-1.32-4.68-4.79h9.8
		c0.06-0.45,0.09-0.91,0.08-1.37c0-3.81-1.74-7.42-6.08-7.42c-4.37,0-6.94,3.67-6.94,8.26c0,4.7,2.69,7.81,7.34,7.81
		c1.68,0.04,3.35-0.28,4.9-0.92L486.14,6986.49z M477.6,6980.1c0.17-1.79,1.18-4.14,3.56-4.14c2.49,0,3.25,2.3,3.22,4.14H477.6z
		 M498.35,6973.71c-0.27-0.06-0.54-0.08-0.81-0.08c-1.87,0.11-3.47,1.37-4,3.16h-0.11l-0.11-2.83h-2.83
		c0.08,1.43,0.11,2.91,0.11,4.7v10.73h3.25v-8.18c0-2.69,1.37-4.48,3.56-4.48c0.32,0,0.64,0.02,0.95,0.08L498.35,6973.71z
		 M510.86,6973.97l-0.14,2.07h-0.06c-0.81-1.57-2.47-2.51-4.23-2.41c-3.36,0-6.52,2.91-6.52,8.15c0,4.31,2.49,7.53,6.13,7.53
		c1.73,0.06,3.36-0.8,4.28-2.27h0.06v1.49c0,3.5-1.79,4.9-4.31,4.9c-1.46,0-2.9-0.37-4.18-1.09l-0.73,2.52
		c1.5,0.78,3.18,1.16,4.87,1.12c7.31,0,7.56-5.68,7.56-8.76v-8.79c0-2.07,0.06-3.36,0.14-4.45L510.86,6973.97z M510.36,6982.95
		c0,2.58-1.68,3.86-3.36,3.86c-2.41,0-3.78-2.16-3.78-5.18c0-3.3,1.57-5.43,3.81-5.43c1.91,0.06,3.4,1.66,3.34,3.57
		c0,0.05,0,0.1-0.01,0.15V6982.95z M528.5,6986.49c-1.23,0.51-2.56,0.76-3.89,0.73c-2.44,0-4.59-1.32-4.68-4.79h9.8
		c0.06-0.45,0.09-0.91,0.08-1.37c0-3.81-1.74-7.42-6.08-7.42c-4.37,0-6.94,3.67-6.94,8.26c0,4.7,2.69,7.81,7.34,7.81
		c1.68,0.04,3.35-0.28,4.9-0.92L528.5,6986.49z M519.96,6980.1c0.17-1.79,1.18-4.14,3.56-4.14c2.49,0,3.25,2.3,3.22,4.14H519.96z
		 M538.64,6976.1c1.65-1.93,2.49-2.86,3.44-2.86c1.09,0,1.88,1.12,3.98,3.72c3.06,3.82,6.37,7.43,9.91,10.81l2.16-2.49
		c-3.79-3.57-7.36-7.35-10.7-11.34c-2.21-2.69-3.44-3.7-5.29-3.7c-1.46,0-2.6,0.59-4.54,2.63c-1.4,1.51-4.4,4.68-5.82,6.02
		l2.35,2.83c0.26-0.23,0.39-0.56,0.36-0.9L538.64,6976.1z M571.4,6976.1c1.76-1.43,5.8-4.12,9.3-4.56l-0.25-2.88
		c-1.7,0.33-3.42,0.54-5.15,0.64c-2.52,0.17-8.29,0.28-10.95,0.22c0.06,0.64,0.06,2.02,0.06,2.72c2.96,0.06,5.92-0.05,8.88-0.31
		v0.03c-1.48,0.85-2.89,1.8-4.23,2.86L571.4,6976.1z M586.18,6975.26c-1.05-1.38-2.27-2.61-3.64-3.67l-1.2,1.09
		c1.33,1.09,2.54,2.33,3.58,3.7L586.18,6975.26z M583.18,6978.06c-1.07-1.39-2.31-2.63-3.7-3.7l-1.2,1.12
		c1.37,1.05,2.58,2.29,3.58,3.7L583.18,6978.06z M581.98,6986.29c-2.85,0.53-5.75,0.79-8.65,0.78c-1.42,0.02-2.85-0.08-4.26-0.31
		c-2.18-0.48-3.16-1.85-3.16-3.36c0.17-1.7,0.98-3.27,2.27-4.4l-2.38-1.12c-1.62,1.56-2.59,3.69-2.72,5.94
		c0,2.49,1.48,4.79,4.98,5.54c1.89,0.29,3.8,0.41,5.71,0.36c2.82,0.03,5.64-0.16,8.43-0.59L581.98,6986.29z M594.25,6971.03
		c0.03-1.54,0.06-3.08,0.06-4.65c0.48-0.06,0.7-0.22,0.76-0.53l-3.36-0.17c0,1.82,0,3.61-0.03,5.35h-3.56v2.6h3.5
		c-0.2,6.83-0.98,12.68-4.03,16.41c0.75,0.51,1.42,1.13,1.99,1.85c3.44-4.26,4.37-10.89,4.62-18.26h3.64
		c-0.2,10.28-0.42,13.86-0.98,14.64c-0.17,0.34-0.53,0.54-0.9,0.5c-0.48,0-1.48-0.03-2.58-0.11c0.44,0.82,0.7,1.73,0.76,2.66
		c3.19,0.08,4.17,0.03,5.04-1.32c0.84-1.2,1.04-5.43,1.26-18.03c0-0.31,0.03-0.67,0.03-0.87l-1.4-0.08L594.25,6971.03z
		 M602.76,6991.16h2.55v-1.99h4.59v1.79h2.63v-22.12h-9.77V6991.16z M605.31,6971.42h4.59v15.15h-4.59V6971.42z M627.91,6967.33
		h-6.69v2.69h6.78c0.08,1.06,0.2,2.21,0.39,3.44l-1.46-0.34c-1.68,7.78-5.18,13.64-11.09,16.66c0.79,0.62,1.52,1.31,2.18,2.07
		c5.49-3.11,8.99-8.32,11.06-15.12c1.51,6.27,5.44,11.68,10.94,15.04c0.61-0.84,1.33-1.6,2.13-2.27
		c-10.86-6.44-11.54-17.02-11.54-22.2h-2.72L627.91,6967.33z M655.32,6986.4h13.64v-14.86h-6.41c0.28-0.81,0.53-1.65,0.73-2.35h6.83
		v-2.27h-15.71v2.27h5.99c-0.13,0.79-0.31,1.58-0.53,2.35h-4.54L655.32,6986.4z M657.78,6980.1v-2.32h8.57v2.32H657.78z
		 M657.78,6975.9v-2.35h8.57v2.35H657.78z M657.78,6984.38V6982h8.57v2.38H657.78z M653.92,6967.36h-10.16v2.49h4.23v18.06
		c0,0.59-0.14,0.59-1.62,0.59c-0.64,0-1.51-0.03-2.41-0.06c0.36,0.83,0.64,1.71,0.81,2.6c4.7,0,5.8-0.31,5.8-3.14v-18.06h3.36
		L653.92,6967.36z M658.34,6986.68c-2.01,1.47-4.26,2.6-6.64,3.34c0.6,0.58,1.16,1.2,1.65,1.88c2.45-0.81,4.76-2,6.83-3.53
		c0.19,0,0.36-0.07,0.5-0.2L658.34,6986.68z M670.49,6990.35c-1.77-1.35-3.67-2.54-5.66-3.55l-1.99,1.43
		c1.95,1.07,3.8,2.32,5.52,3.72L670.49,6990.35z M673.68,6968.79c-0.3,2.56-0.45,5.13-0.45,7.7c0,1.23,0.03,2.41,0.11,3.47
		c0.31,4.9,2.58,9.8,6.52,9.8c2.18,0,3.98-1.85,5.57-6.83c-0.82-0.49-1.6-1.06-2.3-1.71c-0.78,2.69-2.1,5.52-3.14,5.54
		c-1.43,0-3.92-1.65-3.92-9.27c0-2.51,0.2-5.02,0.62-7.5c0.33,0.02,0.63-0.17,0.76-0.48L673.68,6968.79z M697.43,6981.87
		c-0.69-4.87-3.65-9.12-7.98-11.45l-1.76,2.1c3.79,2.14,6.33,5.96,6.83,10.28L697.43,6981.87z M716.64,6969.71
		c-2.3,0.79-4.69,1.29-7.11,1.48c0.25-1.46,0.48-2.97,0.64-4.09c0.37-0.02,0.69-0.27,0.81-0.62l-3.78-0.36
		c-0.17,1.68-0.39,3.64-0.62,5.32c-0.56,0.03-1.09,0.03-1.6,0.03c-1.34,0-2.8,0-3.7-0.06l0.03,2.66c0.98,0.03,2.27,0.03,3.61,0.03
		c0.39,0,0.84,0,1.26-0.03c-0.87,5.55-2.52,10.94-4.92,16.02l2.86,1.01c2.29-5.52,3.96-11.27,4.96-17.16
		c2.76-0.18,5.48-0.68,8.12-1.48L716.64,6969.71z M714.51,6979.21c3.08-0.84,6.27-1.22,9.46-1.12v-2.66
		c-3.41-0.03-6.81,0.44-10.08,1.4L714.51,6979.21z M724.67,6987.86c-1.11,0.1-2.22,0.15-3.33,0.14c-4.26,0-6.36-0.36-6.36-2.32
		c0.11-1.06,0.6-2.05,1.37-2.78l-2.36-0.92c-1.05,1.13-1.67,2.58-1.76,4.12c-0.02,2,1.42,3.71,3.39,4.03
		c2.08,0.43,4.2,0.62,6.33,0.59c0.92,0,1.82-0.03,2.66-0.08L724.67,6987.86z M746.09,6985.7c0.53-3.61,1.51-10.92,1.88-14.62
		c0.22-0.06,0.4-0.21,0.5-0.42l-2.18-0.92l-0.5,0.17h-13.78v2.63h12.71c-0.31,3.58-1.04,9.8-1.54,13.16h-14.17v2.66h23.66v-2.66
		H746.09z M757.24,6980.21c0.36-0.02,0.69-0.2,0.9-0.5h22.26v-2.8h-23.38L757.24,6980.21z M806.24,6966.13
		c1.19,1.09,2.22,2.34,3.08,3.7l1.23-0.98c-0.88-1.36-1.94-2.61-3.14-3.7L806.24,6966.13z M808.73,6972.79h-5.77v-5.46
		c0.5-0.08,0.73-0.31,0.76-0.59l-3.56-0.2v6.26h-7.84v-5.04c0.48-0.08,0.73-0.36,0.76-0.64l-3.53-0.22v5.91h-5.15v2.69h5.15v6.52
		h2.77v-6.52h7.84v1.48c0,4.56-1.37,9.18-8.12,12.15c0.74,0.59,1.43,1.24,2.04,1.96c7.06-3.28,8.88-8.54,8.88-14.17v-1.43h5.77
		L808.73,6972.79z M803.38,6968.45c1.15,1.11,2.18,2.36,3.05,3.7l1.23-0.98c-0.85-1.35-1.87-2.59-3.05-3.67L803.38,6968.45z
		 M812.96,6980.21c0.36-0.02,0.69-0.2,0.9-0.5h22.26v-2.8h-23.38L812.96,6980.21z M858.66,6979.4h6.94v-2.18h-6.94v-1.88h5.77v-2.13
		h-5.77v-1.82h6.5v-2.18h-3.5c0.53-0.78,1.06-1.71,1.43-2.38c0.26,0.04,0.52-0.07,0.67-0.28l-2.94-0.95
		c-0.44,1.19-0.96,2.34-1.57,3.44l0.48,0.17h-4.93l0.62-0.22c-0.4-1.15-0.95-2.26-1.62-3.28l-2.1,0.73
		c0.52,0.88,0.96,1.81,1.31,2.77h-3.08v2.19h6.16v1.82h-5.35v2.13h5.35v1.88h-6.89v2.18h6.89v9.69c0,0.48-0.11,0.48-1.26,0.48
		c-0.5,0-1.2-0.03-1.85-0.06c0.34,0.77,0.59,1.58,0.73,2.41c3.78,0,4.96-0.25,4.96-2.83v-4.06c1.3,2.5,3.31,4.56,5.77,5.94
		c0.46-0.78,1.02-1.5,1.68-2.13c-1.93-0.82-3.62-2.12-4.9-3.78c1.31-0.98,2.56-2.04,3.72-3.19c0.09,0.02,0.19,0.03,0.28,0.03
		c0.16,0.01,0.31-0.05,0.42-0.17l-2.32-1.74c-0.96,1.25-2.03,2.41-3.19,3.47c-0.59-0.99-1.07-2.03-1.46-3.11L858.66,6979.4z
		 M849.1,6974.14v-2.46h-3.08v-5.4c0.45-0.08,0.62-0.22,0.64-0.45l-3.08-0.17v6.02h-3.72v2.46h3.5c-0.73,3.62-2.13,7.08-4.12,10.19
		c0.5,0.72,0.92,1.49,1.26,2.3c1.34-2.14,2.38-4.46,3.08-6.89v12.12h2.44v-13.02c0.76,1.34,1.57,2.88,1.96,3.78
		c0.64-0.87,1.04-1.4,1.4-1.93c-0.48-0.76-2.58-3.95-3.36-4.98v-1.57H849.1z M854.59,6983.69c-0.82-1.3-1.78-2.51-2.88-3.59
		l-1.82,1.18c1.06,1.15,1.99,2.4,2.77,3.75L854.59,6983.69z M849.41,6990.91c0.19-0.11,0.31-0.31,0.31-0.53
		c1.46-0.87,3.7-2.24,5.8-3.61l-0.59-1.93c-2.55,1.34-5.15,2.74-6.89,3.56L849.41,6990.91z M874.36,6976.1
		c1.65-1.93,2.49-2.86,3.44-2.86c1.09,0,1.88,1.12,3.98,3.72c3.06,3.82,6.37,7.43,9.91,10.81l2.16-2.49
		c-3.79-3.57-7.36-7.35-10.7-11.34c-2.21-2.69-3.44-3.7-5.29-3.7c-1.46,0-2.6,0.59-4.54,2.63c-1.4,1.51-4.4,4.68-5.82,6.02
		l2.35,2.83c0.26-0.23,0.39-0.56,0.36-0.9L874.36,6976.1z M307.28,7039.4v-21.08h-2.74l-4.76,2.55l0.73,2.38l3.56-1.96h0.06v18.12
		H307.28z M320.52,7039.71c4.34,0,6.92-3.89,6.92-11.03c0-6.38-2.24-10.7-6.69-10.7c-4.37,0-6.97,4.03-6.97,10.92
		C313.77,7035.37,316.12,7039.71,320.52,7039.71z M320.58,7037.11c-2.24,0-3.53-3.08-3.53-8.32c0-5.26,1.46-8.23,3.58-8.23
		c2.46,0,3.53,3.22,3.53,8.23C324.16,7033.15,323.32,7037.1,320.58,7037.11L320.58,7037.11z M330.88,7035.37
		c-0.42,2.7-1.09,5.37-1.99,7.95l2.24-0.22c1.38-2.55,2.48-5.25,3.28-8.04L330.88,7035.37z M343.17,7039.71
		c4.34,0,6.92-3.89,6.92-11.03c0-6.38-2.24-10.7-6.69-10.7c-4.37,0-6.97,4.03-6.97,10.92
		C336.42,7035.37,338.78,7039.71,343.17,7039.71L343.17,7039.71z M343.22,7037.11c-2.24,0-3.53-3.08-3.53-8.32
		c0-5.26,1.46-8.23,3.58-8.23c2.46,0,3.53,3.22,3.53,8.23c0,4.36-0.84,8.3-3.58,8.3L343.22,7037.11z M358.9,7039.71
		c4.34,0,6.92-3.89,6.92-11.03c0-6.38-2.24-10.7-6.69-10.7c-4.37,0-6.97,4.03-6.97,10.92
		C352.16,7035.37,354.51,7039.71,358.9,7039.71L358.9,7039.71z M358.96,7037.11c-2.24,0-3.53-3.08-3.53-8.32
		c0-5.26,1.46-8.23,3.58-8.23c2.46,0,3.53,3.22,3.53,8.23c0,4.36-0.84,8.3-3.58,8.3L358.96,7037.11z M374.64,7039.71
		c4.34,0,6.92-3.89,6.92-11.03c0-6.38-2.24-10.7-6.69-10.7c-4.36,0-6.96,4.03-6.96,10.92
		C367.9,7035.37,370.25,7039.71,374.64,7039.71L374.64,7039.71z M374.7,7037.11c-2.24,0-3.53-3.08-3.53-8.32
		c0-5.26,1.46-8.23,3.58-8.23c2.46,0,3.53,3.22,3.53,8.23c0,4.36-0.84,8.3-3.58,8.3L374.7,7037.11z M403.34,7018.18
		c0.02,1.7,1.41,3.07,3.11,3.05c1.7-0.02,3.07-1.41,3.05-3.11c-0.02-1.69-1.39-3.05-3.08-3.05c-1.7,0-3.07,1.37-3.08,3.07
		C403.34,7018.15,403.34,7018.16,403.34,7018.18L403.34,7018.18z M406.42,7020.28c-1.16,0-2.1-0.94-2.1-2.1c0-1.16,0.94-2.1,2.1-2.1
		c1.16,0,2.1,0.94,2.1,2.1l0,0C408.51,7019.33,407.58,7020.26,406.42,7020.28L406.42,7020.28z M407.12,7025.04v-2.66H398v-4.88
		c0.37,0.01,0.69-0.25,0.76-0.62l-3.58-0.17v5.66h-9.16v2.66h9.16v12.3c0,1.06-0.59,1.06-2.3,1.06c-0.81,0-1.85-0.03-2.69-0.06
		c0.34,0.83,0.61,1.69,0.78,2.58c4.17,0.06,7.03,0.08,7.03-3.64v-12.24L407.12,7025.04z M400.74,7029.18
		c2.08,2.54,3.89,5.29,5.4,8.2l2.52-1.46c-1.64-2.81-3.53-5.46-5.66-7.92L400.74,7029.18z M389.4,7028.23
		c-0.98,2.91-2.64,5.54-4.84,7.67l2.32,1.46c2.23-2.35,3.95-5.13,5.07-8.18L389.4,7028.23z M432.8,7016.58
		c-4.4,5.01-12.77,10.89-20.24,14.28c0.64,0.65,1.2,1.38,1.68,2.16c3.44-1.68,6.76-3.6,9.94-5.74v13.75h2.94v-14.78
		c0.3-0.01,0.56-0.2,0.67-0.48c-0.17-0.06-0.5-0.2-0.76-0.31c2.73-1.98,5.31-4.16,7.73-6.52c0.09,0.02,0.19,0.03,0.28,0.03
		c0.23,0,0.45-0.09,0.62-0.25L432.8,7016.58z M441.84,7020.92c2.85,0.96,5.57,2.26,8.12,3.86l1.46-2.52
		c-2.58-1.6-5.36-2.85-8.26-3.72L441.84,7020.92z M444.64,7040.6c0.25-0.14,0.41-0.39,0.45-0.67c9.38-3.22,16.16-9.21,19.63-16.86
		c-0.9-0.47-1.76-1.01-2.58-1.62c-3.3,7.73-9.86,13.27-19.52,16.24L444.64,7040.6z M490.03,7029.1c-3.34-1.71-6.77-3.22-10.28-4.54
		l-0.56,0.78v-8.01c0.53-0.11,0.78-0.34,0.81-0.64l-3.75-0.22v24.5h2.94v-13.55c3.18,1.27,6.27,2.74,9.27,4.4L490.03,7029.1z
		 M519.38,7025.46c-2.16,0.84-4.93,1.88-7.2,2.88c-0.39-2.21-1.71-3.44-3.44-3.44c-1.52,0.05-2.99,0.6-4.17,1.57h-0.03
		c0.74-1.24,1.3-2.58,1.68-3.98c3.46-0.06,6.9-0.54,10.25-1.43l-0.47-2.66c-2.93,0.94-5.97,1.47-9.04,1.6
		c0.25-0.92,0.48-1.85,0.67-2.86c0.36-0.06,0.62-0.22,0.67-0.5l-3.53-0.39c-0.2,1.48-0.42,2.66-0.67,3.86l-1.71,0.03
		c-1.18,0-3.16-0.03-4.82-0.08v2.52c1.4,0.03,3.39,0.03,4.51,0.03l1.29-0.03c-0.66,2.18-1.7,4.23-3.08,6.05
		c-1.13,1.31-2.37,2.53-3.7,3.64l1.93,1.9c1.23-1.15,2.3-2.24,3.02-3.05c2.38-2.69,4.42-3.75,6.38-3.75c0.98,0,1.54,0.81,1.68,2.07
		c-4.06,2.07-7.14,4.54-7.14,6.89c0,3.19,2.55,4.42,7.92,4.42c3.05,0,5.49-0.06,7.06-0.22l-0.03-2.6c-2.33,0.24-4.66,0.36-7,0.34
		c-3.5,0-5.24-0.67-5.24-2.07c0-1.37,2.07-3,4.7-4.31c0.04,1.24,0.01,2.49-0.11,3.72l2.84-0.2c0.06-0.92,0.08-1.76,0.08-2.52
		c0-0.78-0.03-1.48-0.08-2.1c2.21-0.9,5.12-1.9,7.22-2.55c0.14,0.09,0.31,0.14,0.48,0.14c0.06,0,0.12-0.01,0.17-0.03L519.38,7025.46
		z M527.52,7041.89h2.6v-18.43c0.42-0.03,0.62-0.2,0.67-0.42l-0.95-0.25c0.96-1.83,1.81-3.7,2.55-5.63
		c0.28,0.05,0.57-0.07,0.73-0.31l-3.08-1.06c-1.62,4.76-4.31,9.55-7.03,12.32c0.52,0.84,0.98,1.72,1.37,2.63
		c1.15-1.27,2.2-2.63,3.14-4.06L527.52,7041.89z M546.14,7021.87v-5.27c0.48-0.06,0.62-0.2,0.64-0.45l-3.33-0.2v5.91h-11.28v2.63
		h11.28v14.03c0,0.81-0.2,0.81-2.41,0.81c-0.92,0-2.07-0.03-3.28-0.08c0.43,0.85,0.75,1.76,0.95,2.69c2.86,0,4.76-0.06,5.88-0.48
		c1.12-0.42,1.54-1.18,1.54-2.94v-14.03h3.58v-2.63L546.14,7021.87z M540.04,7033.8c-1.08-2.43-2.46-4.72-4.12-6.8l-2.3,1.12
		c1.61,2.14,2.93,4.48,3.92,6.97L540.04,7033.8z M572.18,7031.9c0.17-1.48,0.34-3.16,0.5-5.12c0.08-0.25,0.13-0.5,0.17-0.76
		l-1.57-0.31l-0.62,0.06h-11.2c0.25-1.2,0.53-2.46,0.78-3.72h14.06v-2.55h-13.55c0.22-1.09,0.42-2.16,0.59-3.14
		c0.45-0.03,0.64-0.17,0.7-0.42l-3.36-0.34c-0.7,4.37-1.93,10.25-2.88,13.75l2.77,0.25c0.11-0.42,0.22-0.9,0.34-1.37h10.98
		c-0.14,1.37-0.25,2.58-0.39,3.67h-17.58v2.55h17.22c-0.45,2.6-0.95,3.98-1.57,4.51c-0.42,0.31-0.94,0.44-1.46,0.36
		c-0.81,0-2.83,0-4.9-0.2c0.53,0.79,0.85,1.69,0.95,2.63c1.23,0.08,2.46,0.14,3.44,0.14c3.98,0,5.24-0.67,6.24-7.45h5.49v-2.54
		H572.18z M603.4,7019.88c-2.93,0.83-5.93,1.35-8.96,1.57c-0.28-1.48-0.49-2.98-0.62-4.48c0.48-0.08,0.73-0.34,0.76-0.67l-3.92-0.08
		c0.28,1.99,0.56,3.89,0.9,5.43c-1.01,0.08-2.32,0.14-3.5,0.14c-2.94,0-5.15-0.06-6.78-0.11v2.66c1.85,0.06,5.04,0.08,6.75,0.08
		c1.54,0,3-0.06,4.17-0.14c0.39,1.79,1.12,3.49,2.16,5.01c-0.98-0.18-1.97-0.29-2.97-0.34l0.62,2.27c3.3,0,4.96,0.87,6.16,1.93
		l1.96-2.38c-2.74-1.23-3.98-3.25-5.04-6.72c2.98-0.2,5.94-0.66,8.85-1.37L603.4,7019.88z M599,7038c-1.43,0.08-3,0.14-5.32,0.14
		c-4.2,0-7.36-0.84-7.36-3.25c0.1-1.22,0.74-2.32,1.74-3.02l-2.1-1.6c-1.6,1.54-2.46,3.08-2.46,4.73c0,3.58,3.78,5.8,10.11,5.8
		c2.27,0,3.81,0,5.18-0.03L599,7038z M627.34,7025.82c2.21-0.31,4.31-0.59,5.88-0.76l-0.22-2.69c-1.54,0.22-3.61,0.56-5.71,0.87
		c-0.06-1.96-0.11-4.17-0.2-5.96c0.42-0.14,0.62-0.28,0.62-0.56l-3.53-0.17c0.17,2.13,0.28,4.82,0.36,7.17l-8.09,1.37
		c0-1.99,0-4.17,0.03-5.68c0.5-0.11,0.73-0.28,0.78-0.62l-3.7-0.31c0,1.99,0.06,4.65,0.08,7.08c-1.93,0.34-4.23,0.73-5.6,0.92
		l0.42,2.63c1.26-0.28,3.53-0.7,5.21-1.04c0.06,2.46,0.11,4.76,0.22,6.22c0.53,6.13,4.59,6.27,8.99,6.27
		c2.38,0.02,4.77-0.09,7.14-0.34l-0.06-2.63c-2.47,0.35-4.96,0.52-7.45,0.5c-0.56,0-1.06,0-1.48-0.03
		c-4.59-0.17-4.59-1.96-4.59-10.47c2.27-0.42,5.24-0.9,8.15-1.37c0.06,1.56-0.01,3.13-0.2,4.68c-0.13,0.68-0.73,1.18-1.43,1.18
		c-1.16-0.1-2.28-0.44-3.3-1.01c-0.05,0.78-0.17,1.55-0.36,2.3c1.31,0.69,2.75,1.08,4.23,1.15c3.81,0,3.81-3.67,3.81-7.67V7025.82z
		 M637.14,7022.57c0.27-0.06,0.51-0.22,0.67-0.45c3.05-0.31,10.58-0.95,13.66-1.12c-4.62,3.05-8.12,7.67-8.12,11.34
		c0,4.9,3.02,8.09,11,9.13l1.34-2.77c-6.52-0.78-9.3-2.86-9.3-6.38c0-3.39,3.92-7.56,7.53-9.86c1.72-1.23,3.83-1.78,5.94-1.54
		l-0.03-2.97c-4.2,0.11-17.3,0.98-20.16,1.2c-0.78,0.06-1.99,0.08-2.83,0.08L637.14,7022.57z M665.39,7018.79
		c-0.3,2.56-0.45,5.13-0.45,7.7c0,1.23,0.03,2.41,0.11,3.47c0.31,4.9,2.58,9.8,6.52,9.8c2.18,0,3.98-1.85,5.57-6.83
		c-0.82-0.49-1.6-1.06-2.3-1.71c-0.78,2.69-2.1,5.52-3.14,5.54c-1.43,0-3.92-1.65-3.92-9.27c0-2.51,0.2-5.02,0.62-7.5
		c0.33,0.02,0.63-0.17,0.76-0.48L665.39,7018.79z M689.14,7031.87c-0.69-4.87-3.65-9.12-7.98-11.45l-1.76,2.1
		c3.79,2.14,6.33,5.96,6.83,10.28L689.14,7031.87z M708.35,7019.71c-2.3,0.79-4.69,1.29-7.11,1.48c0.25-1.46,0.48-2.97,0.64-4.09
		c0.37-0.02,0.69-0.27,0.81-0.62l-3.78-0.36c-0.17,1.68-0.39,3.64-0.62,5.32c-0.56,0.03-1.09,0.03-1.6,0.03c-1.34,0-2.8,0-3.7-0.06
		l0.03,2.66c0.98,0.03,2.27,0.03,3.61,0.03c0.39,0,0.84,0,1.26-0.03c-0.87,5.55-2.52,10.94-4.92,16.02l2.86,1.01
		c2.29-5.52,3.96-11.27,4.96-17.16c2.76-0.18,5.48-0.68,8.12-1.48L708.35,7019.71z M706.22,7029.21c3.08-0.84,6.27-1.22,9.46-1.12
		v-2.66c-3.41-0.03-6.81,0.44-10.08,1.4L706.22,7029.21z M716.38,7037.86c-1.11,0.1-2.22,0.15-3.33,0.14
		c-4.26,0-6.36-0.36-6.36-2.32c0.11-1.06,0.6-2.04,1.37-2.77l-2.35-0.92c-1.05,1.12-1.67,2.58-1.76,4.12
		c-0.03,2,1.42,3.71,3.39,4.03c2.08,0.43,4.2,0.62,6.33,0.59c0.92,0,1.82-0.03,2.66-0.08L716.38,7037.86z M741.05,7016.47
		c1.38,1.07,2.6,2.32,3.64,3.72l1.29-1.15c-1.05-1.42-2.3-2.66-3.72-3.7L741.05,7016.47z M736.35,7019.71
		c-2.3,0.79-4.69,1.29-7.11,1.48c0.25-1.46,0.48-2.97,0.64-4.09c0.37-0.02,0.69-0.27,0.81-0.62l-3.78-0.36
		c-0.17,1.68-0.39,3.64-0.62,5.32c-0.56,0.03-1.09,0.03-1.6,0.03c-1.34,0-2.8,0-3.7-0.06l0.03,2.66c0.98,0.03,2.27,0.03,3.61,0.03
		c0.39,0,0.84,0,1.26-0.03c-0.87,5.55-2.53,10.94-4.92,16.02l2.86,1.01c2.29-5.52,3.96-11.27,4.96-17.16
		c2.76-0.18,5.48-0.68,8.12-1.48L736.35,7019.71z M737.33,7018.23c1.36,1.08,2.58,2.33,3.61,3.72l1.32-1.12
		c-1.07-1.4-2.33-2.65-3.72-3.72L737.33,7018.23z M734.22,7029.21c3.08-0.84,6.27-1.22,9.46-1.12v-2.66
		c-3.41-0.03-6.81,0.44-10.08,1.4L734.22,7029.21z M744.33,7037.77c-1.23,0.14-2.46,0.21-3.7,0.2c-3.84,0-5.94-0.31-5.94-2.3
		c0.11-1.06,0.6-2.04,1.37-2.77l-2.35-0.92c-1.05,1.12-1.67,2.58-1.76,4.12c-0.06,4.34,5.1,4.59,9.13,4.59
		c1.12,0,2.24-0.06,3.3-0.14L744.33,7037.77z M771.24,7023.83c-2.76,0.92-5.62,1.53-8.51,1.82c-0.34-1.05-0.63-2.11-0.87-3.19
		c2.5-0.22,4.97-0.7,7.36-1.43l-0.59-2.41c-2.36,0.79-4.8,1.3-7.28,1.51c-0.2-1.04-0.34-2.21-0.45-3.25
		c0.48-0.11,0.76-0.34,0.76-0.64l-3.72-0.08c0.2,1.46,0.45,2.97,0.7,4.2c-1.06,0.08-2.69,0.08-4.03,0.08c-1.06,0-2.3-0.03-3.47-0.08
		v2.41c0.78,0.03,1.68,0.06,2.6,0.06c2.88,0,4.45-0.06,5.35-0.14c0.25,1.06,0.67,2.41,0.92,3.19c-1.68,0.11-3.72,0.17-5.26,0.17
		c-1.6,0-3.78,0-5.38-0.06l0.03,2.35c1.76,0.06,3.92,0.06,5.43,0.06c1.74,0,3.98-0.08,5.99-0.22c0.48,0.97,1.1,1.85,1.85,2.63
		c-0.6-0.06-1.21-0.09-1.82-0.08c-0.36,0-0.7,0-1.01,0.03l0.62,2.1c0.45-0.06,0.89-0.08,1.34-0.08c1.65-0.09,3.28,0.34,4.68,1.23
		l1.51-2.21c-1.81-0.84-3.32-2.21-4.34-3.92c2.75-0.25,5.48-0.79,8.12-1.6L771.24,7023.83z M761.52,7040.91c2.32,0,4-0.08,5.26-0.17
		l0.11-2.58c-1.85,0.17-4.45,0.28-6.5,0.28c-3.14-0.03-5.29-0.76-5.26-2.44c0.22-1.19,1.03-2.19,2.16-2.63l-1.82-1.74
		c-1.62,0.95-3.16,2.66-3.16,4.48c0,3.19,3.47,4.73,8.12,4.79H761.52z M777.82,7022.29c1.74,0.06,4.42,0.08,6.27,0.08
		c1.06,0,2.27-0.03,3.3-0.06c0.06,1.48,0.08,3.02,0.14,4.56c-0.78,0.03-1.62,0.03-2.32,0.03c-2.24-0.03-3.33-0.14-3.33-0.81
		c0-0.31,0.17-0.81,1.82-1.62l-1.9-1.09c-1.9,1.2-2.74,2.18-2.74,3.28c0,1.96,1.93,2.55,6.83,2.55c0.56,0,1.15,0,1.74-0.03
		c0.06,1.26,0.08,2.44,0.11,3.44c-0.84-0.17-1.7-0.24-2.55-0.22c-3.25,0-6.27,1.57-6.27,4.34c0,2.63,2.55,4.31,6.22,4.31
		c3.64,0,5.4-1.57,5.43-4.06v-1.06c2.2,1.01,4.25,2.32,6.1,3.89l1.68-2.41c-2.4-1.79-5.07-3.2-7.9-4.17
		c-0.06-1.06-0.11-2.52-0.17-4.14c2.58-0.1,5.14-0.4,7.67-0.9l-0.28-2.46c-2.45,0.53-4.94,0.87-7.45,1.01l-0.08-4.51
		c3.08-0.07,6.15-0.38,9.18-0.92l-0.31-2.58c-2.92,0.56-5.88,0.9-8.85,1.01c-0.03-0.87-0.03-2.02-0.03-2.8
		c0.48-0.08,0.7-0.25,0.73-0.56l-3.61-0.2c0,0.92,0.03,2.38,0.06,3.67c-1.01,0.03-2.16,0.06-3.22,0.06c-2.04,0-4.54,0-6.27-0.11
		L777.82,7022.29z M787.84,7036.29c0,1.65-0.76,2.49-2.69,2.49c-2.13,0-3.75-0.7-3.75-2.1c0-1.37,1.71-2.16,3.61-2.16
		c0.96,0.01,1.91,0.15,2.83,0.42V7036.29z M804.56,7022.99c3.08-0.17,7.67-0.28,12.29-0.42c0.03,0.98,0.06,2.1,0.08,2.63
		c0,0.08,0.03,0.2,0.03,0.31c-0.66-0.42-1.43-0.63-2.21-0.62c-2.91,0.04-5.25,2.41-5.24,5.32c-0.06,2.71,2.08,4.95,4.79,5.01
		c0.02,0,0.04,0,0.06,0c0.84,0.01,1.64-0.35,2.18-0.98h0.03c-0.84,2.16-3.14,4.03-6.75,5.32c0.74,0.67,1.42,1.4,2.04,2.18
		c4.48-1.71,8.43-5.07,8.43-10.81c0.02-1.04-0.11-2.08-0.39-3.08c-0.03-0.9-0.06-1.62-0.11-2.6c-0.03-0.7-0.03-1.71-0.06-2.74
		c3.44-0.11,6.78-0.14,8.93-0.11v-2.64c-1.79,0.03-5.43,0.11-8.99,0.22c-0.03-1.23-0.06-2.58-0.06-3.3c0.5-0.08,0.76-0.36,0.78-0.62
		l-3.81-0.17c0.06,0.76,0.17,3.75,0.17,4.14c-1.93,0.08-10.53,0.31-12.29,0.36L804.56,7022.99z M814.72,7033.01
		c-1.49-0.02-2.68-1.24-2.66-2.72c0-0.03,0-0.05,0-0.08c-0.12-1.57,1.06-2.95,2.63-3.07c0.08-0.01,0.15-0.01,0.23-0.01
		c1.62,0,2.46,1.01,2.46,3.02c0.11,1.46-0.98,2.74-2.44,2.85C814.86,7033.01,814.79,7033.01,814.72,7033.01z M833.17,7034.02
		c-2.16,0-3.92,1.75-3.92,3.92c0,2.17,1.76,3.92,3.92,3.92c2.16,0,3.92-1.75,3.92-3.92c0,0,0,0,0,0
		C837.09,7035.78,835.33,7034.03,833.17,7034.02z M833.17,7040.71c-1.52,0.01-2.76-1.22-2.77-2.74c-0.01-1.52,1.22-2.76,2.74-2.77
		c1.52-0.01,2.76,1.22,2.77,2.74C835.92,7039.46,834.69,7040.71,833.17,7040.71z"/>
	<g id="グループ_1873" transform="translate(297 7049.877)">
		<line id="線_30" fill="none" stroke="#1A62A3" stroke-width="3" x1="0" y1="0" x2="192.65" y2="0"/>
		<line id="線_31" fill="none" stroke="#1A62A3" stroke-width="3" x1="0" y1="7.45" x2="192.65" y2="7.45"/>
	</g>
	<g>
		<path id="パス_3004-2" fill="#FFFFFF" d="M466.91,7229.71l85.23-10.17c31.09,14.6,74.74,23.75,123.24,23.75
			c94.14,0,170.43-34.26,170.43-76.49c0-42.27-76.29-76.51-170.43-76.51c-94.11,0-170.42,34.24-170.42,76.51
			c0,13.78,8.27,26.69,22.51,37.86L466.91,7229.71z"/>
		<g transform="matrix(1, 0, 0, 1, 297, 6965.15)">
			<path id="パス_3004-3" fill="#FFFFFF" d="M169.91,264.55l85.23-10.16c31.09,14.6,74.74,23.75,123.24,23.75
				c94.14,0,170.43-34.26,170.43-76.49c0-42.27-76.29-76.51-170.43-76.51c-94.11,0-170.42,34.24-170.42,76.51
				c0,13.78,8.27,26.69,22.51,37.86L169.91,264.55z"/>
		</g>
	</g>
	<path id="パス_3029" fill="#1A62A3" d="M553.63,7164.07c1.62-1.32,5.71-4.09,9.3-4.56l-0.25-2.88c-1.7,0.33-3.42,0.54-5.15,0.64
		c-2.52,0.17-8.29,0.28-10.95,0.22c0.06,0.64,0.06,2.02,0.06,2.72c2.96,0.05,5.92-0.05,8.87-0.31v0.03
		c-1.48,0.84-2.9,1.79-4.23,2.86L553.63,7164.07z M564.21,7174.26c-2.84,0.53-5.73,0.79-8.62,0.78c-1.44,0.03-2.87-0.08-4.29-0.31
		c-2.18-0.48-3.16-1.85-3.16-3.36c0.16-1.7,0.98-3.28,2.27-4.4l-2.38-1.12c-1.62,1.57-2.59,3.69-2.72,5.94
		c0,2.49,1.49,4.76,4.99,5.54c1.86,0.29,3.74,0.41,5.63,0.36c2.85,0.02,5.69-0.18,8.51-0.59L564.21,7174.26z M573.11,7178.6
		c0.48-1.48,1.04-3.08,1.4-4.12c0.76-2.13,3.73-6.39,6.61-6.39c1.01,0,1.54,0.81,1.54,2.38v0.36c-0.06,0.98-0.08,2.13-0.08,3.22
		c0,2.88,1.99,4.68,5.15,4.68c3.92,0,6.58-3.33,8.23-8.71c-0.9-0.45-1.77-0.96-2.6-1.54c-1.26,4.71-3.2,7.37-5.52,7.37
		c-1.46,0-2.32-0.9-2.32-2.69c0-0.45,0.11-3.14,0.11-3.58c0-2.55-1.26-4.14-3.61-4.14c-2.17,0.19-4.17,1.21-5.6,2.86h-0.03
		c1.04-2.77,3.33-8.93,4.68-12.15c0.62-0.03,1.01-0.22,1.15-0.62l-3.98-0.95c-0.2,0.78-0.98,3.22-1.57,4.79
		c-0.98,2.77-4.48,12.88-6.38,18.37L573.11,7178.6z M614.08,7166.9c0,1.09,0.08,2.69,0.2,4.26c-0.87-0.22-1.76-0.35-2.66-0.36
		c-2.69,0-5.54,1.51-5.57,4.34c-0.03,2.83,2.46,4.28,5.52,4.31c4.84,0,5.46-3.08,5.46-4.62c1.54,0.74,3,1.63,4.36,2.66l1.34-2.58
		c-1.8-1.2-3.71-2.21-5.71-3.02c-0.14-1.76-0.25-3.33-0.28-5.29L614.08,7166.9z M614.44,7174.68c0,1.74-1.26,2.44-2.83,2.44
		c-1.88,0-3.16-0.7-3.16-1.99c0-1.4,1.6-2.04,3.11-2.04c0.99,0.01,1.97,0.2,2.88,0.56V7174.68z M605.6,7154.13
		c-0.17,1.54-0.39,3.11-0.67,4.48c-0.73,0.03-1.6,0.03-2.46,0.03h-3.22v2.55h3.28c0.62,0,1.34,0,1.93-0.03
		c-1,4.48-2.83,8.72-5.4,12.52l2.74,1.01c2.61-4.19,4.51-8.78,5.62-13.58c2.84-0.21,5.65-0.63,8.43-1.26l-0.36-2.66
		c-2.46,0.72-5,1.16-7.56,1.32c0.22-0.95,0.5-2.35,0.67-3.44c0.37,0,0.7-0.22,0.84-0.56L605.6,7154.13z M622.32,7161.52
		c-3.41,0.07-6.79,0.55-10.08,1.43l0.42,2.44c3.21-0.77,6.5-1.19,9.8-1.23L622.32,7161.52z M629.23,7155.25
		c-0.81,4.49-1.27,9.04-1.38,13.61c-0.11,3.32,0.32,6.64,1.26,9.83l2.77-0.45c-0.09-0.31-0.14-0.63-0.14-0.95
		c0.01-0.45,0.09-0.89,0.22-1.32c0.39-1.29,1.32-2.86,2.35-5.24l-1.42-1.94c-0.36,0.95-1.51,3.58-1.96,4.68
		c-0.2-1.57-0.29-3.15-0.25-4.73c0.1-4.18,0.59-8.34,1.45-12.43c0.56-0.03,0.84-0.2,0.9-0.5L629.23,7155.25z M637.55,7161.58
		c4.09-0.08,8.16-0.42,12.21-1.01l-0.28-2.74c-3.98,0.61-7.99,0.97-12.02,1.06L637.55,7161.58z M650.42,7173.7
		c-1.27,0.14-2.55,0.21-3.84,0.2c-3.22,0-6.72-0.17-6.72-2.77c0-1.48,0.9-2.83,2.24-4.17l-2.63-0.96c-1.51,1.85-2.52,3.53-2.52,5.49
		c0,2.32,1.6,4.31,5.26,4.82c1.68,0.21,3.37,0.3,5.07,0.28c1.04,0,2.07-0.03,3.05-0.08L650.42,7173.7z M655.55,7160.57
		c0.27-0.06,0.51-0.22,0.67-0.45c3.05-0.31,10.39-0.87,13.66-1.12c-4.62,3.05-8.12,7.67-8.12,11.34c0,4.9,3.02,8.09,11,9.13
		l1.35-2.77c-6.52-0.78-9.3-2.86-9.3-6.38c0-3.39,3.92-7.56,7.53-9.86c1.72-1.23,3.83-1.78,5.94-1.54l-0.03-2.97
		c-4.2,0.11-17.3,0.98-20.16,1.2c-0.78,0.06-1.99,0.08-2.83,0.08L655.55,7160.57z M675.62,7161.94c1.33,1.12,2.5,2.41,3.5,3.84
		l1.34-1.09c-0.99-1.45-2.2-2.73-3.58-3.81L675.62,7161.94z M672.46,7164.43c1.32,1.12,2.49,2.41,3.47,3.84l1.37-1.06
		c-1.01-1.44-2.21-2.73-3.58-3.84L672.46,7164.43z M705.64,7161.83c-2.76,0.92-5.62,1.53-8.51,1.82c-0.34-1.05-0.63-2.11-0.87-3.19
		c2.5-0.22,4.97-0.7,7.36-1.43l-0.59-2.41c-2.36,0.79-4.8,1.3-7.28,1.51c-0.2-1.04-0.34-2.21-0.45-3.25
		c0.48-0.11,0.76-0.34,0.76-0.64l-3.72-0.08c0.2,1.46,0.45,2.97,0.7,4.2c-1.06,0.08-2.69,0.08-4.03,0.08c-1.06,0-2.3-0.03-3.47-0.08
		v2.41c0.78,0.03,1.68,0.06,2.6,0.06c2.88,0,4.45-0.06,5.35-0.14c0.25,1.06,0.67,2.41,0.92,3.19c-1.68,0.11-3.72,0.17-5.26,0.17
		c-1.6,0-3.78,0-5.38-0.06l0.03,2.35c1.76,0.06,3.92,0.06,5.43,0.06c1.74,0,3.98-0.08,5.99-0.22c0.48,0.96,1.11,1.85,1.85,2.63
		c-0.6-0.06-1.21-0.09-1.82-0.08c-0.36,0-0.7,0-1.01,0.03l0.62,2.1c0.45-0.06,0.89-0.08,1.34-0.08c1.65-0.09,3.29,0.35,4.68,1.24
		l1.51-2.21c-1.81-0.84-3.32-2.21-4.34-3.92c2.75-0.25,5.48-0.79,8.12-1.6L705.64,7161.83z M695.92,7178.91c2.32,0,4-0.08,5.26-0.17
		l0.11-2.58c-1.85,0.17-4.45,0.28-6.5,0.28c-3.14-0.03-5.29-0.76-5.26-2.44c0.22-1.19,1.04-2.19,2.16-2.63l-1.82-1.74
		c-1.62,0.95-3.16,2.66-3.16,4.48c0,3.19,3.47,4.73,8.12,4.79H695.92z M720.26,7165.61c2.27-2.04,7.14-6.55,8.85-7.87
		c0.28-0.03,0.55-0.14,0.78-0.31l-1.93-2.35l-0.42,0.22c-1.93,0.31-9.49,0.59-13.19,0.59l0.28,3.22c0.26-0.05,0.49-0.21,0.62-0.45
		c2.69-0.11,7.92-0.36,9.41-0.56c-3.78,3.5-11.31,10.67-13.52,12.96l1.99,1.96c0.73-0.81,1.85-1.96,2.58-2.66
		c2.72-2.32,6.17-3.59,9.74-3.58c3.16,0,5.26,1.74,5.26,4.45c0.02,1.98-1.22,3.76-3.08,4.42c-0.5-2.73-2.88-4.71-5.66-4.7
		c-2.6,0-4.79,1.76-4.79,3.92c0,2.66,2.52,4.23,6.16,4.23c5.85,0,10.28-2.86,10.28-7.92c0-4.26-2.88-6.83-7.22-6.83
		c-2.11,0.02-4.19,0.45-6.13,1.29V7165.61z M719.47,7174.88c0-1.04,1.06-1.68,2.24-1.68c1.75,0.11,3.16,1.5,3.3,3.25
		c-0.69,0.13-1.4,0.21-2.1,0.22C721.4,7176.67,719.47,7176.31,719.47,7174.88L719.47,7174.88z M749.99,7158.92
		c0.39-0.03,0.76-0.06,1.15-0.06c5.85,0,8.88,3.58,8.88,8.15c0,4.84-2.91,7.92-9.32,9.18c0.65,0.74,1.24,1.54,1.76,2.38
		c6.92-1.71,10.53-5.01,10.53-11.65c0-5.77-3.78-10.67-11.82-10.67c-6.81-0.21-12.5,5.14-12.71,11.95c0,0.14-0.01,0.28-0.01,0.42
		c0,4.59,2.18,7.08,4.9,7.08c4.7,0,7.56-6.52,8.65-15.71c0.32,0.03,0.63-0.15,0.76-0.45L749.99,7158.92z M743.44,7172.95
		c-1.29,0-2.27-1.74-2.27-4.4c-0.01-4.69,3.38-8.7,8.01-9.46C748.59,7166.2,746.46,7172.95,743.44,7172.95z M780.01,7170.82
		l0.56-14.87h-3.7l0.56,14.87H780.01z M778.66,7177.73c1.25-0.01,2.25-1.03,2.24-2.28c0-0.01,0-0.02,0-0.02
		c0.01-1.24-0.99-2.26-2.24-2.27c0,0,0,0,0,0c-1.23,0.01-2.22,1.01-2.21,2.25c0,0.01,0,0.01,0,0.02c-0.04,1.23,0.94,2.26,2.17,2.3
		C778.64,7177.73,778.65,7177.73,778.66,7177.73z M799.72,7169.83c0.04-1.49,0.61-2.91,1.62-4c1.34-1.68,2.66-3.3,2.66-5.54
		c0-2.41-1.62-4.7-5.35-4.7c-1.55-0.02-3.08,0.39-4.4,1.2l0.76,2.35c0.87-0.58,1.89-0.89,2.94-0.9c1.31-0.18,2.52,0.74,2.7,2.06
		c0.02,0.15,0.03,0.31,0.02,0.46c0,1.37-0.76,2.55-2.02,4.14c-1.15,1.36-1.8,3.07-1.85,4.84c0,0.22,0.06,1.06,0.08,1.34h2.88
		L799.72,7169.83z M798.26,7177.71c1.12,0.03,2.05-0.85,2.08-1.97c0-0.06,0-0.13,0-0.19c0.09-1.13-0.76-2.12-1.89-2.21
		c-0.06,0-0.12-0.01-0.18-0.01c-1.14,0-2.07,0.92-2.08,2.06c0,0.05,0,0.1,0,0.15c-0.08,1.11,0.77,2.08,1.88,2.15
		C798.13,7177.71,798.2,7177.71,798.26,7177.71z"/>
	<g id="グループ_1880" transform="translate(336 7166.398)">
		<path id="パス_2320" fill="#FFFFFF" d="M79.23,5.51c-1.98-2.44-6.34-4.11-12.19-3.88c0.44,1.57,0.59,3.2,0.43,4.83
			c0,0-13.65-1.65-17.15,2.76c0.85,1.11,2.15,1.35,3.07,2.42c-1.68,0.75-10.05,3.6-10.87,5.56c0.97,0.35,1.87,0.86,2.68,1.49
			c0,0-9.35,6.3-10.35,10.12c1.14-0.31,3.17-0.65,4.43,0c-1.93,1.48-7.5,12.4-7.44,15.79c1.41-0.43,2.92-0.78,3.79-0.47
			c-1.38,1.88-3.05,8.87-2.56,11.58c0.52-0.15,2.95-0.58,2.95-0.58s0.26,10.04,2.12,13.16c-0.94,3.03-0.87,6.28,0.19,9.26
			c0.87,2.41,2.33,4.58,4.24,6.29c0.85,0.56,1.74,1.04,2.68,1.43c0,0,2.74,10.83,3.45,12.5c0.77,1.87,1.68,3.68,2.73,5.4
			c-0.02,1.86,0,9.92,0,9.92c-1.11,1.28-2.41,2.37-3.86,3.25c-2.17,1.23-17.36,8.09-19.89,9.2s-15.65,7.12-18,8.89
			s-5.35,6.65-6.65,9.71s-2.07,12.71-2.14,14.48s-0.11,6.18-0.11,6.18h140.78c0,0-0.12-14.59-1.05-17.43
			c-0.93-2.84-3.34-10.24-6.48-12.32s-14.61-7.82-16.14-8.44s-19.65-9.05-20.57-9.29s-5.65-2.6-5.97-4.04s-0.27-10.5-0.27-10.5
			s3.62-6.76,4.27-9.25s1.71-6.65,2.13-8.57c2.3-1,4.28-2.62,5.7-4.69c1.04-1.63,1.93-6.42,2.06-8.76c0.13-1.18-0.02-2.38-0.45-3.49
			c0,0,1.6-4.83,1.89-6.42s0.31-7.02,0.31-7.02l2.15,0.69c0,0-0.46-6.15-0.73-7.82s-1.1-6.83-1.26-7.08
			c1.02,0.41,2.1,0.68,3.19,0.79c0,0-2.78-11.23-3.27-12.1c-0.35-0.85,2.05-0.58,2.05-0.58s-4.73-8.81-6.34-10.49
			c-1.18-1.31-2.48-2.51-3.87-3.59c1.18-0.45,2.38-0.84,3.59-1.16c-0.9-1.28-7.68-5.5-13.25-4.08c-0.24-1.07-2.7-6.21-4.25-7.33
			c-0.78-0.63-1.7-1.05-2.68-1.23c0,0-0.07-0.07,0,0.62S79.23,5.51,79.23,5.51z"/>
		<g id="グループ_1698" transform="translate(3.744 3.375)">
			<circle id="楕円形_174" fill="#3B3938" cx="52.91" cy="67.56" r="2.09"/>
			<circle id="楕円形_175" fill="#3B3938" cx="82.3" cy="67.56" r="2.09"/>
			<path id="パス_2321" fill="#B4A28F" d="M21.87,126.91c5.31-2.3,21.22-8.99,21.22-8.99c0.56,5.63,3.51,26.42,4.13,29.57
				s3.49,13.96,3.49,13.96H0c0-5.26,1.02-21.2,6.87-26.13S14.99,129.89,21.87,126.91z"/>
			<path id="パス_2322" fill="#B4A28F" d="M113.34,126.91c-5.31-2.3-21.22-8.99-21.22-8.99c-0.56,5.63-3.51,26.42-4.13,29.57
				s-3.49,13.96-3.49,13.96h50.71c0-5.26-1.02-21.2-6.87-26.13S120.23,129.89,113.34,126.91z"/>
			<path id="パス_2323" fill="#DDDDDD" d="M64.18,125.92l7.21-0.48l1.69,5.41l-0.48,9.13c0.45,1.01,0.78,2.06,0.97,3.15
				c0.24,1.59,1.85,17.35,1.85,18.31h-12.7l2.06-21.03c0,0-1.21-3.27-1.55-3.79s-0.29-8.14-0.29-8.14L64.18,125.92z"/>
			<path id="パス_2324" fill="#343434" d="M100.77,35.55c1.11-0.03,2.21,0.08,3.29,0.34c0,0-2.68-9.97-4.09-11.85
				c0.72,0.11,1.46,0.09,2.18-0.05c0,0-5.3-8.85-9.68-11.56c-0.33-0.2-0.66-0.38-1.01-0.54c0.84-1.03,1.75-1.99,2.72-2.89
				c-2.34-1.79-7.82-1.9-11.51-1.48c0.07-2.87-0.62-6.01-3.65-7.52c-0.28,1.75-1.82,3.75-3.1,5.16c-2.57-2.34-5.74-3.92-9.15-4.56
				c0.9,2.06,1.53,4.22,1.88,6.44c-3.7-1.75-13.17-2.98-17.58-1.52c1.85,1.01,3.53,2.31,4.97,3.85c-3.58,0.98-7,2.45-10.16,4.38
				c0.9,0.13,1.74,0.53,2.4,1.16c-2.98,0.65-8.15,3.82-9.75,6.24c1,0.34,1.97,0.72,2.93,1.16c-2.49,2.9-4.81,5.94-6.97,9.1
				c-1.44,2.31-2.58,4.8-3.39,7.4c0.92-0.12,1.84-0.12,2.76,0c0,0-1.86,5.46-2.33,7.4c-0.3,1.91-0.45,3.83-0.43,5.76h1.14
				c0,0,0.38,8.29,0.74,9.62s1.42,3.87,1.42,3.87l3.68-1.35c0,0-0.55-8.59,1.92-12.66s8.61-9.81,8.61-9.81l-0.23,4.91
				c0,0,8.19-5.48,9.37-6.58c1.18-1.1,4.79-4.06,4.79-4.06l-1.35,9.65c0,0,5.54-3.95,6.75-5.16s7.41-8.71,9.4-10.67
				c0.47,2.3,2.65,5.78,4,7.67s5.73,6.99,5.73,6.99l1.02-6.1c0,0,4.26,7.45,5.9,9.24c1.41,1.68,2.69,3.46,3.85,5.32l-0.15,4.86
				l-0.5,6.58l3.4,0.85c1.21-2.13,2-4.47,2.35-6.9c0.12-3.95-0.04-7.9-0.5-11.83C102.19,42.77,101.62,39.13,100.77,35.55z"/>
		</g>
		<g id="グループ_1703" transform="translate(0 0)">
			<path id="パス_2325" fill="#3B3938" d="M56.66,73.82c-1.6,0-2.89-1.3-2.89-2.9c0-1.6,1.3-2.89,2.9-2.89s2.89,1.3,2.89,2.9
				c0,0,0,0,0,0C59.55,72.53,58.26,73.82,56.66,73.82z M56.66,69.65c-0.71,0-1.28,0.57-1.28,1.28s0.57,1.28,1.28,1.28
				c0.71,0,1.28-0.57,1.28-1.28C57.94,70.23,57.37,69.65,56.66,69.65C56.66,69.65,56.66,69.65,56.66,69.65z"/>
			<path id="パス_2326" fill="#3B3938" d="M52.06,69.35c-0.12,0-0.23-0.03-0.34-0.07c-0.4-0.19-0.58-0.67-0.39-1.07
				c1.02-2.11,3.18-3.44,5.53-3.39c2.1-0.03,4.01,1.21,4.85,3.14c0.19,0.4,0.03,0.88-0.38,1.08c-0.4,0.19-0.88,0.03-1.08-0.38
				c-0.01-0.02-0.02-0.03-0.02-0.05c-0.58-1.35-1.92-2.21-3.39-2.17h-0.05c-1.69-0.01-3.24,0.94-4,2.45
				C52.66,69.16,52.37,69.35,52.06,69.35z"/>
			<path id="パス_2327" fill="#3B3938" d="M86.04,73.82c-1.6,0-2.89-1.3-2.89-2.9c0-1.6,1.3-2.89,2.9-2.89s2.89,1.3,2.89,2.9
				c0,0,0,0,0,0C88.94,72.53,87.64,73.82,86.04,73.82z M86.04,69.65c-0.71,0-1.28,0.57-1.28,1.28s0.57,1.28,1.28,1.28
				c0.71,0,1.28-0.57,1.28-1.28C87.33,70.23,86.75,69.65,86.04,69.65C86.05,69.65,86.05,69.65,86.04,69.65z"/>
			<path id="パス_2328" fill="#3B3938" d="M90.64,69.35c-0.31,0-0.6-0.18-0.73-0.47c-0.76-1.51-2.31-2.47-4-2.45h-0.05
				c-1.47-0.04-2.81,0.82-3.39,2.17c-0.17,0.41-0.64,0.62-1.05,0.45s-0.62-0.64-0.45-1.05c0.01-0.02,0.01-0.03,0.02-0.05
				c0.84-1.93,2.75-3.16,4.85-3.14h0.07c2.32-0.02,4.45,1.29,5.46,3.39c0.19,0.4,0.01,0.88-0.39,1.07
				C90.88,69.32,90.76,69.35,90.64,69.35z"/>
			<path id="パス_2329" fill="#3B3938" d="M71.24,88.51c-1.54,0.01-3.01-0.69-3.96-1.91c-0.24-0.38-0.13-0.88,0.25-1.11
				c0.38-0.24,0.88-0.13,1.11,0.25c0.69,0.78,1.7,1.21,2.74,1.16c0.44-0.08,0.86,0.21,0.94,0.65c0.08,0.44-0.21,0.86-0.65,0.94
				c-0.03,0-0.05,0.01-0.08,0.01C71.48,88.5,71.36,88.51,71.24,88.51z"/>
			<path id="パス_2330" fill="#3B3938" d="M71.15,98.34c-4.23,0-7.85-1.11-9.46-2.64c-0.32-0.31-0.34-0.82-0.03-1.14
				c0.31-0.32,0.82-0.34,1.14-0.03l0,0c2.33,2.2,11.21,3.74,18.71-0.36c0.39-0.21,0.88-0.07,1.1,0.32c0.21,0.39,0.07,0.88-0.32,1.1
				l0,0C78.86,97.42,75.03,98.36,71.15,98.34z"/>
			<path id="パス_2331" fill="#3B3938" d="M73.25,103.26c-1.64,0-3.26-0.42-4.69-1.22c-0.37-0.25-0.46-0.76-0.2-1.12
				c0.24-0.35,0.71-0.45,1.07-0.24c1.32,0.72,2.81,1.05,4.31,0.95c0.44-0.04,0.84,0.29,0.88,0.73c0.04,0.44-0.29,0.84-0.73,0.88l0,0
				C73.68,103.25,73.47,103.26,73.25,103.26z"/>
			<path id="パス_2332" fill="#3B3938" d="M93.26,55.42c-0.21,0-0.42-0.08-0.57-0.24c-3.6-3.61-9.45-3.09-13.13-0.76
				c-0.37,0.24-0.87,0.14-1.12-0.23s-0.14-0.87,0.23-1.12c0.01,0,0.02-0.01,0.02-0.01c4.31-2.73,10.89-3.27,15.13,0.98
				c0.31,0.32,0.31,0.83,0,1.14C93.68,55.34,93.48,55.42,93.26,55.42L93.26,55.42z"/>
			<path id="パス_2333" fill="#3B3938" d="M48.97,55.64c-0.45,0-0.81-0.36-0.81-0.81c0-0.24,0.1-0.46,0.28-0.61
				c2.97-2.21,6.66-3.24,10.35-2.89c1.83,0.05,3.55,0.85,4.78,2.21c0.27,0.35,0.21,0.86-0.14,1.13c-0.35,0.27-0.86,0.21-1.13-0.14
				c-0.97-0.99-2.28-1.56-3.67-1.59c-3.25-0.32-6.51,0.58-9.14,2.51C49.34,55.57,49.16,55.64,48.97,55.64z"/>
			<g id="グループ_1699" transform="translate(36.627 66.376)">
				<path id="パス_2334" fill="#3B3938" d="M63.5,18.28c-0.45,0-0.81-0.36-0.81-0.81c0-0.26,0.12-0.49,0.33-0.65
					c1.56-1.17,3.75-3.35,4.65-8.89c0.55-3.38-0.3-5.5-1.4-6.12c-0.9-0.35-1.92-0.1-2.57,0.61c-0.34,0.29-0.85,0.25-1.14-0.08
					c-0.29-0.34-0.25-0.85,0.08-1.14l0,0c1.46-1.26,3.07-1.55,4.41-0.8c1.96,1.1,2.81,4.08,2.2,7.78c-1,6.11-3.49,8.59-5.28,9.93
					C63.84,18.22,63.67,18.28,63.5,18.28z"/>
				<path id="パス_2335" fill="#3B3938" d="M37.37,47.74c-0.45,0-0.81-0.36-0.81-0.81c0-0.4,0.3-0.74,0.69-0.8
					c4.53-0.65,11.07-4.68,16.66-10.27c3.69-3.68,6.06-16.79,6.57-22.2c0.06-0.44,0.46-0.76,0.9-0.7c0.42,0.05,0.73,0.43,0.71,0.85
					c-0.56,5.82-3.01,19.16-7.04,23.19c-5.91,5.9-12.64,10.01-17.57,10.72C37.44,47.73,37.41,47.74,37.37,47.74z"/>
				<path id="パス_2336" fill="#3B3938" d="M5.96,18.28c-0.17,0-0.34-0.06-0.48-0.16c-1.79-1.33-4.28-3.81-5.28-9.93
					c-0.6-3.7,0.24-6.69,2.2-7.78c1.34-0.75,2.95-0.46,4.41,0.8c0.34,0.29,0.37,0.8,0.08,1.14C6.6,2.69,6.09,2.72,5.75,2.43
					C5.1,1.72,4.08,1.47,3.18,1.82c-1.09,0.61-1.95,2.74-1.4,6.12c0.9,5.54,3.09,7.72,4.65,8.89c0.36,0.27,0.43,0.77,0.17,1.13
					C6.44,18.16,6.2,18.28,5.96,18.28L5.96,18.28z"/>
				<path id="パス_2337" fill="#3B3938" d="M32.08,47.74c-0.04,0-0.08,0-0.12-0.01c-4.93-0.71-11.66-4.82-17.57-10.72
					c-4.03-4.03-6.49-17.36-7.04-23.19c-0.04-0.44,0.28-0.84,0.73-0.88c0.44-0.04,0.84,0.28,0.88,0.73l0,0
					c0.52,5.41,2.89,18.52,6.57,22.2c5.59,5.58,12.13,9.61,16.66,10.27c0.44,0.06,0.75,0.47,0.69,0.91
					C32.83,47.45,32.49,47.74,32.08,47.74L32.08,47.74z"/>
			</g>
			<path id="パス_2338" fill="#3B3938" d="M43.76,56.53c-0.11,0-0.22-0.02-0.32-0.07c-0.41-0.18-0.59-0.65-0.42-1.06c0,0,0,0,0,0
				c2.21-4.43,5.32-8.36,9.13-11.53c0.34-0.29,0.85-0.24,1.14,0.1c0.17,0.21,0.23,0.49,0.15,0.74c-0.34,1.26-0.5,2.56-0.48,3.87
				c4.38-2.45,10.08-7.06,12.97-11.33c0.25-0.37,0.75-0.47,1.12-0.22c0.27,0.18,0.4,0.51,0.34,0.82c-0.4,2.04-1.31,7.05-1.57,9.72
				c4.38-2.65,11.88-11.1,14.61-15.17c0.27-0.36,0.77-0.43,1.13-0.17c0.33,0.25,0.43,0.71,0.21,1.07
				c-2.62,3.9-11.66,14.46-16.53,16.37c-0.42,0.16-0.88-0.04-1.05-0.46c-0.03-0.08-0.05-0.17-0.05-0.26
				c0.16-2.75,0.52-5.49,1.06-8.19c-3.64,4-7.94,7.34-12.71,9.87c-0.4,0.2-0.88,0.03-1.08-0.36c-0.06-0.12-0.09-0.25-0.08-0.39
				c0.01-0.27,0.01-0.57,0.01-0.89c0-0.7,0.01-1.48,0.09-2.33c-2.84,2.69-5.18,5.86-6.93,9.36C44.38,56.33,44.09,56.52,43.76,56.53z
				"/>
			<path id="パス_2339" fill="#3B3938" d="M100.96,54.48c-0.17,0-0.34-0.05-0.47-0.15c-2.64-1.92-6.21-7.26-8.45-11.31
				c-0.04,0.92-0.02,1.97-0.02,2.7c0.01,0.91,0.02,1.77-0.02,2.41c-0.03,0.44-0.41,0.79-0.85,0.76c-0.17-0.01-0.33-0.07-0.46-0.18
				c-1.48-1.18-7.97-8.68-8.16-11.54c-0.04-0.44,0.29-0.84,0.73-0.88s0.84,0.29,0.88,0.73c0,0.01,0,0.03,0,0.04
				c0.11,1.62,3.96,6.61,6.27,9.12c0-0.15,0-0.3,0-0.45c-0.03-2.97,0-4.83,0.65-5.63c0.28-0.35,0.79-0.4,1.14-0.12
				c0.09,0.07,0.16,0.17,0.21,0.27c2,4.06,6.25,10.75,9.03,12.77c0.36,0.26,0.44,0.77,0.18,1.13
				C101.46,54.36,101.22,54.48,100.96,54.48L100.96,54.48z"/>
			<path id="パス_2340" fill="#3B3938" d="M100.85,64.64c-0.09,0-0.18-0.01-0.26-0.04c-0.42-0.14-0.64-0.6-0.5-1.02
				c0.31-0.9,0.73-1.76,1.25-2.55c-0.36,0.06-0.74,0.12-1.1,0.16c-0.44,0.05-0.84-0.27-0.89-0.71c-0.02-0.19,0.02-0.37,0.13-0.53
				c0.03-0.05,0.07-0.12,0.13-0.2c0.57-0.95,1.23-1.84,1.97-2.66c-0.62,0.09-1.22,0.27-1.78,0.54c-0.4,0.19-0.89,0.02-1.08-0.38
				c-0.18-0.38-0.04-0.84,0.33-1.05c1.22-0.64,3.8-1.15,4.9-0.47c0.38,0.23,0.5,0.73,0.26,1.11c-0.05,0.09-0.12,0.16-0.2,0.22
				c-0.83,0.64-1.57,1.41-2.18,2.26c0.66-0.19,1.36-0.14,1.99,0.14c0.37,0.24,0.48,0.74,0.23,1.12c-0.08,0.13-0.2,0.23-0.33,0.29
				c-0.86,0.4-1.74,2.2-2.1,3.24C101.49,64.42,101.19,64.63,100.85,64.64z"/>
			<path id="パス_2341" fill="#3B3938" d="M41.78,64.95c-0.38,0-0.71-0.27-0.79-0.64c-0.18-1.08-0.67-2.08-1.41-2.88
				c-0.38-0.23-0.5-0.73-0.26-1.11c0.08-0.13,0.19-0.23,0.33-0.3c0.49-0.18,1.02-0.18,1.51-0.01c-0.4-0.68-0.89-1.31-1.46-1.86
				c-0.32-0.31-0.34-0.82-0.03-1.14c0.07-0.07,0.15-0.13,0.24-0.18c1.04-0.49,3.23,0.21,4.22,0.89c0.37,0.25,0.46,0.75,0.21,1.12
				s-0.75,0.46-1.12,0.21c-0.34-0.22-0.71-0.39-1.09-0.51c0.47,0.69,0.87,1.42,1.22,2.18l0.09,0.18c0.2,0.4,0.04,0.88-0.36,1.08
				c-0.17,0.08-0.36,0.11-0.54,0.07c-0.22-0.05-0.44-0.11-0.67-0.17c0.3,0.67,0.54,1.36,0.7,2.08c0.09,0.44-0.18,0.86-0.62,0.96
				C41.89,64.94,41.83,64.95,41.78,64.95z"/>
			<path id="パス_2342" fill="#3B3938" d="M79.23,6.32c-0.28,0-0.54-0.15-0.69-0.38c-1.63-2.64-8.24-3.89-10.93-3.4
				C67.17,2.6,66.76,2.3,66.7,1.86c-0.06-0.42,0.21-0.82,0.63-0.91c3.09-0.55,10.54,0.81,12.59,4.15c0.23,0.38,0.11,0.88-0.27,1.11
				C79.53,6.28,79.38,6.32,79.23,6.32L79.23,6.32z"/>
			<path id="パス_2343" fill="#3B3938" d="M50.32,10.02c-0.45,0-0.81-0.36-0.81-0.81c0-0.25,0.12-0.49,0.32-0.64
				c5.05-3.86,16.68-4.36,20.76-1.78c0.38,0.24,0.49,0.74,0.25,1.11c-0.24,0.38-0.74,0.49-1.11,0.25
				c-3.61-2.28-14.39-1.76-18.92,1.7C50.67,9.96,50.5,10.02,50.32,10.02z"/>
			<path id="パス_2344" fill="#3B3938" d="M34.86,29.62c-0.14,0-0.28-0.04-0.4-0.11c-0.39-0.22-0.52-0.71-0.3-1.1
				c1.74-3.04,6.09-7.92,9.44-9.86c-0.49-0.09-0.98-0.14-1.47-0.16c-0.45-0.02-0.79-0.4-0.77-0.85c0.01-0.18,0.08-0.35,0.19-0.48
				c2.49-2.96,8.98-5.42,12.79-6.22c0.44-0.08,0.86,0.2,0.94,0.64c0.08,0.43-0.19,0.84-0.61,0.94c-3.82,0.82-7.44,2.37-10.67,4.56
				c0.76,0.14,1.46,0.49,2.04,1.01c0.34,0.29,0.38,0.8,0.09,1.14c-0.11,0.13-0.26,0.22-0.42,0.26c-2.61,0.64-8.1,6.25-10.14,9.82
				C35.42,29.47,35.15,29.62,34.86,29.62z"/>
			<path id="パス_2345" fill="#3B3938" d="M33.08,56.52c-0.44,0-0.8-0.35-0.81-0.79c-0.12-5.91,0.87-8.64,2.09-10.95
				c-0.82,0.13-1.62,0.34-2.39,0.64c-0.42,0.16-0.89-0.05-1.05-0.46c-0.03-0.09-0.05-0.18-0.05-0.28
				c-0.06-4.93,6.35-15.62,9.83-18.56c0.33-0.3,0.84-0.26,1.14,0.07c0.3,0.33,0.26,0.84-0.07,1.14c-0.01,0.01-0.02,0.02-0.03,0.02
				c-2.92,2.47-8.35,11.4-9.15,16.17c1.05-0.32,2.15-0.46,3.25-0.42c0.44,0.04,0.77,0.44,0.73,0.88c-0.01,0.11-0.04,0.22-0.1,0.32
				c-1.46,2.59-2.72,4.83-2.58,11.41c0.01,0.45-0.34,0.81-0.79,0.82c0,0,0,0,0,0L33.08,56.52z"/>
			<path id="パス_2346" fill="#3B3938" d="M88.11,8c-0.36,0-0.68-0.24-0.78-0.59c-1.08-3.9-3.15-5.11-5.24-5.84
				c-0.42-0.15-0.64-0.61-0.5-1.03s0.61-0.64,1.03-0.5c2.24,0.78,4.97,2.28,6.26,6.93c0.12,0.43-0.13,0.87-0.56,0.99
				C88.26,7.99,88.18,8,88.11,8L88.11,8z"/>
			<path id="パス_2347" fill="#3B3938" d="M102.54,13.85c-0.27,0-0.53-0.14-0.68-0.36c-1.79-2.72-7.71-4.42-10.33-4
				c-0.44,0.07-0.86-0.23-0.93-0.67c-0.07-0.44,0.23-0.86,0.67-0.93l0,0c3.15-0.5,9.76,1.41,11.93,4.71
				c0.25,0.37,0.14,0.87-0.23,1.12C102.86,13.8,102.7,13.85,102.54,13.85L102.54,13.85z"/>
			<path id="パス_2348" fill="#3B3938" d="M110.54,42.01c-0.43,0-0.78-0.33-0.8-0.75c-0.28-4.21-3.84-12.32-3.88-12.4
				c-0.18-0.41,0-0.89,0.41-1.07c0.08-0.04,0.18-0.06,0.27-0.07c0.27-0.02,0.88-0.06,1.49-0.06c-1.55-4.02-6.28-10.59-9.46-12.31
				c-0.39-0.21-0.54-0.7-0.33-1.09c0.21-0.39,0.7-0.54,1.09-0.33l0,0c3.85,2.08,9.52,10.22,10.61,14.4
				c0.11,0.43-0.15,0.87-0.58,0.99c-0.13,0.04-0.27,0.04-0.41,0c-0.39-0.05-0.78-0.06-1.16-0.03c1.01,2.41,3.32,8.29,3.55,11.88
				c0.03,0.45-0.31,0.83-0.75,0.86L110.54,42.01z"/>
			<path id="パス_2349" fill="#3B3938" d="M105.9,65.61c-0.1,0-0.2-0.02-0.3-0.06c-0.41-0.17-0.61-0.64-0.45-1.05c0,0,0,0,0,0
				c0.74-1.83,0.93-7.47,0.87-9.95c-0.01-0.45,0.34-0.82,0.79-0.83c0.12,0,0.23,0.02,0.34,0.06l1.21,0.52
				c-0.29-4.54-0.98-9.05-2.07-13.48c-0.12-0.43,0.14-0.87,0.57-0.99c0.41-0.11,0.84,0.11,0.98,0.52
				c0.69,2.24,2.33,11.37,2.12,15.21c-0.03,0.44-0.41,0.79-0.85,0.76c-0.09-0.01-0.18-0.03-0.26-0.06c-0.29-0.12-0.76-0.32-1.2-0.51
				c-0.02,2.51-0.2,7.37-1,9.35C106.53,65.41,106.23,65.61,105.9,65.61z"/>
			<path id="パス_2350" fill="#3B3938" d="M36.94,65.78c-0.33,0-0.63-0.2-0.75-0.51c-0.79-1.99-1.65-7.91-0.7-11.61
				c0.11-0.43,0.55-0.69,0.98-0.58s0.69,0.55,0.58,0.98l0,0c-0.82,3.21-0.08,8.81,0.64,10.62c0.16,0.42-0.04,0.88-0.46,1.04
				C37.13,65.76,37.03,65.78,36.94,65.78L36.94,65.78z"/>
			<g id="グループ_1702" transform="translate(0 105.536)">
				<g id="グループ_1700" transform="translate(72.044)">
					<path id="パス_2351" fill="#3B3938" d="M19.36,8.97c-0.42,0-0.77-0.33-0.8-0.75c-0.19-2.7-0.31-7.35-0.31-7.39
						C18.23,0.38,18.58,0,19.02-0.02c0.45-0.02,0.82,0.32,0.85,0.77c0,0.01,0,0.03,0,0.04c0,0.05,0.11,4.66,0.3,7.32
						c0.03,0.44-0.3,0.83-0.75,0.86c0,0,0,0,0,0C19.41,8.97,19.38,8.97,19.36,8.97z"/>
					<path id="パス_2352" fill="#3B3938" d="M0.81,19.3C0.36,19.3,0,18.94,0,18.49c0-0.37,0.25-0.69,0.61-0.78
						c4.14-1.06,13.62-5.54,16.61-8.63c0.31-0.32,0.82-0.33,1.14-0.01c0.32,0.31,0.33,0.82,0.02,1.14
						c-3.22,3.33-12.96,7.95-17.37,9.08C0.94,19.29,0.88,19.3,0.81,19.3z"/>
					<path id="パス_2353" fill="#3B3938" d="M9.05,36.25H9.01c-0.22-0.01-0.42-0.11-0.56-0.26c-1.01-1.12-6.5-12.57-7.59-14.86
						c-0.19-0.4-0.02-0.89,0.38-1.08c0.4-0.19,0.89-0.02,1.08,0.38c2.6,5.44,5.55,11.41,6.8,13.63c2.63-3.8,11.2-18.97,11.63-21.26
						c0.08-0.44,0.51-0.73,0.94-0.64c0.44,0.08,0.73,0.51,0.64,0.94C21.8,15.95,11.23,34.52,9.59,36.04
						C9.44,36.17,9.25,36.25,9.05,36.25z"/>
					<path id="パス_2354" fill="#3B3938" d="M69.54,60.09L69.54,60.09c-0.45,0-0.81-0.37-0.81-0.81c0.16-19.44-3.68-25.89-5.98-28
						c-3.74-3.43-14.67-8.16-24.31-12.34c-8.43-3.65-15.71-6.8-17.5-8.75c-0.29-0.34-0.25-0.85,0.09-1.14
						c0.32-0.28,0.81-0.26,1.11,0.05c1.55,1.69,9.03,4.93,16.95,8.36c9.76,4.22,20.82,9.01,24.76,12.63
						c3.06,2.8,6.66,10.15,6.51,29.21C70.34,59.73,69.98,60.09,69.54,60.09z"/>
					<path id="パス_2355" fill="#3B3938" d="M16.2,60.09c-0.1,0-0.21-0.02-0.31-0.06c-0.41-0.17-0.61-0.64-0.44-1.05
						c3.19-7.79,7-34.54,7.68-44.96c0.02-0.45,0.39-0.79,0.84-0.77c0.45,0.02,0.79,0.39,0.77,0.84c0,0.01,0,0.03,0,0.04
						c-0.7,10.51-4.55,37.54-7.8,45.47C16.83,59.89,16.53,60.09,16.2,60.09z"/>
					<path id="パス_2356" fill="#3B3938" d="M25.64,60.09c-0.45,0-0.81-0.36-0.81-0.81c0-0.18,0.06-0.35,0.16-0.49
						c2.54-3.36,7.27-14.67,8.3-17.19l-5.71-5.58c-0.32-0.31-0.32-0.82-0.01-1.14c0.02-0.03,0.05-0.05,0.08-0.07l5.64-4.42
						l-4.76-13.43c-0.15-0.42,0.07-0.88,0.49-1.03c0.42-0.15,0.88,0.07,1.03,0.49l4.96,13.97c0.12,0.33,0.01,0.69-0.26,0.91
						l-5.37,4.21l5.44,5.32c0.23,0.23,0.31,0.58,0.18,0.88c-0.23,0.57-5.74,14.12-8.72,18.06C26.13,59.97,25.89,60.09,25.64,60.09z"
						/>
				</g>
				<g id="グループ_1701">
					<path id="パス_2357" fill="#3B3938" d="M51.3,8.97c-0.02,0-0.04,0-0.06,0c-0.44-0.03-0.78-0.42-0.75-0.86
						c0.19-2.66,0.3-7.27,0.3-7.32C50.81,0.35,51.17,0,51.62,0c0.45,0.01,0.8,0.38,0.79,0.83c0,0.05-0.11,4.7-0.31,7.39
						C52.07,8.64,51.72,8.97,51.3,8.97z"/>
					<path id="パス_2358" fill="#3B3938" d="M69.85,19.3c-0.07,0-0.13-0.01-0.2-0.02c-4.41-1.13-14.15-5.74-17.38-9.08
						c-0.31-0.32-0.3-0.83,0.03-1.14c0.32-0.31,0.83-0.3,1.14,0.02c3,3.1,12.47,7.57,16.61,8.63c0.43,0.11,0.69,0.55,0.58,0.98
						C70.54,19.05,70.22,19.3,69.85,19.3L69.85,19.3z"/>
					<path id="パス_2359" fill="#3B3938" d="M61.61,36.25c-0.2,0-0.4-0.08-0.55-0.21c-1.64-1.52-12.2-20.09-12.74-22.95
						c-0.08-0.44,0.21-0.86,0.64-0.94c0.44-0.08,0.86,0.21,0.94,0.64l0,0c0.43,2.29,8.99,17.47,11.63,21.26
						c1.26-2.22,4.21-8.19,6.8-13.63c0.19-0.4,0.68-0.57,1.08-0.38s0.57,0.68,0.38,1.08c-1.09,2.28-6.58,13.74-7.6,14.86
						c-0.14,0.16-0.35,0.26-0.56,0.26L61.61,36.25z"/>
					<path id="パス_2360" fill="#3B3938" d="M0.81,60.09c-0.44,0-0.8-0.36-0.81-0.8c-0.17-19.82,4.2-26.81,6.81-29.21
						c3.94-3.62,15-8.41,24.76-12.63c7.92-3.43,15.4-6.66,16.95-8.36c0.29-0.34,0.8-0.38,1.14-0.09c0.34,0.29,0.38,0.8,0.09,1.14
						c-0.01,0.01-0.02,0.02-0.03,0.04c-1.78,1.95-9.06,5.1-17.5,8.75c-9.64,4.17-20.57,8.9-24.31,12.34
						c-2.42,2.22-6.45,8.81-6.29,28C1.62,59.72,1.26,60.08,0.81,60.09L0.81,60.09z"/>
					<path id="パス_2361" fill="#3B3938" d="M54.46,60.09c-0.33,0-0.62-0.2-0.75-0.5c-3.25-7.93-7.11-34.96-7.8-45.47
						c-0.03-0.44,0.31-0.83,0.75-0.86c0.44-0.03,0.83,0.31,0.86,0.75l0,0c0.69,10.42,4.49,37.18,7.68,44.96
						c0.17,0.41-0.03,0.88-0.44,1.05C54.66,60.07,54.56,60.09,54.46,60.09L54.46,60.09z"/>
					<path id="パス_2362" fill="#3B3938" d="M45.02,60.09c-0.25,0-0.49-0.12-0.64-0.32c-2.98-3.94-8.49-17.49-8.72-18.06
						c-0.12-0.3-0.05-0.65,0.18-0.88l5.44-5.32l-5.37-4.21c-0.27-0.21-0.38-0.58-0.26-0.91l4.96-13.97
						c0.16-0.41,0.63-0.62,1.05-0.45c0.39,0.16,0.6,0.59,0.47,0.99l-4.76,13.43L43,34.8c0.35,0.28,0.41,0.78,0.14,1.13
						c-0.02,0.03-0.05,0.05-0.07,0.08l-5.71,5.58c1.04,2.52,5.76,13.83,8.3,17.19c0.27,0.35,0.2,0.86-0.15,1.13
						C45.36,60.03,45.19,60.09,45.02,60.09L45.02,60.09z"/>
				</g>
			</g>
			<path id="パス_2363" fill="#3B3938" d="M71.44,144.81c-1.25,0.05-2.49-0.14-3.67-0.54c-2.04-0.85-2.09-7.24-2.09-7.31
				c0-0.45,0.36-0.81,0.81-0.81c0.45,0,0.81,0.36,0.81,0.81c0,2.74,0.69,5.49,1.13,5.83c1.67,0.69,6.01,0.39,7.67-0.2
				c0.42-0.14,0.88,0.08,1.03,0.5c0.14,0.42-0.07,0.87-0.49,1.02C74.94,144.6,73.19,144.83,71.44,144.81z"/>
			<path id="パス_2364" fill="#3B3938" d="M76.22,141.7c-0.05,0-0.1,0-0.15-0.01c-0.44-0.08-0.73-0.51-0.64-0.94
				c0.22-1.39,0.27-2.8,0.14-4.19c-0.03-0.45,0.31-0.83,0.76-0.85c0.42-0.02,0.79,0.28,0.85,0.7c0.15,1.55,0.09,3.11-0.16,4.65
				C76.93,141.43,76.6,141.7,76.22,141.7z"/>
			<path id="パス_2365" fill="#3B3938" d="M72.79,129.77c-0.09,0-0.18-0.01-0.26-0.04c-0.76-0.14-1.54-0.13-2.3,0.01
				c-0.43,0.12-0.88-0.12-1-0.55c-0.12-0.43,0.12-0.88,0.55-1l0,0c1.08-0.24,2.2-0.23,3.27,0.01c0.42,0.15,0.65,0.6,0.5,1.03
				C73.44,129.55,73.14,129.77,72.79,129.77L72.79,129.77z"/>
			<path id="パス_2366" fill="#3B3938" d="M64.4,165.63h-0.03c-0.45-0.01-0.8-0.39-0.78-0.83c0.09-2.81,1.33-16.34,2.1-19.67
				c0.12-0.43,0.56-0.69,0.99-0.57c0.41,0.11,0.66,0.52,0.58,0.93c-0.69,3.01-1.96,16.31-2.06,19.36
				C65.2,165.28,64.84,165.63,64.4,165.63z"/>
			<path id="パス_2367" fill="#3B3938" d="M79.18,165.63c-0.44,0-0.79-0.35-0.81-0.78c-0.1-3.05-1.37-16.35-2.06-19.36
				c-0.09-0.44,0.18-0.87,0.62-0.96c0.43-0.09,0.85,0.17,0.96,0.6c0.76,3.33,2.01,16.86,2.1,19.67c0.01,0.45-0.34,0.82-0.78,0.83
				L79.18,165.63z"/>
		</g>
	</g>
</g>
</svg>
