<svg xmlns="http://www.w3.org/2000/svg" viewBox="0 0 1103.11 614.05"><rect x="177.84" y="155" width="300" height="459.05" fill="#fff"/><rect x="178.34" y="155.5" width="299" height="458.05" fill="none" stroke="#707070"/><rect x="477.84" y="155" width="300" height="459.05" fill="#fff"/><rect x="478.34" y="155.5" width="299" height="458.05" fill="none" stroke="#707070"/><rect x="778.84" y="155" width="324.27" height="459.05" fill="#fff"/><rect x="779.34" y="155.5" width="323.27" height="458.05" fill="none" stroke="#707070"/><path d="M965.47,191.33a24,24,0,1,1-24-24A24,24,0,0,1,965.47,191.33Z" transform="translate(0 0)" fill="none" stroke="#1a62a3" stroke-linecap="round" stroke-linejoin="round" stroke-width="5"/><path d="M965.47,269.23a24,24,0,1,1-24-24A24,24,0,0,1,965.47,269.23Z" transform="translate(0 0)" fill="none" stroke="#1a62a3" stroke-linecap="round" stroke-linejoin="round" stroke-width="5"/><path d="M965.47,347.13a24,24,0,1,1-24-24A24,24,0,0,1,965.47,347.13Z" transform="translate(0 0)" fill="none" stroke="#1a62a3" stroke-linecap="round" stroke-linejoin="round" stroke-width="5"/><path d="M965.47,425a24,24,0,1,1-24-24A24,24,0,0,1,965.47,425Z" transform="translate(0 0)" fill="none" stroke="#1a62a3" stroke-linecap="round" stroke-linejoin="round" stroke-width="5"/><path d="M965.47,502.94a24,24,0,1,1-24-24A24,24,0,0,1,965.47,502.94Z" transform="translate(0 0)" fill="none" stroke="#1a62a3" stroke-linecap="round" stroke-linejoin="round" stroke-width="5"/><path d="M351.62,191.4a24,24,0,1,1-24-24A24,24,0,0,1,351.62,191.4Z" transform="translate(0 0)" fill="none" stroke="#1a62a3" stroke-linecap="round" stroke-linejoin="round" stroke-width="5"/><path d="M351.58,285h0L335.67,269.1l15.91-15.91h0a1.64,1.64,0,0,0,0-2.32l-7.51-7.52a1.64,1.64,0,0,0-2.32,0h0l-15.91,15.91-15.9-15.91h0a1.64,1.64,0,0,0-2.32,0l-7.52,7.52a1.64,1.64,0,0,0,0,2.32h0L316,269.1,300.1,285h0a1.64,1.64,0,0,0,0,2.32l7.52,7.51a1.64,1.64,0,0,0,2.32,0h0l15.91-15.91,15.91,15.91h0a1.64,1.64,0,0,0,2.32,0l7.52-7.51a1.66,1.66,0,0,0,0-2.32Z" transform="translate(0 0)" fill="#ddd"/><path d="M351.58,362.89h0L335.67,347l15.91-15.91h0a1.64,1.64,0,0,0,0-2.32l-7.51-7.52a1.64,1.64,0,0,0-2.32,0h0l-15.91,15.91-15.9-15.91h0a1.64,1.64,0,0,0-2.32,0l-7.52,7.52a1.64,1.64,0,0,0,0,2.32h0L316,347,300.1,362.89h0a1.64,1.64,0,0,0,0,2.32l7.52,7.51a1.64,1.64,0,0,0,2.32,0h0l15.91-15.91,15.91,15.91h0a1.64,1.64,0,0,0,2.32,0l7.52-7.51a1.66,1.66,0,0,0,0-2.32Z" transform="translate(0 0)" fill="#ddd"/><path d="M347.4,424.68a24,24,0,1,1-24-24A24,24,0,0,1,347.4,424.68Z" transform="translate(0 0)" fill="none" stroke="#1a62a3" stroke-linecap="round" stroke-linejoin="round" stroke-width="5"/><path d="M349.14,518.46h0l-15.91-15.91,15.91-15.91h0a1.64,1.64,0,0,0,0-2.32l-7.51-7.52a1.64,1.64,0,0,0-2.32,0h0L323.4,492.71,307.5,476.8h0a1.64,1.64,0,0,0-2.32,0l-7.52,7.52a1.64,1.64,0,0,0,0,2.32h0l15.91,15.91-15.91,15.91h0a1.64,1.64,0,0,0,0,2.32l7.52,7.51a1.64,1.64,0,0,0,2.32,0h0l15.91-15.91,15.91,15.91h0a1.64,1.64,0,0,0,2.32,0l7.52-7.51a1.66,1.66,0,0,0,0-2.32Z" transform="translate(0 0)" fill="#ddd"/><path d="M652.46,206.92h0L636.55,191l15.91-15.91h0a1.64,1.64,0,0,0,0-2.32L645,165.26a1.64,1.64,0,0,0-2.32,0h0l-15.91,15.91-15.9-15.91h0a1.64,1.64,0,0,0-2.32,0L601,172.78a1.64,1.64,0,0,0,0,2.32h0L616.89,191,601,206.92h0a1.64,1.64,0,0,0,0,2.32l7.52,7.51a1.64,1.64,0,0,0,2.32,0h0l15.91-15.91,15.91,15.91h0a1.64,1.64,0,0,0,2.32,0l7.52-7.51a1.66,1.66,0,0,0,0-2.32Z" transform="translate(0 0)" fill="#ddd"/><path d="M651.84,268.79a24,24,0,1,1-24-24A24,24,0,0,1,651.84,268.79Z" transform="translate(0 0)" fill="none" stroke="#1a62a3" stroke-linecap="round" stroke-linejoin="round" stroke-width="5"/><path d="M650.5,346.69a24,24,0,1,1-24-24A24,24,0,0,1,650.5,346.69Z" transform="translate(0 0)" fill="none" stroke="#1a62a3" stroke-linecap="round" stroke-linejoin="round" stroke-width="5"/><path d="M652.24,440.67h0l-15.91-15.91,15.91-15.91h0a1.64,1.64,0,0,0,0-2.32L644.73,399a1.64,1.64,0,0,0-2.32,0h0L626.5,414.92,610.6,399h0a1.64,1.64,0,0,0-2.32,0l-7.52,7.52a1.64,1.64,0,0,0,0,2.32h0l15.91,15.91-15.91,15.91h0a1.64,1.64,0,0,0,0,2.32l7.52,7.51a1.64,1.64,0,0,0,2.32,0h0l15.91-15.91,15.91,15.91h0a1.64,1.64,0,0,0,2.32,0l7.52-7.51a1.66,1.66,0,0,0,0-2.32Z" transform="translate(0 0)" fill="#ddd"/><path d="M652.24,518.56h0l-15.91-15.91,15.91-15.91h0a1.64,1.64,0,0,0,0-2.32l-7.51-7.52a1.64,1.64,0,0,0-2.32,0h0L626.5,492.81,610.6,476.9h0a1.64,1.64,0,0,0-2.32,0l-7.52,7.52a1.64,1.64,0,0,0,0,2.32h0l15.91,15.91-15.91,15.91h0a1.64,1.64,0,0,0,0,2.32l7.52,7.51a1.64,1.64,0,0,0,2.32,0h0l15.91-15.91,15.91,15.91h0a1.64,1.64,0,0,0,2.32,0l7.52-7.51a1.66,1.66,0,0,0,0-2.32Z" transform="translate(0 0)" fill="#ddd"/><g style="isolation:isolate"><path d="M876.22,564.2v18.22c0,2.74-1.18,3.07-6.62,3a9.58,9.58,0,0,0-1-2.38c1.06.05,2.11.07,3,.07,2.09,0,2.23,0,2.23-.74V577.9H862.88a13.3,13.3,0,0,1-4.49,7.58,9.66,9.66,0,0,0-1.7-1.68c4.08-3.26,4.46-8.09,4.46-11.93v-7.68h15.07Zm-12.74,7.94a30,30,0,0,1-.22,3.55h10.56v-3.55Zm10.34-5.73H863.48V570h10.34Z" transform="translate(0 0)" fill="#343434"/><path d="M889,578.05v5.81a13.66,13.66,0,0,0,4.46-2.81l2,1.18a.7.7,0,0,1-.46.19,15.26,15.26,0,0,1-4.78,3,11.73,11.73,0,0,0-1.46-1.44h-5.3v1.08h-1.94v-6.55l-.79.36a7,7,0,0,0-1.2-1.63,14.32,14.32,0,0,0,4.7-2.93c-.67-.5-1.37-1-2-1.44a15,15,0,0,1-1.3,1,11.24,11.24,0,0,0-1.37-1.27,12.43,12.43,0,0,0,4.39-5.3l2.23.7c-.05.17-.24.26-.53.24l-.43.84H888l.34-.07c.6.29,1,.46,1.34.6a.58.58,0,0,1-.24.29,13.94,13.94,0,0,1-2.33,4.1c1.39,1,2.66,2,3.5,2.74l-1.32,1.58Zm-7-11v2h-1.87v-3.86h4V563l2.69.17c0,.19-.17.31-.55.36v1.68h4.08v3.86h-1.92v-2Zm6.31,10.44c-.72-.62-1.58-1.3-2.5-2a17.46,17.46,0,0,1-2.5,2Zm-1.29,4.73v-3H883.5v3Zm-2.84-11.52c-.22.29-.43.55-.67.84.65.43,1.34.91,2,1.39a12.29,12.29,0,0,0,1.44-2.23Zm7.23-2.59h3.17c.14-.67.29-1.42.41-2.09h-4.44v-2h11.76v2h-5c-.17.62-.36,1.39-.6,2.09h4.66v12.72h-9.94V568.09Zm7.78,3.72v-2H893.5v2Zm0,3.6v-2H893.5v2Zm0,3.65v-2H893.5v2Zm1.7,6.48a25.24,25.24,0,0,0-4-3.26l1.7-1.06a29.57,29.57,0,0,1,4.06,3.12Z" transform="translate(0 0)" fill="#343434"/><path d="M913.76,583.33h-2.62v-4.78h-7.56v-1.8l7.08-11.5h3.1v11.19H916v2.11h-2.26v4.78Zm-7.56-6.89h4.94V571c0-1,.05-2.11.12-3.14h-.1c-.55,1.15-1,2-1.51,3l-3.46,5.52v0Z" transform="translate(0 0)" fill="#343434"/><path d="M928,565.25v2.3h-6.34l-.6,4.3c.36,0,.7-.07,1.2-.07,3.29,0,6.12,1.92,6.12,5.62,0,3.48-2.67,6.19-6.6,6.19a8.53,8.53,0,0,1-4.22-1l.62-2.11a7.47,7.47,0,0,0,3.5.91,3.68,3.68,0,0,0,3.86-3.74c0-2.33-1.58-3.79-4.8-3.79a14.37,14.37,0,0,0-2.18.14l1.13-8.74Z" transform="translate(0 0)" fill="#343434"/><path d="M935.12,579.61a34.69,34.69,0,0,1-2.81,6.89l-1.92.19a39.32,39.32,0,0,0,1.7-6.82Z" transform="translate(0 0)" fill="#343434"/><path d="M936.85,574.33c0-5.9,2.23-9.36,6-9.36s5.74,3.7,5.74,9.17c0,6.12-2.21,9.46-5.93,9.46S936.85,579.87,936.85,574.33Zm8.9-.1c0-4.3-.91-7.06-3-7.06-1.82,0-3.07,2.54-3.07,7.06s1.1,7.13,3,7.13C945,581.36,945.75,578,945.75,574.23Z" transform="translate(0 0)" fill="#343434"/><path d="M950.33,574.33c0-5.9,2.23-9.36,6-9.36s5.74,3.7,5.74,9.17c0,6.12-2.21,9.46-5.93,9.46S950.33,579.87,950.33,574.33Zm8.91-.1c0-4.3-.91-7.06-3-7.06-1.82,0-3.07,2.54-3.07,7.06s1.1,7.13,3,7.13C958.52,581.36,959.24,578,959.24,574.23Z" transform="translate(0 0)" fill="#343434"/><path d="M963.82,574.33c0-5.9,2.23-9.36,6-9.36s5.74,3.7,5.74,9.17c0,6.12-2.21,9.46-5.93,9.46S963.82,579.87,963.82,574.33Zm8.91-.1c0-4.3-.91-7.06-3-7.06-1.82,0-3.07,2.54-3.07,7.06s1.1,7.13,3,7.13C972,581.36,972.73,578,972.73,574.23Z" transform="translate(0 0)" fill="#343434"/><path d="M998.38,564.58v18c0,2.59-1.2,2.83-5.69,2.83a7.58,7.58,0,0,0-.84-2.28c.79,0,1.56.05,2.21.05,2,0,2,0,2-.62V575.8H980.43v9.67h-2.28V564.59h20.23Zm-18,2.26v6.7H987v-6.7Zm8.81,6.7h6.84v-6.7h-6.84Z" transform="translate(0 0)" fill="#343434"/><path d="M1023,573.34c-1.56,2.83-3.82,4.3-6.36,4.3a7.36,7.36,0,0,1-5.54-2.59,5,5,0,0,0-3.84-1.87c-1.75,0-3.26,1.22-4.22,3.05l-2.11-1.15c1.56-2.83,3.82-4.3,6.36-4.3a7.36,7.36,0,0,1,5.54,2.59,5,5,0,0,0,3.84,1.87c1.75,0,3.26-1.22,4.22-3Z" transform="translate(0 0)" fill="#343434"/></g><g style="isolation:isolate"><path d="M262.59,564.2v18.22c0,2.74-1.18,3.07-6.62,3a9.58,9.58,0,0,0-1-2.38c1.06.05,2.11.07,2.95.07,2.09,0,2.23,0,2.23-.74V577.9H249.25a13.3,13.3,0,0,1-4.49,7.58,9.66,9.66,0,0,0-1.7-1.68c4.08-3.26,4.46-8.09,4.46-11.93v-7.68h15.07Zm-12.75,7.94a30,30,0,0,1-.22,3.55h10.56v-3.55Zm10.35-5.73H249.85V570h10.34Z" transform="translate(0 0)" fill="#343434"/><path d="M275.38,578.05v5.81a13.66,13.66,0,0,0,4.46-2.81l2,1.18a.7.7,0,0,1-.46.19,15.26,15.26,0,0,1-4.78,3,11.73,11.73,0,0,0-1.46-1.44h-5.3v1.08h-1.94v-6.55l-.79.36a7,7,0,0,0-1.2-1.63,14.32,14.32,0,0,0,4.7-2.93c-.67-.5-1.37-1-2-1.44a15,15,0,0,1-1.3,1,11.24,11.24,0,0,0-1.37-1.27,12.43,12.43,0,0,0,4.39-5.3l2.23.7c-.05.17-.24.26-.53.24l-.43.84h2.78l.34-.07c.6.29,1,.46,1.34.6a.58.58,0,0,1-.24.29,13.94,13.94,0,0,1-2.33,4.1c1.39,1,2.66,2,3.5,2.74l-1.32,1.58Zm-7-11v2h-1.87v-3.86h4V563l2.69.17c0,.19-.17.31-.55.36v1.68h4.08v3.86h-1.92v-2Zm6.31,10.44c-.72-.62-1.58-1.3-2.5-2a17.46,17.46,0,0,1-2.5,2Zm-1.3,4.73v-3h-3.55v3Zm-2.83-11.52c-.22.29-.43.55-.67.84.65.43,1.34.91,2,1.39a12.29,12.29,0,0,0,1.44-2.23Zm7.22-2.59H281c.14-.67.29-1.42.41-2.09h-4.44v-2H288.7v2h-5c-.17.62-.36,1.39-.6,2.09h4.66v12.72H277.8V568.09Zm7.78,3.72v-2h-5.71v2Zm0,3.6v-2h-5.71v2Zm0,3.65v-2h-5.71v2Zm1.71,6.48a25.24,25.24,0,0,0-4-3.26l1.7-1.06a29.57,29.57,0,0,1,4.06,3.12Z" transform="translate(0 0)" fill="#343434"/><path d="M293.67,573.8a4.58,4.58,0,0,1-2.69-4c0-2.88,2.33-4.8,5.35-4.8,3.46,0,5.06,2.28,5.06,4.46a4.69,4.69,0,0,1-2.78,4.18v.07a5.07,5.07,0,0,1,3.38,4.66c0,3.14-2.5,5.26-5.9,5.26-3.7,0-5.74-2.3-5.74-4.85a5.29,5.29,0,0,1,3.31-4.87v-.08Zm5.52,4.8c0-2-1.34-3.14-3.31-3.79a3.75,3.75,0,0,0-2.71,3.6,3,3,0,0,0,3,3.22A2.89,2.89,0,0,0,299.19,578.6Zm-5.57-9c0,1.66,1.18,2.64,2.88,3.22a3.46,3.46,0,0,0,2.26-3.12,2.48,2.48,0,0,0-2.52-2.78A2.51,2.51,0,0,0,293.62,569.6Z" transform="translate(0 0)" fill="#343434"/><path d="M303.79,574.33c0-5.9,2.23-9.36,6-9.36s5.74,3.7,5.74,9.17c0,6.12-2.21,9.46-5.93,9.46S303.79,579.87,303.79,574.33Zm8.91-.1c0-4.3-.91-7.06-3-7.06-1.82,0-3.07,2.54-3.07,7.06s1.1,7.13,3,7.13C312,581.36,312.7,578,312.7,574.23Z" transform="translate(0 0)" fill="#343434"/><path d="M321.48,579.61a34.69,34.69,0,0,1-2.81,6.89l-1.92.19a39.32,39.32,0,0,0,1.7-6.82Z" transform="translate(0 0)" fill="#343434"/><path d="M323.21,574.33c0-5.9,2.23-9.36,6-9.36s5.74,3.7,5.74,9.17c0,6.12-2.21,9.46-5.93,9.46S323.21,579.87,323.21,574.33Zm8.91-.1c0-4.3-.91-7.06-3-7.06-1.82,0-3.07,2.54-3.07,7.06s1.1,7.13,3,7.13C331.4,581.36,332.12,578,332.12,574.23Z" transform="translate(0 0)" fill="#343434"/><path d="M336.7,574.33c0-5.9,2.23-9.36,6-9.36s5.74,3.7,5.74,9.17c0,6.12-2.21,9.46-5.93,9.46S336.7,579.87,336.7,574.33Zm8.9-.1c0-4.3-.91-7.06-3-7.06-1.82,0-3.07,2.54-3.07,7.06s1.1,7.13,3,7.13C344.88,581.36,345.6,578,345.6,574.23Z" transform="translate(0 0)" fill="#343434"/><path d="M350.19,574.33c0-5.9,2.23-9.36,6-9.36s5.74,3.7,5.74,9.17c0,6.12-2.21,9.46-5.93,9.46S350.19,579.87,350.19,574.33Zm8.9-.1c0-4.3-.91-7.06-3-7.06-1.82,0-3.07,2.54-3.07,7.06s1.1,7.13,3,7.13C358.37,581.36,359.09,578,359.09,574.23Z" transform="translate(0 0)" fill="#343434"/><path d="M384.75,564.58v18c0,2.59-1.2,2.83-5.69,2.83a7.58,7.58,0,0,0-.84-2.28c.79,0,1.56.05,2.21.05,2,0,2,0,2-.62V575.8H366.8v9.67h-2.28V564.59h20.23Zm-18,2.26v6.7h6.55v-6.7Zm8.81,6.7h6.84v-6.7H375.6Z" transform="translate(0 0)" fill="#343434"/><path d="M409.35,573.34c-1.56,2.83-3.82,4.3-6.36,4.3a7.36,7.36,0,0,1-5.54-2.59,5,5,0,0,0-3.84-1.87c-1.75,0-3.26,1.22-4.22,3.05l-2.11-1.15c1.56-2.83,3.82-4.3,6.36-4.3a7.36,7.36,0,0,1,5.54,2.59,5,5,0,0,0,3.84,1.87c1.75,0,3.26-1.22,4.22-3Z" transform="translate(0 0)" fill="#343434"/></g><g style="isolation:isolate"><path d="M554.25,564.2v18.22c0,2.74-1.18,3.07-6.62,3a9.58,9.58,0,0,0-1-2.38c1.06.05,2.11.07,3,.07,2.09,0,2.23,0,2.23-.74V577.9H540.91a13.3,13.3,0,0,1-4.49,7.58,9.66,9.66,0,0,0-1.7-1.68c4.08-3.26,4.46-8.09,4.46-11.93v-7.68h15.07Zm-12.75,7.94a30,30,0,0,1-.22,3.55h10.56v-3.55Zm10.35-5.73H541.5V570h10.34v-3.55Z" transform="translate(0 0)" fill="#343434"/><path d="M567,578.05v5.81a13.66,13.66,0,0,0,4.46-2.81l2,1.18a.7.7,0,0,1-.46.19,15.26,15.26,0,0,1-4.78,3,11.73,11.73,0,0,0-1.46-1.44h-5.3v1.08h-1.94v-6.55l-.79.36a7,7,0,0,0-1.2-1.63,14.32,14.32,0,0,0,4.7-2.93c-.67-.5-1.37-1-2-1.44a15,15,0,0,1-1.3,1,11.24,11.24,0,0,0-1.37-1.27,12.43,12.43,0,0,0,4.39-5.3l2.23.7c-.05.17-.24.26-.53.24l-.43.84H566l.34-.07c.6.29,1,.46,1.34.6a.58.58,0,0,1-.24.29,13.94,13.94,0,0,1-2.33,4.1c1.39,1,2.66,2,3.5,2.74l-1.32,1.58Zm-7-11v2h-1.87v-3.86h4V563l2.69.17c0,.19-.17.31-.55.36v1.68h4.08v3.86h-1.92v-2Zm6.31,10.44c-.72-.62-1.58-1.3-2.5-2a17.46,17.46,0,0,1-2.5,2Zm-1.3,4.73v-3h-3.55v3Zm-2.83-11.52c-.22.29-.43.55-.67.84.65.43,1.34.91,2,1.39a12.29,12.29,0,0,0,1.44-2.23Zm7.22-2.59h3.17c.14-.67.29-1.42.41-2.09H568.6v-2h11.76v2h-5c-.17.62-.36,1.39-.6,2.09h4.66v12.72h-9.94V568.09Zm7.78,3.72v-2h-5.71v2Zm0,3.6v-2h-5.71v2Zm0,3.65v-2h-5.71v2Zm1.71,6.48a25.24,25.24,0,0,0-4-3.26l1.7-1.06a29.57,29.57,0,0,1,4.06,3.12Z" transform="translate(0 0)" fill="#343434"/><path d="M587.18,583.33V567.8h0l-3,1.68-.62-2,4.08-2.18h2.35v18.07Z" transform="translate(0 0)" fill="#343434"/><path d="M595.46,574.33c0-5.9,2.23-9.36,6-9.36s5.74,3.7,5.74,9.17c0,6.12-2.21,9.46-5.93,9.46S595.46,579.87,595.46,574.33Zm8.9-.1c0-4.3-.91-7.06-3-7.06-1.82,0-3.07,2.54-3.07,7.06s1.1,7.13,3,7.13C603.64,581.36,604.36,578,604.36,574.23Z" transform="translate(0 0)" fill="#343434"/><path d="M608.94,574.33c0-5.9,2.23-9.36,6-9.36s5.74,3.7,5.74,9.17c0,6.12-2.21,9.46-5.93,9.46S608.94,579.87,608.94,574.33Zm8.91-.1c0-4.3-.91-7.06-3-7.06-1.82,0-3.07,2.54-3.07,7.06s1.1,7.13,3,7.13C617.13,581.36,617.85,578,617.85,574.23Z" transform="translate(0 0)" fill="#343434"/><path d="M626.63,579.61a34.69,34.69,0,0,1-2.81,6.89l-1.92.19a39.32,39.32,0,0,0,1.7-6.82Z" transform="translate(0 0)" fill="#343434"/><path d="M628.36,574.33c0-5.9,2.23-9.36,6-9.36s5.74,3.7,5.74,9.17c0,6.12-2.21,9.46-5.93,9.46S628.36,579.87,628.36,574.33Zm8.9-.1c0-4.3-.91-7.06-3-7.06-1.82,0-3.07,2.54-3.07,7.06s1.1,7.13,3,7.13C636.54,581.36,637.26,578,637.26,574.23Z" transform="translate(0 0)" fill="#343434"/><path d="M641.85,574.33c0-5.9,2.23-9.36,6-9.36s5.74,3.7,5.74,9.17c0,6.12-2.21,9.46-5.93,9.46S641.85,579.87,641.85,574.33Zm8.9-.1c0-4.3-.91-7.06-3-7.06-1.82,0-3.07,2.54-3.07,7.06s1.1,7.13,3,7.13C650,581.36,650.75,578,650.75,574.23Z" transform="translate(0 0)" fill="#343434"/><path d="M655.33,574.33c0-5.9,2.23-9.36,6-9.36s5.74,3.7,5.74,9.17c0,6.12-2.21,9.46-5.93,9.46S655.33,579.87,655.33,574.33Zm8.91-.1c0-4.3-.91-7.06-3-7.06-1.82,0-3.07,2.54-3.07,7.06s1.1,7.13,3,7.13C663.52,581.36,664.24,578,664.24,574.23Z" transform="translate(0 0)" fill="#343434"/><path d="M689.9,564.58v18c0,2.59-1.2,2.83-5.69,2.83a7.58,7.58,0,0,0-.84-2.28c.79,0,1.56.05,2.21.05,2,0,2,0,2-.62V575.8H672v9.67h-2.28V564.59H689.9Zm-18,2.26v6.7h6.55v-6.7Zm8.81,6.7h6.84v-6.7h-6.84Z" transform="translate(0 0)" fill="#343434"/><path d="M714.5,573.34c-1.56,2.83-3.82,4.3-6.36,4.3a7.36,7.36,0,0,1-5.54-2.59,5,5,0,0,0-3.84-1.87c-1.75,0-3.26,1.22-4.22,3.05l-2.11-1.15c1.56-2.83,3.82-4.3,6.36-4.3a7.36,7.36,0,0,1,5.54,2.59,5,5,0,0,0,3.84,1.87c1.75,0,3.26-1.22,4.22-3Z" transform="translate(0 0)" fill="#343434"/></g><rect x="777.84" width="324.27" height="155" fill="#1a62a3"/><path d="M863.25,84.58c.58-.12,2,1.81,2.37,2.1-2.33,3.2-7.35,3.73-10.86,2.29s-5.47-5.29-5.39-9A9.38,9.38,0,0,1,855,71c3.41-1.35,7.76-.87,10.39,1.81-.65.63-1.61,3-2.83,2.37a5.84,5.84,0,0,0-5.74-.87c-3.59,1.74-3.78,7.33-1.47,10.2A5.32,5.32,0,0,0,861,85.81C861.84,85.66,862.36,84.69,863.25,84.58Z" transform="translate(0 0)" fill="#fff"/><path d="M870.86,78.05c.81-1.72,3.09-3.13,4.8-1.92l-.26,3c-.13.77-1.09.42-1.63.41a2.44,2.44,0,0,0-2.66,1.76v8.24h-4.05V75.94c.64.08,2.73-.2,3.25.22S870.73,77.55,870.86,78.05Z" transform="translate(0 0)" fill="#fff"/><path d="M880.13,83.45c.1,3,3,4,5.32,2.68,1.93-1.27,2.19-.09,3.34,1.26a7.84,7.84,0,0,1-10.68.49c-5-5.42-.37-14.26,7.14-11.71,2.65.9,3.92,3.88,3.59,6.53a.77.77,0,0,1-.87.76S880.13,83.45,880.13,83.45Zm5.1-2.36c.08-3.48-4.8-3.36-5.05,0Z" transform="translate(0 0)" fill="#fff"/><path d="M890.59,77.84c2.56-2.24,7.16-3.22,9.81-.64,2.43,2.1,1.11,9.52,1.43,12.31a10.71,10.71,0,0,1-2.73-.15c-.37-.15-.61-1-.78-1.4-2.08,2.11-6.65,2.77-8.07-.36-1.61-4.56,3.82-6,7.62-6,.33-3.39-2.36-3.31-4.57-2C891.82,80.34,891.18,78.9,890.59,77.84ZM897.88,84c-6.89-.06-3.83,5.46,0,1.88Z" transform="translate(0 0)" fill="#fff"/><path d="M918.86,89.5h-4.05V78.74h-5.68v6.73c0,1.33,1,1.18,2,.78.55-.06,1.43,2,1.76,2.28a6.3,6.3,0,0,1-5.5.9,3.68,3.68,0,0,1-2.27-3.69v-7c-2.38.17-1.86-.46-1.91-2.38l2.15-.44c1.19-4-.15-4,3.8-3.92v4h9.72Zm.55-17.27c0,3.06-4.87,3.1-4.89,0S919.37,69.13,919.41,72.23Z" transform="translate(0 0)" fill="#fff"/><path d="M934.46,75.94l-5.25,13.55h-3.69l-5.25-13.55c.9.17,4.16-.53,4.5.7.58,2,2.27,7,2.65,8.94.38-2,2.17-6.94,2.75-8.94C930.47,75.45,933.61,76.11,934.46,75.94Z" transform="translate(0 0)" fill="#fff"/><path d="M938.65,83.45c.1,3,3,4,5.32,2.68,1.93-1.27,2.19-.09,3.34,1.26a7.84,7.84,0,0,1-10.68.49c-5-5.42-.37-14.26,7.14-11.71,2.65.9,3.92,3.88,3.59,6.53a.77.77,0,0,1-.87.76S938.65,83.45,938.65,83.45Zm5.1-2.36c.08-3.48-4.8-3.36-5,0Z" transform="translate(0 0)" fill="#fff"/><path d="M968.75,84.58c.58-.12,2,1.81,2.37,2.1-2.33,3.2-7.35,3.73-10.86,2.29s-5.47-5.29-5.38-9c-.27-8.63,9.88-12.86,16-7.17-.65.63-1.61,3-2.82,2.38a5.84,5.84,0,0,0-5.74-.87c-3,1.38-3.45,5.42-2.55,8.28.87,3.14,4.74,4.42,7.48,2.88C967.77,85.21,968.13,84.61,968.75,84.58Z" transform="translate(0 0)" fill="#fff"/><path d="M978.53,75.74c5.37-.22,8.17,5.18,6.39,9.88-1.9,5.48-10.93,5.46-12.85,0C970.28,80.88,973.15,75.53,978.53,75.74Zm0,11c2.25-.06,2.68-1.76,2.72-4s-.46-3.91-2.72-4-2.73,1.72-2.77,4S976.24,86.65,978.53,86.71Z" transform="translate(0 0)" fill="#fff"/><path d="M991.2,77.42c1.87-2,5.48-2.41,7.35-.22,2.1,2.15.88,9.62,1.19,12.3h-4V80.89c.13-2.63-2.79-2.52-4.18-1v9.67h-4V75.94H990C990.84,75.88,991,76.78,991.2,77.42Z" transform="translate(0 0)" fill="#fff"/><path d="M1012.33,79.17c-.72,1.1-1.78,0-2.63-.31-4-1.29-4.69,4.56-3.13,6.82,1,1.51,3.23,1.26,4.42.08,1.08-.81,1.92,1,2.51,1.61-4.41,4.69-12.09,2-11.85-4.69-.29-6.43,7.35-9.24,11.73-5Z" transform="translate(0 0)" fill="#fff"/><path d="M1019.64,72.24c-.06,3.06-4.86,3.09-4.89,0S1019.61,69.14,1019.64,72.24Zm-.42,3.72V89.5h-4.05V75.94Z" transform="translate(0 0)" fill="#fff"/><path d="M1025.4,83.45c.1,3,3,4,5.32,2.68,1.93-1.28,2.19-.09,3.34,1.26a7.83,7.83,0,0,1-10.67.49c-5-5.42-.37-14.25,7.14-11.7,2.65.9,3.92,3.88,3.59,6.53a.76.76,0,0,1-.87.76S1025.4,83.45,1025.4,83.45Zm5.08-2.36c.08-3.48-4.8-3.36-5,0Z" transform="translate(0 0)" fill="#fff"/><path d="M1039.94,78.05c.81-1.72,3.09-3.13,4.8-1.92l-.26,3c-.13.77-1.09.42-1.63.41a2.44,2.44,0,0,0-2.66,1.76v8.24h-4V75.94c.64.08,2.73-.2,3.25.22S1039.8,77.55,1039.94,78.05Z" transform="translate(0 0)" fill="#fff"/><path d="M1058.41,76.37c0,1.95.32,2.17-1.81,2.54,1.18,3.89-3.16,6.2-6.52,5.51-2.58,2.4,6.51.24,7.71,3.29,2,5.29-5.12,7.37-9.12,6.16-3.15-.49-5.11-4.3-1.43-5.73-1.87-1.06-1-3.74.74-4.39a4.13,4.13,0,0,1,1.1-7.73,7.6,7.6,0,0,1,5.27.35Zm-4,13.63c-.22-1.56-3.61-.94-4.8-1.22-1.33.81-1,2.37.55,2.5C1051.44,91.37,1054.23,91.79,1054.41,90Zm-3.14-8c2.54.22,2.55-3.84,0-3.56C1048.65,78.21,1048.8,82.22,1051.27,82Z" transform="translate(0 0)" fill="#fff"/><path d="M1063.18,83.45c.12,3,3,4,5.32,2.68,1.93-1.28,2.19-.09,3.34,1.26a7.83,7.83,0,0,1-10.67.49c-5-5.42-.37-14.26,7.14-11.71,2.65.9,3.92,3.88,3.59,6.53a.77.77,0,0,1-.87.76S1063.18,83.45,1063.18,83.45Zm5.09-2.36c.08-3.48-4.8-3.36-5,0Z" transform="translate(0 0)" fill="#fff"/><line x1="809.02" y1="91.79" x2="809.02" y2="71.14" fill="none" stroke="#fff" stroke-linecap="round" stroke-miterlimit="10" stroke-width="4.48"/><line x1="821.93" y1="85.34" x2="821.93" y2="75.02" fill="none" stroke="#fff" stroke-linecap="round" stroke-miterlimit="10" stroke-width="4.48"/><line x1="843.1" y1="96.35" x2="843.1" y2="72.41" fill="none" stroke="#fff" stroke-linecap="round" stroke-miterlimit="10" stroke-width="4.48"/><line x1="815.33" y1="97.1" x2="815.33" y2="66.63" fill="none" stroke="#fff" stroke-linecap="round" stroke-miterlimit="10" stroke-width="4.48"/><line x1="828.47" y1="93.38" x2="828.47" y2="60.71" fill="none" stroke="#fff" stroke-linecap="round" stroke-miterlimit="10" stroke-width="4.48"/><line x1="835.26" y1="95.75" x2="835.26" y2="75.64" fill="none" stroke="#fff" stroke-linecap="round" stroke-miterlimit="10" stroke-width="4.48"/><rect x="177.84" y="35.14" width="299" height="119.86" fill="#343434"/><rect x="477.84" y="35.14" width="300" height="119.86" fill="#343434"/><g style="isolation:isolate"><path d="M313,112.57h-5.12l-2.9-9.45h-9.83l-2.77,9.45h-5l9.83-32.14h6Zm-8.82-13.19L301.67,91c-.59-2.1-1.13-4.37-1.6-6.34H300c-.46,2-1,4.33-1.51,6.3l-2.56,8.44Z" transform="translate(0 0)" fill="#fff"/><path d="M338,86.19a1.1,1.1,0,0,1-.59.55,41.9,41.9,0,0,1-5.59,9.66c2.06,1.39,5.8,4.16,6.85,5l-2.35,3.28c-1.09-1.13-3.19-3.07-5-4.66v16.34h-3.95v-14.8a38.28,38.28,0,0,1-5.75,4.66,16.59,16.59,0,0,0-2-3.7,35.88,35.88,0,0,0,13-14H320.73V84.84h6.59v-7.9l4.92.29c0,.34-.29.59-1,.71v6.89h3.49l.63-.17Zm12.35,25h9.58v4h-24v-4h10.38V94.38h-8.65V90.47h8.65V77.28l5.08.34c0,.34-.34.59-1,.67V90.47H359v3.91h-8.61v16.76Z" transform="translate(0 0)" fill="#fff"/></g><g style="isolation:isolate"><path d="M604.39,95.34a8.08,8.08,0,0,1,6.43,8,8.45,8.45,0,0,1-2.77,6.47c-2.14,2.06-5.67,3-11,3a51.66,51.66,0,0,1-6.39-.38V80.84a40,40,0,0,1,7.52-.67c9.79,0,11.47,4.79,11.47,8,0,3.07-1.93,5.75-5.29,7v.13Zm-5.88-1.51c3.87,0,6.3-2.14,6.3-5.12,0-3.86-3.11-4.83-6.13-4.83a15.79,15.79,0,0,0-3.15.25v9.7Zm-3,15.12a17.59,17.59,0,0,0,2.94.17c3.91,0,7.27-1.64,7.27-5.88s-3.66-5.8-7.39-5.8h-2.81V109Z" transform="translate(0 0)" fill="#fff"/><path d="M636.52,86.19a1.1,1.1,0,0,1-.59.55,41.9,41.9,0,0,1-5.59,9.66c2.06,1.39,5.8,4.16,6.85,5l-2.35,3.28c-1.09-1.13-3.19-3.07-5-4.66v16.34h-3.95v-14.8a38.28,38.28,0,0,1-5.75,4.66,16.59,16.59,0,0,0-2-3.7,35.88,35.88,0,0,0,13-14H619.25V84.84h6.59v-7.9l4.92.29c0,.34-.29.59-1,.71v6.89h3.49l.63-.17Zm12.35,25h9.58v4h-24v-4H644.8V94.38h-8.65V90.47h8.65V77.28l5.08.34c0,.34-.34.59-1,.67V90.47h8.61v3.91h-8.61Z" transform="translate(0 0)" fill="#fff"/></g><line x1="177.57" y1="227.66" x2="1102" y2="227.66" fill="none" stroke="#707070"/><line x1="177.57" y1="305.79" x2="1102" y2="305.79" fill="none" stroke="#707070"/><line x1="177.57" y1="383.92" x2="1102" y2="383.92" fill="none" stroke="#707070"/><line x1="177.57" y1="462.05" x2="1102" y2="462.05" fill="none" stroke="#707070"/><line x1="177.57" y1="537.07" x2="1102" y2="537.07" fill="none" stroke="#707070"/><rect y="155.11" width="177" height="73" fill="#343434"/><rect y="229.11" width="177" height="76" fill="#343434"/><rect y="306.11" width="177" height="77" fill="#343434"/><rect y="384.11" width="177" height="77" fill="#343434"/><rect y="462.11" width="177" height="75" fill="#343434"/><rect y="538.11" width="177" height="75" fill="#343434"/><g style="isolation:isolate"><path d="M54.61,194.2V196H52.07v4.27h-2.3v-1.06H44.56v1.15c0,2.28-1.13,2.42-5.33,2.42a6.65,6.65,0,0,0-.77-1.85c.67,0,1.37,0,2,0,1.63,0,1.82,0,1.82-.6V199.2H34.59v-1.7h7.66V196H32.46v-1.8h9.79V192.8H34.81v-1.61h7.44v-1.3H35.46V185h6.79v-1.18H33V182h9.29v-1.8l2.88.14c0,.22-.17.36-.58.43V182h9.53v1.85H44.55V185h7.13v4.85H44.55v1.3h7.51v3h2.55Zm-17-5.81h4.61v-1.82H37.64Zm11.74-1.82H44.55v1.82h4.83Zm-4.82,6.24v1.39h5.21v-1.39Zm5.21,4.7V196H44.56v1.51Z" transform="translate(0 0)" fill="#fff"/><path d="M81.09,184.74H79.36A13.65,13.65,0,0,1,76.62,189a15.11,15.11,0,0,0,4.95,2.18,8.77,8.77,0,0,0-1.44,1.92A15.5,15.5,0,0,1,75,190.47a18.5,18.5,0,0,1-5.3,2.81,8.63,8.63,0,0,0-.84-1.18,21,21,0,0,1-1.1,3.1l-1.56-.72a33.71,33.71,0,0,0,1.06-3.7H65.45v9.43c0,2.14-.86,2.45-4.13,2.45a8.15,8.15,0,0,0-.67-2.16c.58,0,1.15.05,1.58.05.91,0,1.06,0,1.06-.38V193.5A16.46,16.46,0,0,1,60,198.8a12.54,12.54,0,0,0-1.1-2.16,16.21,16.21,0,0,0,3.72-5.86H59.14v-2h6.17a28.29,28.29,0,0,0-5.14-2.88l1.46-1.46c.65.26,1.37.6,2.09.94a16.22,16.22,0,0,0,2.14-2H59.48v-1.94h8.14l.36-.1,1.68,1a.85.85,0,0,1-.41.26,19.65,19.65,0,0,1-3.77,3.74,15.09,15.09,0,0,1,1.87,1.25l-1.1,1.2h2.26l1.18.07a19.29,19.29,0,0,1-.58,2.52,15.4,15.4,0,0,0,4.42-2.28,14.48,14.48,0,0,1-2-2.62A15.41,15.41,0,0,1,70,188.11a11.69,11.69,0,0,0-1.82-1.3,15.4,15.4,0,0,0,4.22-6.6l2.64.79c-.07.17-.26.29-.58.26-.19.5-.41,1-.65,1.49h7.27v2Zm-2.6,9.58.5,0,1.32.26a2.85,2.85,0,0,1-.1.62c-.7,7.25-1.27,7.51-4.49,7.51-.41,0-.86,0-1.32,0a5.39,5.39,0,0,0-.62-2.09c1,.07,1.85.1,2.26.1a.94.94,0,0,0,.79-.24c.38-.36.7-1.51,1-4.15H74.62a9.68,9.68,0,0,1-5.88,6.53,5.78,5.78,0,0,0-1.32-1.68,8.05,8.05,0,0,0,4.9-4.85H69.15v-1.92h3.67a21.68,21.68,0,0,0,.34-2.42l2.76.24c0,.19-.22.34-.55.38-.07.6-.17,1.2-.29,1.8h3.41Zm-5.78-9.58a10.62,10.62,0,0,0,2.28,3,11.43,11.43,0,0,0,2-3Z" transform="translate(0 0)" fill="#fff"/><path d="M89.36,189.69a27.4,27.4,0,0,1-2.81,3.53A22.57,22.57,0,0,0,85.33,191a31,31,0,0,0,6.29-10.58l2.71.94a.62.62,0,0,1-.65.26,44.81,44.81,0,0,1-2.28,4.8l.82.24c0,.19-.19.31-.55.38v15.75h-2.3V189.69Zm18.82-.77-7.27.77c.89,5.93,2.59,10.68,4.51,10.71.65,0,1-1.32,1.1-4.39a6.17,6.17,0,0,0,1.9,1.34c-.41,4.22-1.18,5.38-3.12,5.38-4,0-5.93-7-6.72-12.79l-5.62.6-.24-2.16,5.59-.58c-.26-2.42-.38-4.92-.41-7.37l3,.14c0,.26-.19.38-.62.43a55.27,55.27,0,0,0,.34,6.55l7.3-.77Zm-4.49-8.33a24.84,24.84,0,0,1,3.91,3.91l-1.82,1.18a23.4,23.4,0,0,0-3.79-4Z" transform="translate(0 0)" fill="#fff"/><path d="M116,193a31.17,31.17,0,0,1-2.3,2.3,14.63,14.63,0,0,0-1.44-1.85,28.48,28.48,0,0,0,6.53-8l2.54,1.06a.58.58,0,0,1-.62.22,34.66,34.66,0,0,1-2.33,3.43l.48.14c0,.19-.22.36-.58.38v12H116V193Zm4.37-11.69c-.1.17-.29.24-.6.22a33.48,33.48,0,0,1-6.22,5.71,14.44,14.44,0,0,0-1.27-1.82,23.19,23.19,0,0,0,5.54-5.18Zm14.45,7.34v2.16H131.2V200c0,2.45-1,2.74-5.86,2.69a9.41,9.41,0,0,0-.72-2.26c.94,0,1.87.05,2.57.05,1.51,0,1.68,0,1.68-.5v-9.15h-7.73v-2.16Zm-.94-7v2.18H122v-2.18Z" transform="translate(0 0)" fill="#fff"/></g><g style="isolation:isolate"><path d="M37.6,354.61h-11V352.9l1.9-2c3.82-3.91,5.93-6.41,5.93-9.12,0-1.75-.84-3.29-3.12-3.29a5.77,5.77,0,0,0-3.48,1.42l-.84-2a7.81,7.81,0,0,1,4.87-1.68,5,5,0,0,1,5.35,5.26c0,3.31-2.26,6.07-5.4,9.24l-1.49,1.51v.05h7.27v2.3Z" transform="translate(0 0)" fill="#fff"/><path d="M48.23,354.61H45.61v-4.78H38.05V348l7.08-11.5h3.1v11.19h2.26v2.11H48.23Zm-7.56-6.89h4.94V342.3c0-1,0-2.11.12-3.14h-.1c-.55,1.15-1,2-1.51,3l-3.46,5.52v0Z" transform="translate(0 0)" fill="#fff"/><path d="M58.33,335.77V352H53.27V354H51.16V335.76h7.17Zm-2.13,2.06H53.27v5H56.2Zm-2.93,12.1H56.2v-5.14H53.27Zm13.61-8.16h5.91v2h-14v-2h5.86v-2.71H59.69v-2h4.94v-2.78l2.81.17c0,.21-.17.34-.55.41v2.21H72v2H66.89v2.7Zm3.74,2.47c0,.22-.17.34-.55.41v1.68h2.69v2H70.07v5.95c0,2.21-.91,2.52-5.09,2.52a8.18,8.18,0,0,0-.74-2.13c.7,0,1.37,0,1.92,0,1.66,0,1.68,0,1.68-.43v-5.93h-9v-2h9v-2.21Zm-7.58,10a17.7,17.7,0,0,0-2.95-4.2L61.91,349a18.05,18.05,0,0,1,3.1,4.08Z" transform="translate(0 0)" fill="#fff"/><path d="M83.08,343.76H76.31v13H74.05v-21.5h9Zm-2.16-6.82H76.31v1.7h4.61Zm-4.61,5.14h4.61v-1.82H76.31Zm18-6.84v18.65c0,2.66-1.15,2.83-5.4,2.83a9.19,9.19,0,0,0-.72-2.23h-6.6v1.22H79.45V345.44h9.19v9c.62,0,1.2,0,1.7,0,1.61,0,1.63,0,1.63-.58V343.8H85v-8.57h9.25Zm-7.75,11.93h-5v1.9h5Zm-5,5.59h5v-2h-5ZM92,336.94H87.2v1.7H92Zm-4.77,5.19H92v-1.87H87.21Z" transform="translate(0 0)" fill="#fff"/><path d="M112.74,345.51l1.71,1a.86.86,0,0,1-.38.31,15.24,15.24,0,0,1-5,5.74,32.55,32.55,0,0,0,8.62,2,10.49,10.49,0,0,0-1.44,2.23,29.42,29.42,0,0,1-9.58-2.83,31.62,31.62,0,0,1-9.17,2.81,8.75,8.75,0,0,0-1.39-2.11,31.74,31.74,0,0,0,8.3-2.09,16.55,16.55,0,0,1-4.25-4.3l1.66-.67H99.36v-2h13Zm-14.45-2.28v3.38H96.15v-5.4h3.62a16.53,16.53,0,0,0-1.32-2.67l2-.58A13.11,13.11,0,0,1,102,341l-.62.19h4.37a15.55,15.55,0,0,0-1.06-3.12l2-.46a14.09,14.09,0,0,1,1.22,3.29l-1.13.29h4a28.79,28.79,0,0,0,2-3.94l2.69.91a.65.65,0,0,1-.6.24,30.71,30.71,0,0,1-1.7,2.78h3.86v5.4h-2.23v-3.38H98.29Zm17.74-7a.5.5,0,0,1-.29.07,1.24,1.24,0,0,1-.31,0A136.51,136.51,0,0,1,96.9,338a6.6,6.6,0,0,0-.5-1.94,128.4,128.4,0,0,0,18-1.73ZM102.35,347.6a13.26,13.26,0,0,0,4.39,3.82,12.26,12.26,0,0,0,4.1-3.82Z" transform="translate(0 0)" fill="#fff"/><path d="M121.38,343.71a26.82,26.82,0,0,1-2.69,3.48,16.75,16.75,0,0,0-1.18-2.26,29.89,29.89,0,0,0,6-10.56l2.64.91a.61.61,0,0,1-.62.26,46.23,46.23,0,0,1-2.18,4.82l.82.22c0,.19-.22.34-.58.36v15.79h-2.23v-13Zm19-4.12v2.26h-3.07v12c0,1.51-.36,2.16-1.32,2.52a17,17,0,0,1-5,.41,9.47,9.47,0,0,0-.82-2.3c1,.05,2,.07,2.81.07,1.9,0,2.06,0,2.06-.7v-12h-9.67v-2.26H135v-5.06l2.86.17c0,.22-.14.34-.55.38v4.51ZM130,350.91a25.51,25.51,0,0,0-3.36-6l2-1a26.82,26.82,0,0,1,3.53,5.83Z" transform="translate(0 0)" fill="#fff"/></g><g style="isolation:isolate"><path d="M16.88,419.42c1.15,1.22,2.4,2.62,3.55,4a32,32,0,0,0,1.34-5.57l2.67.53c-.05.19-.24.31-.58.31a33.36,33.36,0,0,1-1.9,6.72,28.16,28.16,0,0,1,2.64,4.1l-1.82,1.56a27.29,27.29,0,0,0-1.94-3.36,15.2,15.2,0,0,1-5.3,5.64,10.55,10.55,0,0,0-1.39-1.7,13.17,13.17,0,0,0,5.3-5.91,57.68,57.68,0,0,0-4.18-5.06Zm19.81-2.52v2.21H33.93v11.67c0,2.54-1,3-5.3,3a10.66,10.66,0,0,0-.74-2.42c.86,0,1.66.05,2.28.05,1.42,0,1.51,0,1.51-.58V419.11H25.27v-1.73h-11v-2.11h4.8v-4l2.74.17c0,.19-.17.31-.55.38v3.43h4.78v1.63h5.62v-5.64l2.81.14c0,.22-.17.34-.55.41v5.09Zm-9.53,4.46a19.54,19.54,0,0,1,2.69,5.28l-2,1a20.06,20.06,0,0,0-2.57-5.38Z" transform="translate(0 0)" fill="#fff"/><path d="M41.8,416.44v4c0,3.82-.36,9.5-2.5,13.25a9.77,9.77,0,0,0-1.94-1.29c2-3.48,2.16-8.45,2.16-11.95v-6.22h8.83v-3l2.93.17c0,.21-.17.34-.55.41v2.42h9.12v2.18Zm4.05,7.23c-.29,2.69-.84,5.9-2,7.85l-2-.94a18.48,18.48,0,0,0,2-7.37Zm3.56,6.84c0,.84.14,1,.91,1h2.5c.79,0,.94-.6,1-4.08a7.27,7.27,0,0,0,2,.94c-.22,4.06-.77,5.18-2.88,5.18H50c-2.26,0-2.83-.7-2.83-3v-8.67L50,422c0,.19-.17.34-.55.38v8.1ZM49,416.7a30.37,30.37,0,0,1,6,3.55l-1.61,1.68a32.94,32.94,0,0,0-5.9-3.74ZM58,431.61a27,27,0,0,0-3.12-7.9l2-.77a25.66,25.66,0,0,1,3.31,7.75Z" transform="translate(0 0)" fill="#fff"/><path d="M77.56,414.57a.77.77,0,0,1-.41.34A37.44,37.44,0,0,1,72.52,423a91.57,91.57,0,0,1,8.4,7.75l-2.11,1.82a73.65,73.65,0,0,0-7.82-7.7,37.89,37.89,0,0,1-8.86,7.7,13.72,13.72,0,0,0-1.75-1.85,32.79,32.79,0,0,0,13.51-14.79H62.6v-2.28H75.2l.43-.14Z" transform="translate(0 0)" fill="#fff"/><path d="M95.8,429.74a42.44,42.44,0,0,0,5.18-.43l.1,2.45c-1.44.17-4,.27-5.06.27H90.33c-3.91,0-5.74-1.66-5.74-5.28v-14l3.1.17c0,.26-.22.46-.7.5v7.44a71.48,71.48,0,0,0,11.16-4.56l1.66,2.28a.62.62,0,0,1-.34.07,1,1,0,0,1-.38-.07A85.71,85.71,0,0,1,87,423.15v3.62c0,2.21,1.06,3,3.38,3H95.8Zm5.13-18.58a2.64,2.64,0,1,1-2.64,2.64A2.64,2.64,0,0,1,100.93,411.16Zm1.8,2.64a1.8,1.8,0,1,0-3.6,0,1.8,1.8,0,1,0,3.6,0Z" transform="translate(0 0)" fill="#fff"/><path d="M104.22,420.91h20v2.4H105.18a1,1,0,0,1-.77.43Z" transform="translate(0 0)" fill="#fff"/><path d="M140.85,425.15a70,70,0,0,0-7.95-3.74V433h-2.52V412l3.22.19c0,.26-.24.46-.7.55v6.91l.48-.67a81.19,81.19,0,0,1,8.81,3.91Zm-2.21-11.71a19.77,19.77,0,0,1,3.14,3.38l-1.15,1a20.76,20.76,0,0,0-3.07-3.41Zm3.26-2.11a19,19,0,0,1,3.14,3.36l-1.15.94a22.94,22.94,0,0,0-3.1-3.36Z" transform="translate(0 0)" fill="#fff"/></g><g style="isolation:isolate"><path d="M28.35,498.82l.22,1.92-4,1.13v6.19c0,2.26-.89,2.69-5,2.69a8.58,8.58,0,0,0-.72-2.18c.74,0,1.49.05,2.06.05,1.22,0,1.39,0,1.39-.55V502.5c-1.15.31-2.18.6-3.05.82a.48.48,0,0,1-.36.41l-.77-2.62,4.18-.91v-5H18.41v-2.14H22.3v-4.8l2.86.14c0,.22-.17.36-.55.41v4.25h3.53v2.14H24.61v4.49Zm12.55-8.55v2.23H36.65v15.36c0,2.59-.91,2.88-6.17,2.88a9.53,9.53,0,0,0-.82-2.33c1,0,2.06,0,2.83,0,1.7,0,1.8,0,1.8-.62V492.5H27.54v-2.23Z" transform="translate(0 0)" fill="#fff"/><path d="M45.84,496.46A34,34,0,0,1,41.9,499a12.77,12.77,0,0,0-1.39-1.8,27,27,0,0,0,10.13-8.93l3.14.19a.66.66,0,0,1-.58.43,27.81,27.81,0,0,0,10.27,8,11.61,11.61,0,0,0-1.49,2,32.94,32.94,0,0,1-4-2.47v1.78H45.83v-1.71Zm-1.39,14.31v-9.84H59.52v9.84H57.19v-1H46.68v1Zm13.23-14.64a28.47,28.47,0,0,1-5.83-5.59,26.42,26.42,0,0,1-5.57,5.59ZM57.2,503H46.69v4.8H57.2Z" transform="translate(0 0)" fill="#fff"/><path d="M79.64,497.86c0,3.43,0,6.58-3.26,6.58a8.68,8.68,0,0,1-3.62-1,11.8,11.8,0,0,0,.31-2,7,7,0,0,0,2.83.86,1.24,1.24,0,0,0,1.22-1,26,26,0,0,0,.17-4c-2.5.41-5,.82-7,1.18,0,7.3,0,8.83,3.94,9,.36,0,.79,0,1.27,0a42.73,42.73,0,0,0,6.38-.43l0,2.26a55.3,55.3,0,0,1-6.12.29c-3.77,0-7.25-.12-7.7-5.38C68,503,68,501,67.93,498.92c-1.44.29-3.38.65-4.46.89l-.36-2.26c1.18-.17,3.14-.5,4.8-.79,0-2.09-.07-4.37-.07-6.07L71,491c-.05.29-.24.43-.67.53,0,1.3,0,3.17,0,4.87l6.94-1.18c-.07-2-.17-4.32-.31-6.14l3,.14c0,.24-.17.36-.53.48.07,1.54.12,3.43.17,5.11,1.8-.26,3.58-.55,4.9-.74l.19,2.3c-1.34.14-3.14.38-5,.65v.89Z" transform="translate(0 0)" fill="#fff"/><path d="M88,507.07v-7.34a17.71,17.71,0,0,1-2,.43,7.14,7.14,0,0,0-1.08-1.75c3.07-.5,4.85-1.22,5.86-2.11H88l-.12.29-2.09-.12a34.65,34.65,0,0,0,1.46-4.15H92v-1.2H86V489.7h6v-1.44l2.62.17c0,.19-.19.31-.55.36v.91h3.31v-1.44l2.71.17c0,.19-.19.31-.55.38v.89h5.33v4H99.59v1.15h5.21l.48-.05,1.22.14-.07.55c-.22,2.4-.46,3.1-2,3.24a4.46,4.46,0,0,0-.48,0v8.28H88Zm6.36,1.18c-.14.14-.26.14-.6.14a44,44,0,0,1-7.3,2.38,13.88,13.88,0,0,0-1.51-1.56A32.42,32.42,0,0,0,92,507.1ZM89,493.73l-.41,1.15h3.22a4.29,4.29,0,0,0,.26-1.15Zm12.7,6.77v-1.25H90.2v1.25Zm0,2.59v-1.27H90.2v1.27Zm0,2.62v-1.3H90.2v1.3Zm-4.23-9.41h-4a5.49,5.49,0,0,1-1.3,1.56h5.26V496.3Zm0-1.42v-1.15H94.08a8,8,0,0,1-.14,1.15Zm-3.31-3.77v1.2h3.31v-1.2Zm10.1,19.66a50.48,50.48,0,0,0-6.72-2.5l1.82-1.18a78,78,0,0,1,7.39,2.52Zm-1.39-19.66H99.58v1.2h3.24Zm-.77,6.75a2.53,2.53,0,0,0-.24-.55c.53.05,1,.07,1.3.07.79,0,.94,0,1.08-1.08H99.58v1.56Z" transform="translate(0 0)" fill="#fff"/><path d="M110.69,496.63V494a16.9,16.9,0,0,1-1.94,1.8,12.84,12.84,0,0,0-1.73-1.42,17.3,17.3,0,0,0,5.06-6.17l2.57.89c-.07.17-.29.26-.58.22-.29.53-.6,1.06-.94,1.58h15.05v2h-2.4v3.67h3.31v2.06h-3.31v3.67h2.95v2.06h-21v-2.06h3v-3.67h-3.34v-2.06Zm1.54,9.15a12.82,12.82,0,0,1-2.93,5l-2.16-.91a10.83,10.83,0,0,0,2.88-4.63Zm.5-12.82v3.67H115V493Zm0,5.74v3.67H115V498.7Zm2.07,11.81a27.34,27.34,0,0,0-.48-4.56l2.11-.22a27.17,27.17,0,0,1,.6,4.44ZM119.31,493h-2.38v3.67h2.38Zm0,5.74h-2.38v3.67h2.38Zm1.27,11.83a24.18,24.18,0,0,0-1.37-4.56l2.14-.36a24.53,24.53,0,0,1,1.49,4.46Zm3.1-13.9V493h-2.42v3.67Zm0,5.74V498.7h-2.42v3.67Zm3.48,8.4a30.1,30.1,0,0,0-3.07-4.95l2.16-.7a29.49,29.49,0,0,1,3.22,4.82Z" transform="translate(0 0)" fill="#fff"/><path d="M135.92,499.51c.82.67,3.29,3,3.82,3.55l-1.32,1.85a35.61,35.61,0,0,0-2.5-3.07v8.88h-2.18V502a22.05,22.05,0,0,1-3.38,5.69,13.63,13.63,0,0,0-1.13-2.26,23.31,23.31,0,0,0,4.08-6.74h-3.67v-2.14h4.1v-8.33l2.74.17c0,.19-.19.31-.55.38v7.78h3.86v2.14h-3.86v.79Zm-4.49-9.65a20.83,20.83,0,0,1,1.54,5.23l-1.87.53a22.11,22.11,0,0,0-1.42-5.3Zm9.1.65c-.07.17-.26.26-.58.26a32.9,32.9,0,0,1-2.11,5c-.43-.17-1.13-.46-1.56-.6a34.21,34.21,0,0,0,1.8-5.4ZM152,503.88l-3.17.6v6.24h-2.23v-5.83l-6.48,1.2-.38-2.16,6.86-1.25V488.33l2.81.17c0,.19-.19.34-.58.41v13.37l2.78-.5Zm-10-7.66a19.34,19.34,0,0,1,3.86,3.6,12.1,12.1,0,0,0-1.7,1.37,19.75,19.75,0,0,0-3.74-3.77Zm.69-6.21a17.45,17.45,0,0,1,3.38,3.5l-1.73,1.3a17,17,0,0,0-3.29-3.67Z" transform="translate(0 0)" fill="#fff"/></g><g style="isolation:isolate"><path d="M67,572.53v1.85c.86.89,3,3.46,3.53,4.1l-1.34,1.85A35.85,35.85,0,0,0,67,577v10.73H64.84V576.9a23.7,23.7,0,0,1-3.19,6.46,12.71,12.71,0,0,0-1.13-2.09,24.72,24.72,0,0,0,4-8.74H61.09v-2.16h3.74v-5.11l2.74.14c0,.22-.17.34-.55.41v4.56h3.29v2.16Zm4.27-5.91H82.42v20.81H80.14v-1.34H73.47v1.46H71.29V566.62Zm8.86,2.16H73.47v3.6h6.67Zm-6.68,5.69v3.72h6.67v-3.72Zm0,9.56h6.67v-3.75H73.46Z" transform="translate(0 0)" fill="#fff"/><path d="M110,577.07H100a14.87,14.87,0,0,1-.89,1.51h8.69l.46-.05,1.22.19a4.17,4.17,0,0,1-.1.6c-.38,5-.77,6.94-1.42,7.63s-1.37.82-3.94.74a4.6,4.6,0,0,0-.5-1.85c.84.07,1.58.1,1.92.1a.81.81,0,0,0,.72-.26c.41-.41.72-1.82,1-5.28h-1.58a17,17,0,0,1-4.49,7.54,6.6,6.6,0,0,0-1.63-1.32,13.81,13.81,0,0,0,4.27-6.22h-1.94a19.22,19.22,0,0,1-5.64,6.53,7.51,7.51,0,0,0-1.54-1.37,15.7,15.7,0,0,0,5.16-5.16H97.71a15,15,0,0,1-3.17,2.78,13,13,0,0,0-1.44-1.32,11.05,11.05,0,0,0,2.26-1.73v0c-2.45,1.2-5,2.42-6.74,3.19a.46.46,0,0,1-.31.43l-1-2.5c.86-.31,1.94-.74,3.14-1.25v-7.42H87.81V570.4h2.66v-5.14l2.69.17c0,.19-.17.31-.55.36v4.61h2.47v2.16H92.61v6.55l2.33-1c0,.1,0,.19.46,2a13.64,13.64,0,0,0,2.35-3.05H94.56v-1.94H110v2Zm-1.73-11.14v8H96.92v-8Zm-2.11,3.21v-1.58H99v1.58Zm0,3.17V570.7H99v1.61Z" transform="translate(0 0)" fill="#fff"/></g><g style="isolation:isolate"><path d="M15.16,267.87v-2.23H34.1v2.26H26.52L27,268c-.05.17-.22.29-.53.31-.62,4.06-2.5,8.33-7.3,10.75a16.07,16.07,0,0,0-1.85-1.61c4.66-2.35,6.14-5.69,6.62-9.6Zm17-6.17a14.55,14.55,0,0,0-1.58-2.5v2.21H17.3v-2.23H30.53a7.2,7.2,0,0,0-1-1.1l1.15-.86a19.26,19.26,0,0,1,2.64,3.62Zm3.12-.8a18.35,18.35,0,0,0-2.57-3.55l1.1-.82a19.9,19.9,0,0,1,2.69,3.55Z" transform="translate(0 0)" fill="#fff"/><path d="M57.28,265.68H52.34v1.22c0,4.82-1.56,9.34-7.61,12.15A13.4,13.4,0,0,0,43,277.37c5.78-2.54,7-6.5,7-10.42v-1.27H43.22v5.59H40.84v-5.59H36.42v-2.3h4.42v-5.06l3,.19c0,.24-.24.48-.65.55v4.32h6.72V258l3,.17c0,.24-.22.43-.65.5v4.68h4.94v2.3Zm-3.53-6.84A15.29,15.29,0,0,1,56.37,262l-1.06.84a18.24,18.24,0,0,0-2.62-3.17Zm2.4-2A16.61,16.61,0,0,1,58.84,260l-1.06.84a15.4,15.4,0,0,0-2.64-3.17Z" transform="translate(0 0)" fill="#fff"/><path d="M78,259.87a.72.72,0,0,1-.53.22,1.1,1.1,0,0,1-.24,0,59.61,59.61,0,0,1-6.62,5.59,5.46,5.46,0,0,0,.65.26.66.66,0,0,1-.58.41V279H68.15V267.21a71,71,0,0,1-8.52,4.92,11.08,11.08,0,0,0-1.44-1.85c6.41-2.9,13.59-7.94,17.35-12.24Z" transform="translate(0 0)" fill="#fff"/><path d="M80.37,259.73a29.65,29.65,0,0,1,7.08,3.19l-1.25,2.16a32.82,32.82,0,0,0-7-3.31Zm-.46,16.42c8.28-2.54,13.9-7.3,16.73-13.92a15.81,15.81,0,0,0,2.21,1.39c-3,6.55-8.78,11.69-16.83,14.45a.77.77,0,0,1-.38.58Z" transform="translate(0 0)" fill="#fff"/><path d="M103.24,266.69a27.4,27.4,0,0,1-2.81,3.53A22.57,22.57,0,0,0,99.21,268a31,31,0,0,0,6.29-10.58l2.71.94a.62.62,0,0,1-.65.26,44.81,44.81,0,0,1-2.28,4.8l.82.24c0,.19-.19.31-.55.38v15.75h-2.3V266.69Zm18.81-.77-7.27.77c.89,5.93,2.59,10.68,4.51,10.71.65,0,1-1.32,1.1-4.39a6.17,6.17,0,0,0,1.9,1.34c-.41,4.22-1.18,5.38-3.12,5.38-4,0-5.93-7-6.72-12.79l-5.62.6-.24-2.16,5.59-.58c-.26-2.42-.38-4.92-.41-7.37l3,.14c0,.26-.19.38-.62.43a55.27,55.27,0,0,0,.34,6.55l7.3-.77Zm-4.48-8.33a24.84,24.84,0,0,1,3.91,3.91l-1.82,1.18a23.4,23.4,0,0,0-3.79-4Z" transform="translate(0 0)" fill="#fff"/><path d="M126.49,270a31.17,31.17,0,0,1-2.3,2.3,14.63,14.63,0,0,0-1.44-1.85,28.48,28.48,0,0,0,6.53-8l2.54,1.06a.58.58,0,0,1-.62.22,34.66,34.66,0,0,1-2.33,3.43l.48.14c0,.19-.22.36-.58.38v12h-2.28V270Zm4.37-11.69c-.1.17-.29.24-.6.22a33.48,33.48,0,0,1-6.22,5.71,14.44,14.44,0,0,0-1.27-1.82,23.19,23.19,0,0,0,5.54-5.18Zm14.45,7.34v2.16h-3.65V277c0,2.45-1,2.74-5.86,2.69a9.41,9.41,0,0,0-.72-2.26c.94,0,1.87.05,2.57.05,1.51,0,1.68,0,1.68-.5v-9.15H131.6v-2.16Zm-.93-7v2.18H132.5v-2.18Z" transform="translate(0 0)" fill="#fff"/></g></svg>