<svg xmlns="http://www.w3.org/2000/svg" viewBox="0 0 85.13 85.13"><path d="M85.13,42.57c0,1.55-3.48,2.89-3.65,4.39s2.93,3.61,2.59,5.09-4,2-4.53,3.47,2,4.16,1.39,5.53-4.38,1.07-5.2,2.36,1.07,4.51.12,5.7-4.51.07-5.59,1.15,0,4.63-1.15,5.59-4.41-.93-5.71-.12-1,4.53-2.36,5.2S57,79,55.5,79.54s-2,4.19-3.46,4.53S48.49,81.31,47,81.48s-2.84,3.65-4.39,3.65-2.89-3.48-4.39-3.65-3.61,2.93-5.08,2.59-2-4-3.46-4.53-4.17,2-5.54,1.39-1.07-4.38-2.36-5.2-4.51,1.07-5.7.12-.07-4.51-1.15-5.59-4.64,0-5.59-1.15.93-4.41.12-5.71-4.53-1-5.19-2.36S6.11,57,5.61,55.5s-4.19-2-4.53-3.46S3.84,48.49,3.67,47,0,44.11,0,42.56s3.48-2.89,3.65-4.39S.72,34.56,1.06,33.08s4-2,4.53-3.47-2-4.16-1.39-5.53S8.58,23,9.39,21.72,8.32,17.21,9.27,16s4.51-.07,5.59-1.15,0-4.64,1.15-5.59,4.41.93,5.7.12,1-4.53,2.36-5.2,4.08,1.89,5.54,1.39,2-4.19,3.46-4.53,3.55,2.76,5.09,2.59S41,0,42.56,0,45.45,3.48,47,3.65,50.56.73,52,1.06s2,4,3.46,4.53,4.17-2,5.54-1.39,1.07,4.38,2.36,5.2,4.51-1.07,5.7-.12.07,4.51,1.15,5.59,4.63,0,5.59,1.15-.93,4.41-.12,5.7,4.53,1,5.2,2.36S79,28.17,79.53,29.61s4.19,2,4.53,3.47-2.76,3.55-2.59,5.09S85.13,41,85.13,42.57Z" fill="#f8c332"/><g style="isolation:isolate"><path d="M22.28,40.27H17.13l.09,8.12c0,2.23-1.4,2.23-4.83,2.23A6.46,6.46,0,0,0,11.94,49l1.46,0c1.64,0,2,0,2-.63l-.07-6.75A25.16,25.16,0,0,1,8.1,48.21a7.6,7.6,0,0,0-1.26-1.35,23.41,23.41,0,0,0,7.47-6.59H7.63V38.58h7.69l0-3.76,2.27.11c0,.18-.18.31-.49.34l0,3.31h5.17v1.69Z" fill="#333"/><path d="M36.1,36.78a.49.49,0,0,1-.31.25,28.15,28.15,0,0,1-3.48,6.07,67.64,67.64,0,0,1,6.3,5.82L37,50.29a56.05,56.05,0,0,0-5.87-5.78,28.6,28.6,0,0,1-6.64,5.78,10.61,10.61,0,0,0-1.31-1.39A24.67,24.67,0,0,0,33.35,37.81H24.89V36.1h9.45l.32-.11Z" fill="#333"/><path d="M52.3,36.78A.49.49,0,0,1,52,37a28.15,28.15,0,0,1-3.48,6.07,66.4,66.4,0,0,1,6.3,5.82l-1.58,1.37a56.05,56.05,0,0,0-5.87-5.78,28.6,28.6,0,0,1-6.64,5.78,10.61,10.61,0,0,0-1.31-1.39A24.67,24.67,0,0,0,49.55,37.81H41.09V36.1h9.45l.32-.11Z" fill="#333"/><path d="M59.32,38.56c1.57.68,3.24,1.51,4.83,2.4a36.42,36.42,0,0,0,3.12-6.07l2.34,1c-.07.16-.34.27-.68.25a43.77,43.77,0,0,1-3.15,5.8,32.74,32.74,0,0,1,3.67,2.59l-1.21,1.68a29.27,29.27,0,0,0-3.57-2.68,28.57,28.57,0,0,1-7.29,7,9.37,9.37,0,0,0-1.48-1.3,26.89,26.89,0,0,0,7.2-6.68c-1.55-.9-3.19-1.76-4.77-2.48Z" fill="#333"/></g></svg>