<svg xmlns="http://www.w3.org/2000/svg" xmlns:xlink="http://www.w3.org/1999/xlink" width="190" height="191" viewBox="0 0 190 191"><defs><filter id="a" x="0" y="0" width="190" height="191" filterUnits="userSpaceOnUse"><feOffset dy="3" input="SourceAlpha"/><feGaussianBlur stdDeviation="3" result="b"/><feFlood flood-opacity="0.161" result="c"/><feComposite operator="out" in="SourceGraphic" in2="b"/><feComposite operator="in" in="c"/><feComposite operator="in" in2="SourceGraphic"/></filter></defs><g transform="translate(-87 -3020)"><g transform="translate(-14.007 3107)"><g data-type="innerShadowGroup"><ellipse cx="95" cy="95.5" rx="95" ry="95.5" transform="translate(101.007 -87)" fill="#fff"/><g transform="matrix(1, 0, 0, 1, 101.01, -87)" filter="url(#a)"><ellipse cx="95" cy="95.5" rx="95" ry="95.5" fill="#fff"/></g></g></g><g transform="translate(-1215.963 1.427)"><g transform="translate(1350.677 3071.752)"><g transform="translate(30.145 0)"><path d="M117.252,375.611a3.6,3.6,0,0,0-3.591,3.591v4.949h6.261v-.3a2.267,2.267,0,0,1,2.275-2.265h40.97a2.266,2.266,0,0,1,2.261,2.265V413.44a1.423,1.423,0,0,1-1.423,1.419v6.261h3.8a3.587,3.587,0,0,0,3.591-3.588V379.2a3.587,3.587,0,0,0-3.591-3.591Z" transform="translate(-113.661 -375.611)" fill="#1a62a3"/></g><path d="M110.184,387.617h5.973a2.269,2.269,0,0,1,2.275-2.254H158.5a3.177,3.177,0,0,1,3.179,3.165v28.678a1.417,1.417,0,0,1-1.423,1.423h-.567v5.979h4.382a3.6,3.6,0,0,0,3.588-3.591v-38.64a3.3,3.3,0,0,0-3.292-3.292H113.775a3.6,3.6,0,0,0-3.591,3.591Z" transform="translate(-91.988 -367.149)" fill="#1a62a3"/><path d="M168.606,399.146a7.4,7.4,0,0,0-7.4-7.4H139.3v.058l-2.2-4.825a7.4,7.4,0,0,0-6.732-4.333h-18.09a7.4,7.4,0,0,0-7.4,7.4v39.946a4.164,4.164,0,0,0,4.148,4.162l56.156.213a5.151,5.151,0,0,0,4.715-3.011l4.12-8.921a2.187,2.187,0,0,0-1.993-3.093h-3.43Z" transform="translate(-104.889 -358.475)" fill="#1a62a3"/></g><ellipse cx="21.132" cy="21.132" rx="21.132" ry="21.132" transform="translate(1404.986 3117.781)" fill="#fff"/><g transform="translate(1406.045 3120.909)"><g transform="translate(3.232 0)"><path d="M470.2,2594.219a4.721,4.721,0,0,1,4.23-2.44,2.558,2.558,0,0,0,2.84-2.849,4.7,4.7,0,0,1,2.445-4.215,2.553,2.553,0,0,0,1.03-3.88,4.717,4.717,0,0,1,0-4.881,2.545,2.545,0,0,0-1.03-3.87,4.712,4.712,0,0,1-2.445-4.24,2.552,2.552,0,0,0-2.84-2.83,4.752,4.752,0,0,1-4.23-2.435,2.535,2.535,0,0,0-3.87-1.041,4.735,4.735,0,0,1-4.881,0,2.544,2.544,0,0,0-3.88,1.041,4.735,4.735,0,0,1-4.23,2.435,2.563,2.563,0,0,0-2.84,2.83,4.7,4.7,0,0,1-2.435,4.24,2.541,2.541,0,0,0-1.05,3.87,4.674,4.674,0,0,1,0,4.881,2.55,2.55,0,0,0,1.05,3.88,4.687,4.687,0,0,1,2.435,4.215,2.569,2.569,0,0,0,2.84,2.849,4.731,4.731,0,0,1,4.24,2.44,2.534,2.534,0,0,0,3.87,1.035,4.787,4.787,0,0,1,4.881,0,2.536,2.536,0,0,0,3.87-1.035Zm-6.315-5.616a10.212,10.212,0,1,1,10.215-10.215,10.207,10.207,0,0,1-10.215,10.215Z" transform="translate(-446.523 -2561.037)" fill="#1a62a3" stroke="#fff" stroke-width="3" fill-rule="evenodd"/></g><path d="M455.766,2568.312c-1.972,0-2.233-.92-2.233-.92l-7.666,15.079,6.153-.705,3.392,5.122s7.084-14.773,7.084-14.676c-3.668-.1-2.223-3.8-6.729-3.9Z" transform="translate(-445.867 -2537.624)" fill="#1a62a3" fill-rule="evenodd"/><path d="M459.863,2567.51c-5.59.6-4.467,1.983-5.738,3.071a3.947,3.947,0,0,1-3.313,1.252l8.647,14.884,2.12-5.516,6.059.8Z" transform="translate(-426.434 -2537.157)" fill="#1a62a3" fill-rule="evenodd"/><path d="M457.689,2567.557l-2.134-4.334-2.14,4.334-4.772.695,3.446,3.382-.808,4.762,4.274-2.243,4.284,2.243-.808-4.762,3.456-3.382Z" transform="translate(-434.957 -2552.448)" fill="#1a62a3" fill-rule="evenodd"/></g></g></g></svg>