<svg xmlns="http://www.w3.org/2000/svg" viewBox="0 0 464.88 204.1"><path d="M232.45,204.1c128.16,0,232.43-45.11,232.43-100.56,0-16.89-9.86-33.59-28.53-48.29a4.77,4.77,0,0,0-3.51-.44c-1.23.3-1.68,1-1,1.52,18.25,14.39,27.9,30.72,27.9,47.22,0,54.22-101.95,98.33-227.29,98.33S5.16,157.77,5.16,103.55s102-98.33,227.29-98.33C268.53,5.22,303,8.79,335,15.81c5.31,1.16,14.38,3.39,23.16,5.64l-27.46,4.64c-1.33.23-2,.88-1.46,1.44a4.18,4.18,0,0,0,3.33.63l31.16-5.28c6,1.58,11.47,3.07,14.82,4.11a5.11,5.11,0,0,0,3.59-.27c.82-.5.53-1.2-.61-1.55-2.79-.85-7-2-11.81-3.3l14.7-2.49,70-15.44L402.07,40.15c-.76.52-.39,1.21.82,1.53a5,5,0,0,0,3.55-.36L463.7,1.7c.62-.42.51-1-.28-1.34a4.59,4.59,0,0,0-1.9-.36,5.81,5.81,0,0,0-1.17.12l-78,17.23-18.08,3.07c-9.9-2.58-20.83-5.28-26.9-6.61C304.63,6.62,269.32,3,232.44,3,104.27,3,0,48.09,0,103.54S104.27,204.1,232.45,204.1Z" transform="translate(0 0.01)" fill="#1a1311"/></svg>