<svg xmlns="http://www.w3.org/2000/svg" viewBox="0 0 101.33 126.5"><path d="M24.2,47.9h4.9a5.38,5.38,0,0,0,5.4-5.4V31.7a16.2,16.2,0,0,1,32.4,0h0V42.5a5.38,5.38,0,0,0,5.4,5.4h4.9a5.38,5.38,0,0,0,5.4-5.4V31.7a31.9,31.9,0,0,0-63.8,0V42.5A5.38,5.38,0,0,0,24.2,47.9ZM22.1,31.7a28.55,28.55,0,0,1,57.1,0V42.5a2,2,0,0,1-2,2H72.3a2,2,0,0,1-2-2V31.7a19.6,19.6,0,1,0-39.2,0h0V42.5a2,2,0,0,1-2,2H24.2a2,2,0,0,1-2-2Z" transform="translate(-0.07 0)" fill="#1a62a3"/><path d="M101.3,116.9l-4-54.5A10.58,10.58,0,0,0,87,52.8H14.4A10.59,10.59,0,0,0,4.1,62.4l-4,54.5a8.92,8.92,0,0,0,8,9.6H92.4a8.84,8.84,0,0,0,9-8.7C101.4,117.5,101.3,117.2,101.3,116.9Zm-5,4.4a5.44,5.44,0,0,1-4,1.7H9a5.1,5.1,0,0,1-5.3-5.1v-.6l4-54.5a7,7,0,0,1,6.7-6.3H86.9a6.91,6.91,0,0,1,6.7,6.3l4,54.5a4.4,4.4,0,0,1-1.3,4Z" transform="translate(-0.07 0)" fill="#1a62a3"/><ellipse cx="50.65" cy="79.04" rx="9.6" ry="9.7" fill="#1a62a3"/><path d="M44.82,85.44l-3.6,22.3H60l-4.3-22.3H44.82" transform="translate(-0.07 0)" fill="#1a62a3"/><circle cx="50.63" cy="79.13" r="4" fill="#fff"/><path d="M48.2,90.63l-1.5,12h8l-1.8-12" transform="translate(-0.07 0)" fill="#fff"/></svg>