<svg xmlns="http://www.w3.org/2000/svg" viewBox="0 0 100.4 136.14"><path d="M50.7,1.65,1.9,24.36v41.7a72.51,72.51,0,0,0,48.7,68.49,72.4,72.4,0,0,0,48.7-68.5V24.36Z" transform="translate(-0.4 0)" fill="none" stroke="#1a62a3" stroke-width="3"/><path d="M50.7,12V124.65A63.22,63.22,0,0,0,90.1,66.06V30.26Z" transform="translate(-0.4 0)" fill="none" stroke="#1a62a3" stroke-width="2"/><path d="M11.2,30.26v35.8a63.31,63.31,0,0,0,39.4,58.59V12Z" transform="translate(-0.4 0)" fill="none" stroke="#1a62a3" stroke-width="2"/><path d="M75.26,67a24.6,24.6,0,1,1-24.6-24.6A24.58,24.58,0,0,1,75.26,67Z" transform="translate(-0.4 0)" fill="#1a62a3"/><path d="M46.16,79.56l-10.8-10.8,3.6-3.6,7.2,7.2,16.2-16.2,3.6,3.6Z" transform="translate(-0.4 0)" fill="#fff"/></svg>