<svg xmlns="http://www.w3.org/2000/svg" xmlns:xlink="http://www.w3.org/1999/xlink" width="191" height="192" viewBox="0 0 191 192"><defs><filter id="a" x="0" y="0" width="191" height="192" filterUnits="userSpaceOnUse"><feOffset dy="3" input="SourceAlpha"/><feGaussianBlur stdDeviation="3" result="b"/><feFlood flood-opacity="0.161" result="c"/><feComposite operator="out" in="SourceGraphic" in2="b"/><feComposite operator="in" in="c"/><feComposite operator="in" in2="SourceGraphic"/></filter></defs><g transform="translate(-88 -7087)"><g data-type="innerShadowGroup"><ellipse cx="95.5" cy="96" rx="95.5" ry="96" transform="translate(88 7087)" fill="#fff"/><g transform="matrix(1, 0, 0, 1, 88, 7087)" filter="url(#a)"><ellipse cx="95.5" cy="96" rx="95.5" ry="96" fill="#fff"/></g></g><g transform="translate(109.225 7136.8)"><g transform="translate(9.27 0.336)"><path d="M280.546,53.278l-.2,2.582-.026,1.469-2.262,1.607-6.946-3.779-12.677-6.9.017-34.406-1.9-1.475L201.628,32.138,201.5,68.707l.746.407v-.064l-13.872,4.993V86.717l27.713,14.731,21.724-7.721s15.322-5.709,17.668-6.414c1.887,1.1,5.491,1.784,7.162,2.046a5.145,5.145,0,0,0,3.413-.511c.7-.37,10.1-11.67,10.1-11.67l1.51,8.9,2.189,7.881-.619,7.7-.229,5.784h3.934l-.644,9.8,28.112-10.153s3.226-29.036,3.382-30.486.488-3.03-.247-4.2-1.782-.6-2.927-.325-3.5,1.148-3.5,1.148-.45-2.943-.774-4.575-2.185-7.975-2.524-8.943a9.156,9.156,0,0,0-2.5-3.635,10.7,10.7,0,0,0-5.076-1.322,10.162,10.162,0,0,1-3.123-.928s-1.658-.951-1.943-2.028c-.126-.478.807-2.114.807-2.114l1.329-1.832-.163,2.5s1.673-1.277,1.769-1.126,2.2.78,2.985.279a61.114,61.114,0,0,0,.445-10.641c-.317-2.32-1.1-7.071-2.239-8.885a31.2,31.2,0,0,0-5.253-5.568c-.924-.667-2.689-2.8-5.314-2.456s-6.2.555-8.607,1.784-5.2,2.81-6.349,4.511a12.521,12.521,0,0,0-2.439,7.809,35.336,35.336,0,0,0,.677,5.053l.473,2.432-.952,1.352.375.877.728.5.347,1.379,1.8,5.447.706,1.719.439.047,3.605-.349.317-.226Z" transform="translate(-188.379 -12.38)" fill="#fff"/></g><g transform="translate(0 1.034)"><path d="M295.154,16.35l-1.9-1.475L238.209,34.633V71.2l2.236,1.343,16.489-5.8,7.147,4.107,20.456-7.474L277.529,59.2l17.624-6.417Zm-2.133,34.6L242.607,69.083V37.869l50.414-18.136Z" transform="translate(-214.987 -14.875)" fill="#b4a28f"/><g transform="translate(36.059 51.25)"><path d="M346.192,222.8s-.7-.372-1.493-.8l-1.549.576.766.27C345.618,223.455,346.192,222.8,346.192,222.8Z" transform="translate(-326.606 -215.264)" fill="#b4a28f"/><path d="M310.27,234.2l-4.178-1.1-2.339-.575-2.381-.442-2.549-.264-1.542-.656v-.692l5.5.4-1.238-.8a30.8,30.8,0,0,1-3.342-.527c-.966-.272-1.671-.312-1.942-1.027s1.136-.312,3.274-.3,3.1,0,3.1,0l-4.171-1.316-14.4,5.352v1.621l13.433,7.157,14.074-4.988.117-.719Z" transform="translate(-284.06 -218.794)" fill="#b4a28f"/><path d="M384.906,205.083l-13.245-7.157L355.4,203.968l5.038,2.088s-.392-.139-.645-1.745,0-1.539,0-1.539,1.437,1.325,1.842,1.69,4.443,4.157,4.443,4.157l.641-.328,2.082.328.039.118.235-.051,2.135.262,5.054,1.508,8.639-3.062Z" transform="translate(-335.428 -197.926)" fill="#b4a28f"/></g><g transform="translate(124.481 5.539)"><path d="M599.876,51.54l11.73-16.882,3.354,4.572Z" transform="translate(-599.876 -34.659)" fill="#b4a28f"/><path d="M606.487,135.013l17.422,2.227-1.344,4.939Z" transform="translate(-604.636 -106.916)" fill="#b4a28f"/><path d="M613.72,88.8l19.869-7.318.542,6.261Z" transform="translate(-609.844 -68.375)" fill="#b4a28f"/></g><g transform="translate(0 5.405)"><path d="M176.518,97.432l-13.292,5.945-.361-4Z" transform="translate(-160.738 -79.722)" fill="#b4a28f"/><path d="M197.2,44.41l-9.751-7.727,2.622-2.5Z" transform="translate(-178.443 -34.179)" fill="#b4a28f"/><path d="M170,67.12l-14.727-2.833,1.963-4Z" transform="translate(-155.268 -52.981)" fill="#b4a28f"/></g><path d="M321.233,74.506c.794-.559,3.352-2.409,4.843-2.534,1.752-.146,3.378.553,3.629,1.752a14.263,14.263,0,0,1,.4,3.649,1.78,1.78,0,0,0-1.278-.751L328.016,76l-1.068-.549-.371-.646-1.862,1.522-1.453.2-1.587,1.02-1.362,2-1.029.316s.31,2.207,0,2.1c-.758-.688-1.019-2.94-.633-3.962A8.444,8.444,0,0,1,321.233,74.506Z" transform="translate(-272.781 -55.973)" fill="#1a62a3"/><path d="M309.995,145.959a20.5,20.5,0,0,1,3.816-4.63,1.5,1.5,0,0,1,.524,1.168l1.207,7.007-7.049,3.212S308.849,147.924,309.995,145.959Z" transform="translate(-265.593 -105.924)" fill="#1a62a3"/><path d="M349.149,132.692a3.494,3.494,0,0,1,3.086,1.918c.24.855.48,4.557.563,5.172-.553.459-7.362,2.481-7.362,2.481l1.311-9.571S348.294,132.63,349.149,132.692Z" transform="translate(-292.194 -99.686)" fill="#1a62a3"/><path d="M334.175,136.766l1.483-1.552,1.484.446-.816,2.686.521,5.752-2.039.684.362-6.142Z" transform="translate(-284.085 -101.522)" fill="#d1e0ed"/><path d="M330.721,107.262a.651.651,0,0,1-.329.6c-.182.066-.329-.094-.329-.357a.651.651,0,0,1,.329-.6C330.574,106.839,330.721,107,330.721,107.262Z" transform="translate(-281.125 -81.128)" fill="#3b3938"/><path d="M346.606,101.48c0,.263.147.424.329.357a.651.651,0,0,0,.329-.6c0-.263-.147-.423-.329-.357A.652.652,0,0,0,346.606,101.48Z" transform="translate(-293.035 -76.792)" fill="#3b3938"/><path d="M488.02,116.956c0,.445-.18.806-.4.806s-.4-.361-.4-.806.18-.806.4-.806S488.02,116.511,488.02,116.956Z" transform="translate(-394.276 -87.795)" fill="#3b3938"/><path d="M484.126,55.936c3.442-1.339,9.075-2.523,12.84.541a16.356,16.356,0,0,1,5.577,8.8c.846,3.472.745,10.237.544,14.772-.816.751-4.865,1.043-5.7.821a9.293,9.293,0,0,0-3.063,1.038c-.853.349-9.7,2.92-11.76,2.733.465-1.707,1.894-10.586,1.763-11.834a30.759,30.759,0,0,0-1.241-6.047c-.564-1.3-2.785-5.341-3.314-5.627a10.715,10.715,0,0,0-2.775,3.429,14.968,14.968,0,0,0-.975,6.444,7.521,7.521,0,0,1-.471,2.773s-.591-2.3-.776-3.3a28.215,28.215,0,0,1,1.483-8.7C477.588,58.869,481.745,56.862,484.126,55.936Z" transform="translate(-385.296 -43.439)" fill="#1a62a3"/><path d="M444.545,169.487c-2.84-.352-14.816.5-20.174,4.268-5.8,4.087-5.666,4.244-9.06,9.183s-7.449,10.1-7.449,10.1-8.833-2.637-9.641-2.859-4.834-1.3-4.834-1.3a3.346,3.346,0,0,0-1.877,2.073,32.343,32.343,0,0,0-.728,4.533s4.8,2.5,5.969,3.051,10.365,4.085,12.378,4.085,3.088-.5,3.954-1.752,6.069-7.339,6.8-8.22,1.885-2.7,1.885-2.7a22.283,22.283,0,0,1,.8,3.672,84.705,84.705,0,0,0,1.9,9.6,24.616,24.616,0,0,1,.863,3.911l-.6,14.113v1.832h3.986l1.792-16.147s.846-9.443.987-10.53a5.1,5.1,0,0,1,3.511-3.576l16.567-5.96a65.966,65.966,0,0,0-3.246-13.074C447.485,172.2,447.143,169.809,444.545,169.487Z" transform="translate(-324.844 -126.146)" fill="#1a62a3"/><path d="M469.419,199.718l-.879-.737s.779-1.983.988-2.406a30.274,30.274,0,0,1,2.131-2.911,6.252,6.252,0,0,1,.685-.4l1.374,1.114-2.744,3.375Z" transform="translate(-380.83 -143.319)" fill="#3d7a95"/></g><g transform="translate(9.045 0)"><path d="M515.014,161.432a.336.336,0,0,1-.2-.608c2.066-1.5,9.226-4.662,13.877-3.221a.336.336,0,0,1-.2.642c-4.075-1.262-10.911,1.4-13.283,3.123A.334.334,0,0,1,515.014,161.432Z" transform="translate(-423.096 -116.343)" fill="#3b3938"/><path d="M495.946,169.858a.336.336,0,0,1-.206-.6l.235-.183a30.236,30.236,0,0,1,5.978-4.017c5.672-2.23,13.15-4.463,20.689-1.907a.336.336,0,0,1-.216.636c-7.333-2.486-14.662-.293-20.228,1.9a29.964,29.964,0,0,0-5.811,3.922l-.235.183A.334.334,0,0,1,495.946,169.858Z" transform="translate(-409.366 -119.781)" fill="#3b3938"/><path d="M569.847,213.54a.336.336,0,0,1-.334-.3,64.664,64.664,0,0,0-1.134-7.482.336.336,0,0,1,.657-.141,65.488,65.488,0,0,1,1.146,7.561.336.336,0,0,1-.3.366Z" transform="translate(-461.756 -150.984)" fill="#3b3938"/><path d="M562.123,183.08a.336.336,0,0,1-.325-.251c-.538-2.05-1.071-3.571-1.424-4.577-.148-.423-.265-.757-.344-1.019a.336.336,0,0,1,.643-.195c.075.249.19.576.336.991.356,1.016.895,2.553,1.439,4.629a.336.336,0,0,1-.24.41A.345.345,0,0,1,562.123,183.08Z" transform="translate(-455.739 -130.43)" fill="#3b3938"/><path d="M598.484,185.775a.335.335,0,0,1-.335-.325c-.071-2.228-2.292-11.818-4.506-14.231a.336.336,0,1,1,.5-.454c2.353,2.564,4.607,12.31,4.682,14.664a.336.336,0,0,1-.325.347Z" transform="translate(-479.888 -126.006)" fill="#3b3938"/><path d="M242.382,167.017a.336.336,0,0,1-.114-.652l54.924-19.758a.336.336,0,1,1,.228.632L242.5,167A.33.33,0,0,1,242.382,167.017Z" transform="translate(-226.795 -108.676)" fill="#3b3938"/><path d="M329.023,193.688a.336.336,0,0,1-.114-.652l18.747-6.744a.336.336,0,0,1,.227.632l-18.747,6.744A.33.33,0,0,1,329.023,193.688Z" transform="translate(-289.178 -137.25)" fill="#3b3938"/><path d="M241.248,36.88a.336.336,0,0,1-.114-.652l54.924-19.758a.336.336,0,0,1,.227.632L241.362,36.86A.337.337,0,0,1,241.248,36.88Z" transform="translate(-225.978 -14.974)" fill="#3b3938"/><path d="M251.011,158.145a.336.336,0,0,1-.114-.652l50.414-18.136a.336.336,0,0,1,.227.632l-50.414,18.136A.339.339,0,0,1,251.011,158.145Z" transform="translate(-233.008 -103.456)" fill="#3b3938"/><path d="M251.011,46.659a.336.336,0,0,1-.114-.652l50.414-18.136a.336.336,0,1,1,.227.632L251.125,46.64A.339.339,0,0,1,251.011,46.659Z" transform="translate(-233.008 -23.184)" fill="#3b3938"/><path d="M543,232.713a.336.336,0,0,1-.114-.652l23.305-8.384a.336.336,0,0,1,.227.632l-23.305,8.384A.336.336,0,0,1,543,232.713Z" transform="translate(-443.245 -164.168)" fill="#3b3938"/><path d="M286.269,290.685a.336.336,0,0,1-.114-.652l32.968-11.86a.336.336,0,1,1,.227.632l-32.968,11.86A.338.338,0,0,1,286.269,290.685Z" transform="translate(-258.394 -203.406)" fill="#3b3938"/><path d="M421.935,226.727a.336.336,0,0,1-.114-.652l8.634-3.106a.336.336,0,1,1,.228.632l-8.634,3.106A.331.331,0,0,1,421.935,226.727Z" transform="translate(-356.077 -163.658)" fill="#3b3938"/><path d="M332.239,258.807a.336.336,0,0,1-.114-.652l9.817-3.531a.336.336,0,1,1,.228.632l-9.817,3.531A.333.333,0,0,1,332.239,258.807Z" transform="translate(-291.494 -186.45)" fill="#3b3938"/><path d="M356.651,202.352a.336.336,0,0,1-.114-.652l14.12-5.08a.336.336,0,1,1,.228.632l-14.12,5.08A.34.34,0,0,1,356.651,202.352Z" transform="translate(-309.071 -144.687)" fill="#3b3938"/><path d="M430.639,231.35a.336.336,0,0,1-.114-.652l7.643-2.749a.336.336,0,1,1,.228.632l-7.643,2.749A.332.332,0,0,1,430.639,231.35Z" transform="translate(-362.344 -167.244)" fill="#3b3938"/><path d="M332.475,262.479a.336.336,0,0,1-.114-.652l12.167-4.377a.336.336,0,0,1,.227.632l-12.167,4.377A.329.329,0,0,1,332.475,262.479Z" transform="translate(-291.663 -188.486)" fill="#3b3938"/><path d="M286.549,230.922a.336.336,0,0,1-.114-.652l10.5-3.777a.336.336,0,1,1,.227.632l-10.5,3.777A.336.336,0,0,1,286.549,230.922Z" transform="translate(-258.596 -166.196)" fill="#3b3938"/><path d="M286.269,296.494a.336.336,0,0,1-.114-.652l36.189-13.018a.336.336,0,0,1,.227.632l-36.189,13.018A.337.337,0,0,1,286.269,296.494Z" transform="translate(-258.394 -206.755)" fill="#3b3938"/><path d="M461.631,175.117a.335.335,0,0,1-.272-.139c-.172-.237-1.548-1.344-2.553-2.152-1.055-.848-2.051-1.649-2.348-1.967a.336.336,0,1,1,.49-.459c.264.282,1.288,1.106,2.278,1.9a26.011,26.011,0,0,1,2.676,2.282.336.336,0,0,1-.272.533Z" transform="translate(-381.11 -125.745)" fill="#3b3938"/><path d="M457.444,178.386a.336.336,0,0,1-.211-.075c-.658-.532-.948-2.1-.979-2.957a6.946,6.946,0,0,1-1.743-2.3.336.336,0,0,1,.669-.054,8.271,8.271,0,0,0,1.587,1.911.336.336,0,0,1,.156.286,4.47,4.47,0,0,0,.732,2.6.336.336,0,0,1-.211.6Zm-2.262-5.369h0Z" transform="translate(-379.774 -127.476)" fill="#3b3938"/><path d="M445.414,182.349a.332.332,0,0,1-.075-.008.336.336,0,0,1-.252-.4,39.657,39.657,0,0,1,2.049-4.477.336.336,0,1,1,.574.349,41.824,41.824,0,0,0-1.968,4.278A.336.336,0,0,1,445.414,182.349Z" transform="translate(-372.982 -130.79)" fill="#3b3938"/><path d="M436.757,166.1a.335.335,0,0,1-.173-.048c-.293-.161-5.3-2.39-5.526-2.479a.336.336,0,0,1,.242-.627c.041.016,5.387,2.376,5.637,2.534a.336.336,0,0,1-.179.62Z" transform="translate(-362.732 -120.441)" fill="#3b3938"/><path d="M435.677,169.04a.335.335,0,0,1-.159-.04c-.037-.02-3.729-2-4.063-2.172-.013-.006-1.275-.659-1.228-1.293a.336.336,0,0,1,.671.016,2.633,2.633,0,0,0,.859.676c.343.172,3.927,2.1,4.079,2.181a.336.336,0,0,1-.159.632Z" transform="translate(-362.288 -122.095)" fill="#3b3938"/><path d="M426.2,172.954l-.038,0-4.72-.533a.336.336,0,1,1,.076-.668l4.719.533a.336.336,0,0,1-.037.67Z" transform="translate(-355.752 -126.794)" fill="#3b3938"/><path d="M427.541,176.391a.374.374,0,0,1-.05,0c-.036-.005-3.558-.527-4-.572-.342-.034-1.531-.319-1.794-.732a.336.336,0,0,1,.559-.372,3.521,3.521,0,0,0,1.3.435c.462.046,3.891.554,4.036.575a.336.336,0,0,1-.049.669Zm-5.284-1.673,0,.005Z" transform="translate(-356.107 -128.822)" fill="#3b3938"/><path d="M427.491,181.891h0c-.133,0-.859-.03-2.033-.08-1.521-.064-3.82-.163-4.025-.148a.338.338,0,0,1-.358-.312.334.334,0,0,1,.307-.358c.2-.015,1.828.051,4.1.147.967.041,1.88.079,2.007.079a.336.336,0,0,1,0,.672Z" transform="translate(-355.698 -133.448)" fill="#3b3938"/><path d="M427.71,184.523l-3.183-.153-.2-.008c-1.562-.062-2.385-.183-2.55-.668a.336.336,0,0,1,.619-.258,5.667,5.667,0,0,0,1.958.255l.2.008,3.184.153Z" transform="translate(-356.196 -135.074)" fill="#3b3938"/><path d="M425.183,189.134a.336.336,0,0,1-.082-.662c.112-.028.483-.117.944-.227.87-.207,2.185-.521,2.43-.593a.336.336,0,1,1,.189.645c-.262.077-1.535.38-2.464.6-.455.109-.823.2-.934.225A.341.341,0,0,1,425.183,189.134Z" transform="translate(-358.415 -138.234)" fill="#3b3938"/><path d="M427.735,192.349c-.608,0-1.228-.074-1.376-.333a.336.336,0,0,1,.517-.416,5.8,5.8,0,0,0,1.966-.006c.649-.16,2.114-.387,2.176-.4a.336.336,0,1,1,.1.664c-.015,0-1.5.231-2.116.385A7.067,7.067,0,0,1,427.735,192.349Zm-.794-.668h0Z" transform="translate(-359.472 -140.793)" fill="#3b3938"/><path d="M449.566,199.176h-.024a9.474,9.474,0,0,1-5.275-2.625.343.343,0,0,1-.027-.48.328.328,0,0,1,.468-.027l.013.011a8.643,8.643,0,0,0,4.869,2.45.336.336,0,0,1-.023.671Z" transform="translate(-372.317 -144.223)" fill="#3b3938"/><path d="M464.444,194.984a.345.345,0,0,1-.069-.007.336.336,0,0,1-.26-.4c.351-1.678,2.388-5.558,4.142-6.251a.336.336,0,1,1,.247.625c-1.479.584-3.409,4.223-3.731,5.763A.336.336,0,0,1,464.444,194.984Z" transform="translate(-386.684 -138.714)" fill="#3b3938"/><path d="M468.617,197.325a.341.341,0,0,1-.071-.008.336.336,0,0,1-.258-.4c.257-1.19,1.58-4.827,4.209-5.9a.336.336,0,0,1,.253.622c-2.36.959-3.568,4.315-3.805,5.415A.336.336,0,0,1,468.617,197.325Z" transform="translate(-389.689 -140.653)" fill="#3b3938"/><path d="M446.883,208.255a.336.336,0,0,1-.286-.511c.894-1.462,8.848-14.364,12.8-17.072a.336.336,0,1,1,.38.554c-3.119,2.136-9.394,11.608-12.611,16.868A.335.335,0,0,1,446.883,208.255Z" transform="translate(-374.04 -140.376)" fill="#3b3938"/><path d="M390.037,242.584h0a.336.336,0,0,1-.333-.338v-.191c-.015-4.4,1.383-7.042,4.156-7.859a.336.336,0,1,1,.19.645c-2.452.722-3.688,3.148-3.674,7.212,0,.077,0,.144,0,.2A.336.336,0,0,1,390.037,242.584Z" transform="translate(-333.109 -171.746)" fill="#3b3938"/><path d="M385.229,240.541a.336.336,0,0,1-.335-.317c-.094-1.637.376-6.156,3.646-7.394a.336.336,0,1,1,.238.628c-2.568.972-3.334,4.642-3.214,6.727a.336.336,0,0,1-.316.355Z" transform="translate(-329.641 -170.757)" fill="#3b3938"/><path d="M419.324,239.739a.339.339,0,0,1-.095-.013c-3.6-1.058-10.536-3.087-11.014-3.2a.336.336,0,0,1,.15-.655c.617.142,10.627,3.081,11.053,3.206a.336.336,0,0,1-.095.658Z" transform="translate(-346.252 -172.959)" fill="#3b3938"/><path d="M523.944,301.232l-.036,0a.336.336,0,0,1-.3-.37l3.049-28.75a.336.336,0,0,1,.668.071l-3.05,28.751A.336.336,0,0,1,523.944,301.232Z" transform="translate(-429.525 -198.839)" fill="#3b3938"/><path d="M535.344,259.8a.331.331,0,0,1-.052,0,.336.336,0,0,1-.281-.384c.027-.175.045-.375.064-.587a3.346,3.346,0,0,1,1.5-3.01.336.336,0,0,1,.319.591,2.736,2.736,0,0,0-1.148,2.478c-.019.223-.039.434-.069.631A.336.336,0,0,1,535.344,259.8Z" transform="translate(-437.733 -187.292)" fill="#3b3938"/><path d="M631.657,226.064h-.011a.336.336,0,0,1-.325-.347,2.518,2.518,0,0,0-.7-2.1.579.579,0,0,0-.5-.135.336.336,0,0,1-.212-.638,1.223,1.223,0,0,1,1.114.235,3.111,3.111,0,0,1,.968,2.658A.336.336,0,0,1,631.657,226.064Z" transform="translate(-505.9 -163.548)" fill="#3b3938"/><path d="M214.123,281.869a.334.334,0,0,1-.161-.041l-26.214-14.315a.336.336,0,1,1,.322-.59l26.214,14.315a.336.336,0,0,1-.161.631Z" transform="translate(-187.574 -195.291)" fill="#3b3938"/><path d="M235.887,213.847a.332.332,0,0,1-.16-.041l-1.491-.814a.336.336,0,0,1,.322-.59l1.491.814a.336.336,0,0,1-.162.631Z" transform="translate(-221.045 -156.034)" fill="#3b3938"/><path d="M455.716,149.247a.334.334,0,0,1-.161-.041l-7.673-4.19a.336.336,0,1,1,.322-.59l7.673,4.19a.336.336,0,0,1-.161.631Z" transform="translate(-374.876 -107.09)" fill="#3b3938"/><path d="M234.836,31.61a.336.336,0,0,1-.114-.652L289.646,11.2a.335.335,0,0,1,.275.021l1.026.56a.336.336,0,1,1-.322.59l-.893-.488L234.95,31.591A.339.339,0,0,1,234.836,31.61Z" transform="translate(-221.362 -11.18)" fill="#3b3938"/><path d="M294.934,250.6a.334.334,0,0,1-.161-.041l-13.107-7.157a.336.336,0,0,1,.322-.59l13.107,7.157a.336.336,0,0,1-.161.631Z" transform="translate(-255.197 -177.933)" fill="#3b3938"/><path d="M310.965,202.788a.337.337,0,0,1-.161-.041l-5.568-3.041a.336.336,0,1,1,.322-.59l5.568,3.04a.336.336,0,0,1-.161.631Z" transform="translate(-272.167 -146.469)" fill="#3b3938"/><path d="M384.252,176.227a.333.333,0,0,1-.161-.041l-5.568-3.041a.336.336,0,1,1,.322-.59l5.568,3.04a.336.336,0,0,1-.161.631Z" transform="translate(-324.936 -127.344)" fill="#3b3938"/><g transform="translate(61.572 53.283)"><path d="M435.906,219.391a.336.336,0,0,1-.114-.652l1.452-.522-1.006-.549a.336.336,0,1,1,.322-.59l1.661.907a.336.336,0,0,1-.047.611l-2.156.776A.33.33,0,0,1,435.906,219.391Z" transform="translate(-427.708 -212.684)" fill="#3b3938"/><path d="M426.339,214.255a.336.336,0,0,1-.114-.652l1.453-.522-1.006-.55a.336.336,0,1,1,.322-.59l1.662.907a.336.336,0,0,1-.047.611l-2.156.776A.339.339,0,0,1,426.339,214.255Z" transform="translate(-420.819 -208.986)" fill="#3b3938"/><path d="M417.037,209.12a.336.336,0,0,1-.114-.652l1.453-.522-1.006-.55a.336.336,0,1,1,.322-.59l1.662.907a.336.336,0,0,1-.047.611l-2.156.776A.339.339,0,0,1,417.037,209.12Z" transform="translate(-414.122 -205.288)" fill="#3b3938"/><path d="M407.825,203.847a.336.336,0,0,1-.114-.652l1.453-.522-1.006-.55a.336.336,0,0,1,.322-.59l1.662.908a.336.336,0,0,1-.047.611l-2.156.775A.331.331,0,0,1,407.825,203.847Z" transform="translate(-407.489 -201.492)" fill="#3b3938"/></g><g transform="translate(57.775 54.649)"><path d="M422.346,224.267a.336.336,0,0,1-.114-.652l1.453-.523-1.006-.549a.336.336,0,1,1,.322-.59l1.662.907a.336.336,0,0,1-.047.611l-2.156.776A.339.339,0,0,1,422.346,224.267Z" transform="translate(-414.148 -217.561)" fill="#3b3938"/><path d="M412.78,219.132a.336.336,0,0,1-.114-.652l1.453-.523-1.006-.549a.336.336,0,1,1,.322-.59l1.662.907a.336.336,0,0,1-.047.611l-2.156.776A.337.337,0,0,1,412.78,219.132Z" transform="translate(-407.26 -213.863)" fill="#3b3938"/><path d="M403.478,214a.336.336,0,0,1-.114-.652l1.453-.523-1.006-.549a.336.336,0,0,1,.322-.59l1.662.907a.336.336,0,0,1-.047.611l-2.156.776A.336.336,0,0,1,403.478,214Z" transform="translate(-400.563 -210.165)" fill="#3b3938"/><path d="M394.265,208.724a.336.336,0,0,1-.114-.652l1.452-.522L394.6,207a.336.336,0,1,1,.322-.59l1.661.907a.336.336,0,0,1-.047.611l-2.156.776A.338.338,0,0,1,394.265,208.724Z" transform="translate(-393.929 -206.37)" fill="#3b3938"/></g><g transform="translate(53.979 56.014)"><path d="M408.787,229.143a.336.336,0,0,1-.114-.652l1.453-.523-1.006-.549a.336.336,0,0,1,.322-.59l1.662.907a.336.336,0,0,1-.047.611l-2.156.775A.329.329,0,0,1,408.787,229.143Z" transform="translate(-400.589 -222.436)" fill="#3b3938"/><path d="M399.221,224.007a.336.336,0,0,1-.114-.652l1.452-.522-1.006-.549a.336.336,0,1,1,.322-.59l1.661.908a.336.336,0,0,1-.047.611l-2.156.775A.329.329,0,0,1,399.221,224.007Z" transform="translate(-393.701 -218.738)" fill="#3b3938"/><path d="M389.919,218.872a.336.336,0,0,1-.114-.652l1.452-.523-1.006-.549a.336.336,0,1,1,.322-.59l1.662.907a.336.336,0,0,1-.047.611l-2.156.775A.33.33,0,0,1,389.919,218.872Z" transform="translate(-387.004 -215.041)" fill="#3b3938"/><path d="M380.706,213.6a.336.336,0,0,1-.114-.652l1.453-.523-1.006-.549a.336.336,0,0,1,.322-.59l1.662.908a.336.336,0,0,1-.047.611l-2.156.775A.331.331,0,0,1,380.706,213.6Z" transform="translate(-380.37 -211.245)" fill="#3b3938"/></g><g transform="translate(34.997 62.84)"><path d="M340.991,253.525a.336.336,0,0,1-.114-.652l1.453-.523-1.006-.549a.336.336,0,0,1,.322-.59l1.662.907a.336.336,0,0,1-.047.611l-2.155.776A.34.34,0,0,1,340.991,253.525Z" transform="translate(-332.793 -246.818)" fill="#3b3938"/><path d="M331.425,249.019a.336.336,0,0,1-.114-.652l1.453-.523-.557-.3a.336.336,0,0,1,.322-.59l1.213.662a.336.336,0,0,1-.047.611l-2.156.776A.337.337,0,0,1,331.425,249.019Z" transform="translate(-325.905 -243.75)" fill="#3b3938"/><path d="M324.559,241.938a.333.333,0,0,1-.16-.041l-.673-.367a.336.336,0,0,1,.322-.59l.673.367a.336.336,0,0,1-.162.631Z" transform="translate(-320.478 -239.422)" fill="#3b3938"/><path d="M322.123,246.318a.336.336,0,0,1-.114-.652l1.366-.491a.336.336,0,0,1,.227.632l-1.366.491A.336.336,0,0,1,322.123,246.318Z" transform="translate(-319.207 -242.487)" fill="#3b3938"/><path d="M312.91,237.981a.336.336,0,0,1-.114-.652l1.453-.522-1.006-.549a.336.336,0,1,1,.322-.59l1.661.907a.336.336,0,0,1-.047.611l-2.156.776A.339.339,0,0,1,312.91,237.981Z" transform="translate(-312.574 -235.626)" fill="#3b3938"/></g><g transform="translate(31.201 64.206)"><path d="M327.432,258.4a.336.336,0,0,1-.114-.652l1.452-.522-1.006-.549a.336.336,0,0,1,.322-.59l1.662.908a.336.336,0,0,1-.047.611l-2.156.775A.33.33,0,0,1,327.432,258.4Z" transform="translate(-319.234 -251.694)" fill="#3b3938"/><path d="M317.866,253.265a.336.336,0,0,1-.114-.652l1.453-.522-1.006-.55a.336.336,0,0,1,.322-.59l1.662.908a.336.336,0,0,1-.047.611l-2.156.775A.33.33,0,0,1,317.866,253.265Z" transform="translate(-312.346 -247.996)" fill="#3b3938"/><path d="M308.564,248.129a.336.336,0,0,1-.114-.652l1.452-.522-1.006-.549a.336.336,0,1,1,.322-.59l1.662.907a.336.336,0,0,1-.047.611l-2.156.775A.33.33,0,0,1,308.564,248.129Z" transform="translate(-305.648 -244.298)" fill="#3b3938"/><path d="M299.351,242.857a.336.336,0,0,1-.114-.652l1.453-.523-1.006-.549a.336.336,0,0,1,.322-.59l1.661.907a.336.336,0,0,1-.047.611l-2.156.775A.33.33,0,0,1,299.351,242.857Z" transform="translate(-299.015 -240.502)" fill="#3b3938"/></g><path d="M294.934,256.394a.334.334,0,0,1-.161-.041L281.667,249.2a.336.336,0,0,1,.322-.59l13.107,7.157a.336.336,0,0,1-.161.631Z" transform="translate(-255.197 -182.102)" fill="#3b3938"/><path d="M424.347,202.506a.333.333,0,0,1-.161-.041l-13.107-7.157a.336.336,0,0,1,.322-.59l13.107,7.157a.336.336,0,0,1-.161.631Z" transform="translate(-348.377 -143.301)" fill="#3b3938"/><path d="M214.123,291.675a.331.331,0,0,1-.161-.041l-26.214-14.315a.336.336,0,1,1,.322-.59l26.214,14.315a.336.336,0,0,1-.161.631Z" transform="translate(-187.574 -202.352)" fill="#3b3938"/><path d="M375.291,220.076a.335.335,0,0,1-.232-.093c-.391-.372-1.336-1.218-2.336-2.114-1.125-1.007-2.284-2.046-2.871-2.6a2.148,2.148,0,0,0,.455,1.311.336.336,0,1,1-.521.424c-.608-.747-.8-2.052-.366-2.45a.5.5,0,0,1,.721.061c.485.476,1.779,1.634,3.031,2.755,1,.9,1.953,1.749,2.352,2.128a.336.336,0,0,1-.232.579Z" transform="translate(-318.337 -157.523)" fill="#3b3938"/><path d="M348.981,217.091a.335.335,0,0,1-.187-.057,38.214,38.214,0,0,0-3.852-1.754c-.673-.241-4.6-1.911-5.41-2.381a.489.489,0,0,0-.049-.025,1.018,1.018,0,0,0,.391.856c.677.412,3.506,1.887,3.534,1.9a.336.336,0,1,1-.31.6c-.117-.061-2.877-1.5-3.573-1.924a1.539,1.539,0,0,1-.6-1.826.64.64,0,0,1,.945-.161c.74.426,4.593,2.077,5.3,2.33a37.691,37.691,0,0,1,4,1.83.336.336,0,0,1-.188.615Z" transform="translate(-296.467 -155.907)" fill="#3b3938"/><path d="M332.982,222.311a.336.336,0,0,1-.117-.021c-.041-.015-4.162-1.545-5.571-2.031a1.86,1.86,0,0,1-1.321-1.345.857.857,0,0,1,.239-.833.576.576,0,0,1,.59-.082c.537.213,6.173,2.261,7.335,2.586a.336.336,0,1,1-.181.647c-1.178-.329-6.473-2.252-7.328-2.579a.536.536,0,0,0,.029.236,1.246,1.246,0,0,0,.855.735c1.417.489,5.544,2.021,5.586,2.036a.336.336,0,0,1-.117.651Z" transform="translate(-287.21 -160.061)" fill="#3b3938"/><path d="M332.717,233.145l-.037,0a36.726,36.726,0,0,1-5.2-.853c-.669-.3-.88-.8-.793-1.169a.6.6,0,0,1,.644-.47c.478.022,6.35.928,6.8,1a.336.336,0,1,1-.107.663c-.637-.1-5.995-.923-6.678-.989a.721.721,0,0,0,.406.351,34.818,34.818,0,0,0,5,.8.336.336,0,0,1-.036.67Z" transform="translate(-287.722 -169.203)" fill="#3b3938"/><path d="M336.585,240.25h-.028c-.1-.008-.5-.035-1.037-.072-1.468-.1-3.924-.265-4.475-.332a.336.336,0,0,1,.081-.667c.533.065,2.978.23,4.439.329.546.037.948.064,1.047.073a.336.336,0,0,1-.027.671Z" transform="translate(-290.664 -175.342)" fill="#3b3938"/><path d="M337.987,243.511h-.034c-.04,0-3.984-.393-4.794-.452a4.13,4.13,0,0,1-2.351-.885.336.336,0,0,1,.552-.384,4.16,4.16,0,0,0,1.849.6c.818.06,4.648.438,4.81.454a.336.336,0,0,1-.033.67Z" transform="translate(-290.663 -177.12)" fill="#3b3938"/><path d="M364.274,249.281h-.031a43.222,43.222,0,0,1-5.216-1.327.336.336,0,0,1,.225-.634,42.552,42.552,0,0,0,5.052,1.291.336.336,0,0,1-.03.671Z" transform="translate(-310.863 -181.192)" fill="#3b3938"/><path d="M242.382,125.393a.336.336,0,0,1-.336-.336V91.109a.336.336,0,1,1,.672,0v33.948A.336.336,0,0,1,242.382,125.393Z" transform="translate(-226.795 -68.489)" fill="#3b3938"/><path d="M250.367,126.684a.336.336,0,0,1-.336-.336V97.437a.336.336,0,0,1,.672,0v28.911A.336.336,0,0,1,250.367,126.684Z" transform="translate(-232.544 -73.045)" fill="#3b3938"/><path d="M430.449,62.563a.336.336,0,0,1-.336-.336V33.316a.336.336,0,0,1,.672,0V62.227A.336.336,0,0,1,430.449,62.563Z" transform="translate(-362.207 -26.876)" fill="#3b3938"/><path d="M234.4,120.581a.336.336,0,0,1-.336-.336V86.3a.336.336,0,0,1,.672,0v33.948A.336.336,0,0,1,234.4,120.581Z" transform="translate(-221.046 -65.024)" fill="#3b3938"/><path d="M437.785,55.638a.336.336,0,0,1-.336-.336V21.354a.336.336,0,1,1,.672,0V55.3A.336.336,0,0,1,437.785,55.638Z" transform="translate(-367.489 -18.264)" fill="#3b3938"/><path d="M341.145,55.98a.644.644,0,1,1,.644-.644A.645.645,0,0,1,341.145,55.98Zm0-.672a.028.028,0,0,0-.028.028c0,.031.056.031.056,0A.028.028,0,0,0,341.145,55.308Z" transform="translate(-297.685 -42.51)" fill="#3b3938"/><path d="M624.571,264.967l-.036,0a.335.335,0,0,1-.3-.369l3.049-28.75a.336.336,0,0,1,.668.071l-3.049,28.75A.336.336,0,0,1,624.571,264.967Z" transform="translate(-501.979 -172.727)" fill="#3b3938"/><g transform="translate(32.524 15.285)"><g transform="translate(0 7.044)"><path d="M324.967,111.862c-.594,0-2.6-.073-3.537-1.026-1.063-1.08-1.062-3.809-1.061-6.217v-.2a.28.28,0,0,1,.56,0v.2c0,2.187,0,4.908.9,5.824s3.26.858,3.284.857a.28.28,0,0,1,.019.56C325.118,111.86,325.06,111.862,324.967,111.862Z" transform="translate(-315.713 -100.442)" fill="#3b3938"/><path d="M308.134,142.206a.28.28,0,0,1-.263-.377c.626-1.692,3.107-4.183,5.145-5.615a.28.28,0,1,1,.322.458c-2.207,1.551-4.424,3.951-4.942,5.351A.28.28,0,0,1,308.134,142.206Z" transform="translate(-306.702 -123.5)" fill="#3b3938"/><path d="M304.019,167.976h-.006a.28.28,0,0,1-.274-.286,31.682,31.682,0,0,1,.486-5.687.28.28,0,1,1,.522.2,30.449,30.449,0,0,0-.449,5.5A.28.28,0,0,1,304.019,167.976Z" transform="translate(-303.739 -141.976)" fill="#3b3938"/><path d="M329.353,150.046a.28.28,0,0,1-.276-.237l-1.174-7.548a.28.28,0,0,1,.553-.086l1.174,7.548a.28.28,0,0,1-.277.323Z" transform="translate(-321.135 -127.658)" fill="#3b3938"/><path d="M322.521,152.057a.28.28,0,0,1-.25-.153l-1.625-3.19a.28.28,0,0,1,.008-.269l1.057-1.806-1.129-.551a.28.28,0,0,1-.135-.361l.86-2.017a.28.28,0,1,1,.515.22l-.756,1.772,1.161.566a.28.28,0,0,1,.119.393l-1.132,1.935,1.555,3.054a.28.28,0,0,1-.249.407Z" transform="translate(-315.753 -128.811)" fill="#3b3938"/><path d="M329.593,107.433a.475.475,0,0,1-.275-.087.669.669,0,0,1-.254-.565.92.92,0,0,1,.513-.86.486.486,0,0,1,.451.055.67.67,0,0,1,.254.565.92.92,0,0,1-.513.86A.511.511,0,0,1,329.593,107.433Zm.126-.94a.5.5,0,0,0-.094.288.352.352,0,0,0,0,.049.5.5,0,0,0,.094-.288A.4.4,0,0,0,329.718,106.494Z" transform="translate(-321.974 -101.703)" fill="#3b3938"/><path d="M340.948,101.912a.28.28,0,0,1-.16-.51,13.756,13.756,0,0,0,3.41-3.393c.945-1.649.944-4.391.943-6.6v-.2a.28.28,0,1,1,.56,0v.2c0,2.271,0,5.1-1.018,6.874a14.048,14.048,0,0,1-3.577,3.575A.28.28,0,0,1,340.948,101.912Z" transform="translate(-330.329 -90.934)" fill="#3b3938"/><path d="M356.473,129.326a.28.28,0,0,1-.25-.154c-.49-.969-2.639-1.712-4.786-1.658a.276.276,0,0,1-.287-.273.28.28,0,0,1,.273-.287c2.06-.051,4.619.619,5.3,1.965a.28.28,0,0,1-.123.376A.277.277,0,0,1,356.473,129.326Z" transform="translate(-337.876 -116.867)" fill="#3b3938"/><path d="M372.357,143.54a.28.28,0,0,1-.28-.274,24.513,24.513,0,0,0-.434-5.126.28.28,0,0,1,.494-.264c.38.71.479,4.3.5,5.379a.28.28,0,0,1-.275.285Z" transform="translate(-352.607 -124.627)" fill="#3b3938"/><path d="M345.2,143.176a.269.269,0,0,1-.039,0,.28.28,0,0,1-.239-.316l1.174-8.4a.28.28,0,0,1,.555.077l-1.174,8.4A.28.28,0,0,1,345.2,143.176Z" transform="translate(-333.393 -122.096)" fill="#3b3938"/><path d="M350.386,141.825a.276.276,0,0,1-.1-.018.28.28,0,0,1-.165-.36l1.561-4.2-1.08-1.059a.28.28,0,0,1-.02-.378l1.274-1.548-.755-1.22a.28.28,0,0,1,.476-.295l.86,1.39a.28.28,0,0,1-.022.325l-1.238,1.5,1.026,1.007a.28.28,0,0,1,.066.3l-1.625,4.373A.28.28,0,0,1,350.386,141.825Z" transform="translate(-337.124 -120.943)" fill="#3b3938"/><path d="M346.135,101.412a.477.477,0,0,1-.275-.087.669.669,0,0,1-.254-.565.92.92,0,0,1,.513-.86.485.485,0,0,1,.451.055.67.67,0,0,1,.254.565.92.92,0,0,1-.513.86A.511.511,0,0,1,346.135,101.412Zm.054-.539h0Zm.071-.4a.493.493,0,0,0-.094.288.35.35,0,0,0,0,.048.5.5,0,0,0,.094-.288A.342.342,0,0,0,346.26,100.473Z" transform="translate(-333.884 -97.367)" fill="#3b3938"/><path d="M332.3,136.263a.28.28,0,0,1-.208-.467l1.863-2.076a.28.28,0,0,1,.318-.07l1.75.748a.28.28,0,1,1-.22.515l-1.566-.67-1.729,1.927A.279.279,0,0,1,332.3,136.263Z" transform="translate(-324.103 -121.674)" fill="#3b3938"/><path d="M337.847,113.84a.281.281,0,0,1-.176-.062l-.321-.259a.28.28,0,1,1,.351-.436l.321.259a.28.28,0,0,1-.176.5Z" transform="translate(-327.865 -106.837)" fill="#3b3938"/><path d="M334.271,118.726a1.93,1.93,0,0,1-.744-.146.28.28,0,0,1,.026-.526l-.23.048a.28.28,0,0,1-.11-.549,7.151,7.151,0,0,0,2.713-1.1.28.28,0,0,1,.408.128,1.332,1.332,0,0,1-.41,1.448A2.421,2.421,0,0,1,334.271,118.726Zm-.637-.685a.28.28,0,0,1,.107.022,1.7,1.7,0,0,0,1.786-.428,1.154,1.154,0,0,0,.3-.467,7.429,7.429,0,0,1-2.23.875A.238.238,0,0,1,333.634,118.04Z" transform="translate(-324.798 -109.277)" fill="#3b3938"/><path d="M326.539,100.581a.28.28,0,0,1-.217-.457,2.256,2.256,0,0,1,1.411-.934.28.28,0,0,1,.066.556,1.745,1.745,0,0,0-1.043.732A.279.279,0,0,1,326.539,100.581Z" transform="translate(-319.954 -96.877)" fill="#3b3938"/><path d="M345.824,93.809a.28.28,0,0,1-.146-.519,1.482,1.482,0,0,1,1.5-.072.28.28,0,0,1-.251.5.913.913,0,0,0-.956.049A.277.277,0,0,1,345.824,93.809Z" transform="translate(-333.84 -92.457)" fill="#3b3938"/><path d="M316.783,115.046a.617.617,0,0,1-.574-.457c-.211-.581-.016-1.7.615-1.93a.28.28,0,0,1,.192.526c-.125.045-.279.324-.319.713a.814.814,0,0,0,.09.589s.013,0,.037-.011a.28.28,0,1,1,.192.526A.679.679,0,0,1,316.783,115.046Z" transform="translate(-312.658 -106.564)" fill="#3b3938"/><path d="M359.3,100.024a.28.28,0,0,1-.1-.543c.165-.06.295-.323.323-.654a.886.886,0,0,0-.129-.644.28.28,0,0,1-.36-.164.276.276,0,0,1,.166-.356.553.553,0,0,1,.557.094,1.48,1.48,0,0,1,.3,1.3,1.156,1.156,0,0,1-.665.949A.281.281,0,0,1,359.3,100.024Z" transform="translate(-343.543 -95.752)" fill="#3b3938"/></g><path d="M320.81,85.78a.491.491,0,0,1-.357-.139.28.28,0,0,1,.369-.42,2.52,2.52,0,0,0,.943-.589,4.5,4.5,0,0,0,1.051-1.093,2.459,2.459,0,0,1,2.236-1.45c.672.111,2.307-1.083,2.747-1.874a.28.28,0,1,1,.489.272c-.454.816-2.279,2.327-3.327,2.155-.673-.111-1.515.752-1.61,1.061a4.548,4.548,0,0,1-1.223,1.355A2.5,2.5,0,0,1,320.81,85.78Z" transform="translate(-315.712 -76.068)" fill="#3b3938"/><path d="M350.3,84.67a1.088,1.088,0,0,1-.506-.123,1.881,1.881,0,0,1-.8-1.024,1.434,1.434,0,0,1-.9-.219.773.773,0,0,1-.353-.55.28.28,0,1,1,.557-.059.243.243,0,0,0,.113.148.916.916,0,0,0,.705.095.281.281,0,0,1,.342.2,1.528,1.528,0,0,0,.6.917.584.584,0,0,0,.486.017.28.28,0,1,1,.187.528A1.268,1.268,0,0,1,350.3,84.67Z" transform="translate(-335.417 -77.777)" fill="#3b3938"/><path d="M315.039,78.15a.279.279,0,0,1-.219-.1c-.744-.929-.985-4.189.442-5.886a2.878,2.878,0,0,1,.67-1.574,7.135,7.135,0,0,1,3.324-2.5,5.051,5.051,0,0,1,4-2.3,2.116,2.116,0,0,1,2.055.71.28.28,0,1,1-.481.288c-.2-.33-.771-.494-1.534-.439-1.354.1-3.07.866-3.585,2.1a.279.279,0,0,1-.218.169,6.234,6.234,0,0,0-3.109,2.307,2.106,2.106,0,0,0-.554,1.294.28.28,0,0,1-.07.229,5.33,5.33,0,0,0-.5,5.252.28.28,0,0,1-.218.455Z" transform="translate(-311.289 -65.775)" fill="#3b3938"/><path d="M356.988,76.131a.281.281,0,0,1-.271-.351,5.431,5.431,0,0,0,.02-2.859.28.28,0,0,1-.029-.145,3.927,3.927,0,0,0-1.477-2.565.28.28,0,1,1,.293-.477,4.51,4.51,0,0,1,1.746,3,6.011,6.011,0,0,1-.012,3.183A.28.28,0,0,1,356.988,76.131Z" transform="translate(-340.719 -68.596)" fill="#3b3938"/><path d="M324.643,103.029a.28.28,0,0,1-.276-.234l-.32-1.9a.28.28,0,0,1,.552-.093l.264,1.57,2.221-.809.3-1.969a.281.281,0,0,1,.181-.222l1.276-.464a.28.28,0,0,1,.372.217l.264,1.569,2.221-.808.3-1.969a.28.28,0,0,1,.554.083l-.32,2.134a.28.28,0,0,1-.181.222l-2.693.98a.28.28,0,0,1-.372-.217l-.264-1.57-.8.292-.3,1.969a.281.281,0,0,1-.181.222l-2.693.98A.283.283,0,0,1,324.643,103.029Z" transform="translate(-318.358 -88.746)" fill="#3b3938"/><path d="M335.307,149.8h-.017a.28.28,0,0,1-.263-.3l.358-5.957-.5-1.377a.28.28,0,1,1,.526-.191l.521,1.432a.279.279,0,0,1,.017.113l-.362,6.015A.28.28,0,0,1,335.307,149.8Z" transform="translate(-326.152 -120.51)" fill="#3b3938"/><path d="M341.5,147.059a.28.28,0,0,1-.279-.263l-.362-5.752a.284.284,0,0,1,.01-.095l.521-1.811a.28.28,0,0,1,.538.155l-.507,1.764.359,5.7a.28.28,0,0,1-.262.3Z" transform="translate(-330.466 -118.453)" fill="#3b3938"/></g><path d="M504.892,276.9a.336.336,0,0,1-.335-.32c-.129-2.621.44-8.96.745-12.366.036-.405.069-.772.1-1.088-1.411-3.654-3.156-13.738-3.3-15.5a.336.336,0,0,1,.67-.057c.148,1.756,1.893,11.846,3.289,15.385a.336.336,0,0,1,.022.153c-.029.334-.064.728-.1,1.168-.3,3.389-.869,9.7-.743,12.273a.336.336,0,0,1-.319.352Z" transform="translate(-414.034 -181.161)" fill="#3b3938"/><path d="M413.829,271.046c-6.711,0-14-3.795-17.5-5.619-.709-.369-1.269-.661-1.616-.812a.336.336,0,0,1,.268-.617c.368.16.938.457,1.658.832,3.454,1.8,10.642,5.542,17.189,5.542a.336.336,0,0,1,0,.672Z" transform="translate(-336.574 -193.195)" fill="#3b3938"/><path d="M465.985,250.595a.336.336,0,0,1-.219-.591c1.581-1.359,7.81-8.189,10.373-12.673a.336.336,0,1,1,.583.333A72.652,72.652,0,0,1,466.2,250.514.336.336,0,0,1,465.985,250.595Z" transform="translate(-387.794 -173.892)" fill="#3b3938"/><g transform="translate(79.659 9.651)"><path d="M486.753,117.234c-.428,0-.739-.48-.739-1.142s.311-1.142.739-1.142.739.48.739,1.142S487.181,117.234,486.753,117.234Zm0-1.529a1.145,1.145,0,1,0,.067.386A1.02,1.02,0,0,0,486.753,115.7Z" transform="translate(-482.116 -95.547)" fill="#3b3938"/><path d="M489.029,101.681a.333.333,0,0,1-.178-.051,4.451,4.451,0,0,0-2.52-.444.336.336,0,1,1-.061-.669,5.085,5.085,0,0,1,2.936.543.336.336,0,0,1-.178.621Z" transform="translate(-482.081 -85.139)" fill="#3b3938"/><path d="M473.138,94.526a.336.336,0,0,1-.239-.573,6.724,6.724,0,0,0,1.561-3.087,11.38,11.38,0,0,1,.687-7.171l.043-.1a11.666,11.666,0,0,1,1.529-2.63.336.336,0,1,1,.5.445,11.258,11.258,0,0,0-1.41,2.439l-.044.108a10.73,10.73,0,0,0-.635,6.834.332.332,0,0,1,0,.163,7.441,7.441,0,0,1-1.756,3.477A.335.335,0,0,1,473.138,94.526Z" transform="translate(-472.603 -70.993)" fill="#3b3938"/><path d="M475.472,131.2a.335.335,0,0,1-.216-.078l-.624-.524a.336.336,0,0,1,.432-.515l.624.524a.336.336,0,0,1-.216.593Z" transform="translate(-473.835 -106.391)" fill="#3b3938"/><path d="M481.01,144.045c-.58,0-.7-.142-.776-.23-.485-.569-2.676-7.638-2.7-7.706a.336.336,0,1,1,.646-.186c.2.683,2.138,6.764,2.545,7.43a16.31,16.31,0,0,0,5.194-1.111.336.336,0,0,1,.354.572,14.583,14.583,0,0,1-3.017.91A11.452,11.452,0,0,1,481.01,144.045Z" transform="translate(-476.004 -110.474)" fill="#3b3938"/><path d="M486.443,145.289a.336.336,0,0,1-.176-.622,2.5,2.5,0,0,0,1.026-2.334l-1.936.5a.336.336,0,0,1-.168-.651l2.34-.6a.336.336,0,0,1,.419.3c.041.67.15,2.45-1.33,3.357A.334.334,0,0,1,486.443,145.289Z" transform="translate(-481.341 -114.713)" fill="#3b3938"/><path d="M486.616,112.826a.336.336,0,0,1-.306-.2,3.918,3.918,0,0,0-1.38-1.436l-.871.045a.336.336,0,1,1-.034-.671l.959-.049a.327.327,0,0,1,.159.031,4.466,4.466,0,0,1,1.778,1.8.336.336,0,0,1-.305.476Z" transform="translate(-480.454 -92.356)" fill="#3b3938"/><path d="M491.916,100.368a.336.336,0,0,1-.317-.447c.577-1.647,2.194-10.2,1.925-14.976-.268-4.748-3.88-9.714-5.081-10.571a.336.336,0,1,1,.39-.547c1.432,1.022,5.084,6.171,5.362,11.08.274,4.853-1.374,13.558-1.961,15.236A.336.336,0,0,1,491.916,100.368Z" transform="translate(-483.763 -65.893)" fill="#3b3938"/><path d="M473.105,74.854a.336.336,0,0,1-.316-.223,19.954,19.954,0,0,1-.495-8.136,12.241,12.241,0,0,1,5.055-7.537.336.336,0,1,1,.324.588,11.643,11.643,0,0,0-4.715,7.05,19.509,19.509,0,0,0,.463,7.809.336.336,0,0,1-.317.449Z" transform="translate(-472.092 -55.202)" fill="#3b3938"/><path d="M512.076,150.444a.336.336,0,0,1-.317-.447,28.6,28.6,0,0,0,.737-4.875.336.336,0,1,1,.67.051c0,.028-.178,2.264-.488,3.9a10.607,10.607,0,0,0,1.55-2.311.345.345,0,0,1,.336-.244.335.335,0,0,1,.317.264c.208.994.478,2.091.48,2.1a.336.336,0,1,1-.652.161c0-.008-.137-.555-.289-1.227a10.248,10.248,0,0,1-2.142,2.563A.337.337,0,0,1,512.076,150.444Z" transform="translate(-500.639 -117.049)" fill="#3b3938"/><path d="M498.016,48.805a.336.336,0,0,1-.163-.63c.382-.212,9.432-5.138,15.141-.629a.336.336,0,0,1-.416.527c-5.362-4.234-14.309.64-14.4.69A.336.336,0,0,1,498.016,48.805Z" transform="translate(-490.516 -45.651)" fill="#3b3938"/><path d="M561.946,81.788a.329.329,0,0,1-.043,0,.336.336,0,0,1-.29-.376c2.381-18.433-3.165-22.486-5.534-24.217-.26-.19-.485-.354-.672-.513a.336.336,0,1,1,.436-.511c.168.143.383.3.632.482,2.465,1.8,8.236,6.018,5.8,24.845A.336.336,0,0,1,561.946,81.788Z" transform="translate(-531.996 -53.165)" fill="#3b3938"/><path d="M556.009,132.239a.336.336,0,0,1-.219-.591,5.175,5.175,0,0,0,1.635-3.2.336.336,0,0,1,.632-.123,12.853,12.853,0,0,1,.54,1.627c.087.3.18.608.269.9a37.508,37.508,0,0,0,.8-4.891.336.336,0,0,1,.67.053,29.467,29.467,0,0,1-1.151,6.03.335.335,0,0,1-.306.2h0a.335.335,0,0,1-.306-.2,18.984,18.984,0,0,1-.623-1.9c-.042-.142-.084-.285-.126-.424a5.968,5.968,0,0,1-1.6,2.44A.334.334,0,0,1,556.009,132.239Z" transform="translate(-532.272 -103.25)" fill="#3b3938"/><path d="M527.583,150.961a.336.336,0,0,1-.055-.667,15.6,15.6,0,0,0,5.941-2.091.336.336,0,0,1,.369.562,16.807,16.807,0,0,1-6.2,2.192A.338.338,0,0,1,527.583,150.961Z" transform="translate(-511.805 -119.451)" fill="#3b3938"/><path d="M554.443,151.342a.336.336,0,0,1-.323-.244c-.013-.048-.035-.119-.061-.2a6.735,6.735,0,0,1-.331-1.356.335.335,0,0,1,.335-.335h0a.337.337,0,0,1,.336.335,9.716,9.716,0,0,0,.3,1.162c.027.089.049.164.064.213a.336.336,0,0,1-.323.428Z" transform="translate(-530.872 -120.211)" fill="#3b3938"/><path d="M526.96,127.836a.338.338,0,0,1-.331-.4,26.333,26.333,0,0,0,.31-6.373.336.336,0,0,1,.671-.044,27.021,27.021,0,0,1-.319,6.537A.336.336,0,0,1,526.96,127.836Z" transform="translate(-511.356 -99.694)" fill="#3b3938"/><path d="M518.2,82.734a.336.336,0,0,1-.329-.268,28.341,28.341,0,0,0-2.868-8.188.336.336,0,0,1,.571-.355,29.055,29.055,0,0,1,2.956,8.406.336.336,0,0,1-.329.4Z" transform="translate(-502.955 -65.894)" fill="#3b3938"/><path d="M562.063,101.119h-.006a.336.336,0,0,1-.33-.341,24.631,24.631,0,0,0-.779-6.667.336.336,0,1,1,.649-.174,25.311,25.311,0,0,1,.8,6.851A.336.336,0,0,1,562.063,101.119Z" transform="translate(-536.062 -80.239)" fill="#3b3938"/><path d="M547.954,71.9a.336.336,0,0,1-.308-.2,11.362,11.362,0,0,0-3.805-4.948.336.336,0,0,1,.384-.552,12.018,12.018,0,0,1,4.038,5.233.336.336,0,0,1-.308.47Z" transform="translate(-523.649 -60.405)" fill="#3b3938"/></g></g></g></g></svg>