<svg xmlns="http://www.w3.org/2000/svg" xmlns:xlink="http://www.w3.org/1999/xlink" width="599.729" height="297.917" viewBox="0 0 599.729 297.917"><defs><filter id="a"><feOffset dy="3" input="SourceAlpha"/><feGaussianBlur stdDeviation="3" result="b"/><feFlood flood-opacity="0.161" result="c"/><feComposite operator="out" in="SourceGraphic" in2="b"/><feComposite operator="in" in="c"/><feComposite operator="in" in2="SourceGraphic"/></filter><clipPath id="d"><path d="M838.771,348.555V463.487a92.312,92.312,0,0,1-184.624,0V348.555Z" transform="translate(-654.147 -348.555)" fill="none"/></clipPath></defs><g transform="translate(-336 -5617.179)"><g data-type="innerShadowGroup"><path d="M0,139.411l85.229-10.165C116.321,143.85,159.971,153,208.471,153c94.135,0,170.428-34.261,170.428-76.49C378.9,34.242,302.605,0,208.471,0,114.356,0,38.053,34.242,38.053,76.513c0,13.778,8.275,26.692,22.507,37.864Z" transform="translate(509.196 5617.179)" fill="#fff"/><g transform="matrix(1, 0, 0, 1, 336, 5617.18)" filter="url(#a)"><path d="M0,139.411l85.229-10.165C116.321,143.85,159.971,153,208.471,153c94.135,0,170.428-34.261,170.428-76.49C378.9,34.242,302.605,0,208.471,0,114.356,0,38.053,34.242,38.053,76.513c0,13.778,8.275,26.692,22.507,37.864Z" transform="translate(173.2)" fill="#fff"/></g></g><path d="M12.628-13.328c1.624-1.316,5.712-4.088,9.3-4.564l-.252-2.884a39.849,39.849,0,0,1-5.152.644c-2.52.168-8.288.28-10.948.224.056.644.056,2.016.056,2.716A83.281,83.281,0,0,0,14.5-17.5v.028a32.009,32.009,0,0,0-4.228,2.856ZM23.212-3.136a45.959,45.959,0,0,1-8.624.784A24.039,24.039,0,0,1,10.3-2.66C8.12-3.136,7.14-4.508,7.14-6.02a6.664,6.664,0,0,1,2.268-4.4l-2.38-1.12A8.929,8.929,0,0,0,4.312-5.6C4.312-3.108,5.8-.84,9.3-.056a31.264,31.264,0,0,0,5.628.364A56.7,56.7,0,0,0,23.436-.28Zm8.9,4.34c.476-1.484,1.036-3.08,1.4-4.116C34.272-5.04,37.24-9.3,40.124-9.3c1.008,0,1.54.812,1.54,2.38v.364c-.056.98-.084,2.128-.084,3.22,0,2.884,1.988,4.676,5.152,4.676,3.92,0,6.58-3.332,8.232-8.708a20.5,20.5,0,0,1-2.6-1.54C51.1-4.2,49.168-1.54,46.844-1.54c-1.456,0-2.324-.9-2.324-2.688,0-.448.112-3.136.112-3.584,0-2.548-1.26-4.144-3.612-4.144A8.377,8.377,0,0,0,35.42-9.1h-.028c1.036-2.772,3.332-8.932,4.676-12.152.616-.028,1.008-.224,1.148-.616L37.24-22.82c-.2.784-.98,3.22-1.568,4.788-.98,2.772-4.48,12.88-6.384,18.368ZM73.08-10.5c0,1.092.084,2.688.2,4.256a11.642,11.642,0,0,0-2.66-.364c-2.688,0-5.544,1.512-5.572,4.34s2.464,4.284,5.516,4.312c4.844,0,5.46-3.08,5.46-4.62A26.08,26.08,0,0,1,80.388.084l1.344-2.576A32.258,32.258,0,0,0,76.02-5.516c-.14-1.764-.252-3.332-.28-5.292Zm.364,7.784c0,1.736-1.26,2.436-2.828,2.436-1.876,0-3.164-.7-3.164-1.988,0-1.4,1.6-2.044,3.108-2.044a7.966,7.966,0,0,1,2.884.56ZM64.6-23.268c-.168,1.54-.392,3.108-.672,4.48-.728.028-1.6.028-2.464.028H58.24v2.548h3.276c.616,0,1.344,0,1.932-.028a36.424,36.424,0,0,1-5.4,12.516l2.744,1.008A45,45,0,0,0,66.416-16.3a56.8,56.8,0,0,0,8.428-1.26l-.364-2.66A34.488,34.488,0,0,1,66.92-18.9c.224-.952.5-2.352.672-3.444a.9.9,0,0,0,.84-.56Zm16.716,7.392a42.481,42.481,0,0,0-10.08,1.428l.42,2.436a44.3,44.3,0,0,1,9.8-1.232Zm6.916-6.272A88.043,88.043,0,0,0,86.856-8.54a31.157,31.157,0,0,0,1.26,9.828L90.888.84a3.556,3.556,0,0,1-.14-.952,4.634,4.634,0,0,1,.224-1.316c.392-1.288,1.316-2.856,2.352-5.236L91.9-8.6c-.364.952-1.512,3.584-1.96,4.676a31.563,31.563,0,0,1-.252-4.732A67.945,67.945,0,0,1,91.14-21.084c.56-.028.84-.2.9-.5Zm8.316,6.328a97.372,97.372,0,0,0,12.208-1.008l-.28-2.744A94.184,94.184,0,0,1,96.46-18.508ZM109.424-3.7a34.492,34.492,0,0,1-3.836.2c-3.22,0-6.72-.168-6.72-2.772,0-1.484.9-2.828,2.24-4.172L98.476-11.4c-1.512,1.848-2.52,3.528-2.52,5.488,0,2.324,1.6,4.312,5.264,4.816a37.413,37.413,0,0,0,5.068.28c1.036,0,2.072-.028,3.052-.084Zm5.124-13.132a1.073,1.073,0,0,0,.672-.448c3.052-.308,10.388-.868,13.664-1.12-4.62,3.052-8.12,7.672-8.12,11.34,0,4.9,3.024,8.092,11,9.128L133.112-.7c-6.524-.784-9.3-2.856-9.3-6.384,0-3.388,3.92-7.56,7.532-9.856a8.495,8.495,0,0,1,5.936-1.54l-.028-2.968c-4.2.112-17.3.98-20.16,1.2-.784.056-1.988.084-2.828.084Zm20.076,1.372a20.039,20.039,0,0,1,3.5,3.836l1.344-1.092a16.9,16.9,0,0,0-3.584-3.808Zm-3.164,2.492a19.493,19.493,0,0,1,3.472,3.836l1.372-1.064a18.431,18.431,0,0,0-3.584-3.836Zm33.18-2.6a39.691,39.691,0,0,1-8.512,1.82,32.837,32.837,0,0,1-.868-3.192,35.773,35.773,0,0,0,7.364-1.428l-.588-2.408a30.986,30.986,0,0,1-7.28,1.512c-.2-1.036-.336-2.212-.448-3.248.476-.112.756-.336.756-.644l-3.724-.084c.2,1.456.448,2.968.7,4.2-1.064.084-2.688.084-4.032.084-1.064,0-2.3-.028-3.472-.084v2.408c.784.028,1.68.056,2.6.056,2.884,0,4.452-.056,5.348-.14.252,1.064.672,2.408.924,3.192-1.68.112-3.724.168-5.264.168-1.6,0-3.78,0-5.376-.056l.028,2.352c1.764.056,3.92.056,5.432.056,1.736,0,3.976-.084,5.992-.224A10.682,10.682,0,0,0,156.072-8.6a17.306,17.306,0,0,0-1.82-.084c-.364,0-.7,0-1.008.028l.616,2.1a10.5,10.5,0,0,1,1.344-.084A7.9,7.9,0,0,1,159.88-5.4l1.512-2.212a9.915,9.915,0,0,1-4.34-3.92,40.5,40.5,0,0,0,8.12-1.6Zm-9.716,17.08c2.324,0,4-.084,5.264-.168l.112-2.576c-1.848.168-4.452.28-6.5.28-3.136-.028-5.292-.756-5.264-2.436A3.507,3.507,0,0,1,150.7-6.02l-1.82-1.736c-1.624.952-3.164,2.66-3.164,4.48,0,3.192,3.472,4.732,8.12,4.788Zm24.332-13.3c2.268-2.044,7.14-6.552,8.848-7.868a1.651,1.651,0,0,0,.784-.308l-1.932-2.352-.42.224c-1.932.308-9.492.588-13.188.588l.28,3.22a.885.885,0,0,0,.616-.448c2.688-.112,7.924-.364,9.408-.56-3.78,3.5-11.312,10.668-13.524,12.964l1.988,1.96c.728-.812,1.848-1.96,2.576-2.66a15,15,0,0,1,9.744-3.584c3.164,0,5.264,1.736,5.264,4.452a4.652,4.652,0,0,1-3.08,4.424,5.728,5.728,0,0,0-5.656-4.7c-2.6,0-4.788,1.764-4.788,3.92,0,2.66,2.52,4.228,6.16,4.228,5.852,0,10.276-2.856,10.276-7.924,0-4.256-2.884-6.832-7.224-6.832a15.83,15.83,0,0,0-6.132,1.288Zm-.784,9.268c0-1.036,1.064-1.68,2.24-1.68a3.539,3.539,0,0,1,3.3,3.248,12.693,12.693,0,0,1-2.1.224C180.4-.728,178.472-1.092,178.472-2.52Zm30.52-15.96c.392-.028.756-.056,1.148-.056,5.852,0,8.876,3.584,8.876,8.148,0,4.844-2.912,7.924-9.324,9.184a18.437,18.437,0,0,1,1.764,2.38c6.916-1.708,10.528-5.012,10.528-11.648,0-5.768-3.78-10.668-11.816-10.668A12.336,12.336,0,0,0,197.456-8.764c0,4.592,2.184,7.084,4.9,7.084,4.7,0,7.56-6.524,8.652-15.708a.751.751,0,0,0,.756-.448ZM202.44-4.452c-1.288,0-2.268-1.736-2.268-4.4a9.565,9.565,0,0,1,8.008-9.464C207.592-11.2,205.464-4.452,202.44-4.452ZM239.008-6.58l.56-14.868h-3.7l.56,14.868ZM237.664.336a2.259,2.259,0,0,0,2.24-2.3,2.253,2.253,0,0,0-2.24-2.268,2.229,2.229,0,0,0-2.212,2.268A2.235,2.235,0,0,0,237.664.336Zm21.056-7.9a6.106,6.106,0,0,1,1.624-4c1.344-1.68,2.66-3.3,2.66-5.544,0-2.408-1.624-4.7-5.348-4.7a8.187,8.187,0,0,0-4.4,1.2l.756,2.352a5.439,5.439,0,0,1,2.94-.9,2.4,2.4,0,0,1,2.716,2.52c0,1.372-.756,2.548-2.016,4.144a7.812,7.812,0,0,0-1.848,4.844c0,.224.056,1.064.084,1.344h2.884ZM257.264.308a2.022,2.022,0,0,0,2.072-2.156,2.054,2.054,0,0,0-2.072-2.212,2.069,2.069,0,0,0-2.072,2.212A2.02,2.02,0,0,0,257.264.308Z" transform="translate(583.289 5704.283)" fill="#1a62a3"/><path d="M-174.727,0V-64.005h-8.33l-14.45,7.735,2.21,7.225L-184.5-55h.17V0Zm40.205.935c13.175,0,20.995-11.815,20.995-33.49,0-19.38-6.8-32.47-20.315-32.47-13.26,0-21.165,12.24-21.165,33.15C-155.007-12.24-147.867.935-134.522.935Zm.17-7.905c-6.8,0-10.71-9.35-10.71-25.245,0-15.98,4.42-24.99,10.88-24.99,7.48,0,10.71,9.775,10.71,24.99C-123.472-18.955-126.022-6.97-134.352-6.97Zm31.28-5.27a139.265,139.265,0,0,1-6.035,24.14l6.8-.68c3.23-5.355,7.48-15.9,9.945-24.4ZM-65.757.935c13.175,0,20.995-11.815,20.995-33.49,0-19.38-6.8-32.47-20.315-32.47-13.26,0-21.165,12.24-21.165,33.15C-86.243-12.24-79.1.935-65.757.935Zm.17-7.905c-6.8,0-10.71-9.35-10.71-25.245,0-15.98,4.42-24.99,10.88-24.99,7.48,0,10.71,9.775,10.71,24.99C-54.707-18.955-57.257-6.97-65.587-6.97Zm47.6,7.905C-4.813.935,3.007-10.88,3.007-32.555c0-19.38-6.8-32.47-20.315-32.47-13.26,0-21.165,12.24-21.165,33.15C-38.473-12.24-31.333.935-17.988.935Zm.17-7.905c-6.8,0-10.71-9.35-10.71-25.245,0-15.98,4.42-24.99,10.88-24.99,7.48,0,10.71,9.775,10.71,24.99C-6.938-18.955-9.488-6.97-17.818-6.97ZM29.782.935c13.175,0,20.995-11.815,20.995-33.49,0-19.38-6.8-32.47-20.315-32.47C17.2-65.025,9.3-52.785,9.3-31.875,9.3-12.24,16.437.935,29.782.935Zm.17-7.905c-6.8,0-10.71-9.35-10.71-25.245,0-15.98,4.42-24.99,10.88-24.99,7.48,0,10.71,9.775,10.71,24.99C40.832-18.955,38.282-6.97,29.952-6.97ZM82.08-28.8a4.168,4.168,0,0,0,4.18,4.18,4.168,4.168,0,0,0,4.18-4.18,4.2,4.2,0,0,0-4.18-4.218A4.2,4.2,0,0,0,82.08-28.8Zm4.18,2.85a2.871,2.871,0,0,1-2.85-2.85,2.846,2.846,0,0,1,2.85-2.85,2.846,2.846,0,0,1,2.85,2.85A2.87,2.87,0,0,1,86.26-25.954Zm.95,6.46V-23.1H74.823v-6.612a1.007,1.007,0,0,0,1.026-.836l-4.864-.228V-23.1H58.559v3.61H70.984V-2.812c0,1.444-.8,1.444-3.116,1.444-1.1,0-2.508-.038-3.648-.076a19.184,19.184,0,0,1,1.064,3.5c5.662.076,9.538.114,9.538-4.94V-19.494ZM78.547-13.87A64.82,64.82,0,0,1,85.881-2.736L89.3-4.712a71.714,71.714,0,0,0-7.676-10.754Zm-15.39-1.292A25.95,25.95,0,0,1,56.583-4.75l3.154,1.976a32.231,32.231,0,0,0,6.878-11.1Zm58.9-15.808c-5.966,6.8-17.328,14.782-27.474,19.38a16.836,16.836,0,0,1,2.28,2.926,112.479,112.479,0,0,0,13.49-7.79V2.2h3.99V-17.86a1.038,1.038,0,0,0,.912-.646c-.228-.076-.684-.266-1.026-.418a93.952,93.952,0,0,0,10.488-8.854,1.426,1.426,0,0,0,.38.038,1.136,1.136,0,0,0,.836-.342Zm12.274,5.89a52.044,52.044,0,0,1,11.02,5.244l1.976-3.42a46.933,46.933,0,0,0-11.21-5.054Zm3.8,26.714a1.216,1.216,0,0,0,.608-.912c12.73-4.37,21.926-12.5,26.638-22.876a25.328,25.328,0,0,1-3.5-2.2C157.4-13.87,148.5-6.346,135.395-2.318Zm61.6-15.618a133.2,133.2,0,0,0-13.946-6.156l-.76,1.064V-29.944c.722-.152,1.064-.456,1.1-.874l-5.092-.3V2.128h3.99V-16.264A112.811,112.811,0,0,1,197.6-10.3Z" transform="translate(736 5903.195)" fill="#1a62a3"/><g transform="translate(346.289 5746.078)"><g transform="translate(-10.289 -38.398)"><g transform="translate(0)"><g clip-path="url(#d)"><path d="M782.678,354.948c-4.2-.273-18.263-1.172-20.572,0a44.955,44.955,0,0,1,2.618-4.916s-16.324,1.561-20.928,4.294-4.327,2.539-4.6,2.733-5.366,4.564-5.366,4.564l-3.64-7.581s-8.146,10.624-8.549,18.561c-4.136,2.492-7.7,3.136-11.768,7.448s-9.653,13.965-9.779,16.4c.9.68,3.679.888,3.679.888s-2.784,22.4-2.492,27.783a30.142,30.142,0,0,0,3.557-.316s4.121,22.873,4.647,25.38a20.658,20.658,0,0,0,4.093-1.478s6.528,12.282,7.5,13.109,6.333,4.9,7.254,7.988a94.749,94.749,0,0,1,2.388,13.533,74.161,74.161,0,0,1-.752,11c-.37,1.449-6.822,6.894-10.4,9.052S693.047,516.487,690.5,518s-19.583,8.466-21.8,9.793-13.307,3.488-15.6,7.693-5.974,16.709-6.031,22.1.374,24.815.482,28,0,16.454,0,16.454H847.543s-2.589-27.333-5.125-35.353-3.183-19.421-7.387-22.978-36.022-26.078-36.022-26.078l-12.138-8.592-4.967-2.025v-6.035a24.384,24.384,0,0,0,12.357-6.333c5.352-5.319,13.48-20.557,14.49-24.661s3.212-30.109,3.212-30.109l1.8-16.842s3.769,1.291,3.665-2.05-.09-14.85-.09-14.85l3.765.755s-1.932-9.358-3.5-11.836-4.528-7.035-4.528-7.035l4-1.151s-8.653-8.685-10.512-9.736,5.294-4.528,5.294-4.528-14.8-12.131-24.783-12.415c.082-1.938,2.6-4.006,2.6-4.006Z" transform="translate(-672.525 -344.72)" fill="#fff"/><g transform="translate(-18.47 10.912)"><path d="M679.108,378.122a2.554,2.554,0,1,0,2.539-2.823A2.688,2.688,0,0,0,679.108,378.122Z" transform="translate(-570.866 -290.027)" fill="#4c4948"/><path d="M688.567,378.122a2.553,2.553,0,1,0,2.539-2.823A2.69,2.69,0,0,0,688.567,378.122Z" transform="translate(-546.306 -290.027)" fill="#4c4948"/><path d="M670.433,423c-.406-3.115-.683-6.243-.827-9.318l-6.671,3.258,9.189-27.135.043-.122.015-.039v0l.047-.126-6.236-1.1,15.368-12.235-.011.018q1.084-1.138,2.287-2.277l-.054.04,5.413-15.31,3.384,8.193,20.475-15.263V359.2l27.707-5.352-7.089,6.279.083.018c.1.022.2.039.295.065l25.369,5.535-7.664,3.485c1.611,1.18,3.316,2.467,5.172,3.873.55.414,1.072.856,1.582,1.309l-.039-.043,8.75,5.815-3.14.9-.043-.05a42.367,42.367,0,0,1,2.964,5.593l8.081,11.624-4.517-.694a91.456,91.456,0,0,1,2.241,18.86l-.716,3.359-2.769-2.827s-9.336-10.412-12.339-15.479c.978,3.269-.838,11.25-.838,11.25s-8.815-9.75-12.293-14.174c.259,1.8-1.007,12.624-1.007,12.624s-3.053-2.2-4.823-3.758-10.44-10.21-12.1-13.217a57.964,57.964,0,0,1-2.823-5.956s-3.546,5.956-4.377,8.79S706.6,416.074,706.6,416.074l-3.787-4.891s-2.2,7.092-2.992,8.5-9.624,17.177-9.624,17.177a7.426,7.426,0,0,0-3.28-3.323c-2.183-.967-5.528,3.28-6.474,5.758s1.039,14.893,1.039,14.893l-1.039,4.751s1.039,3.233-5.046-14.274c-.69-1.985-1.327-4.071-1.91-6.218l-3.334,2.107Z" transform="translate(-612.861 -351.589)" fill="#343434"/><path d="M719.389,419.1c-5.571-3.589-32.976-22.183-32.976-22.183s1.6,8.711,2.528,14.85,5.2,42.935,5.477,47.97.076,20.572.076,20.572h45.7c0-11.393-5.071-34.609-6.916-41.269C731.286,431.845,731.563,426.932,719.389,419.1Z" transform="translate(-551.899 -233.899)" fill="#b4a28f"/><path d="M699.336,402.663c-3.852,1.715-39.212,19.795-42.784,22.323s-7.344,11.164-7.509,16.684.374,45.445.374,45.445H765.892s-18.374-32.9-20.406-36.9-20.633-47.135-20.633-47.135l-4.273-8.783S703.914,400.62,699.336,402.663Z" transform="translate(-649.011 -240.707)" fill="#b4a28f"/><path d="M692.425,401.259H680.779l-2.234,3.76,7.568,15.417-2.382,43.32,5.477,8.6h25.714l-4.569-17.481L697.56,417.7l1.731-14.364-3.029-3.354Z" transform="translate(-572.327 -225.948)" fill="#ffed61"/></g><g transform="translate(-26.204 4.034)"><path d="M678.766,379.01a3.781,3.781,0,1,1,3.769,4.053A3.924,3.924,0,0,1,678.766,379.01Zm2.46,0a1.334,1.334,0,1,0,1.309-1.59A1.47,1.47,0,0,0,681.226,379.01Z" transform="translate(-564.021 -284.037)" fill="#4c4948"/><path d="M678.961,381.692a1.232,1.232,0,0,0,1.223-1.093,4.412,4.412,0,0,1,1.9-3.431,6.914,6.914,0,0,1,5.574-.353,1.232,1.232,0,0,0,.78-2.338,9.324,9.324,0,0,0-7.682.615,6.83,6.83,0,0,0-3.017,5.229,1.235,1.235,0,0,0,1.083,1.363C678.867,381.688,678.914,381.692,678.961,381.692Z" transform="translate(-566.711 -286.69)" fill="#4c4948"/><path d="M688.225,379.01a3.781,3.781,0,1,1,3.769,4.053A3.924,3.924,0,0,1,688.225,379.01Zm2.464,0a1.332,1.332,0,1,0,1.306-1.59A1.47,1.47,0,0,0,690.689,379.01Z" transform="translate(-539.461 -284.037)" fill="#4c4948"/><path d="M688.423,381.692a1.229,1.229,0,0,0,1.219-1.093,4.407,4.407,0,0,1,1.9-3.431,6.907,6.907,0,0,1,5.578-.353,1.232,1.232,0,0,0,.777-2.338,9.315,9.315,0,0,0-7.679.615,6.828,6.828,0,0,0-3.021,5.229,1.23,1.23,0,0,0,1.086,1.359A.925.925,0,0,0,688.423,381.692Z" transform="translate(-542.152 -286.69)" fill="#4c4948"/><path d="M686.626,386.482a5.347,5.347,0,0,0,4.744-2.982,1.23,1.23,0,0,0-2.2-1.09,2.881,2.881,0,0,1-3.021,1.572,1.231,1.231,0,1,0-.381,2.431A5.515,5.515,0,0,0,686.626,386.482Z" transform="translate(-548.562 -266.463)" fill="#4c4948"/><path d="M677.956,374.939a1.215,1.215,0,0,0,.734-.245,19.286,19.286,0,0,1,14.958-2.838,1.231,1.231,0,0,0,.6-2.388,21.648,21.648,0,0,0-17.022,3.251,1.23,1.23,0,0,0,.734,2.219Z" transform="translate(-569.318 -299.703)" fill="#4c4948"/><path d="M699.311,374.325a1.23,1.23,0,0,0,.795-2.172c-3.5-2.96-8.858-3.542-11.476-2.208a1.23,1.23,0,1,0,1.115,2.194c1.626-.824,5.952-.489,8.772,1.9A1.234,1.234,0,0,0,699.311,374.325Z" transform="translate(-540.161 -298.812)" fill="#4c4948"/><path d="M725.2,389.733a1.23,1.23,0,0,0,.727-2.223c-2.194-1.608-9.84-11.653-12.379-15.533a1.232,1.232,0,0,0-2.248.859,63.485,63.485,0,0,1,.611,9.646,94.173,94.173,0,0,1-10.9-13.976,1.232,1.232,0,0,0-2.215,1.029c.457,1.457.252,7.887-.212,12.185-5.344-3.83-14.907-14.785-16.561-18.755a1.232,1.232,0,0,0-2.273.95c2.047,4.905,13.9,18.259,19.252,20.957a1.233,1.233,0,0,0,1.773-.906,83.431,83.431,0,0,0,.741-10.311c4.039,5.682,8.721,11.005,10.7,12.375a1.228,1.228,0,0,0,1.913-.813,37.561,37.561,0,0,0,.1-7.995c3.3,4.514,8.185,10.768,10.239,12.275A1.222,1.222,0,0,0,725.2,389.733Z" transform="translate(-561.71 -317.14)" fill="#4c4948"/><path d="M672.42,400.845a1.23,1.23,0,0,0,1.029-.554c.072-.111,6.013-9.344,8-16.407a16.521,16.521,0,0,0,2.924,3.266,1.239,1.239,0,0,0,1.55.036c3.909-3.032,12.678-18.1,13.217-22.719a1.231,1.231,0,0,0-2.446-.288c-.439,3.762-7.75,16.5-11.519,20.367a12.708,12.708,0,0,1-3.1-4.79,1.248,1.248,0,0,0-.194-.518,1.233,1.233,0,0,0-2.215.349,1.012,1.012,0,0,0-.018.345h-.022c.04,4.808-5.639,15.066-8.236,19a1.23,1.23,0,0,0,.352,1.7A1.2,1.2,0,0,0,672.42,400.845Z" transform="translate(-583.696 -314.849)" fill="#4c4948"/><path d="M688.423,440.359a1.238,1.238,0,0,0,.683-.209c6.564-4.409,15.67-22.773,16.81-29.153.662-3.686,1.644-13.443,2.507-22.05.68-6.74,1.32-13.109,1.7-15.58a1.232,1.232,0,0,0-2.435-.378c-.392,2.535-1.036,8.937-1.719,15.709-.86,8.563-1.838,18.27-2.482,21.866-1.136,6.369-10.218,23.819-15.76,27.542a1.23,1.23,0,0,0,.69,2.251Z" transform="translate(-542.151 -291.845)" fill="#4c4948"/><path d="M711.272,404.062c3.057,0,4.823-.91,5.848-1.931a1.232,1.232,0,0,0-1.741-1.744c-.676.676-3.589,2.618-12.847-.622-9.815-3.435-21.158-8.484-26.38-11.743a1.231,1.231,0,1,0-1.3,2.09c5.355,3.341,16.907,8.491,26.869,11.976A29.612,29.612,0,0,0,711.272,404.062Z" transform="translate(-575.7 -250.599)" fill="#4c4948"/><path d="M675.049,402.033a4.711,4.711,0,0,0,1.352-.205,1.231,1.231,0,0,0-.7-2.359,2.007,2.007,0,0,1-1.992-.435c-2.636-2.172-4.258-10.286-3.535-17.716.187-1.928.806-4.323,2.686-4.79,1.992-.5,4.747,1.234,5.977,3.1a1.23,1.23,0,1,0,2.054-1.356c-1.751-2.65-5.456-4.916-8.624-4.129-1.809.45-4.064,2.018-4.542,6.941-.709,7.276.6,16.709,4.42,19.856A4.53,4.53,0,0,0,675.049,402.033Z" transform="translate(-593.182 -286.574)" fill="#4c4948"/><path d="M671.454,392.222a1.23,1.23,0,0,1,1.651-1.823.84.84,0,0,0,.126.094,3.989,3.989,0,0,0,.435-2.3c0-.266,0-.547,0-.838,0-3.269.007-7.337-4.021-9.39a1.231,1.231,0,0,1,1.118-2.194c5.373,2.737,5.366,8.279,5.362,11.588,0,.281,0,.55,0,.809.032,3.251-1.2,4.294-1.935,4.625a2.217,2.217,0,0,1-.917.2A2.737,2.737,0,0,1,671.454,392.222Zm1.712-1.669h0Z" transform="translate(-589.444 -282.28)" fill="#4c4948"/><path d="M704.765,406.783a1.229,1.229,0,0,0,1.129-.745c1.428-3.309.957-12.113.673-15.882a4.169,4.169,0,0,1,1.564.845,1.23,1.23,0,0,0,2.068-.87c.119-4.823-2.251-13.3-7.794-18.676a12.1,12.1,0,0,1,2.507-.4,1.287,1.287,0,0,0,1.09-.417,1.229,1.229,0,0,0,.284-1.115c-1.032-3.934-8.347-9.818-14.271-12.638a1.231,1.231,0,0,0-1.057,2.223c4.952,2.359,10.361,6.7,12.286,9.664-1.363.234-2.942.644-3.783.874a1.232,1.232,0,0,0-.41,2.176c5.273,3.924,8,11.174,8.574,16.091a8.554,8.554,0,0,0-2.359-.493,1.232,1.232,0,0,0-1.284,1.341c.331,3.546.913,13.386-.345,16.3a1.233,1.233,0,0,0,.64,1.618A1.255,1.255,0,0,0,704.765,406.783Z" transform="translate(-534.189 -331.27)" fill="#4c4948"/><path d="M748.884,374.278c-3.071-3.992-20.061-11.627-24.8-12.138a1.305,1.305,0,0,1-1.169-.935c-.277-.967.37-1.446,1.931-2.607.317-.237.665-.493,1.007-.759-6.628-1.565-23.463-1.219-25.377-.317a1.231,1.231,0,0,1-1.73-1.363,14.612,14.612,0,0,1,1.7-4.006c-8.149.291-23.273,4.46-27.243,10.437a1.232,1.232,0,0,1-2.054-1.363c5.064-7.624,23.823-12.088,31.66-11.5a1.229,1.229,0,0,1,.9,1.96,17.521,17.521,0,0,0-1.841,3.057c6.61-.878,22.873-.6,26.981,1.532a1.235,1.235,0,0,1,.32,1.949,20.812,20.812,0,0,1-2.359,1.982c7.035,1.928,20.867,8.462,24.024,12.57a1.23,1.23,0,1,1-1.949,1.5Zm-24.517-14.584-.047,0Z" transform="translate(-584.317 -349.676)" fill="#4c4948"/><path d="M668.693,371.6a1.232,1.232,0,0,0,1.226-1.172c.317-6.323,5.118-14.771,8.157-17.579a1.232,1.232,0,0,0-1.672-1.809c-3.5,3.233-8.588,12.127-8.941,19.266a1.228,1.228,0,0,0,1.165,1.291Z" transform="translate(-593.373 -346.976)" fill="#4c4948"/><path d="M672.433,434.205a1.179,1.179,0,0,0,.367-.057,1.225,1.225,0,0,0,.806-1.543c-2.327-7.42-4.708-25.905-4.729-26.092a1.239,1.239,0,0,0-.662-.939,1.22,1.22,0,0,0-1.151.018c-.414.223-1.234.669-2.01,1.076-.23-7.977,2.564-26.477,2.593-26.679a1.229,1.229,0,0,0-1.356-1.406c-.561.061-1.352.115-2.05.119,2.593-9.182,11.469-18.515,15.3-19.626a1.232,1.232,0,0,0-.687-2.366c-5.139,1.489-15.17,12.544-17.36,22.841A1.232,1.232,0,0,0,662.4,381a10.142,10.142,0,0,0,2.586.151c-.748,5.164-3.01,21.719-2.251,27.6a1.229,1.229,0,0,0,1.715.967c.486-.212,1.4-.687,2.215-1.118.662,4.877,2.6,18.418,4.589,24.744A1.235,1.235,0,0,0,672.433,434.205Z" transform="translate(-608.931 -331.543)" fill="#4c4948"/><path d="M674.323,392.7a1.232,1.232,0,0,0,.777-2.187c-1.726-1.4-6.628-9.685-7.387-12.48a1.231,1.231,0,1,0-2.377.644c.827,3.046,5.956,11.915,8.214,13.746A1.208,1.208,0,0,0,674.323,392.7Z" transform="translate(-599.006 -278.405)" fill="#4c4948"/><path d="M673.02,406.112a1.23,1.23,0,0,0,1.212-1.036c.885-5.517-.975-18.7-2.679-21.6a1.231,1.231,0,1,0-2.122,1.248c1.3,2.216,3.19,14.85,2.37,19.957a1.23,1.23,0,0,0,1.021,1.41A1.267,1.267,0,0,0,673.02,406.112Z" transform="translate(-588.701 -263.485)" fill="#4c4948"/><path d="M699.906,440.012h.069a1.239,1.239,0,0,0,1-.608c.1-.18,10.351-17.745,12.893-21.367a1.224,1.224,0,0,0,.158-1.1,1.239,1.239,0,0,0-.791-.78c-9.282-2.953-33.605-19.414-38.273-25.895a1.23,1.23,0,0,0-2.086.14l-4.039,7.578a1.231,1.231,0,1,0,2.172,1.158l3.172-5.952c6.8,7.5,27.391,21.025,36.785,24.769-2.82,4.377-8.844,14.612-11.178,18.6l-26-34.864a1.23,1.23,0,1,0-1.971,1.471l27.1,36.357A1.225,1.225,0,0,0,699.906,440.012Z" transform="translate(-590.189 -245.633)" fill="#4c4948"/><path d="M696.827,429.617a1.279,1.279,0,0,0,.385-.061,1.228,1.228,0,0,0,.845-1.216l-.737-20.834a1.231,1.231,0,1,0-2.46.086l.586,16.569-10.941-16.109c2.561-1.967,6.172-6.941,7.919-10.516a56.054,56.054,0,0,1,2.331,5.6,1.23,1.23,0,1,0,2.327-.8,49.686,49.686,0,0,0-3.826-8.416,1.23,1.23,0,0,0-2.266.482c-.41,3.061-7.024,11.609-8.542,12.063a1.288,1.288,0,0,0-.831.773,1.237,1.237,0,0,0,.115,1.111l14.077,20.727A1.237,1.237,0,0,0,696.827,429.617Z" transform="translate(-556.825 -236.309)" fill="#4c4948"/><path d="M684.818,402.8a24.364,24.364,0,0,0,5.823-.45,1.23,1.23,0,1,0-.687-2.363c-.655.191-2.665.482-8.79.288l-.122,0a1.21,1.21,0,0,0-1.27,1.19,1.23,1.23,0,0,0,1.191,1.27l.122,0Q683.168,402.8,684.818,402.8Z" transform="translate(-561.41 -219.181)" fill="#4c4948"/><path d="M685.938,416.282c-2.51-.59-5.6-8.142-7.222-12.591a1.231,1.231,0,0,1,2.313-.842c2,5.506,4.535,10.566,5.474,11.034,1.939.457,7.743-.374,9.221-1.029.421-.442,1.151-3.025,1.011-9.836a1.23,1.23,0,0,1,2.46-.05c.227,10.872-1.6,11.728-2.381,12.095a28.465,28.465,0,0,1-8.757,1.4A9.981,9.981,0,0,1,685.938,416.282Zm9.768-3.409Z" transform="translate(-564.345 -214.436)" fill="#4c4948"/><path d="M697.008,444.854a1.474,1.474,0,0,0,.216-.018,1.231,1.231,0,0,0,1-1.428c-1.068-6.053-10.753-33.922-11.854-37.079a1.232,1.232,0,1,0-2.327.809c3.97,11.39,10.915,31.937,11.757,36.7A1.233,1.233,0,0,0,697.008,444.854Z" transform="translate(-550.507 -204.731)" fill="#4c4948"/><path d="M681.043,445.707h.018a1.229,1.229,0,0,0,1.215-1.244c-.086-6.8.691-19,1.262-27.905.288-4.557.518-8.157.532-9.527a1.233,1.233,0,0,0-1.219-1.244h-.011a1.233,1.233,0,0,0-1.234,1.219c-.011,1.306-.237,4.877-.529,9.4-.568,8.941-1.352,21.194-1.266,28.088A1.231,1.231,0,0,0,681.043,445.707Z" transform="translate(-561.32 -203.991)" fill="#4c4948"/><path d="M715.386,491.4a1.234,1.234,0,0,0,.9-2.075c-2.047-2.183-24.078-44.064-27.409-52.109-1.093-2.633-3.046-7.02-5.308-12.1-5.06-11.365-11.987-26.923-12.811-31.012a1.231,1.231,0,1,0-2.413.486c.878,4.355,7.585,19.421,12.976,31.527,2.255,5.064,4.2,9.437,5.279,12.041,3.021,7.294,25.387,50.181,27.891,52.854A1.219,1.219,0,0,0,715.386,491.4Z" transform="translate(-591.146 -236.884)" fill="#4c4948"/><path d="M695.07,479.91a1.23,1.23,0,0,0,1.219-1.083c2.248-18.187-5.478-71.929-7.675-80.363a1.232,1.232,0,0,0-2.384.622c2.115,8.1,9.779,61.927,7.617,79.442a1.23,1.23,0,0,0,1.072,1.37A1.055,1.055,0,0,0,695.07,479.91Z" transform="translate(-544.742 -225.394)" fill="#4c4948"/><path d="M706.112,464.918a1.232,1.232,0,0,0,.86-2.115c-6.513-6.308-34-44.373-37.1-53.141l2.938-4.431a1.231,1.231,0,1,0-2.05-1.363l-3.266,4.923a1.228,1.228,0,0,0-.162,1.007c2.2,8.024,30.764,47.833,37.924,54.771A1.227,1.227,0,0,0,706.112,464.918Z" transform="translate(-593.824 -210.402)" fill="#4c4948"/><path d="M678.483,424.135a1.232,1.232,0,0,0,.615-2.3l-10.43-5.974,1.982-20.413a1.232,1.232,0,1,0-2.453-.237l-2.057,21.2a1.231,1.231,0,0,0,.612,1.187l11.12,6.369A1.231,1.231,0,0,0,678.483,424.135Z" transform="translate(-596.819 -234.345)" fill="#4c4948"/><path d="M693.992,465.418a1.229,1.229,0,0,0,1.158-.82c2.464-6.905,1.187-51.386.356-57.569a1.249,1.249,0,0,0-.435-.784l-3.424-2.838a1.231,1.231,0,0,0-1.572,1.9l3.046,2.525c.791,7.459,1.874,49.883-.291,55.946a1.233,1.233,0,0,0,.748,1.572A1.286,1.286,0,0,0,693.992,465.418Z" transform="translate(-535.816 -210.902)" fill="#4c4948"/><path d="M694.041,420.157a1.231,1.231,0,0,0,1.172-.856l3.388-10.663a1.221,1.221,0,0,0-.241-1.173l-9.138-10.642a1.232,1.232,0,1,0-1.87,1.6l8.7,10.12-3.179,10.005a1.23,1.23,0,0,0,.8,1.547A1.247,1.247,0,0,0,694.041,420.157Z" transform="translate(-542.497 -228.377)" fill="#4c4948"/><path d="M737.457,434.7a1.23,1.23,0,0,0,1.064-1.849c-3.384-5.8-8.157-8.718-13.206-11.8-.921-.557-1.856-1.129-2.8-1.73-7.337-4.646-31.113-21.776-34.85-25.107a1.232,1.232,0,1,0-1.64,1.838c3.787,3.373,27.783,20.665,35.173,25.348.957.608,1.906,1.187,2.834,1.755,4.985,3.042,9.293,5.672,12.361,10.937A1.229,1.229,0,0,0,737.457,434.7Z" transform="translate(-546.244 -234.847)" fill="#4c4948"/><path d="M709.839,456.811h.04a1.236,1.236,0,0,0,1.194-1.27c-.658-21.546-7.247-43.96-8.563-48.232a1.23,1.23,0,1,0-2.352.723c1.3,4.222,7.808,26.355,8.451,47.585A1.234,1.234,0,0,0,709.839,456.811Z" transform="translate(-508.618 -202.295)" fill="#4c4948"/><path d="M652,422.582a1.255,1.255,0,0,0,.324-.043c7.135-1.946,52.494-23.258,58.845-28.085a1.232,1.232,0,1,0-1.489-1.964c-6.081,4.625-51.368,25.862-58,27.671a1.232,1.232,0,0,0,.324,2.42Z" transform="translate(-636.722 -239.161)" fill="#4c4948"/><path d="M648.095,472.167a1.232,1.232,0,0,0,1.23-1.219c0-.334.345-33.62.018-41.69-.327-7.941,4.024-23.593,7.387-26.581a1.232,1.232,0,0,0-1.636-1.841c-4.194,3.73-8.542,20.439-8.211,28.523.324,8.009-.018,41.23-.022,41.564a1.233,1.233,0,0,0,1.219,1.244Z" transform="translate(-646.861 -217.652)" fill="#4c4948"/><path d="M672.469,444.454h.022A1.23,1.23,0,0,0,673.7,443.2c-.259-15.778-11.743-36.925-19.806-40.6a1.231,1.231,0,1,0-1.021,2.241c7.38,3.366,18.126,23.8,18.367,38.4A1.233,1.233,0,0,0,672.469,444.454Z" transform="translate(-633.127 -212.56)" fill="#4c4948"/><path d="M685.362,400.626c-2.917-.748-4.855-2.352-5.452-4.521h0c-.6-2.169.244-4.539,2.37-6.671A19.723,19.723,0,0,1,699.45,384.7c2.917.745,4.855,2.349,5.452,4.517s-.245,4.539-2.37,6.675a18.269,18.269,0,0,1-8.02,4.409,20.436,20.436,0,0,1-5.413.759A15.16,15.16,0,0,1,685.362,400.626Zm5.592-13.231a15.8,15.8,0,0,0-6.93,3.776c-1.475,1.482-2.093,3-1.741,4.283h0c.353,1.277,1.661,2.269,3.686,2.784a17.317,17.317,0,0,0,14.817-4.078c1.475-1.482,2.093-3,1.741-4.283s-1.662-2.269-3.686-2.787a12.733,12.733,0,0,0-3.129-.367A18.141,18.141,0,0,0,690.955,387.395Z" transform="translate(-561.536 -259.873)" fill="#4c4948"/><path d="M685.276,393.068a15.323,15.323,0,0,0,6.855-1.777,1.232,1.232,0,0,0-1.2-2.151c-1.547.863-4.974,1.96-7.589,1.219a1.231,1.231,0,0,0-.669,2.37A9.671,9.671,0,0,0,685.276,393.068Z" transform="translate(-556.207 -247.615)" fill="#4c4948"/></g></g></g></g></g></g></svg>