<svg xmlns="http://www.w3.org/2000/svg" xmlns:xlink="http://www.w3.org/1999/xlink" width="190" height="191" viewBox="0 0 190 191"><defs><filter id="a" x="0" y="0" width="190" height="191" filterUnits="userSpaceOnUse"><feOffset dy="3" input="SourceAlpha"/><feGaussianBlur stdDeviation="3" result="b"/><feFlood flood-opacity="0.161" result="c"/><feComposite operator="out" in="SourceGraphic" in2="b"/><feComposite operator="in" in="c"/><feComposite operator="in" in2="SourceGraphic"/></filter></defs><g transform="translate(-93 -2734)"><g transform="translate(-8.007 2821)"><g data-type="innerShadowGroup"><ellipse cx="95" cy="95.5" rx="95" ry="95.5" transform="translate(101.007 -87)" fill="#fff"/><g transform="matrix(1, 0, 0, 1, 101.01, -87)" filter="url(#a)"><ellipse cx="95" cy="95.5" rx="95" ry="95.5" fill="#fff"/></g></g></g><g transform="translate(128 2777.033)"><g transform="translate(21.281 4.903)"><g transform="translate(7.675 10)"><path d="M225.669,2589.263a1.852,1.852,0,0,0-1.667,1.059,1.83,1.83,0,0,0-.052,1.412,1.8,1.8,0,0,0,1.7,1.194,1.832,1.832,0,1,0,.021-3.665Zm0,0" transform="translate(-216.957 -2582.078)" fill="#1a62a3"/><path d="M236.82,2589.82a5.85,5.85,0,0,0-3.586-4.969c-.371.463-.762.93-1.165,1.4a4.208,4.208,0,0,1,3.043,3.669,6.188,6.188,0,0,1-.977,3.442,11.125,11.125,0,0,1-9.364,5.054,10.416,10.416,0,0,1-3.007-.44c-.191-.06-.381-.121-.57-.187-.024.032-.054.062-.081.093a1.506,1.506,0,0,1-1.012.438l-.489.678a13.492,13.492,0,0,0,1.655.616,12.144,12.144,0,0,0,3.5.517h0a13.232,13.232,0,0,0,6.549-1.778,11.467,11.467,0,0,0,4.306-4.153,8.047,8.047,0,0,0,1.194-4.38Zm0,0" transform="translate(-219.612 -2584.852)" fill="#1a62a3"/></g><path d="M219.985,2586.969a1.787,1.787,0,0,0-.774-.171,1.853,1.853,0,0,0-1.67,1.043,1.841,1.841,0,0,0,.885,2.439,1.776,1.776,0,0,0,.78.176,1.831,1.831,0,0,0,.779-3.487Zm0,0" transform="translate(-213.349 -2573.629)" fill="#1a62a3"/><g transform="translate(0)"><path d="M224.414,2584.991a2.841,2.841,0,0,0-.533-2.459,2.789,2.789,0,0,0-2.186-.979,4.033,4.033,0,0,0-3.779,3.034,2.809,2.809,0,0,0,.531,2.459,2.773,2.773,0,0,0,2.186.976,3.847,3.847,0,0,0,2.447-.924,3.907,3.907,0,0,0,1.334-2.108Zm-2.232,1.026a2.457,2.457,0,0,1-1.549.6,1.407,1.407,0,0,1-1.1-.472,1.443,1.443,0,0,1-.244-1.248,2.5,2.5,0,0,1,.86-1.336,2.465,2.465,0,0,1,1.551-.6,1.4,1.4,0,0,1,1.1.472,1.446,1.446,0,0,1,.244,1.246,2.5,2.5,0,0,1-.862,1.338Zm0,0" transform="translate(-213.056 -2576.927)" fill="#1a62a3"/><path d="M218.088,2599.586l1.4-1.013,0,0a10.944,10.944,0,0,1-2.859-6.836,11.738,11.738,0,0,1,1.341-5.842,10.954,10.954,0,0,1,5.609-5.037,5.171,5.171,0,0,1,1.983-.43,4.069,4.069,0,0,1,1.575.318,4.619,4.619,0,0,1,2.465,2.565,3.6,3.6,0,0,1-.124,2.911,3.7,3.7,0,0,0-.334,1.731,2.659,2.659,0,0,0,.121.708c.551-.506,1.114-1.01,1.678-1.5a1.4,1.4,0,0,1,.072-.189,5.266,5.266,0,0,0,.191-4.268,6.317,6.317,0,0,0-3.41-3.537,5.864,5.864,0,0,0-2.233-.448,6.852,6.852,0,0,0-2.637.564,12.669,12.669,0,0,0-6.492,5.865l-.006.018a13.3,13.3,0,0,0-1.5,6.663,12.63,12.63,0,0,0,2.761,7.283c.132.163.266.322.407.48Zm0,0" transform="translate(-214.901 -2578.713)" fill="#1a62a3"/></g><path d="M218.012,2603.551c.037.034.072.073.1.105s.073.076.109.11h0a1.079,1.079,0,0,0,.676.4.465.465,0,0,0,.06,0c.166-.021.277-.143.43-.343l3.1-4.077a.758.758,0,0,0,.7-.194.732.732,0,0,0,.2-.638.739.739,0,0,0,.787-1.041c.948-.726,5.013-4.642,5.962-5.6,4.169-4.169,8.984-10.22,8.227-10.973s-6.811,4.052-10.98,8.219c-.951.955-4.871,5.02-5.6,5.966a.734.734,0,0,0-1.038.784.735.735,0,0,0-.846.831l-4.087,3.167a.679.679,0,0,0-.323.489.819.819,0,0,0,.323.607m2.984,1.6c-.034-.035-.068-.071-.1-.1l-1.913-1.912c-.036-.034-.07-.07-.1-.1l3.162-2.5.349.347-.857,1.1a.306.306,0,0,0,.241.493.309.309,0,0,0,.176-.054l1.161-.815.347.348Zm0,0" transform="translate(-214.526 -2577.136)" fill="#1a62a3"/></g><g transform="translate(76.984 4.903)"><g transform="translate(0)"><path d="M406.721,2442.323a1.242,1.242,0,0,1-.349-.327,1.265,1.265,0,0,1-.108-.195h-15.51v-15.29h21.053v9.987a1.173,1.173,0,0,1,.983.738,1.131,1.131,0,0,1,.462-.138,1.01,1.01,0,0,1,.326.018v-14.409a1.481,1.481,0,0,0-1.48-1.478H390.457a1.479,1.479,0,0,0-1.477,1.478v19.389a1.479,1.479,0,0,0,1.477,1.479h16.131a1.2,1.2,0,0,1-.083-.82,1.243,1.243,0,0,1,.216-.432Zm3.461-18.612a.547.547,0,0,1,.547-.547h.545a.548.548,0,0,1,.547.547v.616a.549.549,0,0,1-.547.549h-.545a.547.547,0,0,1-.547-.549Zm-2.537,0a.545.545,0,0,1,.545-.547h.547a.543.543,0,0,1,.542.547v.616a.543.543,0,0,1-.542.549h-.547a.545.545,0,0,1-.545-.549Zm-2.539,0a.543.543,0,0,1,.542-.547h.549a.548.548,0,0,1,.547.547v.616a.549.549,0,0,1-.547.549h-.549a.543.543,0,0,1-.542-.549Z" transform="translate(-388.98 -2421.229)" fill="#1a62a3"/><path d="M405.1,2432.13l-.165-.926a.224.224,0,0,0-.264-.187l-.827.144a3.1,3.1,0,0,0-.377-.65l.54-.647a.232.232,0,0,0-.028-.325l-.726-.6a.218.218,0,0,0-.168-.055.236.236,0,0,0-.156.08l-.542.646a3.263,3.263,0,0,0-.705-.26v-.838a.23.23,0,0,0-.23-.229h-.942a.231.231,0,0,0-.232.229v.838a3.215,3.215,0,0,0-.705.26l-.542-.646a.229.229,0,0,0-.324-.025l-.721.6a.224.224,0,0,0-.08.159.241.241,0,0,0,.048.166l.542.647a2.9,2.9,0,0,0-.377.65l-.83-.144a.225.225,0,0,0-.264.187l-.163.926a.223.223,0,0,0,.037.175.25.25,0,0,0,.147.094l.832.149a3.238,3.238,0,0,0,.126.735l-.728.423a.247.247,0,0,0-.1.142.21.21,0,0,0,.023.173l.471.82a.248.248,0,0,0,.14.105.2.2,0,0,0,.175-.025l.726-.417a3.227,3.227,0,0,0,.579.482l-.287.789a.234.234,0,0,0,0,.176.246.246,0,0,0,.131.12l.887.322a.206.206,0,0,0,.078.014.241.241,0,0,0,.1-.021.251.251,0,0,0,.115-.129l.287-.793a2.752,2.752,0,0,0,.377.028,2.684,2.684,0,0,0,.372-.028l.287.793a.253.253,0,0,0,.122.129.21.21,0,0,0,.1.021.175.175,0,0,0,.076-.014l.889-.322a.218.218,0,0,0,.131-.12.258.258,0,0,0,.009-.176l-.287-.789a3.754,3.754,0,0,0,.574-.482l.726.417a.218.218,0,0,0,.117.035.224.224,0,0,0,.057-.009.233.233,0,0,0,.14-.105l.471-.82a.232.232,0,0,0,.028-.173.227.227,0,0,0-.113-.142l-.728-.423a2.629,2.629,0,0,0,.131-.735l.829-.149a.236.236,0,0,0,.149-.094.245.245,0,0,0,.039-.175Zm-4.12,1.48a1.267,1.267,0,1,1,1.266-1.268,1.264,1.264,0,0,1-1.266,1.268Z" transform="translate(-378.762 -2412.078)" fill="#1a62a3"/></g><path d="M396.583,2429.746a.771.771,0,0,0-.45-.7l-2.473-1.149,2.473-1.152a.777.777,0,0,0,.45-.7v-.018a.763.763,0,0,0-.772-.77.714.714,0,0,0-.324.071l-3.959,1.839a.771.771,0,0,0-.444.7v.058a.773.773,0,0,0,.444.7l3.959,1.838a.727.727,0,0,0,.324.074.777.777,0,0,0,.416-.122.764.764,0,0,0,.356-.646Z" transform="translate(-386.249 -2415.989)" fill="#1a62a3"/><path d="M397.442,2424.625a.769.769,0,0,0-.62-.312H396.8a.768.768,0,0,0-.735.53l-2.608,8.08a.772.772,0,0,0,.738,1h.016a.762.762,0,0,0,.733-.532l2.608-8.079a.776.776,0,0,0-.113-.688Z" transform="translate(-383.21 -2417.226)" fill="#1a62a3"/><path d="M400.237,2427.174l-3.955-1.839a.727.727,0,0,0-.324-.071.757.757,0,0,0-.767.77v.018a.776.776,0,0,0,.441.7l2.477,1.152-2.477,1.149a.77.77,0,0,0-.441.7v.022a.766.766,0,0,0,.767.768.727.727,0,0,0,.324-.074l3.955-1.838a.77.77,0,0,0,.448-.7v-.058a.768.768,0,0,0-.448-.7Z" transform="translate(-380.919 -2415.989)" fill="#1a62a3"/></g><g transform="translate(0 47.669)"><path d="M57.65,2662.128H43.683v-13.962h10.9l3.133-3.133H40.548v20.232H60.78v-12.957l-3.13,3.135Z" transform="translate(-40.548 -2644.383)" fill="#1a62a3"/><path d="M44.439,2652.776l-2.219,2.217,5.321,5.32,13.314-13.308-2.214-2.222-11.1,11.1Z" transform="translate(-37.87 -2644.783)" fill="#1a62a3"/></g><g transform="translate(21.281 82.443)"><g transform="translate(-1 -0.977)"><g transform="translate(0)"><path d="M183.474,1583.724a.837.837,0,0,0,.61-.012l4.678-2a.793.793,0,0,0,.482-.738.8.8,0,0,0-.5-.728l-1.279-.51a7.682,7.682,0,0,1,14.164.026,2.205,2.205,0,0,0,2.447,1.305l.156-.031a2.2,2.2,0,0,0,1.612-3.016,12.245,12.245,0,0,0-22.617.021l-1.161-.468a.794.794,0,0,0-1.028,1.047l2,4.68a.827.827,0,0,0,.433.426Z" transform="translate(-180.973 -1570.48)" fill="#1a62a3" stroke="#fff" stroke-width="1.5"/></g><path d="M206.775,1580.642l-2-4.678a.806.806,0,0,0-.435-.425.831.831,0,0,0-.605.007l-4.68,2a.794.794,0,0,0,.014,1.466l1.281.513a7.682,7.682,0,0,1-14.164-.028,2.2,2.2,0,0,0-2.447-1.305l-.158.031a2.2,2.2,0,0,0-1.61,3.016,12.334,12.334,0,0,0,11.3,7.541,12.2,12.2,0,0,0,11.316-7.555l1.165.463a.793.793,0,0,0,1.023-1.049Z" transform="translate(-179.847 -1563.653)" fill="#1a62a3" stroke="#fff" stroke-width="1.5"/></g><path d="M2.879-4.406a1.994,1.994,0,0,0-1-.232,1.35,1.35,0,0,0-1.5,1.295c0,.676.5,1.108,1.243,1.385.638.258.9.554.9,1.037,0,.528-.386.882-1.043.882a2,2,0,0,1-1.056-.3L.27.1A2.259,2.259,0,0,0,1.442.412c1.056,0,1.623-.6,1.623-1.378,0-.7-.406-1.108-1.2-1.443-.657-.277-.953-.522-.953-1,0-.354.258-.773.94-.773a1.667,1.667,0,0,1,.863.225ZM6.511-.11H4.457v-1.9H6.286v-.444H4.457V-4.116H6.4v-.451H3.922V.341H6.511ZM9.158-4.644c-1.23,0-2.138.973-2.138,2.57C7.02-.541,7.883.419,9.1.419c1.159,0,2.125-.85,2.125-2.576C11.226-3.639,10.414-4.644,9.158-4.644ZM9.133-4.2c1.05,0,1.533,1.082,1.533,2.068,0,1.121-.535,2.106-1.546,2.106S7.58-1.044,7.58-2.087,8.051-4.2,9.133-4.2Z" transform="translate(6.699 13.701)" fill="#1a62a3" stroke="#1a62a3" stroke-width="0.5"/></g><g transform="translate(98.248 45.516)"><path d="M442.319,1586.269H421.678a1.985,1.985,0,0,0-1.989,1.987v13.953a1.985,1.985,0,0,0,1.989,1.987h5.574v1.908a.71.71,0,0,0,.712.71h8.072a.708.708,0,0,0,.71-.71V1604.2h5.574a1.985,1.985,0,0,0,1.989-1.987v-13.953a1.986,1.986,0,0,0-1.989-1.987Zm-.72,15.191H422.4v-12.476h19.2Z" transform="translate(-419.689 -1586.269)" fill="#1a62a3"/><path d="M430.793,1593.086l-5.742,3.314a.489.489,0,0,1-.733-.423v-6.631a.489.489,0,0,1,.733-.421l5.742,3.311a.493.493,0,0,1,0,.85Z" transform="translate(-414.818 -1583.541)" fill="#1a62a3"/></g><g transform="translate(81.746 79.557)"><path d="M313.677,2552.151l-1.756-1.755a1.112,1.112,0,0,0-.812-.353,1.018,1.018,0,0,0-.709.308L309,2551.733l-5.6,5.605a.928.928,0,0,0-.17.283l-.936,3.323a.7.7,0,0,0-.031.206.627.627,0,0,0,.624.583.619.619,0,0,0,.18-.026l3.305-.958a.652.652,0,0,0,.271-.134l5.646-5.629,1.379-1.384a1.1,1.1,0,0,0,.317-.68,1.056,1.056,0,0,0-.3-.771Zm-7.809,7.459-2.073.583.6-2.078,5.045-5.046,1.5,1.476Zm5.963-5.96-1.5-1.472.8-.8,1.47,1.467Z" transform="translate(-292.401 -2538.413)" fill="#1a62a3" stroke="#1a62a3" stroke-width="0.5"/><path d="M309.734,2549.79h-9.82a.632.632,0,0,0,0,1.263h9.82a.632.632,0,0,0,0-1.263Z" transform="translate(-297.086 -2538.81)" fill="#1a62a3" stroke="#1a62a3" stroke-width="0.5"/><path d="M310.363,2551.512a.619.619,0,0,0-.629-.624h-9.82a.62.62,0,0,0-.629.624.632.632,0,0,0,.629.644h9.82a.63.63,0,0,0,.629-.644Z" transform="translate(-297.086 -2537.077)" fill="#1a62a3" stroke="#1a62a3" stroke-width="0.5"/><path d="M304.472,2551.979h-4.558a.628.628,0,1,0,0,1.255h4.558a.628.628,0,1,0,0-1.255Z" transform="translate(-297.086 -2535.358)" fill="#1a62a3" stroke="#1a62a3" stroke-width="0.5"/><path d="M304.472,2553.074h-4.558a.626.626,0,1,0,0,1.253h4.558a.627.627,0,1,0,0-1.253Z" transform="translate(-297.086 -2533.626)" fill="#1a62a3" stroke="#1a62a3" stroke-width="0.5"/><path d="M299.7,2567.477V2546.9c0-.075.034-.108.116-.108h4.682v6.777a1.367,1.367,0,0,0,1.364,1.4h6.788v3.841h1.268v-5.1h-.023l-8.144-8.149-.018-.023h-5.917a1.347,1.347,0,0,0-.982.4,1.331,1.331,0,0,0-.4.967v20.58a1.353,1.353,0,0,0,1.379,1.369h7.456v-1.253h-7.456c-.083,0-.116-.034-.116-.116Zm6.051-20.134,6.365,6.357h-6.254c-.075,0-.111-.044-.111-.134Z" transform="translate(-298.432 -2545.531)" fill="#1a62a3" stroke="#1a62a3" stroke-width="0.5"/></g><g transform="translate(23.754 40.769) rotate(-22)"><path d="M2.178,0,6.685,7.581a5.126,5.126,0,0,1,1.388-.216A5.044,5.044,0,1,1,4.5,8.862L0,1.3A11.322,11.322,0,0,0,2.178,0Z" transform="translate(28.047 20.5) rotate(-163)" fill="#1a62a3"/><path d="M11.218,10.065A5.038,5.038,0,0,1,6.507,6.772L.243,7.389c0-.043.009-.087.009-.135A11.656,11.656,0,0,0,0,4.868l6.264-.621a5.025,5.025,0,1,1,4.954,5.818Z" transform="matrix(-0.891, 0.454, -0.454, -0.891, 23.626, 42.011)" fill="#1a62a3"/><path d="M11.218,10.065A5.038,5.038,0,0,1,6.507,6.772L.243,7.389c0-.043.009-.087.009-.135A11.656,11.656,0,0,0,0,4.868l6.264-.621a5.025,5.025,0,1,1,4.954,5.818Z" transform="matrix(0.891, -0.454, 0.454, 0.891, 35.825, 17.754)" fill="#1a62a3"/><path d="M5.184,10.047l-1.4,6.122A11.612,11.612,0,0,0,1.314,15.6L2.72,9.474a5.014,5.014,0,1,1,2.464.573Z" transform="matrix(-0.966, 0.259, -0.259, -0.966, 36.709, 54.452)" fill="#1a62a3"/><path d="M0,8.057A8.06,8.06,0,1,0,8.06,0,8.055,8.055,0,0,0,0,8.057Z" transform="translate(21.442 21.705)" fill="none" stroke="#1a62a3" stroke-width="3"/><path d="M11.218,10.065A5.038,5.038,0,0,1,6.507,6.772L.243,7.389c0-.043.009-.087.009-.135A11.656,11.656,0,0,0,0,4.868l6.264-.621a5.025,5.025,0,1,1,4.954,5.818Z" transform="translate(14.073 31.218) rotate(-150)" fill="#1a62a3"/><path d="M11.192,6.688A5.038,5.038,0,0,0,5.641,5.2L2.087,0c-.033.028-.061.062-.1.093A11.656,11.656,0,0,1,0,1.434l3.551,5.2a5.025,5.025,0,1,0,7.641.056Z" transform="translate(38.75 34.885) rotate(-30)" fill="#1a62a3"/></g></g></g></svg>