<svg xmlns="http://www.w3.org/2000/svg" xmlns:xlink="http://www.w3.org/1999/xlink" width="304.563" height="142.17" viewBox="0 0 304.563 142.17"><defs><filter id="a"><feOffset dy="3" input="SourceAlpha"/><feGaussianBlur stdDeviation="3" result="b"/><feFlood flood-opacity="0.161" result="c"/><feComposite operator="out" in="SourceGraphic" in2="b"/><feComposite operator="in" in="c"/><feComposite operator="in" in2="SourceGraphic"/></filter><clipPath id="d"><path d="M778.858,348.555V426.19a62.355,62.355,0,0,1-124.711,0V348.555Z" transform="translate(-654.147 -348.555)" fill="none"/></clipPath></defs><g transform="translate(-31.22 -5594.771)"><g transform="translate(-14.388 -504.108)"><g data-type="innerShadowGroup"><path d="M0,72.568l44.365-5.291c16.184,7.6,38.905,12.366,64.151,12.366,49,0,88.713-17.834,88.713-39.815,0-22-39.713-39.827-88.713-39.827S19.808,17.824,19.808,39.827c0,7.172,4.307,13.894,11.716,19.709Z" transform="translate(146.902 6112.724)" fill="#fff"/><g transform="matrix(1, 0, 0, 1, 45.61, 6098.88)" filter="url(#a)"><path d="M0,72.568l44.365-5.291c16.184,7.6,38.905,12.366,64.151,12.366,49,0,88.713-17.834,88.713-39.815,0-22-39.713-39.827-88.713-39.827S19.808,17.824,19.808,39.827c0,7.172,4.307,13.894,11.716,19.709Z" transform="translate(101.29 13.84)" fill="#fff"/></g></g><path d="M6.314-6.664a11.091,11.091,0,0,1,4.648-2.282l-.126-1.442a19.924,19.924,0,0,1-2.576.322c-1.26.084-4.144.14-5.474.112.028.322.028,1.008.028,1.358A41.64,41.64,0,0,0,7.252-8.75v.014A16,16,0,0,0,5.138-7.308Zm5.292,5.1a22.98,22.98,0,0,1-4.312.392A12.019,12.019,0,0,1,5.152-1.33,1.742,1.742,0,0,1,3.57-3.01,3.332,3.332,0,0,1,4.7-5.208l-1.19-.56A4.465,4.465,0,0,0,2.156-2.8,2.8,2.8,0,0,0,4.648-.028,15.632,15.632,0,0,0,7.462.154,28.351,28.351,0,0,0,11.718-.14ZM16.058.6c.238-.742.518-1.54.7-2.058.378-1.064,1.862-3.192,3.3-3.192.5,0,.77.406.77,1.19v.182c-.028.49-.042,1.064-.042,1.61A2.29,2.29,0,0,0,23.366.672c1.96,0,3.29-1.666,4.116-4.354a10.25,10.25,0,0,1-1.3-.77C25.55-2.1,24.584-.77,23.422-.77c-.728,0-1.162-.448-1.162-1.344,0-.224.056-1.568.056-1.792,0-1.274-.63-2.072-1.806-2.072a4.189,4.189,0,0,0-2.8,1.428H17.7c.518-1.386,1.666-4.466,2.338-6.076.308-.014.5-.112.574-.308L18.62-11.41c-.1.392-.49,1.61-.784,2.394-.49,1.386-2.24,6.44-3.192,9.184ZM36.54-5.25c0,.546.042,1.344.1,2.128a5.821,5.821,0,0,0-1.33-.182c-1.344,0-2.772.756-2.786,2.17s1.232,2.142,2.758,2.156c2.422,0,2.73-1.54,2.73-2.31A13.04,13.04,0,0,1,40.194.042l.672-1.288A16.129,16.129,0,0,0,38.01-2.758c-.07-.882-.126-1.666-.14-2.646Zm.182,3.892c0,.868-.63,1.218-1.414,1.218-.938,0-1.582-.35-1.582-.994,0-.7.8-1.022,1.554-1.022a3.983,3.983,0,0,1,1.442.28ZM32.3-11.634c-.084.77-.2,1.554-.336,2.24-.364.014-.8.014-1.232.014H29.12v1.274h1.638c.308,0,.672,0,.966-.014a18.212,18.212,0,0,1-2.7,6.258l1.372.5a22.5,22.5,0,0,0,2.814-6.79,28.4,28.4,0,0,0,4.214-.63l-.182-1.33a17.244,17.244,0,0,1-3.78.658c.112-.476.252-1.176.336-1.722a.451.451,0,0,0,.42-.28Zm8.358,3.7a21.24,21.24,0,0,0-5.04.714l.21,1.218a22.152,22.152,0,0,1,4.9-.616Zm3.458-3.136a44.021,44.021,0,0,0-.686,6.8,15.578,15.578,0,0,0,.63,4.914L45.444.42a1.778,1.778,0,0,1-.07-.476,2.317,2.317,0,0,1,.112-.658c.2-.644.658-1.428,1.176-2.618L45.948-4.3c-.182.476-.756,1.792-.98,2.338a15.781,15.781,0,0,1-.126-2.366,33.973,33.973,0,0,1,.728-6.216c.28-.014.42-.1.448-.252ZM48.272-7.91a48.686,48.686,0,0,0,6.1-.5l-.14-1.372a47.092,47.092,0,0,1-6.006.532Zm6.44,6.062a17.246,17.246,0,0,1-1.918.1c-1.61,0-3.36-.084-3.36-1.386a3.088,3.088,0,0,1,1.12-2.086L49.238-5.7a4.394,4.394,0,0,0-1.26,2.744c0,1.162.8,2.156,2.632,2.408a18.706,18.706,0,0,0,2.534.14c.518,0,1.036-.014,1.526-.042Zm2.562-6.566a.537.537,0,0,0,.336-.224c1.526-.154,5.194-.434,6.832-.56-2.31,1.526-4.06,3.836-4.06,5.67,0,2.45,1.512,4.046,5.5,4.564L66.556-.35c-3.262-.392-4.648-1.428-4.648-3.192,0-1.694,1.96-3.78,3.766-4.928a4.247,4.247,0,0,1,2.968-.77l-.014-1.484c-2.1.056-8.652.49-10.08.6-.392.028-.994.042-1.414.042Zm10.038.686a10.019,10.019,0,0,1,1.75,1.918l.672-.546a8.448,8.448,0,0,0-1.792-1.9ZM65.73-6.482a9.747,9.747,0,0,1,1.736,1.918l.686-.532A9.215,9.215,0,0,0,66.36-7.014Zm16.59-1.3a19.845,19.845,0,0,1-4.256.91,16.419,16.419,0,0,1-.434-1.6,17.886,17.886,0,0,0,3.682-.714l-.294-1.2a15.493,15.493,0,0,1-3.64.756c-.1-.518-.168-1.106-.224-1.624.238-.056.378-.168.378-.322L75.67-11.62c.1.728.224,1.484.35,2.1-.532.042-1.344.042-2.016.042-.532,0-1.148-.014-1.736-.042v1.2c.392.014.84.028,1.3.028,1.442,0,2.226-.028,2.674-.07.126.532.336,1.2.462,1.6-.84.056-1.862.084-2.632.084-.8,0-1.89,0-2.688-.028L71.4-5.53c.882.028,1.96.028,2.716.028.868,0,1.988-.042,3-.112A5.341,5.341,0,0,0,78.036-4.3a8.653,8.653,0,0,0-.91-.042c-.182,0-.35,0-.5.014l.308,1.05a5.248,5.248,0,0,1,.672-.042A3.949,3.949,0,0,1,79.94-2.7L80.7-3.808a4.957,4.957,0,0,1-2.17-1.96,20.248,20.248,0,0,0,4.06-.8ZM77.462.756c1.162,0,2-.042,2.632-.084L80.15-.616c-.924.084-2.226.14-3.248.14C75.334-.49,74.256-.854,74.27-1.694A1.753,1.753,0,0,1,75.348-3.01l-.91-.868a2.913,2.913,0,0,0-1.582,2.24c0,1.6,1.736,2.366,4.06,2.394Zm12.166-6.65c1.134-1.022,3.57-3.276,4.424-3.934a.826.826,0,0,0,.392-.154l-.966-1.176-.21.112c-.966.154-4.746.294-6.594.294l.14,1.61a.442.442,0,0,0,.308-.224c1.344-.056,3.962-.182,4.7-.28-1.89,1.75-5.656,5.334-6.762,6.482l.994.98c.364-.406.924-.98,1.288-1.33a7.5,7.5,0,0,1,4.872-1.792c1.582,0,2.632.868,2.632,2.226A2.326,2.326,0,0,1,93.31-.868,2.864,2.864,0,0,0,90.482-3.22a2.226,2.226,0,0,0-2.394,1.96c0,1.33,1.26,2.114,3.08,2.114,2.926,0,5.138-1.428,5.138-3.962a3.282,3.282,0,0,0-3.612-3.416,7.915,7.915,0,0,0-3.066.644ZM89.236-1.26c0-.518.532-.84,1.12-.84A1.77,1.77,0,0,1,92.008-.476a6.346,6.346,0,0,1-1.05.112C90.2-.364,89.236-.546,89.236-1.26ZM104.5-9.24c.2-.014.378-.028.574-.028,2.926,0,4.438,1.792,4.438,4.074,0,2.422-1.456,3.962-4.662,4.592a9.218,9.218,0,0,1,.882,1.19c3.458-.854,5.264-2.506,5.264-5.824,0-2.884-1.89-5.334-5.908-5.334a6.168,6.168,0,0,0-6.356,6.188c0,2.3,1.092,3.542,2.45,3.542,2.352,0,3.78-3.262,4.326-7.854a.376.376,0,0,0,.378-.224ZM101.22-2.226c-.644,0-1.134-.868-1.134-2.2a4.783,4.783,0,0,1,4-4.732C103.8-5.6,102.732-2.226,101.22-2.226ZM119.5-3.29l.28-7.434h-1.848l.28,7.434ZM118.832.168a1.13,1.13,0,0,0,1.12-1.148,1.126,1.126,0,0,0-1.12-1.134A1.115,1.115,0,0,0,117.726-.98,1.118,1.118,0,0,0,118.832.168ZM129.36-3.78a3.053,3.053,0,0,1,.812-2,4.47,4.47,0,0,0,1.33-2.772,2.36,2.36,0,0,0-2.674-2.352,4.093,4.093,0,0,0-2.2.6l.378,1.176a2.72,2.72,0,0,1,1.47-.448,1.2,1.2,0,0,1,1.358,1.26,3.468,3.468,0,0,1-1.008,2.072,3.906,3.906,0,0,0-.924,2.422c0,.112.028.532.042.672h1.442ZM128.632.154a1.011,1.011,0,0,0,1.036-1.078,1.027,1.027,0,0,0-1.036-1.106A1.035,1.035,0,0,0,127.6-.924,1.01,1.01,0,0,0,128.632.154Z" transform="translate(185.729 6157.544)" fill="#1a62a3"/><path d="M-76.975,0V-27.861H-80.6l-6.29,3.367.962,3.145,4.7-2.59h.074V0Zm17.5.407c5.735,0,9.139-5.143,9.139-14.578,0-8.436-2.96-14.134-8.843-14.134-5.772,0-9.213,5.328-9.213,14.43C-68.391-5.328-65.284.407-59.474.407Zm.074-3.441c-2.96,0-4.662-4.07-4.662-10.989,0-6.956,1.924-10.878,4.736-10.878,3.256,0,4.662,4.255,4.662,10.878C-54.664-8.251-55.774-3.034-59.4-3.034Zm13.616-2.294A60.621,60.621,0,0,1-48.411,5.18l2.96-.3A52.982,52.982,0,0,0-41.122-5.735ZM-29.541.407c5.735,0,9.139-5.143,9.139-14.578,0-8.436-2.96-14.134-8.843-14.134-5.772,0-9.213,5.328-9.213,14.43C-38.458-5.328-35.35.407-29.541.407Zm.074-3.441c-2.96,0-4.662-4.07-4.662-10.989,0-6.956,1.924-10.878,4.736-10.878,3.256,0,4.662,4.255,4.662,10.878C-24.731-8.251-25.841-3.034-29.467-3.034ZM-8.747.407C-3.012.407.392-4.736.392-14.171c0-8.436-2.96-14.134-8.843-14.134-5.772,0-9.213,5.328-9.213,14.43C-17.664-5.328-14.556.407-8.747.407Zm.074-3.441c-2.96,0-4.662-4.07-4.662-10.989,0-6.956,1.924-10.878,4.736-10.878,3.256,0,4.662,4.255,4.662,10.878C-3.937-8.251-5.047-3.034-8.673-3.034ZM12.047.407c5.735,0,9.139-5.143,9.139-14.578,0-8.436-2.96-14.134-8.843-14.134-5.772,0-9.213,5.328-9.213,14.43C3.13-5.328,6.238.407,12.047.407Zm.074-3.441c-2.96,0-4.662-4.07-4.662-10.989,0-6.956,1.924-10.878,4.736-10.878,3.256,0,4.662,4.255,4.662,10.878C16.857-8.251,15.747-3.034,12.121-3.034Zm23.031-9.852a1.865,1.865,0,0,0,1.87,1.87,1.865,1.865,0,0,0,1.87-1.87,1.879,1.879,0,0,0-1.87-1.887A1.879,1.879,0,0,0,35.152-12.886Zm1.87,1.275a1.284,1.284,0,0,1-1.275-1.275,1.273,1.273,0,0,1,1.275-1.275A1.273,1.273,0,0,1,38.3-12.886,1.284,1.284,0,0,1,37.022-11.611Zm.425,2.89v-1.615H31.9v-2.958a.45.45,0,0,0,.459-.374l-2.176-.1v3.434H24.629v1.615h5.559v7.463c0,.646-.357.646-1.394.646-.493,0-1.122-.017-1.632-.034A8.582,8.582,0,0,1,27.638.918C30.171.952,31.9.969,31.9-1.292V-8.721ZM33.571-6.2a29,29,0,0,1,3.281,4.981l1.53-.884a32.083,32.083,0,0,0-3.434-4.811Zm-6.885-.578a11.609,11.609,0,0,1-2.941,4.658l1.411.884A14.419,14.419,0,0,0,28.233-6.2Zm26.35-7.072a40.3,40.3,0,0,1-12.291,8.67,7.531,7.531,0,0,1,1.02,1.309A50.319,50.319,0,0,0,47.8-7.361V.986h1.785V-7.99a.464.464,0,0,0,.408-.289c-.1-.034-.306-.119-.459-.187a42.031,42.031,0,0,0,4.692-3.961.638.638,0,0,0,.17.017.508.508,0,0,0,.374-.153Zm5.491,2.635a23.283,23.283,0,0,1,4.93,2.346l.884-1.53a21,21,0,0,0-5.015-2.261ZM60.226.731A.544.544,0,0,0,60.5.323C66.193-1.632,70.307-5.27,72.415-9.911a11.331,11.331,0,0,1-1.564-.986C68.845-6.2,64.867-2.839,59-1.037ZM87.783-6.256A59.591,59.591,0,0,0,81.544-9.01l-.34.476V-13.4c.323-.068.476-.2.493-.391l-2.278-.136V.952H81.2V-7.276a50.469,50.469,0,0,1,5.627,2.669Z" transform="translate(262.388 6235.869)" fill="#1a62a3"/></g><g transform="translate(41.509 5633.169)"><g transform="translate(-10.289 -38.398)"><g transform="translate(0 0)"><g clip-path="url(#d)"><path d="M738.671,353.353c-2.84-.185-12.336-.792-13.9,0a30.364,30.364,0,0,1,1.769-3.321s-11.027,1.054-14.136,2.9-2.923,1.715-3.11,1.846-3.625,3.083-3.625,3.083l-2.459-5.121s-5.5,7.176-5.775,12.538c-2.794,1.684-5.2,2.118-7.949,5.031s-6.52,9.433-6.605,11.078a6.922,6.922,0,0,0,2.485.6s-1.88,15.13-1.683,18.767a20.363,20.363,0,0,0,2.4-.214s2.784,15.451,3.139,17.144a13.956,13.956,0,0,0,2.765-1s4.409,8.3,5.065,8.855,4.278,3.311,4.9,5.4a64,64,0,0,1,1.613,9.142,50.1,50.1,0,0,1-.508,7.431c-.25.979-4.608,4.657-7.026,6.115s-17.912,8.845-19.629,9.868-13.228,5.719-14.724,6.615-8.989,2.356-10.539,5.2-4.035,11.287-4.074,14.928.253,16.763.325,18.913,0,11.114,0,11.114H782.486s-1.749-18.463-3.462-23.881-2.15-13.119-4.99-15.521S749.7,463.242,749.7,463.242l-8.2-5.8-3.355-1.368v-4.077a16.471,16.471,0,0,0,8.347-4.278c3.615-3.593,9.105-13.886,9.788-16.658s2.169-20.339,2.169-20.339l1.217-11.377s2.546.872,2.475-1.385-.061-10.031-.061-10.031l2.544.51s-1.3-6.321-2.362-8-3.058-4.752-3.058-4.752l2.7-.777s-5.845-5.867-7.1-6.576,3.576-3.058,3.576-3.058-9.994-8.194-16.741-8.386c.056-1.309,1.754-2.706,1.754-2.706Z" transform="translate(-664.264 -346.444)" fill="#fff"/><g transform="translate(-12.477 7.371)"><path d="M679.108,377.206a1.725,1.725,0,1,0,1.715-1.907A1.816,1.816,0,0,0,679.108,377.206Z" transform="translate(-605.992 -317.699)" fill="#4c4948"/><path d="M688.567,377.206a1.725,1.725,0,1,0,1.715-1.907A1.817,1.817,0,0,0,688.567,377.206Z" transform="translate(-592.472 -317.699)" fill="#4c4948"/><path d="M668,399.826c-.274-2.1-.462-4.217-.559-6.294l-4.506,2.2,6.207-18.329.029-.083.01-.027v0l.032-.085L665,376.47l10.381-8.265-.007.012q.732-.769,1.545-1.538l-.036.027,3.656-10.342,2.286,5.534,13.83-10.31v5.138l18.716-3.615-4.788,4.242.056.012c.066.015.134.027.2.044l17.137,3.739L722.8,363.5c1.088.8,2.24,1.666,3.493,2.616.372.279.724.578,1.069.884l-.027-.029,5.911,3.928-2.121.6-.029-.034a28.613,28.613,0,0,1,2,3.778l5.459,7.852-3.051-.469a61.775,61.775,0,0,1,1.514,12.74l-.483,2.269-1.871-1.909s-6.307-7.033-8.335-10.456c.661,2.208-.566,7.6-.566,7.6s-5.954-6.586-8.3-9.574c.175,1.217-.68,8.527-.68,8.527s-2.063-1.489-3.258-2.539-7.052-6.9-8.175-8.928a39.161,39.161,0,0,1-1.907-4.023,39.807,39.807,0,0,0-2.957,5.937c-.559,1.914-8.048,12.871-8.048,12.871l-2.558-3.3s-1.487,4.791-2.021,5.743-6.5,11.6-6.5,11.6a5.016,5.016,0,0,0-2.216-2.245c-1.475-.654-3.734,2.216-4.373,3.889s.7,10.06.7,10.06l-.7,3.209s.7,2.184-3.408-9.642c-.466-1.341-.9-2.75-1.29-4.2l-2.252,1.424Z" transform="translate(-629.111 -351.589)" fill="#343434"/><path d="M708.688,411.9c-3.763-2.425-22.275-14.984-22.275-14.984s1.083,5.884,1.708,10.031,3.513,29,3.7,32.4.051,13.9.051,13.9h30.868c0-7.7-3.425-23.378-4.672-27.877C716.724,420.51,716.911,417.191,708.688,411.9Z" transform="translate(-595.551 -286.801)" fill="#b4a28f"/><path d="M683,399.947c-2.6,1.159-26.487,13.371-28.9,15.079s-4.961,7.541-5.072,11.27.253,30.7.253,30.7h78.677s-12.412-22.226-13.784-24.928-13.937-31.839-13.937-31.839l-2.886-5.932S686.1,398.567,683,399.947Z" transform="translate(-649.011 -290.548)" fill="#b4a28f"/><path d="M687.921,400.843h-7.867l-1.509,2.54,5.112,10.414-1.609,29.262,3.7,5.808h17.369l-3.087-11.808-8.641-25.112,1.169-9.7-2.046-2.266Z" transform="translate(-606.797 -282.423)" fill="#ffed61"/></g><g transform="translate(-17.7 2.725)"><path d="M678.766,377.695a2.554,2.554,0,1,1,2.546,2.738A2.651,2.651,0,0,1,678.766,377.695Zm1.662,0a.9.9,0,1,0,.884-1.074A.993.993,0,0,0,680.428,377.695Z" transform="translate(-601.258 -313.542)" fill="#4c4948"/><path d="M678.561,379.175a.832.832,0,0,0,.826-.739,2.98,2.98,0,0,1,1.283-2.318,4.67,4.67,0,0,1,3.765-.238.832.832,0,0,0,.527-1.579,6.3,6.3,0,0,0-5.189.415,4.614,4.614,0,0,0-2.038,3.532.834.834,0,0,0,.731.921C678.5,379.172,678.53,379.175,678.561,379.175Z" transform="translate(-602.738 -315.002)" fill="#4c4948"/><path d="M688.225,377.695a2.554,2.554,0,1,1,2.546,2.738A2.651,2.651,0,0,1,688.225,377.695Zm1.664,0a.9.9,0,1,0,.882-1.074A.993.993,0,0,0,689.889,377.695Z" transform="translate(-587.737 -313.542)" fill="#4c4948"/><path d="M688.023,379.175a.83.83,0,0,0,.824-.739,2.977,2.977,0,0,1,1.283-2.318,4.666,4.666,0,0,1,3.768-.238.832.832,0,0,0,.525-1.579,6.292,6.292,0,0,0-5.187.415,4.613,4.613,0,0,0-2.041,3.532.831.831,0,0,0,.734.918A.624.624,0,0,0,688.023,379.175Z" transform="translate(-589.218 -315.002)" fill="#4c4948"/><path d="M686.008,384.938a3.612,3.612,0,0,0,3.2-2.014.831.831,0,0,0-1.489-.736,1.946,1.946,0,0,1-2.041,1.062.831.831,0,1,0-.258,1.642A3.721,3.721,0,0,0,686.008,384.938Z" transform="translate(-592.747 -303.867)" fill="#4c4948"/><path d="M677.557,372.987a.821.821,0,0,0,.5-.165,13.027,13.027,0,0,1,10.1-1.917.831.831,0,0,0,.4-1.613,14.623,14.623,0,0,0-11.5,2.2.831.831,0,0,0,.5,1.5Z" transform="translate(-604.174 -322.166)" fill="#4c4948"/><path d="M695.626,372.684a.831.831,0,0,0,.537-1.467c-2.364-2-5.984-2.393-7.752-1.492a.831.831,0,1,0,.753,1.482c1.1-.556,4.02-.33,5.925,1.28A.833.833,0,0,0,695.626,372.684Z" transform="translate(-588.122 -321.676)" fill="#4c4948"/><path d="M710.423,380.8a.831.831,0,0,0,.491-1.5c-1.482-1.086-6.647-7.871-8.362-10.492a.832.832,0,0,0-1.518.581,42.9,42.9,0,0,1,.413,6.516,63.606,63.606,0,0,1-7.363-9.44.832.832,0,0,0-1.5.695c.309.984.17,5.328-.143,8.231-3.61-2.587-10.07-9.987-11.187-12.669a.832.832,0,0,0-1.535.641c1.382,3.314,9.389,12.334,13,14.156a.833.833,0,0,0,1.2-.612,56.372,56.372,0,0,0,.5-6.965c2.728,3.838,5.891,7.434,7.23,8.359a.83.83,0,0,0,1.292-.549,25.365,25.365,0,0,0,.068-5.4c2.228,3.049,5.529,7.273,6.916,8.291A.825.825,0,0,0,710.423,380.8Z" transform="translate(-599.985 -331.765)" fill="#4c4948"/><path d="M672.021,388.593a.831.831,0,0,0,.695-.374c.049-.075,4.062-6.311,5.4-11.083a11.161,11.161,0,0,0,1.975,2.206.837.837,0,0,0,1.047.024c2.641-2.048,8.564-12.229,8.928-15.346a.832.832,0,0,0-1.652-.194c-.3,2.541-5.235,11.148-7.781,13.757a8.583,8.583,0,0,1-2.092-3.236.843.843,0,0,0-.131-.35.833.833,0,0,0-1.5.236.685.685,0,0,0-.012.233h-.015c.027,3.248-3.809,10.177-5.563,12.837a.831.831,0,0,0,.238,1.151A.812.812,0,0,0,672.021,388.593Z" transform="translate(-612.088 -330.504)" fill="#4c4948"/><path d="M688.023,418.159a.836.836,0,0,0,.462-.141c4.434-2.978,10.585-15.383,11.355-19.692.447-2.49,1.11-9.081,1.693-14.894.459-4.553.892-8.855,1.152-10.524a.832.832,0,0,0-1.645-.255c-.265,1.713-.7,6.037-1.161,10.611-.581,5.784-1.241,12.341-1.676,14.771-.768,4.3-6.9,16.09-10.645,18.6a.831.831,0,0,0,.466,1.521Z" transform="translate(-589.218 -317.84)" fill="#4c4948"/><path d="M699.264,398.8a5.329,5.329,0,0,0,3.95-1.3.832.832,0,0,0-1.176-1.178c-.457.457-2.424,1.769-8.678-.42-6.63-2.32-14.292-5.731-17.819-7.932a.831.831,0,1,0-.879,1.411c3.617,2.257,11.42,5.736,18.15,8.09A20,20,0,0,0,699.264,398.8Z" transform="translate(-607.687 -295.134)" fill="#4c4948"/><path d="M672.61,392.929a3.182,3.182,0,0,0,.913-.139.832.832,0,0,0-.476-1.594,1.356,1.356,0,0,1-1.346-.294c-1.781-1.467-2.876-6.948-2.388-11.967.126-1.3.544-2.92,1.815-3.236,1.346-.338,3.207.833,4.038,2.092a.831.831,0,1,0,1.387-.916c-1.183-1.79-3.685-3.321-5.826-2.789-1.222.3-2.745,1.363-3.068,4.689-.479,4.915.406,11.287,2.986,13.413A3.06,3.06,0,0,0,672.61,392.929Z" transform="translate(-617.311 -314.938)" fill="#4c4948"/><path d="M670.65,386.839a.831.831,0,0,1,1.115-1.232.569.569,0,0,0,.085.063,2.7,2.7,0,0,0,.294-1.555c0-.18,0-.369,0-.566,0-2.208,0-4.956-2.716-6.343a.832.832,0,0,1,.755-1.482c3.63,1.849,3.625,5.592,3.622,7.827,0,.19,0,.372,0,.547.022,2.2-.809,2.9-1.307,3.124a1.5,1.5,0,0,1-.62.134A1.849,1.849,0,0,1,670.65,386.839Zm1.156-1.127h0Z" transform="translate(-615.253 -312.575)" fill="#4c4948"/><path d="M700.056,390.552a.83.83,0,0,0,.763-.5c.964-2.235.646-8.182.454-10.728a2.817,2.817,0,0,1,1.057.571.831.831,0,0,0,1.4-.588,18.862,18.862,0,0,0-5.264-12.616,8.173,8.173,0,0,1,1.693-.27.869.869,0,0,0,.736-.282.83.83,0,0,0,.192-.753c-.7-2.658-5.638-6.632-9.64-8.537a.831.831,0,0,0-.714,1.5c3.345,1.594,7,4.523,8.3,6.528-.921.158-1.987.435-2.556.59a.832.832,0,0,0-.277,1.47c3.561,2.65,5.4,7.548,5.792,10.869a5.775,5.775,0,0,0-1.594-.333.832.832,0,0,0-.867.906c.223,2.4.617,9.042-.233,11.012a.833.833,0,0,0,.432,1.093A.848.848,0,0,0,700.056,390.552Z" transform="translate(-584.835 -339.544)" fill="#4c4948"/><path d="M723.593,366.294c-2.075-2.7-13.551-7.854-16.75-8.2a.882.882,0,0,1-.79-.632c-.187-.653.25-.977,1.3-1.761.214-.16.449-.333.68-.513-4.477-1.057-15.849-.824-17.142-.214a.831.831,0,0,1-1.168-.921,9.871,9.871,0,0,1,1.149-2.706c-5.5.2-15.72,3.012-18.4,7.05a.833.833,0,0,1-1.387-.921c3.421-5.15,16.092-8.165,21.386-7.767a.83.83,0,0,1,.6,1.324,11.835,11.835,0,0,0-1.244,2.065c4.465-.593,15.451-.4,18.225,1.035a.834.834,0,0,1,.216,1.317,14.057,14.057,0,0,1-1.594,1.339c4.752,1.3,14.1,5.716,16.228,8.491a.831.831,0,1,1-1.317,1.013Zm-16.561-9.851-.031,0Z" transform="translate(-612.431 -349.676)" fill="#4c4948"/><path d="M668.294,364.825a.832.832,0,0,0,.828-.792c.214-4.271,3.457-9.977,5.51-11.875a.832.832,0,0,0-1.13-1.222c-2.361,2.184-5.8,8.192-6.039,13.014a.83.83,0,0,0,.787.872Z" transform="translate(-617.416 -348.19)" fill="#4c4948"/><path d="M668.875,409.041a.8.8,0,0,0,.248-.039.828.828,0,0,0,.544-1.042c-1.572-5.012-3.18-17.5-3.195-17.625a.837.837,0,0,0-.447-.634.824.824,0,0,0-.777.012c-.28.151-.833.452-1.358.727-.156-5.388,1.732-17.885,1.751-18.021a.83.83,0,0,0-.916-.95c-.379.041-.913.078-1.385.08,1.752-6.2,7.747-12.506,10.337-13.257a.832.832,0,0,0-.464-1.6c-3.472,1.006-10.247,8.474-11.727,15.429a.832.832,0,0,0,.612.979,6.851,6.851,0,0,0,1.747.1c-.505,3.488-2.033,14.671-1.521,18.643a.83.83,0,0,0,1.159.653c.328-.143.948-.464,1.5-.755.447,3.294,1.759,12.441,3.1,16.714A.834.834,0,0,0,668.875,409.041Z" transform="translate(-625.98 -339.694)" fill="#4c4948"/><path d="M671.392,387.647a.832.832,0,0,0,.525-1.477c-1.166-.947-4.477-6.542-4.99-8.43a.832.832,0,1,0-1.606.435c.559,2.058,4.023,8.048,5.549,9.285A.816.816,0,0,0,671.392,387.647Z" transform="translate(-620.517 -310.441)" fill="#4c4948"/><path d="M671.8,398.57a.831.831,0,0,0,.819-.7c.6-3.727-.658-12.63-1.81-14.588a.831.831,0,1,0-1.433.843c.879,1.5,2.155,10.031,1.6,13.481a.831.831,0,0,0,.69.952A.857.857,0,0,0,671.8,398.57Z" transform="translate(-614.844 -302.228)" fill="#4c4948"/><path d="M689.775,423.7h.046a.837.837,0,0,0,.673-.411c.07-.121,6.992-11.986,8.709-14.433a.827.827,0,0,0,.107-.743.837.837,0,0,0-.535-.527c-6.27-1.995-22.7-13.114-25.853-17.491a.831.831,0,0,0-1.409.095l-2.728,5.119a.831.831,0,1,0,1.467.782l2.143-4.021c4.592,5.065,18.5,14.2,24.848,16.731-1.9,2.957-5.974,9.87-7.551,12.565l-17.559-23.55a.831.831,0,1,0-1.331.994l18.308,24.558A.828.828,0,0,0,689.775,423.7Z" transform="translate(-615.663 -292.4)" fill="#4c4948"/><path d="M691.866,417.844a.865.865,0,0,0,.26-.041.83.83,0,0,0,.571-.821l-.5-14.073a.831.831,0,1,0-1.662.058l.4,11.192-7.39-10.881a24.3,24.3,0,0,0,5.349-7.1,37.874,37.874,0,0,1,1.574,3.782.831.831,0,1,0,1.572-.539,33.568,33.568,0,0,0-2.585-5.685.831.831,0,0,0-1.53.326c-.277,2.067-4.745,7.842-5.77,8.148a.87.87,0,0,0-.561.522.836.836,0,0,0,.078.751l9.509,14A.835.835,0,0,0,691.866,417.844Z" transform="translate(-597.296 -287.268)" fill="#4c4948"/><path d="M683.181,401.87a16.458,16.458,0,0,0,3.933-.3.831.831,0,1,0-.464-1.6c-.442.129-1.8.325-5.937.194l-.083,0a.817.817,0,0,0-.858.8.831.831,0,0,0,.8.858l.083,0Q682.066,401.87,683.181,401.87Z" transform="translate(-599.82 -277.838)" fill="#4c4948"/><path d="M683.57,411.57c-1.7-.4-3.785-5.5-4.878-8.505a.831.831,0,0,1,1.562-.569c1.353,3.719,3.063,7.137,3.7,7.453a16.909,16.909,0,0,0,6.229-.695c.284-.3.777-2.043.683-6.644a.831.831,0,0,1,1.662-.034c.153,7.344-1.081,7.922-1.608,8.17a19.227,19.227,0,0,1-5.915.948A6.744,6.744,0,0,1,683.57,411.57Zm6.6-2.3Z" transform="translate(-601.436 -275.227)" fill="#4c4948"/><path d="M692.777,432.083a1,1,0,0,0,.146-.012.832.832,0,0,0,.673-.964c-.721-4.089-7.264-22.914-8.007-25.047a.832.832,0,1,0-1.572.547c2.682,7.694,7.373,21.573,7.941,24.789A.833.833,0,0,0,692.777,432.083Z" transform="translate(-593.818 -269.884)" fill="#4c4948"/><path d="M680.641,432.752h.012a.831.831,0,0,0,.821-.841c-.058-4.6.466-12.834.853-18.849.194-3.078.35-5.51.36-6.435a.833.833,0,0,0-.823-.841h-.007a.833.833,0,0,0-.833.824c-.007.882-.16,3.294-.357,6.348-.384,6.039-.913,14.316-.855,18.973A.832.832,0,0,0,680.641,432.752Z" transform="translate(-599.771 -269.476)" fill="#4c4948"/><path d="M700.112,459.506a.833.833,0,0,0,.607-1.4c-1.382-1.475-16.265-29.764-18.514-35.2-.738-1.778-2.058-4.742-3.586-8.172-3.418-7.677-8.1-18.186-8.653-20.948a.831.831,0,1,0-1.63.328c.593,2.942,5.124,13.119,8.765,21.3,1.523,3.421,2.837,6.375,3.566,8.133,2.041,4.927,17.149,33.9,18.84,35.7A.824.824,0,0,0,700.112,459.506Z" transform="translate(-616.19 -287.584)" fill="#4c4948"/><path d="M692.189,453.181a.831.831,0,0,0,.824-.731c1.518-12.285-3.7-48.587-5.184-54.284a.832.832,0,1,0-1.611.42c1.428,5.473,6.605,41.831,5.145,53.662a.831.831,0,0,0,.724.926A.71.71,0,0,0,692.189,453.181Z" transform="translate(-590.644 -281.259)" fill="#4c4948"/><path d="M693.513,444.927a.832.832,0,0,0,.581-1.429c-4.4-4.261-22.965-29.973-25.061-35.9l1.985-2.993a.831.831,0,1,0-1.385-.921l-2.206,3.326a.83.83,0,0,0-.109.68c1.484,5.42,20.781,32.311,25.617,37A.829.829,0,0,0,693.513,444.927Z" transform="translate(-617.664 -273.006)" fill="#4c4948"/><path d="M674.476,414.387a.832.832,0,0,0,.415-1.555l-7.045-4.035,1.339-13.789a.832.832,0,1,0-1.657-.16l-1.39,14.323a.832.832,0,0,0,.413.8l7.512,4.3A.831.831,0,0,0,674.476,414.387Z" transform="translate(-619.312 -286.186)" fill="#4c4948"/><path d="M692.576,445.2a.83.83,0,0,0,.782-.554c1.664-4.664.8-34.711.24-38.887a.843.843,0,0,0-.294-.529l-2.313-1.917a.832.832,0,0,0-1.062,1.28l2.058,1.705c.535,5.039,1.266,33.7-.2,37.791a.833.833,0,0,0,.505,1.062A.869.869,0,0,0,692.576,445.2Z" transform="translate(-585.731 -273.281)" fill="#4c4948"/><path d="M691.774,412.445a.832.832,0,0,0,.792-.578l2.289-7.2a.824.824,0,0,0-.163-.792l-6.173-7.188a.832.832,0,1,0-1.263,1.084l5.874,6.836-2.148,6.758a.831.831,0,0,0,.539,1.045A.843.843,0,0,0,691.774,412.445Z" transform="translate(-589.409 -282.901)" fill="#4c4948"/><path d="M720.633,421.463a.831.831,0,0,0,.719-1.249c-2.286-3.921-5.51-5.889-8.921-7.973-.622-.377-1.253-.763-1.892-1.169-4.956-3.139-21.016-14.71-23.54-16.959a.832.832,0,1,0-1.108,1.241c2.558,2.279,18.767,13.959,23.759,17.122.646.411,1.288.8,1.914,1.186,3.367,2.055,6.278,3.831,8.35,7.388A.83.83,0,0,0,720.633,421.463Z" transform="translate(-591.471 -286.463)" fill="#4c4948"/><path d="M706.68,440.465h.027a.835.835,0,0,0,.807-.858c-.445-14.554-4.9-29.694-5.784-32.58a.831.831,0,1,0-1.589.488c.877,2.852,5.274,17.8,5.709,32.143A.834.834,0,0,0,706.68,440.465Z" transform="translate(-570.758 -268.543)" fill="#4c4948"/><path d="M651.6,412.736a.848.848,0,0,0,.219-.029c4.82-1.314,35.459-15.711,39.749-18.971a.832.832,0,0,0-1.006-1.326c-4.108,3.124-34.7,17.469-39.181,18.691a.832.832,0,0,0,.219,1.635Z" transform="translate(-641.28 -288.838)" fill="#4c4948"/><path d="M647.694,448.918a.832.832,0,0,0,.831-.824c0-.226.233-22.71.012-28.161-.221-5.364,2.718-15.937,4.99-17.955a.832.832,0,0,0-1.105-1.244c-2.833,2.519-5.77,13.806-5.546,19.267.219,5.41-.012,27.85-.015,28.076a.833.833,0,0,0,.824.841Z" transform="translate(-646.861 -276.996)" fill="#4c4948"/><path d="M665.875,430.835h.015a.831.831,0,0,0,.816-.845c-.175-10.658-7.932-24.942-13.378-27.427a.832.832,0,1,0-.69,1.514c4.985,2.274,12.244,16.075,12.407,25.941A.833.833,0,0,0,665.875,430.835Z" transform="translate(-639.301 -274.193)" fill="#4c4948"/><path d="M683.532,395.316c-1.97-.505-3.28-1.589-3.683-3.054h0c-.4-1.465.165-3.066,1.6-4.506a13.323,13.323,0,0,1,11.6-3.195c1.97.5,3.279,1.586,3.683,3.051s-.165,3.066-1.6,4.509a12.34,12.34,0,0,1-5.417,2.978,13.8,13.8,0,0,1-3.656.513A10.241,10.241,0,0,1,683.532,395.316Zm3.778-8.938a10.67,10.67,0,0,0-4.681,2.551,3.13,3.13,0,0,0-1.176,2.893h0a3.125,3.125,0,0,0,2.49,1.88,11.7,11.7,0,0,0,10.009-2.755,2.564,2.564,0,0,0-1.314-4.776,8.6,8.6,0,0,0-2.113-.248A12.252,12.252,0,0,0,687.31,386.378Z" transform="translate(-599.89 -300.24)" fill="#4c4948"/><path d="M684.14,391.743a10.35,10.35,0,0,0,4.63-1.2.832.832,0,0,0-.811-1.453,7.765,7.765,0,0,1-5.126.824.832.832,0,0,0-.452,1.6A6.532,6.532,0,0,0,684.14,391.743Z" transform="translate(-596.956 -293.491)" fill="#4c4948"/></g></g></g></g></g></g></svg>