<svg xmlns="http://www.w3.org/2000/svg" viewBox="0 0 336.44 210.67"><path d="M20.11,63.3v.77H19v1.82H18v-.45H15.81v.5c0,1-.48,1-2.28,1a2.88,2.88,0,0,0-.33-.79H14c.7,0,.78,0,.78-.25v-.5H11.55v-.73h3.27V64H10.64v-.7h4.18v-.6H11.64V62h3.18v-.56h-2.9v-2h2.9v-.5h-4V58.1h4v-.77l1.23.06c0,.09-.07.16-.24.19v.52h4.07v.79H15.81v.5h3v2.07h-3V62H19v1.3Zm-7.26-2.49h2V60h-2Zm5-.78h-2v.78h2.06Zm-2,2.67v.6H18v-.6Zm2.22,2v-.64H15.81v.64Z" fill="#343434"/><path d="M31.43,59.26h-.74a6,6,0,0,1-1.17,1.82,6.56,6.56,0,0,0,2.11.94,3.5,3.5,0,0,0-.61.82,6.67,6.67,0,0,1-2.18-1.13,7.8,7.8,0,0,1-2.26,1.2,5.74,5.74,0,0,0-.36-.5,8,8,0,0,1-.48,1.32l-.66-.31a14.89,14.89,0,0,0,.45-1.58h-.79v4c0,.91-.37,1-1.77,1a3.27,3.27,0,0,0-.28-.92h.67c.4,0,.46,0,.46-.16V63a7.09,7.09,0,0,1-1.43,2.27,5.32,5.32,0,0,0-.47-.92,7.07,7.07,0,0,0,1.59-2.5H22V61h2.64a13.16,13.16,0,0,0-2.2-1.23l.63-.62c.27.11.58.26.89.4a6.64,6.64,0,0,0,.91-.85H22.18v-.83h3.64l.72.42a.42.42,0,0,1-.18.11A8.41,8.41,0,0,1,24.75,60a7.39,7.39,0,0,1,.8.53l-.47.52h1.5a9.73,9.73,0,0,1-.24,1.07,6.72,6.72,0,0,0,1.89-1A6,6,0,0,1,27.34,60a7.3,7.3,0,0,1-.65.71,4.23,4.23,0,0,0-.78-.55,6.69,6.69,0,0,0,1.81-2.83l1.12.34a.22.22,0,0,1-.24.12c-.08.21-.18.42-.28.63h3.11Zm-1.11,4.09h.22l.56.11a1.22,1.22,0,0,1,0,.27c-.3,3.1-.54,3.21-1.92,3.21h-.56a2.36,2.36,0,0,0-.27-.89h1a.42.42,0,0,0,.34-.1c.17-.16.3-.65.42-1.78H28.66A4.14,4.14,0,0,1,26.15,67a2.41,2.41,0,0,0-.56-.71,3.47,3.47,0,0,0,2.09-2.08H26.32v-.82h1.57a8.31,8.31,0,0,0,.15-1l1.18.1c0,.08-.09.14-.24.16a4.94,4.94,0,0,1-.12.77Zm-2.47-4.09a4.39,4.39,0,0,0,1,1.27,5.17,5.17,0,0,0,.86-1.27Z" fill="#343434"/><path d="M35,61.37a9.71,9.71,0,0,1-1.2,1.51,9.48,9.48,0,0,0-.52-1A13.39,13.39,0,0,0,36,57.36l1.16.4a.27.27,0,0,1-.28.11,19.41,19.41,0,0,1-1,2.05l.35.1c0,.09-.09.14-.24.17V67H35ZM43,61l-3.11.33c.4,2.57,1.11,4.61,2,4.67.28,0,.41-.57.47-1.88a2.7,2.7,0,0,0,.81.57c-.17,1.8-.5,2.3-1.33,2.3-1.73,0-2.54-3-2.88-5.47l-2.4.26-.1-.92,2.4-.25a27.72,27.72,0,0,1-.18-3.15l1.29.06c0,.12-.08.17-.26.19a23.76,23.76,0,0,0,.14,2.8L43,60.18Zm-1.9-3.52a12,12,0,0,1,1.67,1.67l-.78.5a9.72,9.72,0,0,0-1.62-1.71Z" fill="#343434"/><path d="M46.38,62.8c-.32.35-.65.68-1,1a6.65,6.65,0,0,0-.61-.79,12,12,0,0,0,2.79-3.43l1.09.46a.25.25,0,0,1-.27.09,14.49,14.49,0,0,1-1,1.46l.21.07a.26.26,0,0,1-.25.16V67h-1Zm1.87-5a.25.25,0,0,1-.26.09,14.66,14.66,0,0,1-2.66,2.44,5.4,5.4,0,0,0-.54-.78,10,10,0,0,0,2.37-2.22Zm6.17,3.14v.92H52.86v3.92c0,1-.43,1.17-2.5,1.15a4.43,4.43,0,0,0-.3-1h1.1c.64,0,.71,0,.71-.21V61.86h-3.3v-.92ZM54,58v.93H48.94V58Z" fill="#343434"/><path d="M8.48,120.37H3.78v-.73l.81-.85c1.63-1.67,2.53-2.74,2.53-3.9a1.26,1.26,0,0,0-1.1-1.4H5.79a2.49,2.49,0,0,0-1.49.6l-.36-.85A3.35,3.35,0,0,1,6,112.52a2.12,2.12,0,0,1,2.28,1.93h0a1.61,1.61,0,0,1,0,.31c0,1.41-1,2.6-2.3,4l-.64.64H8.48Z" fill="#343434"/><path d="M13,120.37H11.91v-2H8.67v-.77l3-4.91H13v4.78h1v.9H13Zm-3.23-2.94h2.12v-2.32q0-.67,0-1.35h0c-.23.5-.43.88-.64,1.29l-1.5,2.36Z" fill="#343434"/><path d="M17.35,112.32v6.92H15.18v.89h-.9v-7.81Zm-.92.88H15.18v2.13h1.25Zm-1.25,5.17h1.25v-2.2H15.18ZM21,114.88h2.52v.88h-6v-.88H20v-1.16H17.92v-.86H20v-1.19l1.2.08c0,.09-.07.14-.23.17v.94h2.17v.86H21Zm1.6,1.06c0,.09-.07.14-.24.18v.71h1.15v.87H22.37v2.54c0,.94-.39,1.08-2.18,1.08a3.35,3.35,0,0,0-.32-.92h.82c.71,0,.72,0,.72-.18V117.7H17.57v-.87h3.84v-.94Zm-3.24,4.29a7.29,7.29,0,0,0-1.26-1.8l.78-.45a7.76,7.76,0,0,1,1.32,1.74Z" fill="#343434"/><path d="M27.93,115.73H25v5.55H24v-9.19h3.86ZM27,112.82H25v.72h2ZM25,115h2v-.78H25Zm7.67-2.93v8c0,1.14-.49,1.21-2.31,1.21a3.85,3.85,0,0,0-.3-1H27.27v.52h-.89v-4.39h3.93v3.84H31c.69,0,.7,0,.7-.25v-4.3h-3V112Zm-3.31,5.1H27.27V118H29.4Zm-2.13,2.39H29.4v-.86H27.27Zm4.47-6.76h-2v.73h2Zm-2,2.22h2v-.8h-2Z" fill="#343434"/><path d="M40.62,116.48l.73.41a.39.39,0,0,1-.17.14,6.54,6.54,0,0,1-2.13,2.45,14.1,14.1,0,0,0,3.68.87,4.47,4.47,0,0,0-.61,1,12.28,12.28,0,0,1-4.1-1.21,13.19,13.19,0,0,1-3.92,1.2,3.63,3.63,0,0,0-.6-.9,13.21,13.21,0,0,0,3.55-.89,7,7,0,0,1-1.81-1.83l.71-.29H34.89v-.86h5.54Zm-6.18-1V117h-.91v-2.3h1.55a7.58,7.58,0,0,0-.57-1.14l.85-.25a5.37,5.37,0,0,1,.68,1.3l-.27.08h1.87a6.32,6.32,0,0,0-.45-1.33l.87-.2a6,6,0,0,1,.52,1.41l-.48.12h1.73a13.29,13.29,0,0,0,.86-1.68l1.15.39c0,.06-.12.1-.26.1a13.06,13.06,0,0,1-.73,1.19H42.5V117h-1v-1.5Zm7.58-3h-.25a56.89,56.89,0,0,1-7.92.74,2.91,2.91,0,0,0-.22-.83,55,55,0,0,0,7.69-.74Zm-5.85,4.85A5.79,5.79,0,0,0,38.05,119a5.28,5.28,0,0,0,1.76-1.63Z" fill="#343434"/><path d="M44.32,115.71a13.75,13.75,0,0,1-1.15,1.49,7.18,7.18,0,0,0-.5-1,12.7,12.7,0,0,0,2.57-4.52l1.13.39a.26.26,0,0,1-.27.11,19.23,19.23,0,0,1-.93,2.07l.35.09c0,.08-.09.14-.25.15v6.75h-1ZM52.45,114v1H51.14v5.14c0,.65-.15.93-.57,1.08a7.39,7.39,0,0,1-2.15.17,4,4,0,0,0-.35-1h1.2c.81,0,.88,0,.88-.3V115H46v-1h4.13v-2.17l1.23.07c0,.1-.07.15-.24.17v2ZM48,118.79a10.53,10.53,0,0,0-1.44-2.55l.85-.42a11.76,11.76,0,0,1,1.5,2.5Z" fill="#343434"/><path d="M2.42,87.73v-1h8.1v1h-3c0,.07-.09.12-.23.13a5.85,5.85,0,0,1-3.12,4.6,6.51,6.51,0,0,0-.79-.69,4.78,4.78,0,0,0,2.83-4.1Zm7.25-2.64A5.8,5.8,0,0,0,9,84v1H3.33V84H9a3.07,3.07,0,0,0-.41-.47l.49-.37a7.79,7.79,0,0,1,1.13,1.55ZM11,84.75a8.3,8.3,0,0,0-1.1-1.52l.47-.35a8.55,8.55,0,0,1,1.15,1.52Z" fill="#343434"/><path d="M20.43,86.79H18.32v.53a5.23,5.23,0,0,1-3.25,5.19,5.11,5.11,0,0,0-.75-.72,4.4,4.4,0,0,0,3-4.45v-.55h-2.9v2.39h-1V86.79h-1.9v-1H13.4V83.64l1.3.08a.31.31,0,0,1-.28.24v1.85H17.3V83.52l1.3.07c0,.1-.1.19-.28.22v2h2.11Zm-1.51-2.92A6.61,6.61,0,0,1,20,85.21l-.45.36a8,8,0,0,0-1.12-1.35ZM20,83a6.74,6.74,0,0,1,1.15,1.35l-.45.36a7,7,0,0,0-1.13-1.35Z" fill="#343434"/><path d="M29.29,84.31a.31.31,0,0,1-.22.09H29a23.18,23.18,0,0,1-2.84,2.39l.28.12a.29.29,0,0,1-.24.17V92.5H25.09v-5a32.1,32.1,0,0,1-3.64,2.1,4.88,4.88,0,0,0-.62-.8,24.13,24.13,0,0,0,7.42-5.23Z" fill="#343434"/><path d="M30.31,84.25a12.87,12.87,0,0,1,3,1.36l-.54.93a14,14,0,0,0-3-1.42Zm-.2,7a10.69,10.69,0,0,0,7.15-6,7.72,7.72,0,0,0,1,.59A11.86,11.86,0,0,1,31,92.09a.31.31,0,0,1-.16.24Z" fill="#343434"/><path d="M40.09,87.22a11.7,11.7,0,0,1-1.2,1.51c-.16-.33-.33-.65-.52-1a13.17,13.17,0,0,0,2.68-4.53l1.16.4a.25.25,0,0,1-.27.11,19.56,19.56,0,0,1-1,2.06l.35.1c0,.08-.08.13-.23.16V92.8h-1Zm8-.32-3.1.32c.38,2.54,1.1,4.57,1.92,4.58.28,0,.42-.57.48-1.88a2.73,2.73,0,0,0,.81.58c-.18,1.8-.5,2.3-1.34,2.3-1.72,0-2.53-3-2.87-5.47l-2.4.26-.1-.93,2.39-.24c-.11-1-.16-2.1-.17-3.15l1.29.06c0,.11-.08.16-.27.18a21.8,21.8,0,0,0,.15,2.8L48,86Zm-1.91-3.56A11.19,11.19,0,0,1,47.89,85l-.78.5a10.14,10.14,0,0,0-1.62-1.72Z" fill="#343434"/><path d="M50,88.65a11.8,11.8,0,0,1-1,1,6.73,6.73,0,0,0-.62-.79,12.12,12.12,0,0,0,2.79-3.42l1.09.45A.25.25,0,0,1,52,86a14.63,14.63,0,0,1-1,1.47l.2.06c0,.08-.09.15-.24.16V92.8H50Zm1.87-5c0,.07-.12.1-.26.09A14,14,0,0,1,49,86.18a6.78,6.78,0,0,0-.54-.78,9.77,9.77,0,0,0,2.37-2.21ZM58,86.79v.92H56.53v3.92c0,1.05-.43,1.17-2.5,1.15a3.87,3.87,0,0,0-.31-1h1.1c.65,0,.72,0,.72-.22V87.71h-3.3v-.92Zm-.4-3v.93h-5v-.93Z" fill="#343434"/><path d="M1.29,141.31c.5.52,1,1.11,1.52,1.72a13.78,13.78,0,0,0,.58-2.38l1.14.23c0,.08-.1.13-.25.13a14.42,14.42,0,0,1-.81,2.87,11.21,11.21,0,0,1,1.13,1.76l-.78.66A10.6,10.6,0,0,0,3,144.87a6.64,6.64,0,0,1-2.27,2.41,4.6,4.6,0,0,0-.59-.73A5.65,5.65,0,0,0,2.4,144c-.56-.75-1.16-1.47-1.79-2.16Zm8.47-1.08v.94H8.58v5c0,1.09-.42,1.26-2.27,1.26a4.32,4.32,0,0,0-.32-1H7c.6,0,.64,0,.64-.24v-5H4.88v-.74H.19v-.9H2.24v-1.7l1.17.08c0,.08-.07.13-.24.16v1.47h2v.7h2.4v-2.41l1.2.06c0,.09-.07.14-.23.17v2.18Zm-4.07,1.91a8.7,8.7,0,0,1,1.15,2.25l-.85.42a8.55,8.55,0,0,0-1.1-2.3Z" fill="#343434"/><path d="M12,140v1.73a12.4,12.4,0,0,1-1.07,5.66,3.86,3.86,0,0,0-.83-.55,10.81,10.81,0,0,0,.92-5.11V139.1H14.8v-1.28l1.25.07c0,.09-.07.14-.24.17v1h3.9V140Zm1.73,3.09a9.12,9.12,0,0,1-.86,3.36l-.87-.4a7.87,7.87,0,0,0,.85-3.15ZM15.25,146c0,.35.06.42.39.42h1.07c.34,0,.4-.26.43-1.75a2.86,2.86,0,0,0,.87.4c-.09,1.74-.33,2.22-1.23,2.22H15.45c-1,0-1.21-.3-1.21-1.28v-3.7l1.2.07c0,.08-.08.14-.24.16Zm-.19-5.9a12.6,12.6,0,0,1,2.55,1.51l-.69.72a13.77,13.77,0,0,0-2.52-1.6Zm3.87,6.37a11.46,11.46,0,0,0-1.33-3.38l.87-.33a10.62,10.62,0,0,1,1.42,3.32Z" fill="#343434"/><path d="M27.24,139.23a.35.35,0,0,1-.17.15,16.57,16.57,0,0,1-2,3.46,38.78,38.78,0,0,1,3.59,3.31l-.9.78a30.61,30.61,0,0,0-3.35-3.29,16.73,16.73,0,0,1-3.78,3.29,7,7,0,0,0-.75-.79,14,14,0,0,0,5.78-6.32H20.85v-1h5.39l.18-.07Z" fill="#343434"/><path d="M35,145.72a18.47,18.47,0,0,0,2.22-.19v1.05c-.62.07-1.69.11-2.16.11H32.7c-1.67,0-2.45-.71-2.45-2.25v-6l1.33.08c0,.11-.1.2-.3.21v3.18a30.64,30.64,0,0,0,4.77-2l.7,1h-.3a36.49,36.49,0,0,1-5.17,1.93v1.55c0,1,.45,1.28,1.45,1.28Zm2.2-7.94a1.12,1.12,0,0,1,1.13,1.11h0a1.12,1.12,0,0,1-1.09,1.1h0a1.13,1.13,0,0,1-1.13-1.12h0a1.12,1.12,0,0,1,1.11-1.13h0Zm.77,1.13a.76.76,0,0,0-.75-.77h0a.76.76,0,0,0-.77.75h0a.77.77,0,1,0,1.54,0Z" fill="#343434"/><path d="M38.65,141.94h8.57v1H39.06a.4.4,0,0,1-.33.18Z" fill="#343434"/><path d="M54.31,143.76a30.11,30.11,0,0,0-3.4-1.6v4.93H49.84v-9l1.37.08c0,.11-.1.19-.3.23v3l.21-.29a34.27,34.27,0,0,1,3.77,1.67Zm-.94-5a8.77,8.77,0,0,1,1.34,1.45l-.49.42a9.06,9.06,0,0,0-1.31-1.46Zm1.4-.9a8.7,8.7,0,0,1,1.34,1.44l-.49.4a11.27,11.27,0,0,0-1.32-1.44Z" fill="#343434"/><path d="M4.37,170.49l.09.83-1.69.48v2.64c0,1-.38,1.15-2.16,1.15a3.88,3.88,0,0,0-.3-.93h.88c.52,0,.59,0,.59-.23v-2.38l-1.3.34a.2.2,0,0,1-.15.18L0,171.47l1.79-.39V169H.12v-1H1.79v-2H3c0,.09-.07.16-.24.18V168H4.28v1H2.77v1.92Zm5.37-3.65v1H7.92v6.56c0,1.11-.39,1.24-2.64,1.24a4.37,4.37,0,0,0-.34-1H6.15c.72,0,.77,0,.77-.27v-6.56H4v-.95Z" fill="#343434"/><path d="M11.87,169.49a15.54,15.54,0,0,1-1.69,1.07,4.49,4.49,0,0,0-.59-.77A11.55,11.55,0,0,0,13.92,166l1.34.08a.28.28,0,0,1-.24.19,11.89,11.89,0,0,0,4.39,3.4,4.6,4.6,0,0,0-.64.88,15.46,15.46,0,0,1-1.69-1.06v.76H11.87Zm-.6,6.11v-4.2h6.44v4.2h-1v-.41H12.22v.41Zm5.65-6.25A11.82,11.82,0,0,1,14.43,167a11.72,11.72,0,0,1-2.38,2.39Zm-.21,2.92H12.22v2h4.49Z" fill="#343434"/><path d="M26.33,170.09c0,1.46,0,2.81-1.4,2.81a3.81,3.81,0,0,1-1.55-.42,4.86,4.86,0,0,0,.14-.85,2.85,2.85,0,0,0,1.21.37.53.53,0,0,0,.52-.43,10.87,10.87,0,0,0,.07-1.71l-3,.5c0,3.12,0,3.78,1.68,3.84h.54a19.17,19.17,0,0,0,2.73-.19v1a22.8,22.8,0,0,1-2.61.12c-1.62,0-3.1,0-3.3-2.3,0-.53-.06-1.38-.08-2.28l-1.91.38-.15-1c.5-.07,1.34-.22,2-.34V167l1.35.12c0,.12-.1.18-.28.22v2.08l3-.5c0-.86-.07-1.84-.13-2.62l1.29.06c0,.1-.07.15-.22.2,0,.66.05,1.47.07,2.19l2.09-.32.08,1c-.57.06-1.34.16-2.15.27Z" fill="#343434"/><path d="M29.91,174v-3.14a8.23,8.23,0,0,1-.86.19,3.22,3.22,0,0,0-.46-.75,5,5,0,0,0,2.5-.9H29.92l-.05.12H29a13.93,13.93,0,0,0,.63-1.78h2v-.51H29.06v-.61h2.58V166l1.12.07c0,.08-.08.13-.23.16v.38h1.41V166l1.16.07c0,.08-.08.13-.23.17v.38h2.27v1.72H34.87v.49H37.3l.52.06v.24c-.09,1-.2,1.32-.85,1.38h-.2V174Zm2.72.5c-.06.06-.11.06-.26.06a18.9,18.9,0,0,1-3.12,1,6.75,6.75,0,0,0-.64-.67,13.13,13.13,0,0,0,3-.9Zm-2.31-6.2-.17.49h1.37a2.07,2.07,0,0,0,.12-.49Zm5.43,2.89v-.53h-4.9v.53Zm0,1.11v-.55h-4.9v.55Zm0,1.12v-.56h-4.9v.56Zm-1.81-4H32.25a2.38,2.38,0,0,1-.55.67h2.24Zm0-.6v-.49H32.52a2.63,2.63,0,0,1-.07.49Zm-1.41-1.61v.51h1.41v-.51Zm4.32,8.4A20.38,20.38,0,0,0,34,174.53l.78-.5c1.07.31,2.13.67,3.16,1.08Zm-.6-8.4H34.87v.51h1.38Zm-.33,2.88a.67.67,0,0,0-.1-.23h.56c.34,0,.4,0,.46-.46h-2v.66Z" fill="#343434"/><path d="M39.63,169.56v-1.11a6.06,6.06,0,0,1-.83.77,6.06,6.06,0,0,0-.74-.6A7.34,7.34,0,0,0,40.23,166l1.1.38a.22.22,0,0,1-.25.09c-.12.23-.26.45-.4.68h6.43V168h-1v1.57H47.5v.88H46.08V172h1.26v.89h-9V172h1.27v-1.57h-1.4v-.88Zm.66,3.91A5.43,5.43,0,0,1,39,175.6l-.93-.39a4.6,4.6,0,0,0,1.24-2Zm.22-5.48v1.57h1V168Zm0,2.45V172h1v-1.57Zm.88,5.05a11.22,11.22,0,0,0-.21-2l.9-.09a11,11,0,0,1,.26,1.9Zm1.93-7.5h-1v1.57h1Zm0,2.45h-1V172h1Zm.54,5.06a10.94,10.94,0,0,0-.58-1.95l.91-.15a10.46,10.46,0,0,1,.64,1.91Zm1.32-5.94V168h-1v1.57Zm0,2.45v-1.57h-1V172Zm1.49,3.59a13.5,13.5,0,0,0-1.31-2.11l.92-.3a12.35,12.35,0,0,1,1.38,2.06Z" fill="#343434"/><path d="M50.43,170.79c.35.29,1.4,1.27,1.63,1.52l-.57.79a14.8,14.8,0,0,0-1.06-1.31v3.8h-.94v-3.72a9.18,9.18,0,0,1-1.44,2.43,5.15,5.15,0,0,0-.49-1,10.24,10.24,0,0,0,1.75-2.88H47.74v-.92h1.75V166l1.17.07c0,.09-.08.14-.23.17v3.32h1.65v.92H50.43Zm-1.92-4.12a8.28,8.28,0,0,1,.65,2.23l-.8.23a9.87,9.87,0,0,0-.6-2.27Zm3.89.27a.25.25,0,0,1-.25.12,13.73,13.73,0,0,1-.9,2.13c-.19-.07-.48-.2-.67-.26a14.56,14.56,0,0,0,.77-2.31Zm4.88,5.72-1.36.26v2.66H55v-2.49l-2.77.51-.16-.92,2.93-.53V166l1.2.07c0,.08-.08.15-.25.18V172l1.19-.21ZM53,169.39a8.26,8.26,0,0,1,1.65,1.53,5.89,5.89,0,0,0-.73.59,7.87,7.87,0,0,0-1.6-1.61Zm.3-2.66a7.37,7.37,0,0,1,1.45,1.5l-.74.55a7.27,7.27,0,0,0-1.41-1.57Z" fill="#343434"/><path d="M20,195.58v.79c.37.38,1.29,1.47,1.51,1.75l-.58.79a13.33,13.33,0,0,0-.93-1.42v4.58H19v-4.63a10.28,10.28,0,0,1-1.36,2.76,5.1,5.1,0,0,0-.48-.89,10.54,10.54,0,0,0,1.72-3.74H17.42v-.92H19v-2.18l1.17.06c0,.09-.07.14-.23.17v2h1.4v.92Zm1.82-2.53h4.76V202h-1v-.57H22.72V202h-.94Zm3.79.93H22.72v1.54h2.85Zm-2.85,2.43V198h2.85v-1.59Zm0,4.08h2.85v-1.6H22.72Z" fill="#343434"/><path d="M38.32,197.52H34.06a6,6,0,0,1-.38.64h3.91l.53.09v.25c-.17,2.14-.33,3-.61,3.26s-.59.35-1.68.32a2,2,0,0,0-.22-.79h.82a.33.33,0,0,0,.31-.11c.17-.17.31-.78.43-2.26h-.68a7.22,7.22,0,0,1-1.91,3.22,3.13,3.13,0,0,0-.7-.56,5.92,5.92,0,0,0,1.82-2.66h-.83a8.29,8.29,0,0,1-2.41,2.79,3.05,3.05,0,0,0-.66-.58,6.64,6.64,0,0,0,2.2-2.21h-.88a6.37,6.37,0,0,1-1.35,1.19,5.5,5.5,0,0,0-.62-.56,4.8,4.8,0,0,0,1-.74h0c-1,.51-2.16,1-2.89,1.36a.21.21,0,0,1-.13.19l-.42-1.06c.37-.14.83-.32,1.34-.54V195.6h-1.2v-.92H30v-2.2l1.15.07c0,.08-.08.14-.24.16v2H32v.92H30.9v2.8l1-.42a8.52,8.52,0,0,0,.2.84,5.77,5.77,0,0,0,1-1.3H31.74v-.83h6.58Zm-.74-4.76v3.42H32.75v-3.42Zm-.9,1.37v-.67H33.62v.67Zm0,1.36v-.69H33.62v.69Z" fill="#343434"/><rect x="66.73" y="49.19" width="90.18" height="161.23" fill="#fcfcfc" stroke="#707070" stroke-width="0.5"/><rect x="66.98" y="11.19" width="89.46" height="37.89" fill="#343434"/><path d="M110.54,36.34h-1.63l-.92-3h-3.13l-.88,3H102.4l3.12-10.21h1.9Zm-2.8-4.19-.8-2.67c-.19-.66-.36-1.38-.51-2h0c-.15.63-.31,1.37-.48,2l-.82,2.68Z" fill="#fff"/><path d="M118.48,28a.41.41,0,0,1-.19.18,13.55,13.55,0,0,1-1.77,3.06c.65.44,1.84,1.33,2.17,1.58l-.74,1a18.69,18.69,0,0,0-1.6-1.48v5.19h-1.26v-4.7a11.85,11.85,0,0,1-1.83,1.48,4.75,4.75,0,0,0-.64-1.17,11.36,11.36,0,0,0,4.14-4.45H113V27.53h2.1V25l1.56.09c0,.11-.09.19-.31.23v2.19h1.11l.2-.05Zm3.92,7.93h3v1.25h-7.64V35.89h3.3V30.57h-2.75V29.32h2.75V25.13l1.62.11c0,.11-.11.19-.32.21v3.88h2.73v1.24H122.4Z" fill="#fff"/><path d="M122.05,142.6a8.05,8.05,0,0,1-16.1,0h0a8,8,0,0,1,8-8h0a8,8,0,0,1,8,8Z" fill="none" stroke="#1a62a3" stroke-linecap="round" stroke-linejoin="round" stroke-width="2"/><path d="M122.19,62a8,8,0,1,1-8-8h0A8,8,0,0,1,122.19,62Z" fill="none" stroke="#1a62a3" stroke-linecap="round" stroke-linejoin="round" stroke-width="2"/><path d="M121.9,93h0L117,88.1l4.88-4.88h0a.5.5,0,0,0,0-.71h0l-2.31-2.31a.5.5,0,0,0-.68,0h0L114,85.08l-4.88-4.88h0a.5.5,0,0,0-.71,0h0l-2.31,2.3a.5.5,0,0,0,0,.71h0L111,88.1,106.1,93h0a.5.5,0,0,0,0,.71h0L108.41,96a.5.5,0,0,0,.71,0h0L114,91.12,118.89,96h0a.5.5,0,0,0,.68,0h0l2.3-2.31a.5.5,0,0,0,0-.71h0Z" fill="#ddd"/><path d="M121.9,174.64h0l-4.9-4.88,4.88-4.88h0a.5.5,0,0,0,0-.71h0l-2.31-2.31a.5.5,0,0,0-.68,0h0L114,166.74l-4.88-4.88h0a.5.5,0,0,0-.71,0h0l-2.31,2.3a.5.5,0,0,0,0,.71h0l4.88,4.88-4.88,4.89h0a.5.5,0,0,0,0,.71h0l2.31,2.31a.5.5,0,0,0,.68,0h0l4.88-4.88,4.88,4.88h0a.5.5,0,0,0,.71,0h0l2.31-2.31a.5.5,0,0,0,0-.71h0Z" fill="#ddd"/><path d="M86.3,193.47v7.79c0,1.17-.5,1.31-2.84,1.29a4,4,0,0,0-.41-1h1.27c.89,0,1,0,1-.31v-1.92H80.59a5.65,5.65,0,0,1-1.92,3.24,3.72,3.72,0,0,0-.72-.71c1.74-1.4,1.9-3.46,1.9-5.1v-3.29Zm-5.45,3.4a12.79,12.79,0,0,1-.09,1.52h4.51v-1.52Zm4.42-2.45H80.85v1.52h4.42Z" fill="#343434"/><path d="M91.77,199.39v2.48a5.77,5.77,0,0,0,1.91-1.2l.86.5a.32.32,0,0,1-.2.08,6.39,6.39,0,0,1-2,1.28,5.2,5.2,0,0,0-.63-.61H89.4v.46h-.82v-2.8l-.34.15a3.48,3.48,0,0,0-.51-.7,6.13,6.13,0,0,0,2-1.25l-.86-.61c-.18.15-.36.3-.56.44a5,5,0,0,0-.58-.55,5.24,5.24,0,0,0,1.88-2.26l1,.3c0,.07-.1.11-.22.1l-.19.36h1.34c.19.1.38.18.57.26a.26.26,0,0,1-.1.13,6.62,6.62,0,0,1-1,1.75c.59.43,1.14.85,1.5,1.17l-.57.67Zm-3-4.71v.86H88v-1.65h1.73V193l1.15.07q0,.12-.24.15v.72h1.74v1.65h-.82v-.86Zm2.7,4.46c-.3-.26-.67-.55-1.06-.85a7.26,7.26,0,0,1-1.07.85Zm-.55,2V199.9H89.41v1.26Zm-1.21-4.92-.29.36.88.59a5,5,0,0,0,.61-.95Zm3.09-1.11h1.35c.06-.29.13-.61.18-.89h-1.9v-.84h5v.84H95.32c-.07.26-.15.59-.26.89h2v5.44H92.81Zm3.32,1.59v-.84H93.69v.84Zm0,1.54v-.84H93.69v.84Zm0,1.56V199H93.69v.85Zm.73,2.77a10.84,10.84,0,0,0-1.69-1.4l.73-.45a13,13,0,0,1,1.73,1.33Z" fill="#343434"/><path d="M99.59,197.57a2,2,0,0,1-1.15-1.72,2.1,2.1,0,0,1,2.14-2.06h.15a1.94,1.94,0,0,1,2.15,1.71h0a.61.61,0,0,1,0,.19,2,2,0,0,1-1.19,1.78h0a2.17,2.17,0,0,1,1.44,2,2.3,2.3,0,0,1-2.34,2.26h-.18a2.18,2.18,0,0,1-2.44-1.89h0v-.17a2.26,2.26,0,0,1,1.42-2.09Zm2.36,2.06c0-.87-.57-1.35-1.41-1.62a1.58,1.58,0,0,0-1.16,1.53,1.28,1.28,0,0,0,1.18,1.37h.1a1.23,1.23,0,0,0,1.29-1.17h0v-.11Zm-2.38-3.85c0,.71.5,1.13,1.23,1.37a1.45,1.45,0,0,0,1-1.33,1.07,1.07,0,0,0-.93-1.18h-.15a1.08,1.08,0,0,0-1.12,1v.12Z" fill="#343434"/><path d="M103.92,197.8c0-2.53,1-4,2.56-4s2.45,1.58,2.45,3.92c0,2.61-.94,4-2.53,4S103.92,200.17,103.92,197.8Zm3.81,0c0-1.84-.39-3-1.29-3s-1.31,1.09-1.31,3,.47,3,1.29,3C107.42,200.8,107.73,199.36,107.73,197.8Z" fill="#343434"/><path d="M111.49,200.06a14.76,14.76,0,0,1-1.2,2.94l-.82.08a17.21,17.21,0,0,0,.73-2.91Z" fill="#343434"/><path d="M112.23,197.8c0-2.53,1-4,2.55-4s2.46,1.58,2.46,3.92c0,2.61-.95,4-2.54,4S112.23,200.17,112.23,197.8Zm3.81,0c0-1.84-.39-3-1.3-3s-1.31,1.09-1.31,3,.47,3,1.29,3c1,0,1.28-1.44,1.28-3Z" fill="#343434"/><path d="M118,197.8c0-2.53,1-4,2.55-4s2.45,1.58,2.45,3.92c0,2.61-.94,4-2.53,4S118,200.17,118,197.8Zm3.8,0c0-1.84-.39-3-1.29-3s-1.31,1.09-1.31,3,.47,3,1.29,3C121.49,200.8,121.8,199.36,121.8,197.8Z" fill="#343434"/><path d="M123.77,197.8c0-2.53,1-4,2.55-4s2.45,1.58,2.45,3.92c0,2.61-.94,4-2.53,4S123.77,200.17,123.77,197.8Zm3.8,0c0-1.84-.39-3-1.29-3s-1.31,1.09-1.31,3,.47,3,1.29,3C127.26,200.8,127.57,199.36,127.57,197.8Z" fill="#343434"/><path d="M138.54,193.64v7.7c0,1.1-.51,1.21-2.43,1.21a3,3,0,0,0-.36-1h.95c.84,0,.86,0,.86-.26v-2.9h-6.69v4.13h-1V193.6Zm-7.67,1v2.86h2.8v-2.9Zm3.76,2.86h2.93v-2.9h-2.93Z" fill="#343434"/><path d="M149.07,197.38a3,3,0,0,1-5.09.73,2.06,2.06,0,0,0-1.64-.8,2.13,2.13,0,0,0-1.81,1.3l-.9-.5a3.12,3.12,0,0,1,2.72-1.84,3.18,3.18,0,0,1,2.37,1.11,2.11,2.11,0,0,0,1.64.8,2.13,2.13,0,0,0,1.81-1.3Z" fill="#343434"/><path d="M121.9,120.86h0L117,116l4.88-4.88h0a.5.5,0,0,0,0-.71h0l-2.31-2.31a.49.49,0,0,0-.69,0h0L114,113l-4.88-4.88h0a.5.5,0,0,0-.71,0h0l-2.31,2.3a.5.5,0,0,0,0,.71h0L111,116l-4.88,4.89h0a.5.5,0,0,0,0,.71h0l2.31,2.31a.49.49,0,0,0,.69,0h0L114,119l4.88,4.88h0a.5.5,0,0,0,.71,0h0l2.31-2.31a.5.5,0,0,0,0-.71Z" fill="#ddd"/><rect x="156.71" y="11.19" width="89.4" height="38.25" fill="#343434"/><rect x="156.45" y="48.93" width="89.67" height="161.48" fill="#fff" stroke="#707070" stroke-width="0.5"/><path d="M195,30.87a2.56,2.56,0,0,1,2.05,2.55,2.7,2.7,0,0,1-.89,2.06,5,5,0,0,1-3.48,1,16.65,16.65,0,0,1-2-.12v-10a12.8,12.8,0,0,1,2.39-.22c3.11,0,3.65,1.53,3.65,2.55A2.4,2.4,0,0,1,195,30.83Zm-1.86-.48c1.22,0,2-.68,2-1.63,0-1.22-1-1.53-1.95-1.53a4.77,4.77,0,0,0-1,.08v3.08Zm-.95,4.8a5.8,5.8,0,0,0,.93.05c1.24,0,2.31-.52,2.31-1.86s-1.16-1.85-2.35-1.85h-.89Z" fill="#fff"/><path d="M205.21,28a.35.35,0,0,1-.19.17,13.4,13.4,0,0,1-1.77,3.07c.65.44,1.84,1.32,2.17,1.58l-.74,1a18.69,18.69,0,0,0-1.6-1.48v5.19h-1.26v-4.7A12.27,12.27,0,0,1,200,34.31a4.79,4.79,0,0,0-.65-1.17,11.36,11.36,0,0,0,4.14-4.45h-3.76V27.53h2.1V25l1.56.09c0,.11-.09.19-.31.23v2.19h1.11l.2-.05Zm3.92,7.93h3.05v1.25h-7.64V35.89h3.3V30.56h-2.75V29.32h2.75V25.13l1.62.11c0,.11-.11.19-.32.21v3.87h2.73v1.24h-2.73Z" fill="#fff"/><path d="M210.21,87.84a8,8,0,0,1-16.08,0h0a8.06,8.06,0,0,1,8-8h0a8,8,0,0,1,8,8Z" fill="none" stroke="#1a62a3" stroke-linecap="round" stroke-linejoin="round" stroke-width="2"/><path d="M210.21,115.81a8,8,0,0,1-16.08,0h0a8,8,0,0,1,8-8h0a8,8,0,0,1,8,8Z" fill="none" stroke="#1a62a3" stroke-linecap="round" stroke-linejoin="round" stroke-width="2"/><path d="M210.3,175.41h0l-4.89-4.88,4.89-4.88h0a.51.51,0,0,0,0-.71h0l-2.3-2.31a.5.5,0,0,0-.71,0h0l-4.89,4.88-4.88-4.88h0a.5.5,0,0,0-.71,0h0l-2.31,2.3a.5.5,0,0,0,0,.71h0l4.89,4.88-4.89,4.89h0a.5.5,0,0,0,0,.71h0l2.31,2.31a.5.5,0,0,0,.71,0h0l4.88-4.88,4.89,4.88h0a.5.5,0,0,0,.68,0h0l2.31-2.31a.51.51,0,0,0,0-.71Z" fill="#ddd"/><path d="M172.26,193.47v7.79c0,1.17-.5,1.31-2.84,1.29a4,4,0,0,0-.41-1h1.27c.89,0,.95,0,.95-.32v-1.92h-4.68a5.65,5.65,0,0,1-1.92,3.24,3.51,3.51,0,0,0-.73-.71c1.75-1.4,1.91-3.46,1.91-5.1v-3.29Zm-5.45,3.4a9.62,9.62,0,0,1-.09,1.52h4.51v-1.52Zm4.42-2.45h-4.42v1.52h4.42Z" fill="#343434"/><path d="M177.73,199.39v2.49a6,6,0,0,0,1.91-1.2l.86.5a.3.3,0,0,1-.2.08,6.39,6.39,0,0,1-2,1.28,6,6,0,0,0-.62-.61h-2.27v.46h-.83v-2.8l-.34.15a3.22,3.22,0,0,0-.51-.7,6.3,6.3,0,0,0,2-1.25c-.29-.22-.59-.42-.86-.62-.19.17-.38.31-.56.45a5,5,0,0,0-.58-.55,5.38,5.38,0,0,0,1.87-2.27l1,.3c0,.08-.1.12-.23.1l-.18.36h1.33c.26.12.42.2.58.26a.29.29,0,0,1-.1.12,5.85,5.85,0,0,1-1,1.75c.6.44,1.14.86,1.5,1.17l-.56.68Zm-3-4.7v.86h-.8V193.9h1.73v-1l1.15.07c0,.09-.08.14-.24.16v.72h1.74v1.65h-.82v-.86Zm2.7,4.46c-.3-.27-.67-.56-1.06-.85a8,8,0,0,1-1.07.85Zm-.55,2v-1.26h-1.52v1.26Zm-1.21-4.93c-.09.13-.19.24-.29.36l.88.6a4.87,4.87,0,0,0,.61-1Zm3.09-1.1h1.35l.18-.9h-1.9v-.84h5v.84h-2.15c-.07.27-.15.6-.26.9h2v5.43h-4.25Zm3.32,1.59v-.85h-2.44v.85Zm0,1.54v-.85h-2.44v.85Zm0,1.55V199h-2.44v.85Zm.73,2.78a9.83,9.83,0,0,0-1.69-1.4l.73-.46a14,14,0,0,1,1.73,1.34Z" fill="#343434"/><path d="M186.34,201.65V195h0l-1.3.72-.27-.87,1.75-.93h1v7.72Z" fill="#343434"/><path d="M189.88,197.8c0-2.52,1-4,2.56-4s2.45,1.58,2.45,3.92c0,2.62-.94,4-2.53,4S189.88,200.17,189.88,197.8Zm3.81,0c0-1.83-.39-3-1.29-3s-1.31,1.08-1.31,3,.47,3,1.29,3c1,0,1.31-1.49,1.31-3.09Z" fill="#343434"/><path d="M195.65,197.8c0-2.52,1-4,2.56-4s2.45,1.58,2.45,3.92c0,2.62-.94,4-2.54,4S195.65,200.17,195.65,197.8Zm3.81,0c0-1.83-.39-3-1.29-3s-1.32,1.08-1.32,3,.48,3,1.3,3c1,0,1.31-1.49,1.31-3.09Z" fill="#343434"/><path d="M203.22,200.06A14.83,14.83,0,0,1,202,203l-.82.08a17.33,17.33,0,0,0,.73-2.92Z" fill="#343434"/><path d="M204,197.8c0-2.52.95-4,2.55-4s2.45,1.58,2.45,3.92c0,2.62-.94,4-2.53,4S204,200.17,204,197.8Zm3.8,0c0-1.83-.39-3-1.29-3s-1.31,1.08-1.31,3,.47,3,1.29,3C207.49,200.85,207.8,199.4,207.8,197.8Z" fill="#343434"/><path d="M209.73,197.8c0-2.52,1-4,2.55-4s2.45,1.58,2.45,3.92c0,2.62-.94,4-2.53,4S209.73,200.17,209.73,197.8Zm3.8,0c0-1.83-.39-3-1.29-3s-1.31,1.08-1.31,3,.47,3,1.29,3c1,0,1.31-1.49,1.31-3.09Z" fill="#343434"/><path d="M215.5,197.8c0-2.52.95-4,2.55-4s2.45,1.58,2.45,3.92c0,2.62-.94,4-2.53,4S215.5,200.17,215.5,197.8Zm3.8,0c0-1.83-.39-3-1.29-3s-1.31,1.08-1.31,3,.47,3,1.29,3c1,0,1.31-1.49,1.31-3.09Z" fill="#343434"/><path d="M230.27,193.64v7.7c0,1.11-.51,1.21-2.43,1.21a3.52,3.52,0,0,0-.36-1h.94c.85,0,.87,0,.87-.27v-2.9H222.6v4.14h-1v-8.93Zm-7.67,1v2.86h2.8v-2.9Zm3.76,2.86h2.93v-2.9h-2.93Z" fill="#343434"/><path d="M240.79,197.38a3,3,0,0,1-3.93,1.59,3.06,3.06,0,0,1-1.15-.86,2,2,0,0,0-2.8-.36,2.05,2.05,0,0,0-.65.86l-.9-.49a3,3,0,0,1,5.09-.73,2,2,0,0,0,2.81.35h0a2,2,0,0,0,.63-.85Z" fill="#343434"/><path d="M210.35,66.59h0l-4.88-4.88,4.88-4.88h0a.5.5,0,0,0,0-.71h0l-2.3-2.31a.5.5,0,0,0-.71,0h0l-4.89,4.88-4.88-4.88h0a.5.5,0,0,0-.71,0h0l-2.31,2.3a.5.5,0,0,0,0,.68h0l4.88,4.88-4.88,4.89h0a.5.5,0,0,0,0,.71h0l2.31,2.31a.51.51,0,0,0,.71,0h0l4.88-4.89,4.89,4.89h0a.5.5,0,0,0,.7,0h0l2.3-2.32a.49.49,0,0,0,0-.69h0Z" fill="#ddd"/><path d="M210.35,148.28h0l-4.88-4.88,4.88-4.88h0a.5.5,0,0,0,0-.71h0l-2.3-2.31a.5.5,0,0,0-.71,0h0l-4.89,4.88-4.88-4.88h0a.5.5,0,0,0-.71,0h0l-2.31,2.3a.5.5,0,0,0,0,.68h0l4.88,4.88-4.88,4.89h0a.5.5,0,0,0,0,.68h0l2.31,2.31a.51.51,0,0,0,.71,0h0l4.88-4.89,4.89,4.89h0a.5.5,0,0,0,.7,0h0l2.3-2.32a.49.49,0,0,0,0-.69h0Z" fill="#ddd"/><rect x="246.12" width="90.07" height="48.93" fill="#1a62a3"/><rect x="246.26" y="48.93" width="90.18" height="161.74" fill="#fff"/><rect x="246.51" y="49.19" width="89.67" height="161.23" fill="none" stroke="#707070" stroke-width="0.5"/><path d="M300.3,62.12a8.05,8.05,0,1,1-8.1-8h.05a8,8,0,0,1,8.05,8v0Z" fill="none" stroke="#1a62a3" stroke-linecap="round" stroke-linejoin="round" stroke-width="2"/><path d="M300.3,88.1a8,8,0,0,1-7.95,8.05h-.1a8,8,0,0,1-8.05-8v-.1h0a8,8,0,0,1,8-8h.05a8,8,0,0,1,8.05,8Z" fill="none" stroke="#1a62a3" stroke-linecap="round" stroke-linejoin="round" stroke-width="2"/><path d="M299.94,116.49a8,8,0,0,1-7.95,8.05h-.1a8,8,0,0,1-8.05-8v-.1h0a8.07,8.07,0,0,1,8.05-8h0a8,8,0,0,1,8.05,8Z" fill="none" stroke="#1a62a3" stroke-linecap="round" stroke-linejoin="round" stroke-width="2"/><path d="M299.94,142.6a8,8,0,0,1-7.95,8.05h-.1a8.05,8.05,0,0,1,0-16.1h0a8,8,0,0,1,8.05,7.95h0v.1Z" fill="none" stroke="#1a62a3" stroke-linecap="round" stroke-linejoin="round" stroke-width="2"/><path d="M300.3,170.08a8,8,0,0,1-16.1,0h0a8,8,0,0,1,8-8h.05A8,8,0,0,1,300.3,170v.08Z" fill="none" stroke="#1a62a3" stroke-linecap="round" stroke-linejoin="round" stroke-width="2"/><path d="M265.05,193.23V201c0,1.17-.5,1.32-2.84,1.3a4,4,0,0,0-.41-1h1.27c.89,0,.95,0,.95-.32v-1.92h-4.67a5.76,5.76,0,0,1-1.92,3.25,4.15,4.15,0,0,0-.73-.72c1.74-1.4,1.91-3.46,1.91-5.1v-3.28Zm-5.45,3.4a12.75,12.75,0,0,1-.09,1.51H264v-1.51Zm4.42-2.46H259.6v1.52H264Z" fill="#343434"/><path d="M270.52,199.14v2.49a6,6,0,0,0,1.91-1.2l.86.5a.33.33,0,0,1-.19.08,6.69,6.69,0,0,1-2,1.28,5.28,5.28,0,0,0-.63-.62H268.2v.47h-.83v-2.8l-.34.15a2.92,2.92,0,0,0-.51-.7,6.13,6.13,0,0,0,2-1.25c-.29-.22-.58-.42-.86-.62-.18.17-.37.31-.55.45a5.12,5.12,0,0,0-.59-.55,5.27,5.27,0,0,0,1.88-2.27l1,.3c0,.08-.1.12-.22.1l-.19.36h1.34l.57.26a.23.23,0,0,1-.1.12,5.85,5.85,0,0,1-1,1.75c.59.44,1.14.86,1.5,1.17l-.57.68Zm-3-4.71v.87h-.8v-1.66h1.72v-.94l1.15.07c0,.08-.07.14-.23.16v.72h1.74v1.65h-.82v-.86Zm2.7,4.47c-.31-.27-.68-.56-1.07-.85a7.26,7.26,0,0,1-1.07.85Zm-.55,2v-1.26h-1.52v1.26Zm-1.19-4.9-.29.36.87.6a5.74,5.74,0,0,0,.62-1Zm3.08-1.1h1.36c.06-.29.12-.61.17-.9h-1.9v-.84h5V194h-2.14c-.08.27-.16.6-.26.9h2v5.43h-4.25Zm3.33,1.59v-.85h-2.44v.85Zm0,1.53v-.84h-2.44V198Zm0,1.56v-.85h-2.44v.85Zm.73,2.77a11.4,11.4,0,0,0-1.7-1.4l.73-.45a11.85,11.85,0,0,1,1.74,1.34Z" fill="#343434"/><path d="M281.11,201.4H280v-2h-3.23v-.77l3-4.91h1.33v4.78h1v.9h-1Zm-3.24-2.94H280v-2.32a12.18,12.18,0,0,1,.05-1.35h0c-.24.5-.43.87-.65,1.29l-1.48,2.35Z" fill="#343434"/><path d="M287.2,193.68v1h-2.7l-.26,1.84h.51a2.4,2.4,0,0,1,2.61,2.14v.26a2.65,2.65,0,0,1-2.64,2.66h-.18a3.69,3.69,0,0,1-1.81-.43l.27-.9a3.28,3.28,0,0,0,1.5.39,1.58,1.58,0,0,0,1.65-1.5V199c0-1-.68-1.62-2-1.62a7.42,7.42,0,0,0-.94.06l.49-3.73Z" fill="#343434"/><path d="M290.24,199.81a14.5,14.5,0,0,1-1.2,2.95l-.82.08a16.42,16.42,0,0,0,.73-2.92Z" fill="#343434"/><path d="M291,197.55c0-2.52,1-4,2.56-4s2.45,1.58,2.45,3.92c0,2.62-.94,4-2.53,4S291,199.92,291,197.55Zm3.81,0c0-1.84-.39-3-1.29-3s-1.32,1.09-1.32,3,.48,3,1.3,3c1,0,1.29-1.49,1.29-3.09Z" fill="#343434"/><path d="M296.75,197.55c0-2.52,1-4,2.56-4s2.45,1.58,2.45,3.92c0,2.62-.94,4-2.53,4S296.75,199.92,296.75,197.55Zm3.81,0c0-1.84-.39-3-1.29-3s-1.32,1.09-1.32,3,.48,3,1.3,3c1,0,1.31-1.49,1.31-3.09Z" fill="#343434"/><path d="M302.52,197.55c0-2.52,1-4,2.56-4s2.45,1.58,2.45,3.92c0,2.62-.94,4-2.54,4S302.52,199.92,302.52,197.55Zm3.81,0c0-1.84-.39-3-1.29-3s-1.32,1.09-1.32,3,.47,3,1.3,3c1,0,1.31-1.45,1.31-3Z" fill="#343434"/><path d="M317.3,193.39v7.7c0,1.11-.51,1.21-2.43,1.21a3.52,3.52,0,0,0-.36-1h.94c.84,0,.86,0,.86-.26v-2.9h-6.69v4.13h-1v-8.92Zm-7.68,1v2.86h2.8v-2.86Zm3.77,2.86h2.92v-2.86h-2.92Z" fill="#343434"/><path d="M327.82,197.13a3,3,0,0,1-5.09.73,2,2,0,0,0-2.81-.35h0a2,2,0,0,0-.63.85l-.9-.49a3,3,0,0,1,3.93-1.59,3.06,3.06,0,0,1,1.15.86,2,2,0,0,0,2.8.36,2.05,2.05,0,0,0,.65-.86Z" fill="#343434"/><line x1="66.98" y1="48.93" x2="156.65" y2="48.93" fill="none" stroke="#707070" stroke-width="0.5"/><line x1="156.7" y1="48.93" x2="246.37" y2="48.93" fill="none" stroke="#707070" stroke-width="0.5"/><line x1="66.98" y1="75.03" x2="156.65" y2="75.03" fill="none" stroke="#707070" stroke-width="0.5"/><line x1="156.7" y1="75.03" x2="246.37" y2="75.03" fill="none" stroke="#707070" stroke-width="0.5"/><line x1="246.27" y1="75.03" x2="335.94" y2="75.03" fill="none" stroke="#707070" stroke-width="0.5"/><line x1="66.74" y1="100.67" x2="156.41" y2="100.67" fill="none" stroke="#707070" stroke-width="0.5"/><line x1="156.45" y1="100.67" x2="246.12" y2="100.67" fill="none" stroke="#707070" stroke-width="0.5"/><line x1="246.02" y1="100.67" x2="335.69" y2="100.67" fill="none" stroke="#707070" stroke-width="0.5"/><line x1="66.74" y1="129.23" x2="156.41" y2="129.23" fill="none" stroke="#707070" stroke-width="0.5"/><line x1="156.45" y1="129.23" x2="246.12" y2="129.23" fill="none" stroke="#707070" stroke-width="0.5"/><line x1="246.02" y1="129.23" x2="335.69" y2="129.23" fill="none" stroke="#707070" stroke-width="0.5"/><line x1="66.49" y1="154.87" x2="156.16" y2="154.87" fill="none" stroke="#707070" stroke-width="0.5"/><line x1="156.19" y1="154.87" x2="245.86" y2="154.87" fill="none" stroke="#707070" stroke-width="0.5"/><line x1="245.77" y1="154.87" x2="335.44" y2="154.87" fill="none" stroke="#707070" stroke-width="0.5"/><line x1="66.99" y1="184.39" x2="156.66" y2="184.39" fill="none" stroke="#707070" stroke-width="0.5"/><line x1="156.71" y1="184.39" x2="246.38" y2="184.39" fill="none" stroke="#707070" stroke-width="0.5"/><line x1="246.28" y1="184.39" x2="335.95" y2="184.39" fill="none" stroke="#707070" stroke-width="0.5"/><line x1="251.63" y1="29.28" x2="251.63" y2="22.87" fill="none" stroke="#fff" stroke-linecap="round" stroke-miterlimit="10" stroke-width="1.39"/><line x1="255.63" y1="27.27" x2="255.63" y2="24.07" fill="none" stroke="#fff" stroke-linecap="round" stroke-miterlimit="10" stroke-width="1.39"/><line x1="262.2" y1="30.69" x2="262.2" y2="23.26" fill="none" stroke="#fff" stroke-linecap="round" stroke-miterlimit="10" stroke-width="1.39"/><line x1="253.59" y1="30.92" x2="253.59" y2="21.47" fill="none" stroke="#fff" stroke-linecap="round" stroke-miterlimit="10" stroke-width="1.39"/><line x1="257.66" y1="29.77" x2="257.66" y2="19.64" fill="none" stroke="#fff" stroke-linecap="round" stroke-miterlimit="10" stroke-width="1.39"/><line x1="259.77" y1="30.5" x2="259.77" y2="24.27" fill="none" stroke="#fff" stroke-linecap="round" stroke-miterlimit="10" stroke-width="1.39"/><path d="M268.45,27c.18,0,.61.56.74.65a2.94,2.94,0,0,1-3.37.71,2.89,2.89,0,0,1-1.67-2.79,2.9,2.9,0,0,1,1.75-2.79,3,3,0,0,1,3.22.56c-.2.19-.5.95-.88.74a1.82,1.82,0,0,0-1.78-.27c-1.11.54-1.17,2.27-.46,3.16a1.63,1.63,0,0,0,1.73.41C268,27.37,268.18,27.07,268.45,27Z" fill="#fff"/><path d="M270.81,25c.25-.53,1-1,1.49-.6l-.08.93c0,.24-.34.13-.5.13a.77.77,0,0,0-.83.54v2.56h-1.26V24.36c.2,0,.85-.06,1,.07S270.77,24.86,270.81,25Z" fill="#fff"/><path d="M273.69,26.69a1,1,0,0,0,1.65.83c.6-.39.68,0,1,.39a2.43,2.43,0,0,1-3.31.15,2.17,2.17,0,0,1,2.21-3.63,1.85,1.85,0,0,1,1.11,2,.23.23,0,0,1-.27.23Zm1.58-.73a.79.79,0,1,0-1.57,0Z" fill="#fff"/><path d="M276.93,25a2.34,2.34,0,0,1,3-.2c.76.65.35,2.95.45,3.82a3.44,3.44,0,0,1-.85-.05c-.12-.05-.19-.31-.24-.43-.64.66-2.06.86-2.5-.11-.5-1.41,1.18-1.87,2.36-1.85.1-1.05-.73-1-1.42-.61C277.31,25.72,277.11,25.28,276.93,25Zm2.26,1.91c-2.14,0-1.19,1.69,0,.58Z" fill="#fff"/><path d="M285.7,28.57h-1.26V25.23h-1.76v2.09c0,.41.32.37.61.24s.45.61.54.71a2,2,0,0,1-1.7.28,1.13,1.13,0,0,1-.7-1.14V25.24c-.74.05-.58-.14-.59-.74l.67-.14c.37-1.23-.05-1.25,1.18-1.22v1.23h3v4.2Zm.17-5.36a.76.76,0,0,1-1.52,0A.76.76,0,0,1,285.87,23.21Z" fill="#fff"/><path d="M290.54,24.36l-1.63,4.2h-1.14l-1.63-4.2c.28.05,1.29-.16,1.39.22.18.62.7,2.16.82,2.77.12-.61.67-2.15.85-2.77C289.3,24.21,290.27,24.41,290.54,24.36Z" fill="#fff"/><path d="M291.84,26.69a1,1,0,0,0,1.65.83c.6-.39.68,0,1,.39a2.43,2.43,0,0,1-3.31.15,2.17,2.17,0,0,1,2.21-3.63,1.85,1.85,0,0,1,1.11,2,.23.23,0,0,1-.27.23Zm1.58-.73a.79.79,0,1,0-1.57,0Z" fill="#fff"/><path d="M301.17,27c.18,0,.61.56.74.65a2.94,2.94,0,0,1-3.37.71,2.89,2.89,0,0,1-1.67-2.79,3,3,0,0,1,5-2.23c-.2.19-.5.94-.87.74a1.82,1.82,0,0,0-1.78-.27,2.11,2.11,0,0,0-.79,2.57,1.61,1.61,0,0,0,2.32.89C300.87,27.23,301,27.05,301.17,27Z" fill="#fff"/><path d="M304.21,24.3a2.15,2.15,0,0,1,2,3.06,2.2,2.2,0,0,1-4,0A2.16,2.16,0,0,1,304.21,24.3Zm0,3.4c.7,0,.83-.54.84-1.24s-.14-1.21-.84-1.23-.85.53-.86,1.23S303.5,27.68,304.21,27.7Z" fill="#fff"/><path d="M308.14,24.82a1.58,1.58,0,0,1,2.28-.07c.65.67.27,3,.37,3.81h-1.26V25.89c0-.81-.87-.78-1.3-.33v3H307V24.35h.78C308,24.34,308.09,24.62,308.14,24.82Z" fill="#fff"/><path d="M314.69,25.36c-.22.34-.55,0-.81-.1-1.25-.4-1.45,1.41-1,2.11a.9.9,0,0,0,1.37,0c.33-.25.6.32.78.5a2.08,2.08,0,0,1-3.68-1.45A2.11,2.11,0,0,1,315,24.91Z" fill="#fff"/><path d="M317,23.21a.76.76,0,0,1-1.52,0A.76.76,0,0,1,317,23.21Zm-.13,1.15v4.2h-1.26v-4.2Z" fill="#fff"/><path d="M318.75,26.69a1,1,0,0,0,1.65.83c.6-.4.68,0,1,.39a2.43,2.43,0,0,1-3.31.15,2.17,2.17,0,0,1,2.21-3.63,1.85,1.85,0,0,1,1.11,2,.23.23,0,0,1-.27.23Zm1.57-.73a.79.79,0,1,0-1.57,0Z" fill="#fff"/><path d="M323.26,25c.25-.53,1-1,1.49-.6l-.08.93c0,.24-.34.13-.5.13a.77.77,0,0,0-.83.54v2.56h-1.26V24.36c.2,0,.85-.06,1,.07S323.21,24.86,323.26,25Z" fill="#fff"/><path d="M329,24.49c0,.6.1.67-.56.79.37,1.21-1,1.92-2,1.71-.8.74,2,.08,2.39,1,.63,1.64-1.59,2.28-2.83,1.91-1-.15-1.59-1.34-.45-1.78a.77.77,0,0,1,.23-1.36,1.28,1.28,0,0,1,.34-2.4,2.35,2.35,0,0,1,1.63.11Zm-1.24,4.23c-.07-.48-1.12-.29-1.49-.38-.41.25-.33.74.17.77S327.69,29.28,327.75,28.72Zm-1-2.48c.79.07.79-1.19,0-1.1C326,25.06,326,26.31,326.77,26.24Z" fill="#fff"/><path d="M330.47,26.69a1,1,0,0,0,1.65.83c.6-.4.68,0,1,.39a2.43,2.43,0,0,1-3.31.15,2.17,2.17,0,0,1,2.21-3.63,1.85,1.85,0,0,1,1.11,2,.23.23,0,0,1-.27.23Zm1.58-.73a.79.79,0,1,0-1.57,0Z" fill="#fff"/></svg>