<?xml version="1.0" encoding="utf-8"?>
<!-- Generator: Adobe Illustrator 26.0.3, SVG Export Plug-In . SVG Version: 6.00 Build 0)  -->
<svg version="1.1" id="レイヤー_1" xmlns="http://www.w3.org/2000/svg" xmlns:xlink="http://www.w3.org/1999/xlink" x="0px"
	 y="0px" viewBox="0 0 299.9 92.3" style="enable-background:new 0 0 299.9 92.3;" xml:space="preserve">
<style type="text/css">
	.st0{fill:#F8C332;}
	.st1{fill:#343434;}
	.st2{fill:#1A62A3;}
</style>
<g transform="translate(-10.669 -277.247)">
	<g transform="translate(10.669 308.132) rotate(-31)">
		<g transform="translate(0 0)">
			<path class="st0" d="M56.1,14.5c0,1.1-2.5,2-2.6,3.1c-0.1,1.1,2.1,2.5,1.8,3.6c-0.2,1.1-2.8,1.4-3.2,2.4c-0.4,1,1.4,2.9,1,3.9
				s-3.1,0.8-3.7,1.7s0.8,3.2,0.1,4c-0.7,0.8-3.2,0-3.9,0.8s0,3.3-0.8,3.9s-3.1-0.7-4-0.1s-0.7,3.2-1.7,3.7c-1,0.5-2.9-1.3-3.9-1
				s-1.4,3-2.4,3.2c-1,0.2-2.5-1.9-3.6-1.8c-1.1,0.1-2,2.6-3.1,2.6s-2-2.5-3.1-2.6c-1.1-0.1-2.5,2.1-3.6,1.8
				c-1.1-0.2-1.4-2.8-2.4-3.2s-2.9,1.4-3.9,1s-0.8-3.1-1.7-3.7s-3.2,0.8-4,0.1s0-3.2-0.8-3.9c-0.8-0.8-3.3,0-3.9-0.8s0.7-3.1,0.1-4
				s-3.2-0.7-3.7-1.7c-0.5-1,1.3-2.9,1-3.9s-3-1.4-3.2-2.4c-0.2-1,1.9-2.5,1.8-3.6c-0.1-1.1-2.6-2-2.6-3.1c0-1.1,2.5-2,2.6-3.1
				c0.1-1.1-2.1-2.5-1.8-3.6c0.2-1.1,2.8-1.4,3.2-2.4s-1.4-2.9-1-3.9s3.1-0.8,3.7-1.7S2-3.3,2.7-4.2s3.2,0,3.9-0.8s0-3.3,0.8-3.9
				c0.8-0.7,3.1,0.7,4,0.1c0.9-0.6,0.7-3.2,1.7-3.7s2.9,1.3,3.9,1c1-0.4,1.4-3,2.4-3.2c1-0.2,2.5,1.9,3.6,1.8c1.1-0.1,2-2.6,3.1-2.6
				s2,2.5,3.1,2.6c1.1,0.1,2.5-2.1,3.6-1.8c1.1,0.2,1.4,2.8,2.4,3.2c1,0.4,2.9-1.4,3.9-1c1,0.5,0.8,3.1,1.7,3.7s3.2-0.8,4-0.1
				s0,3.2,0.8,3.9s3.3,0,3.9,0.8c0.7,0.8-0.7,3.1-0.1,4s3.2,0.7,3.7,1.7s-1.3,2.9-1,3.9s3,1.4,3.2,2.4c0.2,1-1.9,2.5-1.8,3.6
				C53.7,12.5,56.1,13.4,56.1,14.5z"/>
			<path class="st1" d="M6.8,13.5c-0.3,0.4-0.5,0.8-0.8,1.2c-0.1-0.1-0.3-0.2-0.4-0.3c0.5-0.8,1-1.6,1.4-2.5c0.1,0,0.1-0.1,0.2-0.1
				l-0.7-0.4l-0.2,0.1H5.5l0-1.7c0.2,0,0.2-0.1,0.3-0.2L4.5,9.4l0,2H2.9v0.9h2.8c-0.7,1.5-1.8,2.7-3.1,3.7C2.8,16.4,3,16.7,3.2,17
				c0.5-0.4,0.9-0.8,1.3-1.2l0,3.9h1v-4.3c0.4,0.5,0.9,1.1,1.1,1.4L7.2,16c-0.1-0.1-0.5-0.5-0.8-0.8c0.3-0.3,0.6-0.6,0.9-1
				c0,0,0.1,0,0.1,0c0.1,0,0.1,0,0.2-0.1L6.8,13.5z M6.9,10.4v1h1.8c-0.1,2.9-0.3,6-2.6,7.6c0.3,0.2,0.6,0.5,0.8,0.8
				c2.6-1.9,2.8-5.4,2.9-8.4h2c-0.1,4.8-0.2,6.7-0.6,7.1c-0.1,0.1-0.2,0.2-0.4,0.2c-0.3,0-0.8,0-1.5-0.1c0.2,0.3,0.3,0.7,0.3,1.1
				c0.3,0,0.6,0,0.9,0c1,0,1.3-0.2,1.6-0.6c0.4-0.6,0.5-2.5,0.7-8.3c0-0.1,0-0.3,0-0.4l-0.6,0L6.9,10.4z M14.6,19.6h1v-0.7l7.1,0
				v0.7h1.1v-9.6l-9.2,0L14.6,19.6z M15.6,11.1l7.1,0v6.8h-7.1L15.6,11.1z M17,16.4l4.2,0v-3.8l-4.2,0V16.4z M17.9,15.5v-2h2.3l0,2
				L17.9,15.5z M34.8,15V9.9h-5.1v8.4c-0.5,0.1-0.9,0.2-1.2,0.2l0.4,1.1c0.1,0,0.2-0.1,0.2-0.2c0.9-0.2,2.2-0.5,3.6-0.8l-0.1-0.9
				c-0.6,0.1-1.2,0.2-1.8,0.4V15h1c0.5,2.2,1.5,3.9,3.1,4.7c0.2-0.3,0.4-0.6,0.7-0.9c-0.8-0.4-1.5-0.9-1.9-1.7
				c0.5-0.4,1-0.8,1.5-1.2c0.1,0,0.2,0,0.3-0.1l-0.9-0.7c-0.4,0.4-0.8,0.9-1.2,1.2c-0.2-0.5-0.4-0.9-0.5-1.4H34.8z M33.8,12h-3v-1.2
				h3V12z M33.8,12.9v1.2h-3v-1.2L33.8,12.9z M28.5,9.9h-2.8l0,9.8h1l0-8.9H28c-0.2,0.8-0.5,1.8-0.8,2.6c0.6,0.5,1,1.3,1.1,2.1
				c0,0.7-0.3,0.9-0.8,0.9c-0.2,0-0.3,0-0.5,0c0.1,0.3,0.2,0.6,0.2,0.9c0.9,0,2,0.1,2-1.7c-0.1-0.9-0.5-1.7-1.1-2.3
				c0.4-0.9,0.8-2,1.1-2.9c0,0,0.1-0.1,0.1-0.1l-0.7-0.4L28.5,9.9z M45.2,11.7v1.6h1.1v-2.6h-4.1v-1c0.2,0,0.3-0.1,0.3-0.2L41,9.4
				v1.3l-4.1,0v2.6h1v-1.6L45.2,11.7z M45.3,16.4v-1h-3.2v-1.7h2.6v-1l-6.2,0v1H41v4.4c-0.9-0.4-1.6-1.1-1.8-2
				c0.1-0.4,0.2-0.8,0.2-1.2c0.1,0,0.2-0.1,0.3-0.2l-1.3-0.2c-0.2,2-0.8,3.6-2,4.5c0.3,0.2,0.6,0.4,0.8,0.7c0.7-0.6,1.3-1.4,1.6-2.3
				c1,1.8,2.6,2.1,4.8,2.1h2.7c0.1-0.4,0.2-0.7,0.4-1.1c-0.6,0-2.5,0-3,0c-0.5,0-1.1,0-1.6-0.1v-2L45.3,16.4z"/>
		</g>
	</g>
	<rect x="56.7" y="352" class="st0" width="253.9" height="17.5"/>
	<path class="st2" d="M67.3,309.1H76v-1.7c1.2,1,2.6,2,3.9,2.8c0.4-0.6,0.8-1.1,1.3-1.6c-3.3-1.8-6.2-4.2-8.5-7.2
		c0.2,0,0.4-0.2,0.5-0.4l-2.6-0.2c-2.1,3.3-5,6-8.4,8c0.4,0.5,0.8,0.9,1.2,1.5c1.4-0.8,2.7-1.8,3.9-2.8V309.1z M67.4,307.3
		c1.6-1.3,3-2.8,4.2-4.5c1.3,1.7,2.7,3.2,4.3,4.5H67.4z M64.6,311.4v1.8h11c-0.8,1.8-2,4.2-3,6.1l2,0.5c1.3-2.5,2.8-5.8,3.6-7.7
		c0.1-0.1,0.2-0.2,0.2-0.4l-1.3-0.5l-0.4,0.1H64.6z M73.9,330.5c0,0.8,0.1,1.9,0.1,3c-0.6-0.2-1.3-0.2-1.9-0.3c-1.9,0-4,1.1-4,3.1
		c0,2,1.8,3.1,3.9,3.1c3.5,0,3.9-2.2,3.9-3.3c1.1,0.5,2.1,1.2,3.1,1.9l1-1.8c-1.3-0.9-2.7-1.6-4.1-2.2c-0.1-1.3-0.2-2.4-0.2-3.8
		L73.9,330.5z M74.1,336.1c0,1.2-0.9,1.7-2,1.7c-1.3,0-2.3-0.5-2.3-1.4c0-1,1.1-1.5,2.2-1.5c0.7,0,1.4,0.1,2.1,0.4V336.1z
		 M67.8,321.4c-0.1,1.1-0.3,2.2-0.5,3.2c-0.5,0-1.1,0-1.8,0h-2.3v1.8h2.3c0.4,0,1,0,1.4,0c-0.7,3.2-2,6.2-3.9,8.9l2,0.7
		c1.9-3,3.2-6.3,4-9.7c2-0.1,4-0.4,6-0.9l-0.3-1.9c-1.8,0.5-3.6,0.8-5.4,0.9c0.2-0.7,0.4-1.7,0.5-2.5c0.3,0,0.5-0.2,0.6-0.4
		L67.8,321.4z M79.8,326.7c-2.4,0.1-4.8,0.4-7.2,1l0.3,1.7c2.3-0.6,4.6-0.8,7-0.9L79.8,326.7z M67.7,343.3c2.6,0.3,5.2,0.9,7.7,1.8
		l0.7-1.9c-2.5-0.9-5.1-1.4-7.7-1.7L67.7,343.3z M65.8,345.2c0,3.8-0.8,7.5-1.2,7.9l1.9,0.8c0.7-1.2,4-3.1,7.1-3.1
		c2.1,0,3.3,1.1,3.2,2.7c0,2.6-2.6,3.7-9.4,4c0.3,0.6,0.5,1.2,0.7,1.8c7.9-0.3,10.8-2.1,10.9-5.8c0-2.9-2-4.5-5-4.5
		c-2.5,0.1-4.9,0.8-7,2.2h0c0.3-0.5,0.6-2.5,0.8-5.4c0.2,0,0.4-0.1,0.5-0.3L65.8,345.2z"/>
	<path class="st2" d="M87.7,321.3v5.8h9.5v10.4h-8.4v5.8h59.6v-5.8H140v-10.4h9.4v-5.8H140v-10.4h6.8v-5.7h-42.6
		c1-1.5,1.8-3,2.7-4.5c0.6,0.2,1.3-0.1,1.6-0.6l-7.3-2.5c-3.4,6.9-8.3,12.8-14.3,17.5c1.7,1.2,3.4,2.5,4.9,4c2-1.6,3.8-3.3,5.5-5.1
		v7.3H87.7z M121.6,321.3h-6.7v-10.4h6.7L121.6,321.3z M121.6,337.6h-6.7v-10.4h6.7L121.6,337.6z M109.4,310.9v10.4H103v-10.4H109.4
		z M109.4,327.2v10.4H103v-10.4H109.4z M127.1,321.3v-10.4h6.9v10.4H127.1z M127.1,337.6v-10.4h6.9v10.4H127.1z M150.4,359.1
		c-2.6-4.8-5.6-9.4-9.1-13.7l-6.1,2c3.4,4.4,6.3,9.1,8.7,14L150.4,359.1z M95.3,345.7c-1.6,5-4.8,10.3-8.2,13.1l6.1,2.6
		c3.6-3.5,6.6-9,8.3-14.1L95.3,345.7z M131.6,359.4c-1-4.3-2.4-8.6-4.2-12.6l-6.1,1c1.7,4.2,3,8.5,3.9,12.9L131.6,359.4z
		 M115.1,359.7c-0.2-4.2-0.8-8.4-1.7-12.6l-6,0.6c0.8,4.3,1.3,8.6,1.4,12.9L115.1,359.7z M173.1,327.2h11v-6.1h-10.9v-22
		c1-0.2,1.5-0.5,1.6-1.1l-7.8-0.5v23.6h-11.6v6.1h10.4c-2.8,6.9-7.3,14.7-11.6,19.1c1.3,2,2.3,4.2,3.2,6.4c3.5-3.8,6.9-9.9,9.6-16.1
		v24.6h6.2v-25.2c2.5,2.8,4.9,5.7,7.1,8.7l3.7-5.2c-1.5-1.6-8.5-8.2-10.8-10.1L173.1,327.2z M185.7,323.6c4,3.1,8.6,7.6,10.6,10.7
		c0.2-0.3,0.4-0.5,4.8-3.9c-2.2-3.1-7-7.3-10.9-10.2L185.7,323.6z M155.5,303.4c1.9,4.8,3.3,9.9,4,15l5.3-1.5
		c-0.8-5.1-2.2-10.1-4.3-14.8L155.5,303.4z M217.5,335.9l-7.9,1.4v-37.9c1.1-0.2,1.6-0.6,1.6-1.2l-8-0.5v40.7l-19.5,3.5l1.1,6.1
		l18.4-3.4v16.5h6.3v-17.7l9-1.7L217.5,335.9z M179.3,301.9c-1.3,5.2-3,10.3-5.1,15.3c1.2,0.4,3.2,1.2,4.4,1.7
		c2.4-4.5,4.4-9.3,6-14.1c0.9,0,1.4-0.3,1.6-0.7L179.3,301.9z M187.5,305.8c3.6,3,6.7,6.5,9.3,10.4l4.9-3.7
		c-1.8-2.9-6.1-7.1-9.6-9.9L187.5,305.8z"/>
	<path class="st2" d="M233.1,312c1.8-1.4,5.8-4.1,9.3-4.6l-0.3-2.9c-1.7,0.3-3.4,0.5-5.2,0.6c-2.5,0.2-8.3,0.3-10.9,0.2
		c0.1,0.6,0.1,2,0.1,2.7c3,0.1,5.9,0,8.9-0.3v0c-1.5,0.8-2.9,1.8-4.2,2.9L233.1,312z M247.9,311.1c-1-1.4-2.3-2.6-3.6-3.7l-1.2,1.1
		c1.3,1.1,2.5,2.3,3.6,3.7L247.9,311.1z M244.9,313.9c-1.1-1.4-2.3-2.6-3.7-3.7l-1.2,1.1c1.4,1,2.6,2.3,3.6,3.7L244.9,313.9z
		 M243.7,322.2c-2.9,0.5-5.7,0.8-8.7,0.8c-1.4,0-2.8-0.1-4.3-0.3c-2.2-0.5-3.2-1.8-3.2-3.4c0.2-1.7,1-3.3,2.3-4.4l-2.4-1.1
		c-1.6,1.6-2.6,3.7-2.7,5.9c0,2.5,1.5,4.8,5,5.5c1.9,0.3,3.8,0.4,5.7,0.4c2.8,0,5.6-0.2,8.4-0.6L243.7,322.2z M260.5,301.5
		c-2.5,1.4-7,2.6-11,3.3c0.4,0.6,0.7,1.3,0.8,2c1.6-0.3,3.4-0.6,5-1v4.1h-5.6v2.5h5c-1.3,3.3-3.2,6.3-5.6,8.9c0.6,0.8,1,1.7,1.4,2.6
		c2-2.3,3.6-4.8,4.7-7.6v11.3h2.6v-10.7c1.3,1.3,2.8,2.8,3.6,3.7l1.5-2.3c-0.8-0.7-3.8-3.2-5.1-4.2v-1.8h5.2V310H258v-4.8
		c1.4-0.4,2.8-0.9,4.2-1.6c0.5,0,0.5,0,0.7-0.1L260.5,301.5z M271.8,324.4c0,0.7-0.2,0.7-2,0.7c-0.8,0-2,0-3.1-0.1
		c0.4,0.9,0.7,1.8,1,2.7c5.5,0.1,6.7-0.3,6.7-3.4v-21.6c0.5-0.1,0.6-0.2,0.6-0.5l-3.3-0.2L271.8,324.4z M265,305v15.8h2.6v-15.1
		c0.4-0.1,0.6-0.2,0.6-0.4L265,305z M280.7,303.5v10.2c0,4-0.3,9-3.4,12.5c0.8,0.5,1.5,1.1,2.1,1.8c2.1-2.3,3.1-5.5,3.6-8.7h6.5v8.1
		h2.6v-8.1h7v5.1c0,0.7-0.1,0.7-1.9,0.7c-0.8,0-2,0-3.1-0.1c0.4,0.8,0.7,1.7,0.9,2.6c5.5,0.1,6.7-0.3,6.7-3.2v-20.9H280.7z
		 M289.4,310.1h-6.1V306h6.1V310.1z M292,310.1V306h7v4.1H292z M283.3,312.6h6.1v4.1h-6.2c0.1-1.1,0.1-2.1,0.1-3.1L283.3,312.6z
		 M292,312.6h7v4.1h-7L292,312.6z"/>
	<path class="st2" d="M224.9,337.5v2.7h19.2v18c0,0.8-0.1,0.8-2.4,0.8c-1,0-2.4,0-3.7-0.1c0.5,0.9,0.9,1.9,1.1,2.9
		c6.3,0,7.7-0.3,7.7-3.5v-18h3.4v-2.7H224.9z M239.5,343.9h-11.9v13h2.6v-2.2h9.3V343.9z M236.9,352.1h-6.7v-5.7h6.7L236.9,352.1z
		 M254.2,346.2v15.6h2.5v-5.1h5.3v2.3c0,0.5-0.1,0.5-1.3,0.5c-0.5,0-1.2,0-1.9-0.1c0.4,0.8,0.7,1.6,0.9,2.4c4,0,4.9-0.5,4.9-2.8
		v-12.8L254.2,346.2z M262,350.4h-5.3v-2h5.3V350.4z M256.7,352.5h5.3v2.2h-5.3V352.5z M271.1,345.7c-1.2,0-1.4-0.1-1.4-1.1v-2.4
		c2.5-0.7,4.9-1.6,7.2-2.6c0.4,0,0.5,0,0.6-0.1l-1.8-2c-1.9,1-3.9,1.8-5.9,2.5v-3.8c0.4-0.1,0.6-0.2,0.6-0.5l-3.3-0.2v9
		c0,2.7,0.8,3.4,3.8,3.4h4.4c2.4,0,3.2-1,3.5-4.5c-0.8-0.2-1.7-0.5-2.4-1c-0.1,2.7-0.3,3.1-1.3,3.1L271.1,345.7z M269.6,355.2
		c2.6-0.7,5.1-1.7,7.5-2.9c0.2,0,0.4,0,0.6-0.1l-1.9-2.1c-2,1.2-4.1,2.1-6.2,2.9v-3.6c0.4-0.1,0.6-0.3,0.7-0.5l-3.3-0.2v9.3
		c0,2.7,0.8,3.4,3.8,3.4h4.6c2.5,0,3.2-1,3.6-4.9c-0.8-0.2-1.6-0.5-2.4-1c-0.1,3.1-0.3,3.6-1.4,3.6h-4c-1.3,0-1.5-0.2-1.5-1.1V355.2
		z M257.1,335.4c-0.7,2.2-1.6,4.3-2.6,6.4l-2.2,0.1l0.8,2.9c0.2,0,0.4-0.2,0.4-0.4c2.5-0.2,6.3-0.4,10.1-0.6c0.2,0.5,0.4,1,0.6,1.6
		l2.4-1.1c-0.9-2.3-2.2-4.4-3.6-6.4l-2.2,0.9c0.6,0.8,1.2,1.8,1.7,2.7c-1.8,0.1-3.6,0.1-5.2,0.2c0.8-1.7,1.6-3.4,2.3-5.1
		c0.3,0,0.5-0.1,0.7-0.4L257.1,335.4z M288.9,352.7l0.6-14.9h-3.5l0.5,14.9H288.9z M300.7,352.7l0.5-14.9h-3.5l0.6,14.9H300.7z
		 M287.6,359.5c1.2,0,2.1-1,2.1-2.2c0-1.2-0.9-2.1-2.1-2.2c0,0,0,0,0,0c-1.2,0-2.1,1-2.1,2.1c0,0,0,0,0,0
		C285.5,358.5,286.4,359.5,287.6,359.5C287.6,359.5,287.6,359.5,287.6,359.5L287.6,359.5z M299.5,359.5c1.2,0,2.1-1,2.1-2.2
		c0-1.2-0.9-2.1-2.1-2.2c0,0,0,0,0,0c-1.2,0-2.1,1-2.1,2.1c0,0,0,0,0,0C297.3,358.5,298.3,359.5,299.5,359.5L299.5,359.5z"/>
</g>
</svg>
