<?xml version="1.0" encoding="utf-8"?> <!-- Generator: Adobe Illustrator 26.0.3, SVG Export Plug-In . SVG Version: 6.00 Build 0)  --> <svg version="1.1" id="レイヤー_1" xmlns="http://www.w3.org/2000/svg" xmlns:xlink="http://www.w3.org/1999/xlink" x="0px" y="0px" viewBox="0 0 533.4 182.5" style="enable-background:new 0 0 533.4 182.5;" xml:space="preserve"> <style type="text/css"> .st0{fill:#F8C332;} .st1{fill:#343434;} .st2{fill:#1A62A3;} .st3{fill:#0C4172;} </style> <g transform="translate(-279.672 -511.21)"> <g transform="matrix(0.914, -0.407, 0.407, 0.914, -2465.56, -4954.556)"> <g transform="translate(271.276 6141.736)"> <path class="st0" d="M76.2,20.7c0,1.5-3.4,2.8-3.6,4.3s2.9,3.5,2.5,5c-0.3,1.5-4,2-4.5,3.4c-0.5,1.4,2,4.1,1.4,5.4 s-4.3,1.1-5.1,2.3s1,4.4,0.1,5.6s-4.4,0.1-5.5,1.1s0,4.5-1.1,5.5s-4.3-0.9-5.6-0.1s-1,4.4-2.3,5.1s-4-1.9-5.4-1.4 s-1.9,4.1-3.4,4.5c-1.5,0.3-3.5-2.7-5-2.5s-2.8,3.6-4.3,3.6s-2.8-3.4-4.3-3.6c-1.5-0.2-3.5,2.9-5,2.5c-1.5-0.3-2-4-3.4-4.5 s-4.1,2-5.4,1.4S15.2,54,14,53.2s-4.4,1-5.6,0.1S8.3,49,7.2,47.9s-4.6,0-5.5-1.1s0.9-4.3,0.1-5.6s-4.4-1-5.1-2.3s1.9-4,1.4-5.4 C-2.4,32-6,31.5-6.3,30s2.7-3.5,2.5-5c-0.2-1.5-3.6-2.8-3.6-4.3s3.4-2.8,3.6-4.3c0.2-1.5-2.9-3.5-2.5-5c0.3-1.5,4-2,4.5-3.4 s-2-4.1-1.4-5.4s4.3-1.1,5.1-2.3s-1-4.4-0.1-5.6s4.4-0.1,5.5-1.1s0-4.5,1.1-5.5s4.3,0.9,5.6,0.1s1-4.4,2.3-5.1s4,1.9,5.4,1.4 c1.4-0.5,1.9-4.1,3.4-4.5c1.5-0.3,3.5,2.7,5,2.5s2.8-3.6,4.3-3.6s2.8,3.4,4.3,3.6s3.5-2.9,5-2.5c1.5,0.3,2,4,3.4,4.5 s4.1-2,5.4-1.4s1.1,4.3,2.3,5.1s4.4-1,5.6-0.1s0.1,4.4,1.1,5.5s4.5,0,5.5,1.1S66.2-1,67,0.3s4.4,1,5.1,2.3s-1.9,4-1.4,5.4 s4.1,1.9,4.5,3.4c0.3,1.5-2.7,3.5-2.5,5C72.8,17.9,76.2,19.2,76.2,20.7z"/> <path class="st0" d="M34.4-21.6c1,0,1.8,1,2.6,2c0.6,0.7,1.2,1.5,1.7,1.6c0,0,0,0,0.1,0c0.8-0.2,1.5-0.6,2-1.2 c0.7-0.7,1.6-1.2,2.6-1.4c0.1,0,0.2,0,0.3,0c1,0.2,1.6,1.4,2.1,2.5c0.4,0.8,0.9,1.8,1.3,1.9c0.1,0,0.2,0,0.3,0 c0.7-0.1,1.4-0.4,2-0.7c0.8-0.4,1.6-0.7,2.5-0.8c0.3,0,0.5,0.1,0.7,0.2c0.9,0.4,1.2,1.7,1.5,2.9c0.2,0.9,0.4,1.9,0.9,2.2 c0.2,0.1,0.4,0.1,0.6,0.1c0.6,0,1.2-0.1,1.8-0.3s1.3-0.3,2-0.3c0.5,0,0.9,0.1,1.3,0.4c0.8,0.6,0.8,1.9,0.8,3.2c0,0.9,0,2,0.4,2.4 s1.4,0.4,2.4,0.4c1.2,0,2.5,0,3.2,0.8s0.3,2,0.1,3.3c-0.2,0.9-0.4,1.9-0.2,2.4s1.3,0.7,2.2,0.9c1.2,0.3,2.5,0.6,2.9,1.5 s-0.1,2.1-0.7,3.2c-0.4,0.8-0.9,1.8-0.7,2.3s1.1,0.9,1.9,1.3c1.1,0.5,2.3,1.1,2.5,2.1s-0.6,2-1.3,3C73.6,15,73,15.9,73,16.4 c0.1,0.5,0.9,1.2,1.6,1.7c1,0.8,2,1.6,2,2.6s-1,1.8-2,2.6c-0.7,0.6-1.5,1.2-1.6,1.7s0.6,1.4,1.2,2.1c0.8,1,1.6,2,1.3,3 c-0.2,1-1.4,1.6-2.5,2.1c-0.8,0.4-1.8,0.9-1.9,1.3s0.3,1.5,0.7,2.3c0.5,1.1,1.1,2.3,0.7,3.2s-1.7,1.2-2.9,1.5 c-0.9,0.2-1.9,0.4-2.2,0.9s-0.1,1.5,0.2,2.4c0.3,1.2,0.6,2.5-0.1,3.3s-1.9,0.8-3.2,0.8c-0.9,0-2,0-2.4,0.4s-0.4,1.4-0.4,2.4 c0,1.2,0,2.5-0.8,3.2c-0.4,0.3-0.8,0.4-1.3,0.4c-0.7,0-1.3-0.1-2-0.3c-0.6-0.2-1.2-0.2-1.8-0.3c-0.2,0-0.4,0-0.6,0.1 c-0.4,0.3-0.7,1.3-0.9,2.2c-0.3,1.2-0.6,2.5-1.5,2.9c-0.1,0-0.3,0.1-0.6,0.1c-0.9-0.1-1.7-0.4-2.5-0.8c-0.6-0.4-1.3-0.6-2-0.7 c-0.1,0-0.2,0-0.3,0c-0.5,0.2-0.9,1.1-1.3,1.9c-0.5,1.1-1.1,2.3-2.1,2.5c-0.1,0-0.2,0-0.3,0c-1-0.2-1.9-0.7-2.6-1.4 c-0.6-0.6-1.3-1-2-1.2c0,0,0,0-0.1,0c-0.5,0.1-1.2,0.9-1.7,1.6c-0.8,1-1.6,2-2.6,2s-1.8-1-2.6-2c-0.6-0.7-1.2-1.5-1.7-1.6 c0,0,0,0-0.1,0c-0.8,0.2-1.5,0.6-2,1.2c-0.7,0.7-1.6,1.2-2.6,1.4c-0.1,0-0.2,0-0.3,0c-1-0.2-1.6-1.4-2.1-2.5 c-0.4-0.8-0.9-1.8-1.3-1.9c-0.1,0-0.2,0-0.3,0c-0.7,0.1-1.4,0.4-2,0.7c-0.8,0.4-1.6,0.7-2.5,0.8c-0.3,0-0.5-0.1-0.7-0.2 c-0.9-0.4-1.2-1.7-1.5-2.9c-0.2-0.9-0.4-1.9-0.9-2.2c-0.2-0.1-0.4-0.1-0.6-0.1c-0.6,0-1.2,0.1-1.8,0.3s-1.3,0.3-2,0.3 c-0.5,0-0.9-0.1-1.3-0.4c-0.8-0.6-0.8-1.9-0.8-3.2c0-0.9,0-2-0.4-2.4s-1.4-0.4-2.4-0.4c-1.2,0-2.5,0-3.2-0.8s-0.3-2-0.1-3.3 c0.2-0.9,0.4-1.9,0.2-2.4s-1.3-0.7-2.2-0.9c-1.3-0.1-2.5-0.4-3-1.3S-3.6,37-3,35.9c0.4-0.8,0.9-1.8,0.7-2.3s-1.1-0.9-1.9-1.3 c-1.1-0.5-2.3-1.1-2.5-2.1s0.6-2,1.3-3c0.6-0.7,1.2-1.6,1.2-2.1c-0.1-0.5-0.9-1.2-1.6-1.7c-1-0.8-2-1.6-2-2.6s1-1.8,2-2.6 c0.7-0.6,1.5-1.2,1.6-1.7s-0.6-1.4-1.2-2.1c-0.8-1-1.6-2-1.3-3c0.2-1,1.4-1.6,2.5-2.1C-3.4,8.9-2.4,8.4-2.3,8 C-2.2,7.6-2.6,6.4-3,5.6c-0.5-1.1-1.1-2.3-0.7-3.2S-2,1.2-0.8,0.9c0.9-0.2,2-0.5,2.2-0.9s0.1-1.5-0.2-2.4C1-3.6,0.7-4.9,1.4-5.6 s1.9-0.8,3.2-0.8c0.9,0,2,0,2.4-0.4s0.4-1.4,0.4-2.4c0-1.2,0-2.5,0.8-3.2c0.4-0.3,0.8-0.4,1.3-0.4c0.7,0,1.3,0.1,2,0.3 c0.6,0.2,1.2,0.2,1.8,0.3c0.2,0,0.4,0,0.6-0.1c0.4-0.3,0.7-1.3,0.9-2.2c0.3-1.2,0.6-2.5,1.5-2.9c0.2-0.1,0.5-0.2,0.7-0.2 c0.9,0.1,1.7,0.4,2.5,0.8c0.6,0.4,1.3,0.6,2,0.7c0.1,0,0.2,0,0.3,0c0.5-0.2,0.9-1.1,1.3-1.9c0.5-1.1,1.1-2.3,2.1-2.5 c0.1,0,0.2,0,0.3,0l0,0c1,0.2,1.9,0.7,2.6,1.4c0.6,0.6,1.3,1,2,1.2c0,0,0,0,0.1,0c0.5-0.1,1.2-0.9,1.7-1.6 C32.6-20.6,33.4-21.6,34.4-21.6z M38.9-17c-0.1,0-0.1,0-0.2,0c-0.9-0.1-1.6-1-2.4-2c-0.6-0.8-1.3-1.6-1.8-1.6s-1.2,0.9-1.8,1.6 c-0.8,1-1.5,1.9-2.4,2c-0.1,0-0.1,0-0.2,0c-1-0.2-1.9-0.7-2.7-1.4c-0.6-0.6-1.2-1-2-1.2h-0.1c-0.5,0.1-1,1.1-1.4,2 c-0.5,1.1-1,2.1-1.9,2.5C21.7-15,21.5-15,21.3-15c-0.9-0.1-1.7-0.4-2.5-0.8c-0.6-0.4-1.3-0.6-2-0.7c-0.1,0-0.2,0-0.3,0.1 c-0.5,0.2-0.7,1.3-0.9,2.2c-0.3,1.1-0.5,2.3-1.3,2.8c-0.3,0.2-0.7,0.3-1.2,0.3c-0.7,0-1.3-0.1-2-0.3c-0.6-0.2-1.2-0.2-1.8-0.3 c-0.2,0-0.5,0-0.7,0.2c-0.4,0.3-0.4,1.4-0.4,2.4c0,1.2,0,2.4-0.7,3.1s-1.8,0.6-3,0.6c-1,0-2.1,0-2.4,0.4s0,1.5,0.2,2.4 c0.3,1.2,0.5,2.3,0,3.1S0.6,1.6-0.5,1.9c-0.9,0.2-2,0.5-2.2,0.9S-2.5,4.3-2,5.1c0.5,1.1,1,2.2,0.7,3.1s-1.4,1.4-2.5,1.9 c-0.9,0.4-1.9,0.9-2,1.4c-0.1,0.5,0.6,1.4,1.2,2.1c0.7,0.9,1.5,1.9,1.4,2.8s-1,1.6-2,2.4c-0.8,0.6-1.6,1.3-1.6,1.8s0.8,1.4,1.6,2 c0.9,0.7,1.9,1.5,2,2.4s-0.7,1.9-1.4,2.8c-0.6,0.8-1.3,1.6-1.2,2.1c0.1,0.5,1.1,1,2,1.4c1.1,0.5,2.1,1,2.5,1.9s-0.2,2-0.7,3.1 c-0.4,0.9-0.9,1.9-0.7,2.3s1.3,0.7,2.2,0.9c1.1,0.3,2.3,0.5,2.8,1.3s0.2,2,0,3.1c-0.2,0.9-0.5,2-0.1,2.4s1.4,0.4,2.4,0.4 c1.2,0,2.4,0,3.1,0.7s0.7,1.9,0.7,3.1c0,1,0,2.1,0.4,2.4C9,53,9.2,53.1,9.5,53.1c0.6,0,1.2-0.1,1.8-0.3s1.3-0.3,2-0.3 c0.4,0,0.8,0.1,1.2,0.3c0.8,0.5,1.1,1.7,1.3,2.8c0.2,0.9,0.5,2,0.9,2.2c0.1,0,0.2,0.1,0.3,0.1c0.7-0.1,1.4-0.4,2-0.7 c0.8-0.4,1.6-0.7,2.5-0.8c0.2,0,0.4,0,0.6,0.1c0.9,0.3,1.4,1.4,1.9,2.5c0.4,0.9,0.9,1.9,1.4,2h0.1c0.8-0.2,1.4-0.6,2-1.2 c0.7-0.7,1.6-1.2,2.7-1.4c0.1,0,0.1,0,0.2,0c0.9,0.1,1.7,1,2.4,2c0.6,0.8,1.3,1.6,1.8,1.6s1.2-0.9,1.8-1.6c0.8-1,1.5-1.9,2.4-2 c0.1,0,0.1,0,0.2,0c1,0.2,1.9,0.7,2.7,1.4c0.6,0.6,1.2,1,2,1.2h0.1c0.5-0.1,1-1.1,1.4-2c0.5-1.1,1-2.1,1.9-2.5 c0.2-0.1,0.4-0.1,0.6-0.1c0.9,0.1,1.7,0.4,2.5,0.8c0.6,0.4,1.3,0.6,2,0.7c0.1,0,0.2,0,0.3-0.1c0.5-0.2,0.7-1.3,0.9-2.2 c0.3-1.1,0.5-2.3,1.3-2.8c0.3-0.2,0.7-0.3,1.2-0.3c0.7,0,1.3,0.1,2,0.3c0.6,0.2,1.2,0.2,1.8,0.3c0.2,0,0.5,0,0.7-0.2 c0.4-0.3,0.4-1.4,0.4-2.4c0-1.2,0-2.4,0.7-3.1s1.9-0.7,3.1-0.7c1,0,2.1,0,2.4-0.4s0.1-1.5-0.1-2.4c-0.3-1.2-0.5-2.3,0-3.1 s1.7-1.1,2.8-1.3c0.9-0.2,2-0.5,2.2-0.9s-0.2-1.5-0.7-2.3c-0.5-1.1-1-2.2-0.7-3.1s1.4-1.4,2.5-1.9c0.9-0.4,1.9-0.9,2-1.4 s-0.6-1.4-1.2-2.1c-0.7-0.9-1.5-1.9-1.4-2.8s1-1.7,2-2.4c0.8-0.6,1.6-1.3,1.6-1.8s-0.9-1.2-1.6-1.8c-1-0.8-1.9-1.5-2-2.4 c-0.1-0.9,0.7-1.9,1.4-2.8c0.6-0.8,1.3-1.6,1.2-2.1c-0.1-0.5-1.1-1-2-1.4c-1.1-0.5-2.1-1-2.5-1.9s0.2-2,0.7-3.1 c0.4-0.9,0.9-1.9,0.7-2.3s-1.3-0.7-2.2-0.9c-1.1-0.3-2.3-0.5-2.8-1.3s-0.2-2,0-3.1c0.2-0.9,0.5-2,0.1-2.4 c-0.3-0.4-1.4-0.4-2.4-0.4c-1.2,0-2.4,0-3.1-0.7S60.6-8,60.6-9.2c0-1,0-2.1-0.4-2.4c-0.2-0.1-0.4-0.2-0.7-0.2 c-0.6,0-1.2,0.1-1.8,0.3s-1.3,0.3-2,0.3c-0.4,0-0.8-0.1-1.2-0.3c-0.8-0.5-1.1-1.7-1.3-2.8c-0.2-0.9-0.5-2-0.9-2.2 c-0.1,0-0.2-0.1-0.3-0.1c-0.7,0.1-1.4,0.4-2,0.7c-0.8,0.4-1.6,0.7-2.5,0.8c-0.2,0-0.4,0-0.6-0.1c-0.9-0.3-1.4-1.4-1.9-2.5 c-0.4-0.9-0.9-1.9-1.4-2h-0.1c-0.8,0.2-1.4,0.6-2,1.2C40.8-17.6,39.9-17.2,38.9-17L38.9-17z"/> <path class="st1" d="M11.5,19.1c-0.3,0.5-0.7,1-1.1,1.5c-0.2-0.2-0.3-0.3-0.4-0.4c0.7-1,1.3-2,1.7-3.1c0.1,0,0.2-0.1,0.2-0.2 L11,16.3l-0.2,0.1h-1v-2.2c0.2,0,0.3-0.1,0.3-0.2l-1.6-0.1v2.6h-2v1.2H10c-0.9,1.9-2.3,3.5-3.9,4.7c0.3,0.4,0.5,0.8,0.7,1.2 C7.5,23,8,22.5,8.5,22v5h1.3v-5.5c0.5,0.6,1.1,1.4,1.4,1.8l0.8-1c-0.2-0.2-0.6-0.6-1-1.1c0.4-0.4,0.8-0.8,1.1-1.2h0.1 c0.1,0,0.2,0,0.2-0.1L11.5,19.1z M11.7,15v1.3H14c-0.1,3.7-0.3,7.6-3.3,9.6c0.4,0.3,0.7,0.6,1,1c3.3-2.4,3.6-6.8,3.7-10.7h2.5 c-0.1,6.2-0.3,8.5-0.7,9c-0.1,0.2-0.3,0.3-0.5,0.3c-0.4,0-1.1,0-1.9-0.1c0.2,0.4,0.4,0.9,0.4,1.4c0.4,0,0.8,0,1.1,0 c1.3,0,1.7-0.2,2.1-0.8c0.5-0.7,0.7-3.1,0.8-10.5c0-0.2,0-0.4,0-0.5h-0.7L11.7,15z M21.4,26.8h1.3v-0.9l9,0v0.9h1.4V14.7H21.4 V26.8z M22.7,16h9v8.6h-9V16z M24.5,22.7h5.3v-4.8h-5.3V22.7z M25.7,21.6V19h2.9v2.6H25.7z M47.2,20.9v-6.4h-6.5v10.7 c-0.6,0.1-1.1,0.2-1.6,0.3l0.5,1.4c0.1,0,0.2-0.1,0.2-0.2c1.1-0.2,2.9-0.6,4.5-1l-0.1-1.2c-0.8,0.2-1.6,0.3-2.3,0.4v-4h1.3 c0.7,2.8,1.9,4.9,3.9,6c0.2-0.4,0.5-0.8,0.9-1.1c-1-0.5-1.9-1.2-2.5-2.1c0.7-0.5,1.3-1,1.9-1.6c0.1,0,0.3,0,0.3-0.1l-1.2-0.9 c-0.5,0.6-1,1.1-1.6,1.6c-0.3-0.6-0.5-1.2-0.7-1.8C44.2,20.9,47.2,20.9,47.2,20.9z M45.9,17.1l-3.9,0v-1.5h3.9V17.1z M45.9,18.2 v1.6H42v-1.6H45.9z M39.1,14.4h-3.5V27h1.2V15.7h1.7c-0.3,1-0.7,2.3-1.1,3.3c0.8,0.7,1.3,1.6,1.4,2.6c0,1-0.3,1.1-1,1.1 c-0.2,0-0.4,0-0.6,0c0.2,0.4,0.3,0.8,0.3,1.2c1.1,0,2.6,0.1,2.6-2.1c-0.1-1.1-0.6-2.2-1.4-2.9c0.5-1.1,1-2.6,1.4-3.7 c0.1,0,0.1-0.1,0.1-0.2l-0.9-0.5L39.1,14.4z M60.4,16.7v2h1.4v-3.3h-5.2v-1.3c0.2,0,0.3-0.1,0.3-0.2l-1.8-0.1v1.6h-5.2v3.3h1.3 v-2H60.4z M60.6,22.8v-1.2h-4.1v-2.1h3.3v-1.3h-7.9v1.3h3.2V25c-1.1-0.5-2-1.4-2.3-2.6c0.1-0.5,0.2-1,0.3-1.5 c0.2,0,0.3-0.1,0.3-0.2l-1.6-0.3c-0.3,2.5-1,4.6-2.6,5.7c0.4,0.3,0.7,0.6,1,0.9c0.9-0.8,1.6-1.8,2-3c1.3,2.3,3.4,2.7,6.2,2.7h3.4 c0.1-0.5,0.2-0.9,0.5-1.3c-0.8,0-3.2,0-3.8,0c-0.7,0-1.3,0-2-0.1v-2.6h4.1V22.8z"/> </g> </g> <rect x="281" y="662.7" class="st0" width="532" height="31"/> <path class="st2" d="M675.7,585c3.2-2.5,10.4-7.4,16.6-8.2l-0.5-5.1c-3,0.6-6.1,1-9.2,1.1c-4.5,0.3-14.8,0.5-19.5,0.4 c0.1,1.2,0.1,3.6,0.1,4.8c5.3,0.1,10.6-0.1,15.9-0.5l0,0c-2.6,1.5-5.2,3.2-7.5,5.1L675.7,585z M702.1,583.5 c-1.9-2.5-4.1-4.7-6.5-6.5l-2.2,1.9c2.4,1.9,4.5,4.2,6.4,6.6L702.1,583.5z M696.8,588.5c-1.9-2.5-4.1-4.7-6.6-6.6l-2.1,2 c2.5,1.9,4.6,4.1,6.4,6.6L696.8,588.5z M694.6,603.2c-5.1,0.9-10.3,1.4-15.5,1.4c-2.5,0-5.1-0.1-7.6-0.5c-3.9-0.8-5.7-3.3-5.7-6 c0-2.5,1.5-5.3,4-7.8l-4.2-2c-2.8,2.9-4.8,6.8-4.8,10.6c0,4.5,2.7,8.5,8.9,9.9c3.4,0.5,6.8,0.7,10.2,0.6c5,0.1,10.1-0.3,15.1-1 L694.6,603.2z M724.7,566.3c-4.4,2.5-12.5,4.6-19.7,5.9c0.7,1.1,1.2,2.4,1.5,3.7c2.9-0.5,6-1.1,9-1.8v7.4h-10v4.4h9 c-2.2,5.8-6.2,12.2-9.9,15.9c1,1.4,1.8,3,2.5,4.6c3-3.2,6-8.2,8.4-13.5v20.2h4.7V594c2.3,2.2,5,5,6.5,6.7l2.7-4.1 c-1.4-1.2-6.8-5.7-9.1-7.5v-3.2h9.2v-4.4h-9.2v-8.6c2.6-0.7,5.1-1.7,7.5-2.8c0.8,0,1,0,1.2-0.2L724.7,566.3z M744.8,607.1 c0,1.3-0.4,1.3-3.5,1.3c-1.5,0-3.5,0-5.6-0.1c0.8,1.5,1.3,3.2,1.7,4.9c9.8,0.1,12-0.6,12-6.1v-38.6c0.9-0.1,1.1-0.4,1.2-0.8 l-5.8-0.3L744.8,607.1L744.8,607.1z M732.6,572.4v28.2h4.6v-27c0.8-0.1,1.1-0.4,1.2-0.8L732.6,572.4z M760.6,569.8V588 c0,7.1-0.5,16.1-6,22.3c1.4,0.8,2.6,1.9,3.7,3.2c3.8-4.2,5.6-9.9,6.4-15.5h11.6v14.5h4.7V598h12.5v9.1c0,1.2-0.1,1.2-3.4,1.2 c-1.5,0-3.5,0-5.5-0.1c0.7,1.5,1.3,3,1.6,4.6c9.8,0.1,12.1-0.5,12.1-5.7v-37.4h-37.7V569.8z M776.3,581.7h-11v-7.4h11V581.7z M780.9,581.7v-7.4h12.5v7.4H780.9z M765.3,586.1h11v7.4h-11.2c0.2-1.9,0.2-3.8,0.2-5.5V586.1z M780.9,586.1h12.5v7.4h-12.5V586.1z "/> <path class="st2" d="M301.8,584.7h15.7v-3.1c2.2,1.9,4.6,3.6,7.1,5.1c0.7-1.1,1.4-2,2.3-3c-6-3.2-11.2-7.6-15.3-12.9 c0.4,0,0.7-0.3,0.8-0.6l-4.6-0.3c-2.7,4.8-8.9,10.8-15.1,14.3c0.8,0.8,1.5,1.7,2.1,2.7c2.5-1.5,4.8-3.2,7-5.1V584.7z M302.1,581.6 c2.8-2.4,5.3-5.1,7.5-8.1c2.3,3,4.9,5.7,7.8,8.1H302.1z M297,588.8v3.2h19.8c-1.5,3.3-3.5,7.6-5.3,11l3.6,1 c2.3-4.6,5-10.4,6.5-13.8c0.2-0.2,0.3-0.4,0.4-0.6l-2.3-0.9l-0.7,0.1H297z M313.7,626.2c0,1.4,0.1,3.5,0.3,5.5 c-1.1-0.3-2.3-0.4-3.4-0.5c-3.5,0-7.1,1.9-7.2,5.6c0,3.6,3.2,5.5,7.1,5.5c6.2,0,7-4,7-5.9c2,1,3.9,2.1,5.6,3.4l1.7-3.3 c-2.3-1.5-4.8-2.8-7.3-3.9c-0.2-2.3-0.3-4.3-0.4-6.8L313.7,626.2z M314.1,636.3c0,2.2-1.6,3.1-3.6,3.1c-2.4,0-4.1-0.9-4.1-2.6 c0-1.8,2.1-2.6,4-2.6c1.3,0,2.5,0.3,3.7,0.7V636.3z M302.7,609.8c-0.2,2-0.5,4-0.9,5.8c-0.9,0-2.1,0-3.2,0h-4.1v3.3h4.2 c0.8,0,1.7,0,2.5,0c-1.3,5.8-3.6,11.2-6.9,16.1l3.5,1.3c3.4-5.4,5.8-11.3,7.2-17.5c3.6-0.3,7.3-0.8,10.8-1.6l-0.5-3.4 c-3.2,0.9-6.4,1.5-9.7,1.7c0.3-1.2,0.6-3,0.9-4.4c0.5,0,0.9-0.3,1.1-0.7L302.7,609.8z M324.2,619.3c-4.4,0.1-8.7,0.7-13,1.8 l0.5,3.1c4.1-1,8.4-1.5,12.6-1.6L324.2,619.3z M302.5,652.2c4.4,0.6,10.1,1.7,13.8,3.2l1.2-3.5c-4.5-1.5-9.2-2.5-13.9-3 L302.5,652.2z M299,655.7c-0.1,6.8-1.4,13.5-2.1,14.2l3.4,1.5c1.2-2.2,7.1-5.6,12.7-5.6c3.7,0,5.9,1.9,5.8,4.9 c0,4.7-4.8,6.6-17,7.1c0.5,1.1,0.9,2.2,1.3,3.3c14.1-0.5,19.5-3.7,19.5-10.5c0-5.2-3.6-8.1-9-8.1c-4.5,0.1-8.8,1.5-12.5,4l0,0 c0.6-0.8,1.1-4.5,1.5-9.6c0.4,0,0.8-0.2,0.9-0.6L299,655.7z"/> <path class="st2" d="M343,594v9.2h21.3v27.3h-19v9.1h131.1v-9.1h-19.6v-27.3h21.9V594h-21.9v-27h16.1v-9.2h-97.5 c2.7-4,5.2-8.2,7.3-12.4c1.8,0.3,2.9-0.3,3.3-1.2l-11.9-4.2c-7.5,15.9-20.1,31.5-32.4,40.8c2.7,1.9,5.2,4,7.5,6.3 c5.5-4.5,10.5-9.5,15.1-14.8V594H343z M419.2,594h-18.8v-27h18.8V594z M419.2,630.4h-18.8v-27.3h18.8V630.4z M391.6,567v27h-18v-27 H391.6z M391.6,603.1v27.3h-18v-27.3H391.6z M428.1,594v-27h19.2v27H428.1z M428.1,630.4v-27.3h19.2v27.3H428.1z M480.1,676 c-4-8.2-13-20.8-20.8-30l-9.3,3.3c7.6,9.3,16.5,22.4,20.2,30.5L480.1,676z M361.2,646.6c-3.9,11.1-11.1,22.7-19.2,29l9.3,4 c8.4-7.2,15.4-19.2,19.4-30.4L361.2,646.6z M438,676c-1.5-7-5.7-18.8-9.9-27.5l-9.4,1.8c4,8.9,8.1,20.7,9.4,27.9L438,676z M400.6,676.6c-0.5-9.1-1.8-18.2-3.9-27.1l-9.1,0.9c1.8,9.2,2.8,18.4,3.1,27.8L400.6,676.6z M571.2,602.4v-9.6h-26.5V543 c1.9-0.3,2.7-0.9,2.8-2l-12.6-0.9v52.6h-27.8v9.6h25.6c-6.1,17.2-17.5,36.6-27.6,47.1c2.2,3,4,6.2,5.4,9.6 c8.6-9.4,17.6-25.5,24.3-41.2v61.5h9.8v-59.4c6.6,6.8,15.4,16.5,18.6,21.1l6.2-8.2c-3.6-3.8-19.5-18.9-24.8-23.1v-7.3L571.2,602.4 L571.2,602.4z M575.8,596.2c9.5,6.5,20.2,16,25.4,22.7c0.8-0.8,1.3-1.5,7.3-6.3c-5.2-6.6-16.2-15.9-25.6-22L575.8,596.2z M508.5,552.9c4.7,10.2,8.7,23.7,10,32.4l8.6-2.4c-1.4-8.7-5.7-22.1-10.7-32.2L508.5,552.9z M644.2,626.1l-18.9,3.3v-85.9 c2.1-0.3,2.9-1.1,3-2.1l-12.9-0.9v90.8l-45.5,7.9l1.8,9.5l43.7-7.8v38.7h9.9V639l20.5-3.6L644.2,626.1z M561.9,549.9 c-3.2,11.6-7.5,22.9-12.6,33.8c1.5,0.4,5.4,2.2,7.1,2.8c4.6-8.4,10.5-22,13.9-31.2c1.2,0.1,2.4-0.5,3-1.5L561.9,549.9z M579.6,556 c8.7,6.5,18.5,15.9,22.8,22.5l7.5-6c-4.5-6.5-14.4-15.6-23.1-21.9L579.6,556z"/> <path class="st3" d="M374,539.7l12.3,4.4l-0.1,0.3c-0.5,1-1.6,1.5-2.6,1.4c-0.2,0-0.5,0-0.7-0.1c-2.1,4.1-4.4,8.1-7,11.9H473v9.7 h-16v26.5h21.9v9.7H457v26.8h19.6v9.6H345v-9.6h19v-26.8h-21.3v-9.7H364V573c-4.5,5.2-9.4,10-14.7,14.4l-0.2,0.2l-0.2-0.2 c-2.3-2.3-4.8-4.4-7.5-6.3l-0.3-0.2l0.3-0.2c6.7-5.2,12.7-11.2,17.9-17.9c5.6-7,10.5-14.7,14.4-22.8L374,539.7z M385.6,544.3 l-11.4-4c-3.9,8.1-8.7,15.7-14.3,22.7c-5.2,6.6-11.2,12.6-17.8,17.8c2.5,1.8,4.9,3.8,7.1,6c5.4-4.5,10.4-9.4,14.9-14.7l0.4-0.5 v22.7h-21.3v8.7h21.3v27.8h-19v8.6h130.6v-8.6h-19.7V603h21.9v-8.7h-21.9v-27.5h16.1v-8.7h-97.7l0.3-0.4c2.7-4,5.1-8.1,7.3-12.4 l0.1-0.2h0.2c0.3,0,0.6,0.1,0.8,0.1C384.3,545.3,385.1,545,385.6,544.3L385.6,544.3z M534.6,539.9l13.1,0.9v0.3 c-0.2,1.2-1,1.8-2.8,2.1v49.3h26.5v10.1h-26.5v7c5.4,4.4,21.3,19.5,24.7,23l0.1,0.2l-6.5,8.7l-0.2-0.3c-3-4.4-11.3-13.7-18.1-20.7 v59h-10.2V619c-3.3,7.5-6.9,14.8-11,21.9c-3.7,6.5-8,12.7-12.9,18.3l-0.3,0.3l-0.1-0.4c-1.4-3.4-3.2-6.6-5.4-9.5l-0.1-0.2l0.1-0.2 c10.1-10.5,21.3-29.7,27.4-46.7h-25.5v-10.1h27.8L534.6,539.9z M547.2,541.3l-12-0.9V593h-27.7v9.1h25.8l-0.1,0.3 c-6.1,17.1-17.4,36.4-27.5,47c2,2.8,3.8,5.9,5.2,9.1c4.8-5.5,8.9-11.5,12.5-17.9c4.3-7.4,8.1-15.1,11.5-23l0.5,0.1v61.2h9.2v-59.8 l0.4,0.4c6.8,6.9,15.2,16.2,18.4,20.9l5.8-7.8c-3.7-3.8-19.3-18.7-24.6-22.9l-0.1-0.1v-7.7H571V593h-26.5v-50.3h0.2 C546.4,542.5,547,542,547.2,541.3L547.2,541.3z M615.2,540.2l13.4,0.9v0.3c-0.2,1.2-1.1,2-3,2.3v85.4l18.9-3.3l1.7,9.8l-20.6,3.6 v40.5h-10.4V641l-43.6,7.8l-1.9-9.9l45.5-8L615.2,540.2z M628,541.6l-12.3-0.9v90.7l-45.4,7.9l1.7,9l43.7-7.8v38.7h9.4v-40.5 l20.5-3.6l-1.6-8.8l-18.9,3.3v-86.5h0.2C627.3,542.9,627.9,542.2,628,541.6L628,541.6z M561.7,549.6l11.9,4.1l-0.1,0.3 c-0.6,1.1-1.8,1.7-3,1.6c-3.4,9.1-9.2,22.6-13.9,31.1l-0.1,0.2l-0.2-0.1c-0.7-0.3-1.8-0.7-3-1.2c-1.6-0.7-3.2-1.4-4.1-1.6l-0.3-0.1 l0.1-0.3c5.1-10.9,9.3-22.1,12.6-33.7L561.7,549.6z M572.9,553.9l-10.9-3.7c-3.2,11.4-7.4,22.5-12.4,33.3c0.9,0.3,2.4,0.9,3.8,1.6 c1.1,0.4,2.1,0.9,2.7,1.1c4.7-8.5,10.4-22,13.8-31l0.1-0.2h0.2C571.3,555.1,572.3,554.7,572.9,553.9L572.9,553.9z M586.8,550.3 L586.8,550.3c4.7,3.5,9.1,7.1,13.2,11c3.7,3.3,7,7,10,11l0.1,0.2l-7.9,6.3l-0.2-0.2c-4.2-6.3-13.7-15.8-22.7-22.4L579,556 L586.8,550.3z M609.6,572.5c-2.9-3.9-6.2-7.5-9.8-10.8c-4.1-3.8-8.4-7.4-13-10.8L580,556c4.5,3.4,8.8,7.1,12.8,11 c3.6,3.4,6.8,7.1,9.7,11.1L609.6,572.5z M516.6,550.3l0.1,0.2c2.6,5.4,4.8,11,6.7,16.7c1.7,5.1,3.1,10.3,4,15.6v0.2l-9,2.5v-0.3 c-0.9-5.3-2.2-10.5-3.8-15.6c-1.7-5.7-3.8-11.3-6.3-16.7l-0.1-0.3L516.6,550.3z M526.8,582.7c-0.9-5.2-2.2-10.3-3.9-15.3 c-1.8-5.6-4-11.1-6.6-16.5l-7.5,2.1c2.4,5.4,4.4,10.9,6.2,16.5c1.6,5,2.8,10.2,3.8,15.4L526.8,582.7z M373.4,566.7h18.5v27.5h-18.5 V566.7z M391.4,567.2h-17.5v26.5h17.5V567.2z M400.2,566.7h19.2v27.5h-19.2V566.7z M419,567.2h-18.2v26.5H419V567.2z M427.8,566.7 h19.7v27.5h-19.7V566.7z M447,567.2h-18.7v26.5H447V567.2z M582.9,590.2l0.2,0.1c9.8,6.4,20.6,15.6,25.7,22.1l0.2,0.2l-0.2,0.2 c-2.5,1.9-4.9,3.9-7.1,6.1l-0.2,0.2l-0.2,0.2L601,619c-3.3-4.1-7-7.9-11-11.3c-4.5-4-9.3-7.8-14.3-11.2l-0.3-0.2L582.9,590.2z M608.2,612.6c-5.1-6.4-15.7-15.4-25.3-21.7l-6.6,5.4c4.9,3.4,9.6,7.1,14.1,11.1c3.9,3.4,7.6,7.2,10.9,11.2l0,0 C603.4,616.4,605.8,614.4,608.2,612.6z M373.4,602.9h18.5v27.8h-18.5V602.9z M391.4,603.4h-17.5v26.8h17.5V603.4z M400.2,602.9 h19.2v27.8h-19.2V602.9z M419,603.4h-18.2v26.8H419V603.4z M427.8,602.9h19.7v27.8h-19.7V602.9z M447,603.4h-18.7v26.8H447V603.4z M459.4,645.7l0.1,0.1c3.9,4.6,8.1,10.1,11.8,15.4c3.4,4.7,6.4,9.6,9,14.7l0.1,0.2L470,680l-0.1-0.2c-2.5-5.1-5.4-10-8.6-14.7 c-3.7-5.5-7.8-11-11.6-15.7l-0.2-0.3L459.4,645.7z M479.8,675.9c-2.6-5-5.6-9.8-8.9-14.4c-3.7-5.2-7.8-10.6-11.7-15.2l-8.8,3.1 c3.7,4.6,7.8,10,11.4,15.4c3.2,4.7,6.1,9.5,8.6,14.6L479.8,675.9z M361,646.3l9.9,2.7l-0.1,0.3c-2,5.9-4.7,11.5-8,16.8 c-3.1,5.1-6.9,9.8-11.4,13.8l-0.1,0.1l-9.8-4.3l0.3-0.3c4.4-3.6,8.1-7.8,11.1-12.6c3.3-5.1,6-10.5,8-16.2L361,646.3z M370.3,649.4 l-9-2.4c-2,5.7-4.7,11.1-8,16.1c-3,4.7-6.6,8.9-10.9,12.5l8.8,3.8c4.4-3.9,8.2-8.5,11.2-13.5C365.7,660.6,368.3,655.1,370.3,649.4 L370.3,649.4z M428.2,648.3l0.1,0.2c4.1,8.6,8.4,20.4,9.9,27.5l0.1,0.2l-10.4,2.4v-0.3c-1.3-7.1-5.3-18.8-9.4-27.8l-0.1-0.3 L428.2,648.3z M437.7,675.9c-1.5-7-5.7-18.5-9.7-27l-8.9,1.7c4.1,8.9,7.9,20.3,9.3,27.4L437.7,675.9z M396.9,649.2v0.2 c2.1,8.8,3.8,20.4,3.9,27.2v0.2l-10.4,1.6v-0.3c-0.3-9.3-1.4-18.6-3.1-27.7l-0.1-0.3L396.9,649.2z M400.4,676.4 c-0.5-9-1.8-17.9-3.8-26.7l-8.7,0.9c1.7,9,2.7,18.1,3.1,27.2L400.4,676.4z"/> <path class="st2" d="M658.8,633.8v4.8h34.3v32.1c0,1.5-0.2,1.5-4.2,1.5c-1.9,0-4.3-0.1-6.6-0.2c0.9,1.6,1.6,3.3,2,5.1 c11.2,0,13.8-0.5,13.8-6.3v-32.2h6v-4.8L658.8,633.8L658.8,633.8z M684.7,645.3h-21.2v23.2h4.6v-4h16.6L684.7,645.3L684.7,645.3z M680.1,659.9h-12v-10.2h12V659.9z M711.1,649.4v27.9h4.4v-9.2h9.4v4c0,0.9-0.2,0.9-2.2,0.9c-1,0-2.2,0-3.4-0.1 c0.7,1.3,1.3,2.8,1.6,4.3c7.1,0,8.8-0.9,8.8-5v-22.8L711.1,649.4z M724.9,656.9h-9.4v-3.6h9.4V656.9z M715.5,660.6h9.4v3.9h-9.4 V660.6z M741.1,648.5c-2.2,0-2.5-0.2-2.5-2v-4.2c4.4-1.2,8.7-2.8,12.8-4.6c0.8,0,0.9,0,1.1-0.2l-3.3-3.7c-3.4,1.8-7,3.3-10.6,4.5 v-6.7c0.8-0.2,1.1-0.4,1.2-0.9l-5.9-0.3v16.1c0,4.8,1.3,6.2,6.7,6.2h7.9c4.4,0,5.7-1.7,6.2-8c-1.5-0.3-3-0.9-4.2-1.8 c-0.2,4.8-0.5,5.5-2.3,5.5h-7.1V648.5z M738.6,665.5c4.8-1.5,10.2-3.2,13.5-5.1c0.4,0.1,0.8,0,1.1-0.2l-3.4-3.8 c-3.5,2.1-7.3,3.8-11.1,5.1v-6.3c0.8-0.2,1.1-0.5,1.2-0.9L734,654v16.6c0,4.8,1.4,6.2,6.8,6.2h8.2c4.5,0,5.8-1.9,6.4-8.8 c-1.5-0.4-2.9-1-4.2-1.8c-0.2,5.5-0.5,6.5-2.5,6.5h-7.2c-2.2,0-2.6-0.3-2.6-2v-5.2H738.6z M716.2,630.2c-1.2,3.9-2.8,7.7-4.6,11.3 l-4,0.1l1.5,5.2c0.4,0,0.7-0.3,0.8-0.7c4.5-0.3,11.2-0.7,18-1.2c0.4,0.9,0.8,1.8,1.1,2.8l4.2-1.9c-1-3.2-3.9-7.9-6.5-11.4l-4,1.7 c1,1.5,2.2,3.2,3.1,4.9c-3.2,0.2-6.4,0.2-9.3,0.4c1.5-3,2.9-6,4-9.1c0.5,0,1-0.2,1.2-0.6L716.2,630.2z M773,661l1-26.5h-6.3l1,26.5 H773z M794.1,661l1-26.5h-6.3l1,26.5H794.1z M770.7,673.1c2.1,0,3.8-1.8,3.8-3.9c0-2.1-1.7-3.8-3.8-3.8l0,0c-2.1,0-3.8,1.7-3.8,3.8 c0,0,0,0,0,0.1C766.9,671.3,768.6,673.1,770.7,673.1L770.7,673.1z M791.9,673.1c2.1-0.1,3.8-1.8,3.8-3.9c0-2.1-1.7-3.8-3.7-3.8l0,0 c-2.1,0-3.8,1.7-3.8,3.8l0,0C788.1,671.4,789.8,673.1,791.9,673.1z"/> </g> </svg> 